<svg xmlns="http://www.w3.org/2000/svg" xmlns:xlink="http://www.w3.org/1999/xlink" width="100" zoomAndPan="magnify" viewBox="0 0 75 74.999997" height="100" preserveAspectRatio="xMidYMid meet" version="1.0"><defs><clipPath id="id1"><path d="M 14.042969 14.042969 L 61 14.042969 L 61 61 L 14.042969 61 Z M 14.042969 14.042969 " clip-rule="nonzero"/></clipPath><clipPath id="id2"><path d="M 14.042969 14.042969 L 61.292969 14.042969 L 61.292969 61.292969 L 14.042969 61.292969 Z M 14.042969 14.042969 " clip-rule="nonzero"/></clipPath></defs><path fill="#ffecb3" d="M 37.5 0 C 16.789062 0 0 16.789062 0 37.5 C 0 58.210938 16.789062 75 37.5 75 C 58.210938 75 75 58.210938 75 37.5 C 75 16.789062 58.210938 0 37.5 0 " fill-opacity="1" fill-rule="nonzero"/><g clip-path="url(#id1)"><path fill="#c2e6f9" d="M 60.917969 37.667969 C 60.917969 38.429688 60.878906 39.1875 60.804688 39.945312 C 60.730469 40.703125 60.617188 41.457031 60.46875 42.203125 C 60.320312 42.949219 60.136719 43.6875 59.917969 44.417969 C 59.695312 45.144531 59.4375 45.859375 59.148438 46.566406 C 58.855469 47.269531 58.53125 47.957031 58.171875 48.628906 C 57.8125 49.296875 57.421875 49.949219 57 50.585938 C 56.574219 51.21875 56.121094 51.828125 55.640625 52.417969 C 55.15625 53.003906 54.644531 53.570312 54.105469 54.105469 C 53.570312 54.644531 53.003906 55.15625 52.417969 55.640625 C 51.828125 56.121094 51.21875 56.574219 50.585938 57 C 49.949219 57.421875 49.296875 57.8125 48.628906 58.171875 C 47.957031 58.53125 47.269531 58.855469 46.566406 59.148438 C 45.859375 59.4375 45.144531 59.695312 44.417969 59.917969 C 43.6875 60.136719 42.949219 60.320312 42.203125 60.46875 C 41.457031 60.617188 40.703125 60.730469 39.945312 60.804688 C 39.1875 60.878906 38.429688 60.917969 37.667969 60.917969 C 36.90625 60.917969 36.144531 60.878906 35.386719 60.804688 C 34.628906 60.730469 33.878906 60.617188 33.132812 60.46875 C 32.382812 60.320312 31.648438 60.136719 30.917969 59.917969 C 30.1875 59.695312 29.472656 59.4375 28.769531 59.148438 C 28.066406 58.855469 27.378906 58.53125 26.707031 58.171875 C 26.035156 57.8125 25.382812 57.421875 24.75 57 C 24.117188 56.574219 23.507812 56.121094 22.917969 55.640625 C 22.328125 55.15625 21.765625 54.644531 21.226562 54.105469 C 20.6875 53.570312 20.179688 53.003906 19.695312 52.417969 C 19.210938 51.828125 18.757812 51.21875 18.335938 50.585938 C 17.914062 49.949219 17.519531 49.296875 17.164062 48.628906 C 16.804688 47.957031 16.476562 47.269531 16.1875 46.566406 C 15.894531 45.859375 15.640625 45.144531 15.417969 44.417969 C 15.199219 43.6875 15.011719 42.949219 14.863281 42.203125 C 14.714844 41.457031 14.605469 40.703125 14.527344 39.945312 C 14.453125 39.1875 14.417969 38.429688 14.417969 37.667969 C 14.417969 36.90625 14.453125 36.144531 14.527344 35.386719 C 14.605469 34.628906 14.714844 33.878906 14.863281 33.132812 C 15.011719 32.382812 15.199219 31.648438 15.417969 30.917969 C 15.640625 30.1875 15.894531 29.472656 16.1875 28.769531 C 16.476562 28.066406 16.804688 27.378906 17.164062 26.707031 C 17.519531 26.035156 17.914062 25.382812 18.335938 24.75 C 18.757812 24.117188 19.210938 23.507812 19.695312 22.917969 C 20.179688 22.328125 20.6875 21.765625 21.226562 21.226562 C 21.765625 20.6875 22.328125 20.179688 22.917969 19.695312 C 23.507812 19.210938 24.117188 18.757812 24.75 18.335938 C 25.382812 17.914062 26.035156 17.519531 26.707031 17.164062 C 27.378906 16.804688 28.066406 16.476562 28.769531 16.1875 C 29.472656 15.894531 30.1875 15.640625 30.917969 15.417969 C 31.648438 15.195312 32.382812 15.011719 33.132812 14.863281 C 33.878906 14.714844 34.628906 14.605469 35.386719 14.527344 C 36.144531 14.453125 36.90625 14.417969 37.667969 14.417969 C 38.429688 14.417969 39.1875 14.453125 39.945312 14.527344 C 40.703125 14.605469 41.457031 14.714844 42.203125 14.863281 C 42.949219 15.011719 43.6875 15.195312 44.417969 15.417969 C 45.144531 15.640625 45.859375 15.894531 46.566406 16.1875 C 47.269531 16.476562 47.957031 16.804688 48.628906 17.164062 C 49.296875 17.519531 49.949219 17.914062 50.585938 18.335938 C 51.21875 18.757812 51.828125 19.210938 52.417969 19.695312 C 53.003906 20.179688 53.570312 20.6875 54.105469 21.226562 C 54.644531 21.765625 55.15625 22.328125 55.640625 22.917969 C 56.121094 23.507812 56.574219 24.117188 57 24.75 C 57.421875 25.382812 57.8125 26.035156 58.171875 26.707031 C 58.53125 27.378906 58.855469 28.066406 59.148438 28.769531 C 59.4375 29.472656 59.695312 30.1875 59.917969 30.917969 C 60.136719 31.648438 60.320312 32.382812 60.46875 33.132812 C 60.617188 33.878906 60.730469 34.628906 60.804688 35.386719 C 60.878906 36.144531 60.917969 36.90625 60.917969 37.667969 Z M 60.917969 37.667969 " fill-opacity="1" fill-rule="nonzero"/></g><path fill="#6fceae" d="M 45.175781 26.023438 C 45.800781 26.023438 46.3125 26.535156 46.3125 27.160156 C 46.3125 27.785156 45.800781 28.292969 45.175781 28.292969 C 44.546875 28.292969 44.042969 27.785156 44.042969 27.160156 C 44.042969 26.535156 44.546875 26.023438 45.175781 26.023438 Z M 45.175781 26.023438 " fill-opacity="1" fill-rule="nonzero"/><path fill="#6fceae" d="M 51.277344 28.027344 C 51.902344 28.027344 52.414062 28.535156 52.414062 29.164062 C 52.414062 29.789062 51.902344 30.292969 51.277344 30.292969 C 50.648438 30.292969 50.144531 29.789062 50.144531 29.164062 C 50.144531 28.535156 50.648438 28.027344 51.277344 28.027344 Z M 51.277344 28.027344 " fill-opacity="1" fill-rule="nonzero"/><path fill="#8bcb8f" d="M 30.292969 21.789062 C 30.921875 21.789062 31.429688 22.296875 31.429688 22.921875 C 31.429688 23.546875 30.921875 24.058594 30.292969 24.058594 C 29.667969 24.058594 29.164062 23.546875 29.164062 22.921875 C 29.164062 22.296875 29.667969 21.789062 30.292969 21.789062 Z M 30.292969 21.789062 " fill-opacity="1" fill-rule="nonzero"/><path fill="#5cc096" d="M 45.039062 50.710938 C 45.976562 50.710938 46.742188 51.472656 46.742188 52.414062 C 46.742188 53.351562 45.976562 54.109375 45.039062 54.109375 C 44.097656 54.109375 43.335938 53.351562 43.335938 52.414062 C 43.335938 51.472656 44.097656 50.710938 45.039062 50.710938 Z M 45.039062 50.710938 " fill-opacity="1" fill-rule="nonzero"/><path fill="#5cc096" d="M 39.371094 50.144531 C 39.996094 50.144531 40.503906 50.648438 40.503906 51.277344 C 40.503906 51.902344 39.996094 52.414062 39.371094 52.414062 C 38.742188 52.414062 38.234375 51.902344 38.234375 51.277344 C 38.234375 50.648438 38.742188 50.144531 39.371094 50.144531 Z M 39.371094 50.144531 " fill-opacity="1" fill-rule="nonzero"/><path fill="#6fceae" d="M 29.726562 43.902344 C 30.355469 43.902344 30.859375 44.414062 30.859375 45.039062 C 30.859375 45.664062 30.355469 46.171875 29.726562 46.171875 C 29.101562 46.171875 28.59375 45.664062 28.59375 45.039062 C 28.59375 44.414062 29.101562 43.902344 29.726562 43.902344 Z M 29.726562 43.902344 " fill-opacity="1" fill-rule="nonzero"/><path fill="#8bcb8f" d="M 21.222656 38.800781 C 21.851562 38.800781 22.355469 39.308594 22.355469 39.9375 C 22.355469 40.5625 21.851562 41.070312 21.222656 41.070312 C 20.597656 41.070312 20.085938 40.5625 20.085938 39.9375 C 20.085938 39.308594 20.597656 38.800781 21.222656 38.800781 Z M 21.222656 38.800781 " fill-opacity="1" fill-rule="nonzero"/><path fill="#65b39f" d="M 55.246094 35.398438 C 55.875 35.398438 56.378906 35.910156 56.378906 36.535156 C 56.378906 37.160156 55.875 37.667969 55.246094 37.667969 C 54.621094 37.667969 54.109375 37.160156 54.109375 36.535156 C 54.109375 35.910156 54.621094 35.398438 55.246094 35.398438 Z M 55.246094 35.398438 " fill-opacity="1" fill-rule="nonzero"/><path fill="#65b39f" d="M 24.058594 29.164062 C 24.996094 29.164062 25.757812 29.921875 25.757812 30.859375 C 25.757812 31.800781 24.996094 32.5625 24.058594 32.5625 C 23.117188 32.5625 22.355469 31.800781 22.355469 30.859375 C 22.355469 29.921875 23.117188 29.164062 24.058594 29.164062 Z M 24.058594 29.164062 " fill-opacity="1" fill-rule="nonzero"/><path fill="#fcbd72" d="M 34.636719 29.933594 C 34.558594 30.003906 34.476562 30.074219 34.390625 30.152344 C 34.3125 30.21875 34.226562 30.292969 34.140625 30.378906 C 34.222656 30.300781 34.304688 30.226562 34.390625 30.152344 C 34.46875 30.082031 34.550781 30.007812 34.636719 29.933594 Z M 37.167969 34.746094 C 36.058594 36.183594 35.398438 37.976562 35.398438 39.9375 C 35.398438 44.632812 39.207031 48.441406 43.902344 48.441406 C 48.601562 48.441406 52.414062 44.632812 52.414062 39.9375 C 52.414062 35.238281 48.601562 31.429688 43.902344 31.429688 C 41.164062 31.429688 38.722656 32.726562 37.167969 34.746094 Z M 34.738281 29.851562 C 34.839844 29.765625 34.941406 29.6875 35.03125 29.617188 C 34.929688 29.691406 34.832031 29.773438 34.738281 29.851562 Z M 35.613281 29.183594 C 35.730469 29.097656 35.867188 29.007812 36.007812 28.914062 C 35.878906 29 35.742188 29.089844 35.613281 29.183594 Z M 38.417969 27.667969 C 38.332031 27.703125 38.25 27.738281 38.167969 27.769531 C 38.074219 27.808594 37.980469 27.851562 37.890625 27.890625 C 37.984375 27.851562 38.074219 27.808594 38.167969 27.769531 C 38.253906 27.738281 38.335938 27.703125 38.417969 27.667969 Z M 37.667969 17.253906 C 48.945312 17.253906 58.082031 26.390625 58.082031 37.667969 C 58.082031 48.945312 48.945312 58.082031 37.667969 58.082031 C 26.390625 58.082031 17.253906 48.945312 17.253906 37.667969 C 17.253906 26.390625 26.390625 17.253906 37.667969 17.253906 Z M 56.378906 36.535156 C 56.378906 35.910156 55.875 35.398438 55.246094 35.398438 C 54.621094 35.398438 54.109375 35.910156 54.109375 36.535156 C 54.109375 37.160156 54.621094 37.667969 55.246094 37.667969 C 55.875 37.667969 56.378906 37.160156 56.378906 36.535156 Z M 52.414062 29.164062 C 52.414062 28.535156 51.902344 28.027344 51.277344 28.027344 C 50.648438 28.027344 50.144531 28.535156 50.144531 29.164062 C 50.144531 29.789062 50.648438 30.292969 51.277344 30.292969 C 51.902344 30.292969 52.414062 29.789062 52.414062 29.164062 Z M 46.742188 52.414062 C 46.742188 51.472656 45.976562 50.710938 45.039062 50.710938 C 44.097656 50.710938 43.335938 51.472656 43.335938 52.414062 C 43.335938 53.351562 44.097656 54.109375 45.039062 54.109375 C 45.976562 54.109375 46.742188 53.351562 46.742188 52.414062 Z M 46.3125 27.160156 C 46.3125 26.535156 45.800781 26.023438 45.175781 26.023438 C 44.546875 26.023438 44.042969 26.535156 44.042969 27.160156 C 44.042969 27.785156 44.546875 28.292969 45.175781 28.292969 C 45.800781 28.292969 46.3125 27.785156 46.3125 27.160156 Z M 45.007812 22.078125 C 45.234375 21.28125 44.125 20.265625 42.527344 19.8125 C 40.925781 19.363281 39.449219 19.644531 39.222656 20.445312 C 39 21.242188 40.109375 22.253906 41.707031 22.707031 C 43.308594 23.160156 44.785156 22.878906 45.007812 22.078125 Z M 40.503906 51.277344 C 40.503906 50.648438 39.996094 50.144531 39.371094 50.144531 C 38.742188 50.144531 38.234375 50.648438 38.234375 51.277344 C 38.234375 51.902344 38.742188 52.414062 39.371094 52.414062 C 39.996094 52.414062 40.503906 51.902344 40.503906 51.277344 Z M 36.105469 54.003906 C 36.457031 53.132812 35.328125 51.855469 33.582031 51.15625 C 31.839844 50.453125 30.140625 50.59375 29.792969 51.46875 C 29.445312 52.335938 30.570312 53.613281 32.316406 54.3125 C 34.058594 55.015625 35.757812 54.875 36.105469 54.003906 Z M 31.429688 22.921875 C 31.429688 22.296875 30.921875 21.789062 30.292969 21.789062 C 29.667969 21.789062 29.164062 22.296875 29.164062 22.921875 C 29.164062 23.546875 29.667969 24.058594 30.292969 24.058594 C 30.921875 24.058594 31.429688 23.546875 31.429688 22.921875 Z M 30.859375 45.039062 C 30.859375 44.414062 30.355469 43.902344 29.726562 43.902344 C 29.101562 43.902344 28.59375 44.414062 28.59375 45.039062 C 28.59375 45.664062 29.101562 46.171875 29.726562 46.171875 C 30.355469 46.171875 30.859375 45.664062 30.859375 45.039062 Z M 27.984375 41.988281 C 28.886719 41.730469 29.210938 40.058594 28.707031 38.253906 C 28.203125 36.441406 27.058594 35.175781 26.15625 35.433594 C 25.246094 35.683594 24.925781 37.355469 25.429688 39.167969 C 25.933594 40.976562 27.078125 42.238281 27.984375 41.988281 Z M 28.027344 49.578125 C 28.027344 48.636719 27.265625 47.875 26.328125 47.875 C 25.386719 47.875 24.625 48.636719 24.625 49.578125 C 24.625 50.515625 25.386719 51.277344 26.328125 51.277344 C 27.265625 51.277344 28.027344 50.515625 28.027344 49.578125 Z M 25.757812 30.859375 C 25.757812 29.921875 24.996094 29.164062 24.058594 29.164062 C 23.117188 29.164062 22.355469 29.921875 22.355469 30.859375 C 22.355469 31.800781 23.117188 32.5625 24.058594 32.5625 C 24.996094 32.5625 25.757812 31.800781 25.757812 30.859375 Z M 22.355469 39.9375 C 22.355469 39.308594 21.851562 38.800781 21.222656 38.800781 C 20.597656 38.800781 20.085938 39.308594 20.085938 39.9375 C 20.085938 40.5625 20.597656 41.070312 21.222656 41.070312 C 21.851562 41.070312 22.355469 40.5625 22.355469 39.9375 Z M 22.355469 39.9375 " fill-opacity="1" fill-rule="nonzero"/><path fill="#e15c63" d="M 43.902344 31.429688 C 48.601562 31.429688 52.414062 35.238281 52.414062 39.9375 C 52.414062 44.632812 48.601562 48.441406 43.902344 48.441406 C 39.207031 48.441406 35.398438 44.632812 35.398438 39.9375 C 35.398438 37.976562 36.058594 36.183594 37.167969 34.746094 C 38.722656 32.726562 41.164062 31.429688 43.902344 31.429688 Z M 49.007812 42.769531 C 49.007812 41.828125 48.246094 41.070312 47.308594 41.070312 C 46.367188 41.070312 45.605469 41.828125 45.605469 42.769531 C 45.605469 43.710938 46.367188 44.472656 47.308594 44.472656 C 48.246094 44.472656 49.007812 43.710938 49.007812 42.769531 Z M 49.007812 42.769531 " fill-opacity="1" fill-rule="nonzero"/><path fill="#f6a7b7" d="M 47.308594 41.070312 C 48.246094 41.070312 49.007812 41.828125 49.007812 42.769531 C 49.007812 43.710938 48.246094 44.472656 47.308594 44.472656 C 46.367188 44.472656 45.605469 43.710938 45.605469 42.769531 C 45.605469 41.828125 46.367188 41.070312 47.308594 41.070312 Z M 47.308594 41.070312 " fill-opacity="1" fill-rule="nonzero"/><path fill="#2e6977" d="M 42.527344 19.8125 C 44.125 20.265625 45.234375 21.28125 45.007812 22.078125 C 44.785156 22.878906 43.308594 23.160156 41.707031 22.707031 C 40.109375 22.253906 39 21.242188 39.222656 20.445312 C 39.449219 19.644531 40.925781 19.363281 42.527344 19.8125 Z M 42.527344 19.8125 " fill-opacity="1" fill-rule="nonzero"/><path fill="#2e6977" d="M 33.582031 51.15625 C 35.328125 51.855469 36.457031 53.132812 36.105469 54.003906 C 35.757812 54.875 34.058594 55.015625 32.316406 54.3125 C 30.570312 53.613281 29.445312 52.335938 29.792969 51.46875 C 30.140625 50.59375 31.839844 50.453125 33.582031 51.15625 Z M 33.582031 51.15625 " fill-opacity="1" fill-rule="nonzero"/><path fill="#2e6977" d="M 28.707031 38.253906 C 29.210938 40.058594 28.886719 41.730469 27.984375 41.988281 C 27.078125 42.238281 25.933594 40.976562 25.429688 39.167969 C 24.925781 37.355469 25.246094 35.683594 26.15625 35.433594 C 27.058594 35.175781 28.203125 36.441406 28.707031 38.253906 Z M 28.707031 38.253906 " fill-opacity="1" fill-rule="nonzero"/><path fill="#65b39f" d="M 26.328125 47.875 C 27.265625 47.875 28.027344 48.636719 28.027344 49.578125 C 28.027344 50.515625 27.265625 51.277344 26.328125 51.277344 C 25.386719 51.277344 24.625 50.515625 24.625 49.578125 C 24.625 48.636719 25.386719 47.875 26.328125 47.875 Z M 26.328125 47.875 " fill-opacity="1" fill-rule="nonzero"/><g clip-path="url(#id2)"><path fill="#3a322b" d="M 37.667969 14.042969 C 24.640625 14.042969 14.042969 24.640625 14.042969 37.667969 C 14.042969 50.695312 24.640625 61.292969 37.667969 61.292969 C 50.695312 61.292969 61.292969 50.695312 61.292969 37.667969 C 61.292969 24.640625 50.695312 14.042969 37.667969 14.042969 Z M 37.667969 60.542969 C 25.054688 60.542969 14.792969 50.28125 14.792969 37.667969 C 14.792969 25.054688 25.054688 14.792969 37.667969 14.792969 C 50.28125 14.792969 60.542969 25.054688 60.542969 37.667969 C 60.542969 50.28125 50.28125 60.542969 37.667969 60.542969 Z M 37.667969 60.542969 " fill-opacity="1" fill-rule="nonzero"/></g><path fill="#3a322b" d="M 37.667969 16.878906 C 26.203125 16.878906 16.878906 26.203125 16.878906 37.667969 C 16.878906 49.128906 26.203125 58.457031 37.667969 58.457031 C 49.128906 58.457031 58.457031 49.128906 58.457031 37.667969 C 58.457031 26.203125 49.128906 16.878906 37.667969 16.878906 Z M 37.667969 57.707031 C 26.617188 57.707031 17.628906 48.71875 17.628906 37.667969 C 17.628906 26.617188 26.617188 17.628906 37.667969 17.628906 C 48.71875 17.628906 57.707031 26.617188 57.707031 37.667969 C 57.707031 48.71875 48.71875 57.707031 37.667969 57.707031 Z M 37.667969 57.707031 " fill-opacity="1" fill-rule="nonzero"/><path fill="#3a322b" d="M 43.90625 31.054688 C 41.199219 31.054688 38.773438 32.273438 37.140625 34.1875 L 36.753906 33.796875 C 36.464844 33.511719 36.316406 33.113281 36.34375 32.707031 C 36.375 32.300781 36.578125 31.929688 36.914062 31.675781 C 38.21875 30.691406 39.683594 29.960938 41.265625 29.507812 C 41.734375 29.375 42.105469 29.019531 42.257812 28.558594 C 42.414062 28.09375 42.332031 27.585938 42.035156 27.195312 C 41.6875 26.730469 41.066406 26.523438 40.453125 26.65625 C 40.171875 26.714844 39.894531 26.789062 39.621094 26.867188 C 39.617188 26.867188 39.613281 26.867188 39.609375 26.867188 C 39.410156 26.925781 39.214844 26.984375 39.023438 27.050781 C 39.015625 27.054688 39.007812 27.054688 39 27.058594 C 38.765625 27.136719 38.53125 27.222656 38.304688 27.3125 C 38.285156 27.320312 38.269531 27.328125 38.25 27.335938 C 38.039062 27.417969 37.832031 27.507812 37.625 27.601562 C 37.597656 27.613281 37.574219 27.628906 37.546875 27.640625 C 37.351562 27.730469 37.160156 27.824219 36.96875 27.925781 C 36.9375 27.941406 36.902344 27.957031 36.871094 27.976562 C 36.691406 28.074219 36.511719 28.171875 36.335938 28.273438 C 36.296875 28.296875 36.257812 28.320312 36.21875 28.34375 C 36.050781 28.445312 35.882812 28.550781 35.722656 28.660156 C 35.679688 28.6875 35.636719 28.714844 35.597656 28.742188 C 35.398438 28.875 35.203125 29.011719 35.011719 29.15625 C 33.8125 30.0625 32.773438 31.148438 31.917969 32.386719 C 31.914062 32.390625 31.910156 32.398438 31.910156 32.402344 C 31.890625 32.425781 31.875 32.457031 31.855469 32.484375 C 31.753906 32.632812 31.652344 32.78125 31.558594 32.9375 C 31.425781 33.148438 31.207031 33.277344 30.957031 33.289062 C 30.710938 33.300781 30.492188 33.195312 30.347656 33 C 30.171875 32.769531 30.148438 32.46875 30.285156 32.214844 C 30.914062 31.027344 32.074219 29.300781 34.015625 27.835938 C 35.304688 26.863281 36.804688 26.113281 38.363281 25.667969 C 38.363281 25.667969 38.367188 25.667969 38.367188 25.667969 C 38.835938 25.535156 39.207031 25.179688 39.363281 24.71875 C 39.515625 24.253906 39.433594 23.746094 39.136719 23.355469 C 38.792969 22.894531 38.195312 22.679688 37.625 22.800781 C 35.640625 23.222656 33.734375 24.09375 32.113281 25.316406 C 29.804688 27.058594 28.515625 29.152344 27.84375 30.601562 C 27.757812 30.789062 27.839844 31.011719 28.027344 31.097656 C 28.078125 31.121094 28.132812 31.132812 28.183594 31.132812 C 28.328125 31.132812 28.460938 31.054688 28.527344 30.917969 C 29.160156 29.546875 30.378906 27.566406 32.566406 25.914062 C 34.097656 24.757812 35.902344 23.933594 37.78125 23.53125 C 38.070312 23.472656 38.367188 23.578125 38.539062 23.804688 C 38.6875 24 38.726562 24.246094 38.648438 24.480469 C 38.574219 24.710938 38.394531 24.878906 38.160156 24.945312 C 36.515625 25.417969 34.925781 26.207031 33.5625 27.234375 C 31.511719 28.785156 30.289062 30.605469 29.621094 31.863281 C 29.351562 32.371094 29.402344 32.992188 29.746094 33.453125 C 30.027344 33.824219 30.464844 34.039062 30.925781 34.039062 C 30.945312 34.039062 30.96875 34.039062 30.992188 34.039062 C 31.476562 34.015625 31.917969 33.757812 32.183594 33.347656 C 32.183594 33.347656 32.1875 33.34375 32.1875 33.34375 C 32.28125 33.191406 32.378906 33.046875 32.476562 32.902344 C 32.492188 32.875 32.507812 32.851562 32.527344 32.824219 C 32.53125 32.816406 32.539062 32.808594 32.546875 32.796875 C 33.347656 31.640625 34.347656 30.597656 35.464844 29.753906 C 35.644531 29.621094 35.828125 29.488281 36.015625 29.363281 C 36.058594 29.332031 36.101562 29.304688 36.144531 29.277344 C 36.292969 29.179688 36.445312 29.082031 36.601562 28.988281 C 36.640625 28.964844 36.683594 28.941406 36.726562 28.914062 C 36.886719 28.820312 37.050781 28.730469 37.214844 28.640625 C 37.25 28.621094 37.285156 28.601562 37.324219 28.585938 C 37.496094 28.492188 37.675781 28.40625 37.855469 28.324219 C 37.882812 28.308594 37.914062 28.292969 37.941406 28.28125 C 38.132812 28.195312 38.324219 28.113281 38.519531 28.035156 C 38.539062 28.027344 38.5625 28.015625 38.582031 28.007812 C 38.796875 27.921875 39.015625 27.84375 39.238281 27.769531 C 39.246094 27.765625 39.253906 27.765625 39.261719 27.761719 C 39.707031 27.613281 40.15625 27.488281 40.613281 27.386719 C 40.9375 27.316406 41.265625 27.421875 41.4375 27.644531 C 41.585938 27.839844 41.625 28.085938 41.546875 28.320312 C 41.472656 28.550781 41.292969 28.722656 41.058594 28.789062 C 39.386719 29.265625 37.839844 30.035156 36.449219 31.085938 C 35.953125 31.460938 35.640625 32.035156 35.597656 32.65625 C 35.554688 33.277344 35.78125 33.886719 36.222656 34.328125 L 36.675781 34.785156 C 35.636719 36.238281 35.023438 38.015625 35.023438 39.9375 C 35.023438 44.832031 39.007812 48.816406 43.90625 48.816406 C 48.800781 48.816406 52.785156 44.832031 52.785156 39.9375 C 52.785156 35.039062 48.800781 31.054688 43.90625 31.054688 Z M 43.90625 48.066406 C 39.421875 48.066406 35.773438 44.417969 35.773438 39.933594 C 35.773438 35.453125 39.421875 31.804688 43.90625 31.804688 C 48.386719 31.804688 52.035156 35.453125 52.035156 39.933594 C 52.035156 44.417969 48.386719 48.066406 43.90625 48.066406 Z M 43.90625 48.066406 " fill-opacity="1" fill-rule="nonzero"/><path fill="#3a322b" d="M 47.308594 40.695312 C 46.164062 40.695312 45.230469 41.625 45.230469 42.769531 C 45.230469 43.914062 46.164062 44.847656 47.308594 44.847656 C 48.453125 44.847656 49.382812 43.914062 49.382812 42.769531 C 49.382812 41.625 48.453125 40.695312 47.308594 40.695312 Z M 47.308594 44.097656 C 46.574219 44.097656 45.980469 43.5 45.980469 42.769531 C 45.980469 42.039062 46.574219 41.445312 47.308594 41.445312 C 48.039062 41.445312 48.632812 42.039062 48.632812 42.769531 C 48.632812 43.5 48.039062 44.097656 47.308594 44.097656 Z M 47.308594 44.097656 " fill-opacity="1" fill-rule="nonzero"/><path fill="#3a322b" d="M 21.222656 38.425781 C 20.390625 38.425781 19.714844 39.101562 19.714844 39.933594 C 19.714844 40.765625 20.390625 41.445312 21.222656 41.445312 C 22.054688 41.445312 22.730469 40.765625 22.730469 39.933594 C 22.730469 39.101562 22.054688 38.425781 21.222656 38.425781 Z M 21.222656 40.695312 C 20.804688 40.695312 20.464844 40.355469 20.464844 39.933594 C 20.464844 39.515625 20.804688 39.175781 21.222656 39.175781 C 21.640625 39.175781 21.980469 39.515625 21.980469 39.933594 C 21.980469 40.355469 21.640625 40.695312 21.222656 40.695312 Z M 21.222656 40.695312 " fill-opacity="1" fill-rule="nonzero"/><path fill="#3a322b" d="M 30.296875 24.433594 C 31.128906 24.433594 31.804688 23.753906 31.804688 22.921875 C 31.804688 22.089844 31.128906 21.414062 30.296875 21.414062 C 29.464844 21.414062 28.785156 22.089844 28.785156 22.921875 C 28.785156 23.753906 29.464844 24.433594 30.296875 24.433594 Z M 30.296875 22.164062 C 30.714844 22.164062 31.054688 22.503906 31.054688 22.921875 C 31.054688 23.339844 30.714844 23.683594 30.296875 23.683594 C 29.875 23.683594 29.535156 23.339844 29.535156 22.921875 C 29.535156 22.503906 29.875 22.164062 30.296875 22.164062 Z M 30.296875 22.164062 " fill-opacity="1" fill-rule="nonzero"/><path fill="#3a322b" d="M 51.277344 27.652344 C 50.445312 27.652344 49.769531 28.328125 49.769531 29.160156 C 49.769531 29.992188 50.445312 30.667969 51.277344 30.667969 C 52.109375 30.667969 52.785156 29.992188 52.785156 29.160156 C 52.785156 28.328125 52.109375 27.652344 51.277344 27.652344 Z M 51.277344 29.921875 C 50.859375 29.921875 50.519531 29.578125 50.519531 29.160156 C 50.519531 28.742188 50.859375 28.402344 51.277344 28.402344 C 51.695312 28.402344 52.035156 28.742188 52.035156 29.160156 C 52.035156 29.578125 51.695312 29.921875 51.277344 29.921875 Z M 51.277344 29.921875 " fill-opacity="1" fill-rule="nonzero"/><path fill="#3a322b" d="M 43.667969 27.15625 C 43.667969 27.992188 44.34375 28.667969 45.175781 28.667969 C 46.007812 28.667969 46.683594 27.992188 46.683594 27.15625 C 46.683594 26.324219 46.007812 25.648438 45.175781 25.648438 C 44.34375 25.648438 43.667969 26.324219 43.667969 27.15625 Z M 45.9375 27.15625 C 45.9375 27.578125 45.59375 27.917969 45.175781 27.917969 C 44.757812 27.917969 44.417969 27.578125 44.417969 27.15625 C 44.417969 26.738281 44.757812 26.398438 45.175781 26.398438 C 45.59375 26.398438 45.9375 26.738281 45.9375 27.15625 Z M 45.9375 27.15625 " fill-opacity="1" fill-rule="nonzero"/><path fill="#3a322b" d="M 55.246094 35.023438 C 54.414062 35.023438 53.738281 35.699219 53.738281 36.53125 C 53.738281 37.363281 54.414062 38.042969 55.246094 38.042969 C 56.078125 38.042969 56.753906 37.367188 56.753906 36.53125 C 56.753906 35.699219 56.078125 35.023438 55.246094 35.023438 Z M 55.246094 37.292969 C 54.828125 37.292969 54.488281 36.953125 54.488281 36.53125 C 54.488281 36.113281 54.828125 35.773438 55.246094 35.773438 C 55.664062 35.773438 56.003906 36.113281 56.003906 36.53125 C 56.003906 36.953125 55.664062 37.292969 55.246094 37.292969 Z M 55.246094 37.292969 " fill-opacity="1" fill-rule="nonzero"/><path fill="#3a322b" d="M 31.238281 45.039062 C 31.238281 44.207031 30.558594 43.53125 29.726562 43.53125 C 28.898438 43.53125 28.21875 44.207031 28.21875 45.039062 C 28.21875 45.871094 28.898438 46.546875 29.726562 46.546875 C 30.558594 46.546875 31.238281 45.871094 31.238281 45.039062 Z M 28.96875 45.039062 C 28.96875 44.621094 29.308594 44.28125 29.726562 44.28125 C 30.148438 44.28125 30.488281 44.621094 30.488281 45.039062 C 30.488281 45.457031 30.148438 45.796875 29.726562 45.796875 C 29.308594 45.796875 28.96875 45.457031 28.96875 45.039062 Z M 28.96875 45.039062 " fill-opacity="1" fill-rule="nonzero"/><path fill="#3a322b" d="M 39.367188 49.769531 C 38.535156 49.769531 37.859375 50.445312 37.859375 51.277344 C 37.859375 52.109375 38.535156 52.785156 39.367188 52.785156 C 40.199219 52.785156 40.878906 52.109375 40.878906 51.277344 C 40.878906 50.445312 40.199219 49.769531 39.367188 49.769531 Z M 39.367188 52.035156 C 38.949219 52.035156 38.609375 51.695312 38.609375 51.277344 C 38.609375 50.859375 38.949219 50.519531 39.367188 50.519531 C 39.785156 50.519531 40.128906 50.859375 40.128906 51.277344 C 40.128906 51.695312 39.785156 52.035156 39.367188 52.035156 Z M 39.367188 52.035156 " fill-opacity="1" fill-rule="nonzero"/><path fill="#3a322b" d="M 26.324219 47.5 C 25.179688 47.5 24.25 48.429688 24.25 49.574219 C 24.25 50.71875 25.179688 51.652344 26.324219 51.652344 C 27.46875 51.652344 28.402344 50.71875 28.402344 49.574219 C 28.402344 48.429688 27.46875 47.5 26.324219 47.5 Z M 26.324219 50.902344 C 25.59375 50.902344 25 50.308594 25 49.574219 C 25 48.84375 25.59375 48.25 26.324219 48.25 C 27.058594 48.25 27.652344 48.84375 27.652344 49.574219 C 27.652344 50.308594 27.058594 50.902344 26.324219 50.902344 Z M 26.324219 50.902344 " fill-opacity="1" fill-rule="nonzero"/><path fill="#3a322b" d="M 26.132812 30.863281 C 26.132812 29.71875 25.203125 28.785156 24.058594 28.785156 C 22.914062 28.785156 21.980469 29.71875 21.980469 30.863281 C 21.980469 32.007812 22.914062 32.9375 24.058594 32.9375 C 25.203125 32.9375 26.132812 32.007812 26.132812 30.863281 Z M 24.058594 32.1875 C 23.324219 32.1875 22.730469 31.59375 22.730469 30.863281 C 22.730469 30.128906 23.324219 29.535156 24.058594 29.535156 C 24.789062 29.535156 25.382812 30.128906 25.382812 30.863281 C 25.382812 31.59375 24.789062 32.1875 24.058594 32.1875 Z M 24.058594 32.1875 " fill-opacity="1" fill-rule="nonzero"/><path fill="#3a322b" d="M 45.039062 50.335938 C 43.894531 50.335938 42.964844 51.265625 42.964844 52.410156 C 42.964844 53.554688 43.894531 54.488281 45.039062 54.488281 C 46.183594 54.488281 47.117188 53.554688 47.117188 52.410156 C 47.117188 51.265625 46.183594 50.335938 45.039062 50.335938 Z M 45.039062 53.738281 C 44.308594 53.738281 43.714844 53.144531 43.714844 52.410156 C 43.714844 51.679688 44.308594 51.085938 45.039062 51.085938 C 45.769531 51.085938 46.367188 51.679688 46.367188 52.410156 C 46.367188 53.144531 45.769531 53.738281 45.039062 53.738281 Z M 45.039062 53.738281 " fill-opacity="1" fill-rule="nonzero"/><path fill="#3a322b" d="M 25.070312 39.265625 C 25.582031 41.109375 26.714844 42.390625 27.753906 42.390625 C 27.867188 42.390625 27.976562 42.378906 28.085938 42.347656 C 28.667969 42.183594 29.078125 41.625 29.242188 40.773438 C 29.390625 40.011719 29.328125 39.082031 29.066406 38.152344 C 28.808594 37.21875 28.378906 36.390625 27.859375 35.816406 C 27.273438 35.171875 26.632812 34.90625 26.054688 35.070312 C 24.933594 35.382812 24.5 37.226562 25.070312 39.265625 Z M 26.390625 35.773438 C 26.660156 35.773438 26.984375 35.964844 27.300781 36.320312 C 27.746094 36.808594 28.117188 37.53125 28.347656 38.351562 C 28.574219 39.171875 28.632812 39.980469 28.507812 40.628906 C 28.398438 41.179688 28.171875 41.542969 27.882812 41.625 C 27.28125 41.789062 26.269531 40.785156 25.792969 39.066406 C 25.3125 37.347656 25.652344 35.960938 26.253906 35.792969 C 26.296875 35.78125 26.34375 35.773438 26.390625 35.773438 Z M 26.390625 35.773438 " fill-opacity="1" fill-rule="nonzero"/><path fill="#3a322b" d="M 39.527344 21.984375 C 40.039062 22.449219 40.777344 22.835938 41.605469 23.070312 C 42.167969 23.226562 42.707031 23.304688 43.191406 23.304688 C 44.316406 23.304688 45.167969 22.898438 45.371094 22.179688 C 45.519531 21.652344 45.285156 21.066406 44.703125 20.539062 C 44.191406 20.074219 43.457031 19.6875 42.628906 19.453125 C 40.769531 18.929688 39.152344 19.3125 38.863281 20.339844 C 38.710938 20.871094 38.949219 21.453125 39.527344 21.984375 Z M 39.582031 20.546875 C 39.679688 20.207031 40.253906 19.976562 41.054688 19.976562 C 41.464844 19.976562 41.929688 20.035156 42.421875 20.175781 C 43.140625 20.378906 43.773438 20.703125 44.199219 21.09375 C 44.546875 21.410156 44.714844 21.742188 44.648438 21.976562 C 44.503906 22.488281 43.257812 22.757812 41.808594 22.347656 C 41.089844 22.144531 40.460938 21.816406 40.035156 21.429688 C 39.683594 21.109375 39.515625 20.78125 39.582031 20.546875 Z M 39.582031 20.546875 " fill-opacity="1" fill-rule="nonzero"/><path fill="#3a322b" d="M 33.722656 50.808594 C 32.828125 50.449219 31.910156 50.285156 31.132812 50.347656 C 30.269531 50.417969 29.667969 50.765625 29.445312 51.328125 C 29.21875 51.886719 29.410156 52.554688 29.988281 53.203125 C 30.503906 53.785156 31.277344 54.300781 32.175781 54.660156 C 32.964844 54.976562 33.738281 55.128906 34.410156 55.128906 C 35.417969 55.128906 36.195312 54.789062 36.453125 54.140625 C 36.890625 53.0625 35.6875 51.597656 33.722656 50.808594 Z M 35.757812 53.863281 C 35.523438 54.445312 34.109375 54.628906 32.453125 53.964844 C 30.800781 53.300781 29.90625 52.1875 30.140625 51.605469 C 30.269531 51.28125 30.765625 51.082031 31.464844 51.082031 C 32.023438 51.082031 32.707031 51.210938 33.441406 51.503906 C 35.097656 52.167969 35.992188 53.28125 35.757812 53.863281 Z M 35.757812 53.863281 " fill-opacity="1" fill-rule="nonzero"/></svg>