<svg xmlns="http://www.w3.org/2000/svg" xmlns:xlink="http://www.w3.org/1999/xlink" width="100" zoomAndPan="magnify" viewBox="0 0 75 74.999997" height="100" preserveAspectRatio="xMidYMid meet" version="1.0"><defs><clipPath id="id1"><path d="M 1 1 L 74.679688 1 L 74.679688 74.679688 L 1 74.679688 Z M 1 1 " clip-rule="nonzero"/></clipPath><clipPath id="id2"><path d="M 0.429688 0.429688 L 74.679688 0.429688 L 74.679688 74.679688 L 0.429688 74.679688 Z M 0.429688 0.429688 " clip-rule="nonzero"/></clipPath></defs><g clip-path="url(#id1)"><path fill="#c2e6f9" d="M 74.089844 37.554688 C 74.089844 38.75 74.03125 39.945312 73.914062 41.136719 C 73.796875 42.328125 73.621094 43.507812 73.386719 44.683594 C 73.15625 45.855469 72.863281 47.015625 72.515625 48.160156 C 72.167969 49.304688 71.765625 50.429688 71.308594 51.535156 C 70.851562 52.640625 70.339844 53.722656 69.777344 54.777344 C 69.210938 55.832031 68.597656 56.859375 67.933594 57.851562 C 67.269531 58.847656 66.554688 59.808594 65.796875 60.734375 C 65.039062 61.65625 64.234375 62.542969 63.390625 63.390625 C 62.542969 64.234375 61.65625 65.039062 60.734375 65.796875 C 59.808594 66.554688 58.847656 67.269531 57.851562 67.933594 C 56.859375 68.597656 55.832031 69.210938 54.777344 69.777344 C 53.722656 70.339844 52.640625 70.851562 51.535156 71.308594 C 50.429688 71.765625 49.304688 72.167969 48.160156 72.515625 C 47.015625 72.863281 45.855469 73.15625 44.683594 73.386719 C 43.507812 73.621094 42.328125 73.796875 41.136719 73.914062 C 39.945312 74.03125 38.75 74.089844 37.554688 74.089844 C 36.359375 74.089844 35.164062 74.03125 33.972656 73.914062 C 32.78125 73.796875 31.601562 73.621094 30.425781 73.386719 C 29.253906 73.15625 28.09375 72.863281 26.949219 72.515625 C 25.804688 72.167969 24.679688 71.765625 23.574219 71.308594 C 22.46875 70.851562 21.386719 70.339844 20.332031 69.777344 C 19.277344 69.210938 18.25 68.597656 17.257812 67.933594 C 16.261719 67.269531 15.300781 66.554688 14.375 65.796875 C 13.453125 65.039062 12.566406 64.234375 11.71875 63.390625 C 10.875 62.542969 10.070312 61.65625 9.3125 60.734375 C 8.554688 59.808594 7.839844 58.847656 7.175781 57.851562 C 6.511719 56.859375 5.898438 55.832031 5.332031 54.777344 C 4.769531 53.722656 4.257812 52.640625 3.800781 51.535156 C 3.34375 50.429688 2.941406 49.304688 2.59375 48.160156 C 2.246094 47.015625 1.953125 45.855469 1.722656 44.683594 C 1.488281 43.507812 1.3125 42.328125 1.195312 41.136719 C 1.078125 39.945312 1.019531 38.75 1.019531 37.554688 C 1.019531 36.359375 1.078125 35.164062 1.195312 33.972656 C 1.3125 32.78125 1.488281 31.601562 1.722656 30.425781 C 1.953125 29.253906 2.246094 28.09375 2.59375 26.949219 C 2.941406 25.804688 3.34375 24.679688 3.800781 23.574219 C 4.257812 22.46875 4.769531 21.386719 5.332031 20.332031 C 5.898438 19.277344 6.511719 18.25 7.175781 17.257812 C 7.839844 16.261719 8.554688 15.300781 9.3125 14.375 C 10.070312 13.453125 10.875 12.566406 11.71875 11.71875 C 12.566406 10.875 13.453125 10.070312 14.375 9.3125 C 15.300781 8.554688 16.261719 7.839844 17.257812 7.175781 C 18.25 6.511719 19.277344 5.898438 20.332031 5.332031 C 21.386719 4.769531 22.46875 4.257812 23.574219 3.800781 C 24.679688 3.34375 25.804688 2.941406 26.949219 2.59375 C 28.09375 2.246094 29.253906 1.953125 30.425781 1.722656 C 31.601562 1.488281 32.78125 1.3125 33.972656 1.195312 C 35.164062 1.078125 36.359375 1.019531 37.554688 1.019531 C 38.75 1.019531 39.945312 1.078125 41.136719 1.195312 C 42.328125 1.3125 43.507812 1.488281 44.683594 1.722656 C 45.855469 1.953125 47.015625 2.246094 48.160156 2.59375 C 49.304688 2.941406 50.429688 3.34375 51.535156 3.800781 C 52.640625 4.257812 53.722656 4.769531 54.777344 5.332031 C 55.832031 5.898438 56.859375 6.511719 57.851562 7.175781 C 58.847656 7.839844 59.808594 8.554688 60.734375 9.3125 C 61.65625 10.070312 62.542969 10.875 63.390625 11.71875 C 64.234375 12.566406 65.039062 13.453125 65.796875 14.375 C 66.554688 15.300781 67.269531 16.261719 67.933594 17.257812 C 68.597656 18.25 69.210938 19.277344 69.777344 20.332031 C 70.339844 21.386719 70.851562 22.46875 71.308594 23.574219 C 71.765625 24.679688 72.167969 25.804688 72.515625 26.949219 C 72.863281 28.09375 73.15625 29.253906 73.386719 30.425781 C 73.621094 31.601562 73.796875 32.78125 73.914062 33.972656 C 74.03125 35.164062 74.089844 36.359375 74.089844 37.554688 Z M 74.089844 37.554688 " fill-opacity="1" fill-rule="nonzero"/></g><path fill="#6fceae" d="M 49.351562 19.257812 C 50.335938 19.257812 51.136719 20.058594 51.136719 21.042969 C 51.136719 22.027344 50.335938 22.824219 49.351562 22.824219 C 48.367188 22.824219 47.574219 22.027344 47.574219 21.042969 C 47.574219 20.058594 48.367188 19.257812 49.351562 19.257812 Z M 49.351562 19.257812 " fill-opacity="1" fill-rule="nonzero"/><path fill="#6fceae" d="M 58.941406 22.402344 C 59.925781 22.402344 60.726562 23.207031 60.726562 24.191406 C 60.726562 25.171875 59.925781 25.96875 58.941406 25.96875 C 57.957031 25.96875 57.160156 25.171875 57.160156 24.191406 C 57.160156 23.207031 57.957031 22.402344 58.941406 22.402344 Z M 58.941406 22.402344 " fill-opacity="1" fill-rule="nonzero"/><path fill="#8bcb8f" d="M 25.96875 12.605469 C 26.953125 12.605469 27.753906 13.398438 27.753906 14.382812 C 27.753906 15.367188 26.953125 16.167969 25.96875 16.167969 C 24.984375 16.167969 24.191406 15.367188 24.191406 14.382812 C 24.191406 13.398438 24.984375 12.605469 25.96875 12.605469 Z M 25.96875 12.605469 " fill-opacity="1" fill-rule="nonzero"/><path fill="#5cc096" d="M 49.140625 58.050781 C 50.613281 58.050781 51.816406 59.246094 51.816406 60.726562 C 51.816406 62.199219 50.613281 63.394531 49.140625 63.394531 C 47.660156 63.394531 46.464844 62.199219 46.464844 60.726562 C 46.464844 59.246094 47.660156 58.050781 49.140625 58.050781 Z M 49.140625 58.050781 " fill-opacity="1" fill-rule="nonzero"/><path fill="#5cc096" d="M 40.230469 57.160156 C 41.214844 57.160156 42.007812 57.957031 42.007812 58.941406 C 42.007812 59.925781 41.214844 60.726562 40.230469 60.726562 C 39.246094 60.726562 38.445312 59.925781 38.445312 58.941406 C 38.445312 57.957031 39.246094 57.160156 40.230469 57.160156 Z M 40.230469 57.160156 " fill-opacity="1" fill-rule="nonzero"/><path fill="#6fceae" d="M 25.078125 47.355469 C 26.0625 47.355469 26.859375 48.15625 26.859375 49.140625 C 26.859375 50.125 26.0625 50.917969 25.078125 50.917969 C 24.09375 50.917969 23.292969 50.125 23.292969 49.140625 C 23.292969 48.15625 24.09375 47.355469 25.078125 47.355469 Z M 25.078125 47.355469 " fill-opacity="1" fill-rule="nonzero"/><path fill="#8bcb8f" d="M 11.714844 39.335938 C 12.699219 39.335938 13.496094 40.136719 13.496094 41.121094 C 13.496094 42.105469 12.699219 42.898438 11.714844 42.898438 C 10.730469 42.898438 9.929688 42.105469 9.929688 41.121094 C 9.929688 40.136719 10.730469 39.335938 11.714844 39.335938 Z M 11.714844 39.335938 " fill-opacity="1" fill-rule="nonzero"/><path fill="#65b39f" d="M 65.179688 33.988281 C 66.164062 33.988281 66.960938 34.789062 66.960938 35.773438 C 66.960938 36.757812 66.164062 37.554688 65.179688 37.554688 C 64.195312 37.554688 63.394531 36.757812 63.394531 35.773438 C 63.394531 34.789062 64.195312 33.988281 65.179688 33.988281 Z M 65.179688 33.988281 " fill-opacity="1" fill-rule="nonzero"/><path fill="#65b39f" d="M 16.167969 24.191406 C 17.644531 24.191406 18.839844 25.386719 18.839844 26.859375 C 18.839844 28.339844 17.644531 29.535156 16.167969 29.535156 C 14.691406 29.535156 13.496094 28.339844 13.496094 26.859375 C 13.496094 25.386719 14.691406 24.191406 16.167969 24.191406 Z M 16.167969 24.191406 " fill-opacity="1" fill-rule="nonzero"/><path fill="#fcbd72" d="M 32.792969 25.402344 C 32.667969 25.507812 32.539062 25.621094 32.40625 25.746094 C 32.28125 25.851562 32.144531 25.96875 32.015625 26.097656 C 32.140625 25.980469 32.269531 25.863281 32.40625 25.746094 C 32.527344 25.632812 32.65625 25.515625 32.792969 25.402344 Z M 36.769531 32.964844 C 35.027344 35.222656 33.988281 38.042969 33.988281 41.121094 C 33.988281 48.503906 39.976562 54.484375 47.355469 54.484375 C 54.738281 54.484375 60.726562 48.503906 60.726562 41.121094 C 60.726562 33.734375 54.738281 27.753906 47.355469 27.753906 C 43.046875 27.753906 39.210938 29.792969 36.769531 32.964844 Z M 32.953125 25.273438 C 33.113281 25.136719 33.269531 25.015625 33.410156 24.902344 C 33.253906 25.019531 33.101562 25.148438 32.953125 25.273438 Z M 34.324219 24.226562 C 34.515625 24.089844 34.726562 23.949219 34.949219 23.800781 C 34.742188 23.9375 34.53125 24.078125 34.324219 24.226562 Z M 38.734375 21.84375 C 38.597656 21.898438 38.46875 21.949219 38.34375 22.003906 C 38.195312 22.0625 38.050781 22.128906 37.910156 22.191406 C 38.054688 22.128906 38.195312 22.0625 38.34375 22.003906 C 38.472656 21.949219 38.605469 21.898438 38.734375 21.84375 Z M 37.554688 5.472656 C 55.273438 5.472656 69.636719 19.835938 69.636719 37.554688 C 69.636719 55.273438 55.273438 69.636719 37.554688 69.636719 C 19.835938 69.636719 5.472656 55.273438 5.472656 37.554688 C 5.472656 19.835938 19.835938 5.472656 37.554688 5.472656 Z M 66.960938 35.773438 C 66.960938 34.789062 66.164062 33.988281 65.179688 33.988281 C 64.195312 33.988281 63.394531 34.789062 63.394531 35.773438 C 63.394531 36.757812 64.195312 37.554688 65.179688 37.554688 C 66.164062 37.554688 66.960938 36.757812 66.960938 35.773438 Z M 60.726562 24.191406 C 60.726562 23.207031 59.925781 22.402344 58.941406 22.402344 C 57.957031 22.402344 57.160156 23.207031 57.160156 24.191406 C 57.160156 25.171875 57.957031 25.96875 58.941406 25.96875 C 59.925781 25.96875 60.726562 25.171875 60.726562 24.191406 Z M 51.816406 60.726562 C 51.816406 59.246094 50.613281 58.050781 49.140625 58.050781 C 47.660156 58.050781 46.464844 59.246094 46.464844 60.726562 C 46.464844 62.199219 47.660156 63.394531 49.140625 63.394531 C 50.613281 63.394531 51.816406 62.199219 51.816406 60.726562 Z M 51.136719 21.042969 C 51.136719 20.058594 50.335938 19.257812 49.351562 19.257812 C 48.367188 19.257812 47.574219 20.058594 47.574219 21.042969 C 47.574219 22.027344 48.367188 22.824219 49.351562 22.824219 C 50.335938 22.824219 51.136719 22.027344 51.136719 21.042969 Z M 49.09375 13.058594 C 49.445312 11.804688 47.703125 10.210938 45.191406 9.5 C 42.675781 8.792969 40.355469 9.234375 40 10.488281 C 39.648438 11.742188 41.390625 13.335938 43.902344 14.046875 C 46.417969 14.753906 48.738281 14.3125 49.09375 13.058594 Z M 42.007812 58.941406 C 42.007812 57.957031 41.214844 57.160156 40.230469 57.160156 C 39.246094 57.160156 38.445312 57.957031 38.445312 58.941406 C 38.445312 59.925781 39.246094 60.726562 40.230469 60.726562 C 41.214844 60.726562 42.007812 59.925781 42.007812 58.941406 Z M 35.101562 63.222656 C 35.652344 61.855469 33.878906 59.851562 31.136719 58.75 C 28.398438 57.648438 25.726562 57.867188 25.179688 59.242188 C 24.632812 60.609375 26.40625 62.609375 29.144531 63.714844 C 31.886719 64.816406 34.554688 64.597656 35.101562 63.222656 Z M 27.753906 14.382812 C 27.753906 13.398438 26.953125 12.605469 25.96875 12.605469 C 24.984375 12.605469 24.191406 13.398438 24.191406 14.382812 C 24.191406 15.367188 24.984375 16.167969 25.96875 16.167969 C 26.953125 16.167969 27.753906 15.367188 27.753906 14.382812 Z M 26.859375 49.140625 C 26.859375 48.15625 26.0625 47.355469 25.078125 47.355469 C 24.09375 47.355469 23.292969 48.15625 23.292969 49.140625 C 23.292969 50.125 24.09375 50.917969 25.078125 50.917969 C 26.0625 50.917969 26.859375 50.125 26.859375 49.140625 Z M 22.339844 44.34375 C 23.757812 43.941406 24.265625 41.3125 23.476562 38.472656 C 22.679688 35.628906 20.882812 33.640625 19.464844 34.042969 C 18.039062 34.4375 17.53125 37.066406 18.328125 39.910156 C 19.117188 42.753906 20.914062 44.738281 22.339844 44.34375 Z M 22.402344 56.269531 C 22.402344 54.792969 21.207031 53.59375 19.734375 53.59375 C 18.253906 53.59375 17.058594 54.792969 17.058594 56.269531 C 17.058594 57.742188 18.253906 58.941406 19.734375 58.941406 C 21.207031 58.941406 22.402344 57.742188 22.402344 56.269531 Z M 18.839844 26.859375 C 18.839844 25.386719 17.644531 24.191406 16.167969 24.191406 C 14.691406 24.191406 13.496094 25.386719 13.496094 26.859375 C 13.496094 28.339844 14.691406 29.535156 16.167969 29.535156 C 17.644531 29.535156 18.839844 28.339844 18.839844 26.859375 Z M 13.496094 41.121094 C 13.496094 40.136719 12.699219 39.335938 11.714844 39.335938 C 10.730469 39.335938 9.929688 40.136719 9.929688 41.121094 C 9.929688 42.105469 10.730469 42.898438 11.714844 42.898438 C 12.699219 42.898438 13.496094 42.105469 13.496094 41.121094 Z M 13.496094 41.121094 " fill-opacity="1" fill-rule="nonzero"/><path fill="#e15c63" d="M 47.355469 27.753906 C 54.738281 27.753906 60.726562 33.734375 60.726562 41.121094 C 60.726562 48.503906 54.738281 54.484375 47.355469 54.484375 C 39.976562 54.484375 33.988281 48.503906 33.988281 41.121094 C 33.988281 38.042969 35.027344 35.222656 36.769531 32.964844 C 39.210938 29.792969 43.046875 27.753906 47.355469 27.753906 Z M 55.375 45.574219 C 55.375 44.097656 54.179688 42.898438 52.707031 42.898438 C 51.226562 42.898438 50.03125 44.097656 50.03125 45.574219 C 50.03125 47.054688 51.226562 48.25 52.707031 48.25 C 54.179688 48.25 55.375 47.054688 55.375 45.574219 Z M 55.375 45.574219 " fill-opacity="1" fill-rule="nonzero"/><path fill="#f6a7b7" d="M 52.707031 42.898438 C 54.179688 42.898438 55.375 44.097656 55.375 45.574219 C 55.375 47.054688 54.179688 48.25 52.707031 48.25 C 51.226562 48.25 50.03125 47.054688 50.03125 45.574219 C 50.03125 44.097656 51.226562 42.898438 52.707031 42.898438 Z M 52.707031 42.898438 " fill-opacity="1" fill-rule="nonzero"/><path fill="#2e6977" d="M 45.191406 9.5 C 47.703125 10.210938 49.445312 11.804688 49.09375 13.058594 C 48.738281 14.3125 46.417969 14.753906 43.902344 14.046875 C 41.390625 13.335938 39.648438 11.742188 40 10.488281 C 40.355469 9.234375 42.675781 8.792969 45.191406 9.5 Z M 45.191406 9.5 " fill-opacity="1" fill-rule="nonzero"/><path fill="#2e6977" d="M 31.136719 58.75 C 33.878906 59.851562 35.652344 61.855469 35.101562 63.222656 C 34.554688 64.597656 31.886719 64.816406 29.144531 63.714844 C 26.40625 62.609375 24.632812 60.609375 25.179688 59.242188 C 25.726562 57.867188 28.398438 57.648438 31.136719 58.75 Z M 31.136719 58.75 " fill-opacity="1" fill-rule="nonzero"/><path fill="#2e6977" d="M 23.476562 38.472656 C 24.265625 41.3125 23.757812 43.941406 22.339844 44.34375 C 20.914062 44.738281 19.117188 42.753906 18.328125 39.910156 C 17.53125 37.066406 18.039062 34.4375 19.464844 34.042969 C 20.882812 33.640625 22.679688 35.628906 23.476562 38.472656 Z M 23.476562 38.472656 " fill-opacity="1" fill-rule="nonzero"/><path fill="#65b39f" d="M 19.734375 53.59375 C 21.207031 53.59375 22.402344 54.792969 22.402344 56.269531 C 22.402344 57.742188 21.207031 58.941406 19.734375 58.941406 C 18.253906 58.941406 17.058594 57.742188 17.058594 56.269531 C 17.058594 54.792969 18.253906 53.59375 19.734375 53.59375 Z M 19.734375 53.59375 " fill-opacity="1" fill-rule="nonzero"/><g clip-path="url(#id2)"><path fill="#3a322b" d="M 37.554688 0.429688 C 17.085938 0.429688 0.429688 17.085938 0.429688 37.554688 C 0.429688 58.023438 17.085938 74.679688 37.554688 74.679688 C 58.023438 74.679688 74.679688 58.023438 74.679688 37.554688 C 74.679688 17.085938 58.023438 0.429688 37.554688 0.429688 Z M 37.554688 73.5 C 17.734375 73.5 1.609375 57.375 1.609375 37.554688 C 1.609375 17.734375 17.734375 1.609375 37.554688 1.609375 C 57.375 1.609375 73.5 17.734375 73.5 37.554688 C 73.5 57.375 57.375 73.5 37.554688 73.5 Z M 37.554688 73.5 " fill-opacity="1" fill-rule="nonzero"/></g><path fill="#3a322b" d="M 37.554688 4.886719 C 19.539062 4.886719 4.886719 19.539062 4.886719 37.554688 C 4.886719 55.570312 19.539062 70.222656 37.554688 70.222656 C 55.570312 70.222656 70.222656 55.570312 70.222656 37.554688 C 70.222656 19.539062 55.570312 4.886719 37.554688 4.886719 Z M 37.554688 69.046875 C 20.191406 69.046875 6.0625 54.917969 6.0625 37.554688 C 6.0625 20.191406 20.191406 6.0625 37.554688 6.0625 C 54.917969 6.0625 69.046875 20.191406 69.046875 37.554688 C 69.046875 54.917969 54.917969 69.046875 37.554688 69.046875 Z M 37.554688 69.046875 " fill-opacity="1" fill-rule="nonzero"/><path fill="#3a322b" d="M 47.355469 27.164062 C 43.101562 27.164062 39.289062 29.078125 36.730469 32.089844 L 36.117188 31.476562 C 35.667969 31.023438 35.433594 30.398438 35.476562 29.761719 C 35.523438 29.125 35.839844 28.539062 36.367188 28.140625 C 38.421875 26.589844 40.722656 25.445312 43.207031 24.734375 C 43.945312 24.523438 44.527344 23.964844 44.769531 23.242188 C 45.015625 22.511719 44.882812 21.710938 44.417969 21.097656 C 43.871094 20.371094 42.894531 20.039062 41.929688 20.25 C 41.492188 20.347656 41.054688 20.460938 40.621094 20.582031 C 40.617188 20.585938 40.613281 20.582031 40.605469 20.585938 C 40.296875 20.671875 39.988281 20.769531 39.683594 20.871094 C 39.671875 20.875 39.660156 20.878906 39.648438 20.882812 C 39.277344 21.007812 38.914062 21.140625 38.554688 21.285156 C 38.527344 21.292969 38.5 21.308594 38.472656 21.316406 C 38.140625 21.449219 37.8125 21.589844 37.492188 21.738281 C 37.449219 21.757812 37.40625 21.777344 37.363281 21.796875 C 37.058594 21.941406 36.757812 22.089844 36.457031 22.242188 C 36.40625 22.269531 36.351562 22.296875 36.300781 22.328125 C 36.019531 22.476562 35.738281 22.632812 35.464844 22.796875 C 35.402344 22.832031 35.339844 22.867188 35.277344 22.90625 C 35.011719 23.066406 34.753906 23.230469 34.496094 23.398438 C 34.429688 23.441406 34.363281 23.484375 34.300781 23.527344 C 33.988281 23.738281 33.683594 23.953125 33.382812 24.179688 C 31.496094 25.605469 29.863281 27.3125 28.519531 29.257812 C 28.515625 29.265625 28.511719 29.273438 28.507812 29.277344 C 28.476562 29.320312 28.449219 29.367188 28.421875 29.410156 C 28.261719 29.644531 28.105469 29.878906 27.953125 30.121094 C 27.746094 30.453125 27.402344 30.65625 27.011719 30.675781 C 26.621094 30.691406 26.28125 30.527344 26.050781 30.222656 C 25.777344 29.859375 25.738281 29.386719 25.953125 28.988281 C 26.945312 27.117188 28.765625 24.40625 31.816406 22.105469 C 33.839844 20.578125 36.203125 19.398438 38.648438 18.699219 C 38.652344 18.699219 38.652344 18.699219 38.652344 18.699219 C 39.390625 18.488281 39.972656 17.929688 40.21875 17.207031 C 40.460938 16.476562 40.328125 15.675781 39.867188 15.0625 C 39.320312 14.339844 38.386719 14 37.488281 14.191406 C 34.367188 14.855469 31.375 16.226562 28.828125 18.144531 C 25.199219 20.886719 23.175781 24.175781 22.121094 26.453125 C 21.984375 26.746094 22.109375 27.097656 22.40625 27.234375 C 22.488281 27.269531 22.570312 27.289062 22.652344 27.289062 C 22.875 27.289062 23.089844 27.164062 23.1875 26.949219 C 24.1875 24.792969 26.101562 21.679688 29.539062 19.085938 C 31.945312 17.269531 34.78125 15.972656 37.734375 15.34375 C 38.1875 15.246094 38.65625 15.414062 38.925781 15.773438 C 39.160156 16.078125 39.222656 16.464844 39.097656 16.832031 C 38.976562 17.191406 38.699219 17.460938 38.332031 17.566406 C 38.332031 17.566406 38.332031 17.566406 38.328125 17.566406 C 35.742188 18.304688 33.246094 19.546875 31.105469 21.164062 C 27.882812 23.59375 25.957031 26.460938 24.910156 28.433594 C 24.488281 29.230469 24.566406 30.210938 25.109375 30.929688 C 25.546875 31.511719 26.234375 31.851562 26.960938 31.851562 C 26.996094 31.851562 27.027344 31.851562 27.0625 31.851562 C 27.824219 31.816406 28.523438 31.414062 28.933594 30.769531 C 28.9375 30.765625 28.941406 30.761719 28.945312 30.757812 C 29.089844 30.523438 29.242188 30.292969 29.398438 30.066406 C 29.425781 30.027344 29.449219 29.984375 29.476562 29.945312 C 29.488281 29.933594 29.496094 29.917969 29.507812 29.902344 C 30.769531 28.085938 32.339844 26.445312 34.09375 25.121094 C 34.375 24.90625 34.664062 24.703125 34.957031 24.503906 C 35.023438 24.457031 35.09375 24.417969 35.160156 24.371094 C 35.398438 24.214844 35.636719 24.0625 35.878906 23.917969 C 35.941406 23.878906 36.007812 23.839844 36.074219 23.800781 C 36.328125 23.652344 36.585938 23.507812 36.84375 23.371094 C 36.898438 23.339844 36.957031 23.3125 37.011719 23.28125 C 37.289062 23.140625 37.566406 23.003906 37.847656 22.871094 C 37.894531 22.847656 37.941406 22.828125 37.988281 22.804688 C 38.289062 22.667969 38.589844 22.539062 38.894531 22.417969 C 38.925781 22.402344 38.960938 22.390625 38.992188 22.378906 C 39.332031 22.242188 39.675781 22.117188 40.023438 22 C 40.035156 21.996094 40.046875 21.992188 40.058594 21.988281 C 40.757812 21.753906 41.46875 21.558594 42.183594 21.402344 C 42.691406 21.289062 43.210938 21.453125 43.480469 21.804688 C 43.710938 22.113281 43.777344 22.5 43.652344 22.867188 C 43.53125 23.230469 43.25 23.496094 42.882812 23.601562 C 40.257812 24.351562 37.828125 25.5625 35.640625 27.210938 C 34.859375 27.800781 34.371094 28.703125 34.300781 29.679688 C 34.234375 30.65625 34.589844 31.613281 35.28125 32.308594 L 36 33.027344 C 34.367188 35.308594 33.402344 38.101562 33.402344 41.121094 C 33.402344 48.816406 39.660156 55.074219 47.355469 55.074219 C 55.054688 55.074219 61.3125 48.816406 61.3125 41.121094 C 61.3125 33.421875 55.050781 27.164062 47.355469 27.164062 Z M 47.355469 53.894531 C 40.3125 53.894531 34.578125 48.164062 34.578125 41.117188 C 34.578125 34.074219 40.3125 28.339844 47.355469 28.339844 C 54.402344 28.339844 60.136719 34.074219 60.136719 41.117188 C 60.136719 48.164062 54.402344 53.894531 47.355469 53.894531 Z M 47.355469 53.894531 " fill-opacity="1" fill-rule="nonzero"/><path fill="#3a322b" d="M 52.703125 42.3125 C 50.90625 42.3125 49.441406 43.773438 49.441406 45.574219 C 49.441406 47.375 50.90625 48.835938 52.703125 48.835938 C 54.503906 48.835938 55.964844 47.375 55.964844 45.574219 C 55.964844 43.773438 54.503906 42.3125 52.703125 42.3125 Z M 52.703125 47.660156 C 51.554688 47.660156 50.621094 46.722656 50.621094 45.574219 C 50.621094 44.425781 51.554688 43.492188 52.703125 43.492188 C 53.851562 43.492188 54.789062 44.425781 54.789062 45.574219 C 54.789062 46.722656 53.851562 47.660156 52.703125 47.660156 Z M 52.703125 47.660156 " fill-opacity="1" fill-rule="nonzero"/><path fill="#3a322b" d="M 11.710938 38.746094 C 10.40625 38.746094 9.339844 39.8125 9.339844 41.117188 C 9.339844 42.425781 10.40625 43.488281 11.710938 43.488281 C 13.019531 43.488281 14.082031 42.425781 14.082031 41.117188 C 14.082031 39.8125 13.019531 38.746094 11.710938 38.746094 Z M 11.710938 42.3125 C 11.054688 42.3125 10.519531 41.777344 10.519531 41.121094 C 10.519531 40.460938 11.054688 39.925781 11.710938 39.925781 C 12.371094 39.925781 12.90625 40.460938 12.90625 41.121094 C 12.90625 41.777344 12.371094 42.3125 11.710938 42.3125 Z M 11.710938 42.3125 " fill-opacity="1" fill-rule="nonzero"/><path fill="#3a322b" d="M 25.96875 16.757812 C 27.277344 16.757812 28.339844 15.695312 28.339844 14.386719 C 28.339844 13.078125 27.277344 12.015625 25.96875 12.015625 C 24.664062 12.015625 23.597656 13.078125 23.597656 14.386719 C 23.597656 15.695312 24.664062 16.757812 25.96875 16.757812 Z M 25.96875 13.191406 C 26.628906 13.191406 27.164062 13.726562 27.164062 14.386719 C 27.164062 15.042969 26.628906 15.578125 25.96875 15.578125 C 25.3125 15.578125 24.777344 15.042969 24.777344 14.386719 C 24.777344 13.726562 25.3125 13.191406 25.96875 13.191406 Z M 25.96875 13.191406 " fill-opacity="1" fill-rule="nonzero"/><path fill="#3a322b" d="M 58.941406 21.816406 C 57.632812 21.816406 56.570312 22.878906 56.570312 24.1875 C 56.570312 25.496094 57.632812 26.558594 58.941406 26.558594 C 60.25 26.558594 61.3125 25.496094 61.3125 24.1875 C 61.3125 22.878906 60.25 21.816406 58.941406 21.816406 Z M 58.941406 25.378906 C 58.285156 25.378906 57.75 24.84375 57.75 24.1875 C 57.75 23.53125 58.285156 22.996094 58.941406 22.996094 C 59.597656 22.996094 60.132812 23.53125 60.132812 24.1875 C 60.132812 24.84375 59.597656 25.378906 58.941406 25.378906 Z M 58.941406 25.378906 " fill-opacity="1" fill-rule="nonzero"/><path fill="#3a322b" d="M 46.984375 21.039062 C 46.984375 22.347656 48.046875 23.410156 49.355469 23.410156 C 50.660156 23.410156 51.726562 22.347656 51.726562 21.039062 C 51.726562 19.734375 50.660156 18.667969 49.355469 18.667969 C 48.046875 18.667969 46.984375 19.730469 46.984375 21.039062 Z M 50.546875 21.039062 C 50.546875 21.699219 50.011719 22.234375 49.355469 22.234375 C 48.699219 22.234375 48.160156 21.699219 48.160156 21.039062 C 48.160156 20.382812 48.695312 19.847656 49.355469 19.847656 C 50.011719 19.847656 50.546875 20.382812 50.546875 21.039062 Z M 50.546875 21.039062 " fill-opacity="1" fill-rule="nonzero"/><path fill="#3a322b" d="M 65.179688 33.402344 C 63.871094 33.402344 62.808594 34.464844 62.808594 35.773438 C 62.808594 37.078125 63.871094 38.144531 65.179688 38.144531 C 66.488281 38.144531 67.550781 37.082031 67.550781 35.773438 C 67.550781 34.464844 66.488281 33.402344 65.179688 33.402344 Z M 65.179688 36.964844 C 64.523438 36.964844 63.988281 36.429688 63.988281 35.773438 C 63.988281 35.113281 64.523438 34.578125 65.179688 34.578125 C 65.835938 34.578125 66.371094 35.113281 66.371094 35.773438 C 66.371094 36.429688 65.835938 36.964844 65.179688 36.964844 Z M 65.179688 36.964844 " fill-opacity="1" fill-rule="nonzero"/><path fill="#3a322b" d="M 27.449219 49.140625 C 27.449219 47.832031 26.386719 46.765625 25.078125 46.765625 C 23.773438 46.765625 22.707031 47.832031 22.707031 49.140625 C 22.707031 50.445312 23.773438 51.511719 25.078125 51.511719 C 26.386719 51.511719 27.449219 50.445312 27.449219 49.140625 Z M 23.886719 49.140625 C 23.886719 48.480469 24.421875 47.945312 25.078125 47.945312 C 25.738281 47.945312 26.273438 48.480469 26.273438 49.140625 C 26.273438 49.796875 25.738281 50.332031 25.078125 50.332031 C 24.421875 50.332031 23.886719 49.796875 23.886719 49.140625 Z M 23.886719 49.140625 " fill-opacity="1" fill-rule="nonzero"/><path fill="#3a322b" d="M 40.226562 56.570312 C 38.921875 56.570312 37.855469 57.632812 37.855469 58.941406 C 37.855469 60.25 38.921875 61.3125 40.226562 61.3125 C 41.535156 61.3125 42.597656 60.25 42.597656 58.941406 C 42.597656 57.632812 41.535156 56.570312 40.226562 56.570312 Z M 40.226562 60.132812 C 39.570312 60.132812 39.035156 59.597656 39.035156 58.941406 C 39.035156 58.285156 39.570312 57.75 40.226562 57.75 C 40.886719 57.75 41.421875 58.285156 41.421875 58.941406 C 41.421875 59.597656 40.886719 60.132812 40.226562 60.132812 Z M 40.226562 60.132812 " fill-opacity="1" fill-rule="nonzero"/><path fill="#3a322b" d="M 19.730469 53.003906 C 17.933594 53.003906 16.46875 54.46875 16.46875 56.269531 C 16.46875 58.066406 17.933594 59.53125 19.730469 59.53125 C 21.53125 59.53125 22.996094 58.066406 22.996094 56.269531 C 22.996094 54.46875 21.53125 53.003906 19.730469 53.003906 Z M 19.730469 58.351562 C 18.582031 58.351562 17.648438 57.417969 17.648438 56.269531 C 17.648438 55.117188 18.582031 54.183594 19.730469 54.183594 C 20.882812 54.183594 21.816406 55.117188 21.816406 56.269531 C 21.816406 57.417969 20.882812 58.351562 19.730469 58.351562 Z M 19.730469 58.351562 " fill-opacity="1" fill-rule="nonzero"/><path fill="#3a322b" d="M 19.429688 26.863281 C 19.429688 25.0625 17.96875 23.597656 16.167969 23.597656 C 14.367188 23.597656 12.90625 25.0625 12.90625 26.863281 C 12.90625 28.660156 14.367188 30.125 16.167969 30.125 C 17.96875 30.125 19.429688 28.660156 19.429688 26.863281 Z M 16.167969 28.945312 C 15.019531 28.945312 14.085938 28.011719 14.085938 26.859375 C 14.085938 25.710938 15.019531 24.777344 16.167969 24.777344 C 17.316406 24.777344 18.253906 25.710938 18.253906 26.859375 C 18.253906 28.011719 17.316406 28.945312 16.167969 28.945312 Z M 16.167969 28.945312 " fill-opacity="1" fill-rule="nonzero"/><path fill="#3a322b" d="M 49.140625 57.460938 C 47.339844 57.460938 45.875 58.925781 45.875 60.722656 C 45.875 62.523438 47.339844 63.984375 49.140625 63.984375 C 50.9375 63.984375 52.402344 62.523438 52.402344 60.722656 C 52.402344 58.925781 50.9375 57.460938 49.140625 57.460938 Z M 49.140625 62.808594 C 47.988281 62.808594 47.054688 61.875 47.054688 60.722656 C 47.054688 59.574219 47.988281 58.640625 49.140625 58.640625 C 50.289062 58.640625 51.222656 59.574219 51.222656 60.722656 C 51.222656 61.875 50.289062 62.808594 49.140625 62.808594 Z M 49.140625 62.808594 " fill-opacity="1" fill-rule="nonzero"/><path fill="#3a322b" d="M 17.757812 40.066406 C 18.566406 42.964844 20.34375 44.980469 21.976562 44.980469 C 22.152344 44.980469 22.324219 44.957031 22.496094 44.910156 C 23.410156 44.652344 24.054688 43.773438 24.316406 42.4375 C 24.546875 41.238281 24.449219 39.777344 24.042969 38.3125 C 23.632812 36.851562 22.957031 35.550781 22.140625 34.644531 C 21.222656 33.632812 20.214844 33.21875 19.304688 33.472656 C 17.542969 33.964844 16.863281 36.863281 17.757812 40.066406 Z M 19.835938 34.578125 C 20.253906 34.578125 20.765625 34.882812 21.265625 35.4375 C 21.964844 36.207031 22.546875 37.339844 22.90625 38.628906 C 23.265625 39.917969 23.355469 41.191406 23.160156 42.210938 C 22.992188 43.078125 22.632812 43.644531 22.179688 43.773438 C 21.230469 44.03125 19.648438 42.453125 18.894531 39.75 C 18.140625 37.050781 18.671875 34.871094 19.621094 34.609375 C 19.6875 34.589844 19.761719 34.578125 19.835938 34.578125 Z M 19.835938 34.578125 " fill-opacity="1" fill-rule="nonzero"/><path fill="#3a322b" d="M 40.480469 12.90625 C 41.285156 13.640625 42.441406 14.246094 43.742188 14.613281 C 44.625 14.863281 45.472656 14.984375 46.238281 14.984375 C 48.007812 14.984375 49.339844 14.347656 49.660156 13.21875 C 49.894531 12.386719 49.523438 11.46875 48.613281 10.640625 C 47.808594 9.90625 46.648438 9.300781 45.351562 8.933594 C 42.433594 8.109375 39.890625 8.710938 39.433594 10.328125 C 39.195312 11.160156 39.570312 12.078125 40.480469 12.90625 Z M 40.566406 10.648438 C 40.714844 10.117188 41.621094 9.753906 42.875 9.753906 C 43.519531 9.753906 44.253906 9.847656 45.027344 10.066406 C 46.15625 10.386719 47.148438 10.898438 47.820312 11.511719 C 48.367188 12.007812 48.632812 12.527344 48.527344 12.898438 C 48.296875 13.703125 46.339844 14.125 44.0625 13.480469 C 42.933594 13.160156 41.945312 12.648438 41.273438 12.035156 C 40.726562 11.539062 40.460938 11.019531 40.566406 10.648438 Z M 40.566406 10.648438 " fill-opacity="1" fill-rule="nonzero"/><path fill="#3a322b" d="M 31.355469 58.203125 C 29.949219 57.640625 28.503906 57.382812 27.289062 57.480469 C 25.929688 57.59375 24.984375 58.140625 24.632812 59.019531 C 24.277344 59.902344 24.582031 60.949219 25.488281 61.96875 C 26.296875 62.878906 27.515625 63.695312 28.925781 64.257812 C 30.164062 64.757812 31.378906 64.996094 32.4375 64.996094 C 34.015625 64.996094 35.242188 64.460938 35.648438 63.445312 C 36.332031 61.746094 34.445312 59.445312 31.355469 58.203125 Z M 34.554688 63.003906 C 34.1875 63.917969 31.964844 64.210938 29.363281 63.167969 C 26.761719 62.121094 25.359375 60.375 25.726562 59.460938 C 25.929688 58.949219 26.710938 58.632812 27.808594 58.632812 C 28.683594 58.632812 29.761719 58.835938 30.917969 59.296875 C 33.519531 60.34375 34.921875 62.089844 34.554688 63.003906 Z M 34.554688 63.003906 " fill-opacity="1" fill-rule="nonzero"/></svg>