<svg xmlns="http://www.w3.org/2000/svg" width="100" viewBox="0 0 75 75" height="100" version="1.0"><defs><clipPath id="a"><path d="M14.043 14.043H61V61H14.043zm0 0"/></clipPath><clipPath id="b"><path d="M14.043 14.043h47.25v47.25h-47.25zm0 0"/></clipPath></defs><path fill="#ffecb3" d="M37.5 0C16.79 0 0 16.79 0 37.5S16.79 75 37.5 75 75 58.21 75 37.5 58.21 0 37.5 0"/><g clip-path="url(#a)"><path fill="#c2e6f9" d="M60.918 37.668a23.332 23.332 0 0 1-.45 4.535 24.127 24.127 0 0 1-.55 2.215c-.223.727-.48 1.441-.77 2.148-.293.704-.617 1.391-.976 2.063-.36.668-.75 1.32-1.172 1.957a24.965 24.965 0 0 1-1.36 1.832 23.261 23.261 0 0 1-1.535 1.687c-.535.54-1.101 1.051-1.687 1.536-.59.48-1.2.933-1.832 1.359-.637.422-1.29.813-1.957 1.172-.672.36-1.36.683-2.063.976-.707.29-1.421.547-2.148.77-.73.219-1.469.402-2.215.55a23.13 23.13 0 0 1-9.07 0 23.816 23.816 0 0 1-2.215-.55c-.73-.223-1.445-.48-2.148-.77A23.666 23.666 0 0 1 24.75 57a24.965 24.965 0 0 1-1.832-1.36 23.32 23.32 0 0 1-3.223-3.222 22.901 22.901 0 0 1-2.53-3.79c-.36-.671-.688-1.358-.977-2.062a23.866 23.866 0 0 1-.77-2.148 24.148 24.148 0 0 1-.555-2.215c-.148-.746-.258-1.5-.336-2.258a23.328 23.328 0 0 1-.109-2.277c0-.762.035-1.523.11-2.281a24.3 24.3 0 0 1 .335-2.254 23.033 23.033 0 0 1 2.3-6.426c.357-.672.751-1.324 1.173-1.957a23.267 23.267 0 0 1 2.89-3.523 23.267 23.267 0 0 1 3.524-2.891 22.527 22.527 0 0 1 1.957-1.172 23.033 23.033 0 0 1 6.426-2.3 24.3 24.3 0 0 1 2.254-.337c.758-.074 1.52-.109 2.281-.109.762 0 1.52.035 2.277.11.758.077 1.512.187 2.258.335a22.942 22.942 0 0 1 4.363 1.325c.704.289 1.391.617 2.063.976a22.901 22.901 0 0 1 5.477 4.063c.539.539 1.05 1.101 1.535 1.691.48.59.933 1.2 1.359 1.832a23.55 23.55 0 0 1 2.148 4.02c.29.703.547 1.418.77 2.148a23.816 23.816 0 0 1 .887 4.469c.074.758.113 1.52.113 2.281zm0 0"/></g><path fill="#6fceae" d="M45.176 26.023a1.14 1.14 0 0 1 1.136 1.137c0 .625-.511 1.133-1.136 1.133a1.134 1.134 0 0 1 0-2.27zM51.277 28.027c.625 0 1.137.508 1.137 1.137 0 .625-.512 1.129-1.137 1.129a1.128 1.128 0 0 1-1.132-1.129c0-.629.503-1.137 1.132-1.137zm0 0"/><path fill="#8bcb8f" d="M30.293 21.79a1.134 1.134 0 1 1 0 2.269 1.134 1.134 0 0 1-1.129-1.137 1.13 1.13 0 0 1 1.129-1.133zm0 0"/><path fill="#5cc096" d="M45.04 50.71c.937 0 1.702.763 1.702 1.704a1.7 1.7 0 0 1-1.703 1.695 1.698 1.698 0 0 1-1.703-1.695c0-.941.762-1.703 1.703-1.703zM39.371 50.145c.625 0 1.133.503 1.133 1.132 0 .625-.508 1.137-1.133 1.137a1.138 1.138 0 0 1-1.137-1.137c0-.629.508-1.132 1.137-1.132zm0 0"/><path fill="#6fceae" d="M29.727 43.902a1.134 1.134 0 0 1 0 2.27 1.134 1.134 0 0 1 0-2.27zm0 0"/><path fill="#8bcb8f" d="M21.223 38.8c.629 0 1.132.509 1.132 1.138 0 .624-.503 1.132-1.132 1.132a1.137 1.137 0 0 1-1.137-1.133c0-.628.512-1.136 1.137-1.136zm0 0"/><path fill="#65b39f" d="M55.246 35.398a1.134 1.134 0 1 1-.003 2.27 1.134 1.134 0 0 1 .003-2.27zM24.059 29.164c.937 0 1.699.758 1.699 1.695a1.701 1.701 0 1 1-3.403 0c0-.937.762-1.695 1.704-1.695zm0 0"/><path fill="#fcbd72" d="M34.637 29.934c-.078.07-.16.14-.246.218.078-.07.16-.144.246-.218zm2.531 4.812a8.506 8.506 0 0 0 6.734 13.695c4.7 0 8.512-3.808 8.512-8.504 0-4.699-3.812-8.507-8.512-8.507a8.481 8.481 0 0 0-6.734 3.316zm-2.43-4.894c.102-.086.203-.165.293-.235-.101.074-.199.156-.293.235zm.875-.668c.117-.086.254-.176.395-.27-.13.086-.266.176-.395.27zm2.805-1.516c-.086.035-.168.07-.25.102-.094.039-.188.082-.277.12.093-.038.183-.081.277-.12a4.77 4.77 0 0 0 .25-.102zm-.75-10.414c11.277 0 20.414 9.137 20.414 20.414 0 11.277-9.137 20.414-20.414 20.414-11.277 0-20.414-9.137-20.414-20.414 0-11.277 9.137-20.414 20.414-20.414zm18.71 19.281a1.134 1.134 0 1 0-2.268-.004 1.134 1.134 0 0 0 2.269.004zm-3.964-7.37c0-.63-.512-1.138-1.137-1.138-.629 0-1.132.508-1.132 1.137 0 .625.503 1.129 1.132 1.129.625 0 1.137-.504 1.137-1.129zm-5.672 23.25a1.702 1.702 0 1 0-3.406 0c0 .937.762 1.694 1.703 1.694a1.7 1.7 0 0 0 1.703-1.695zm-.43-25.255a1.134 1.134 0 1 0-2.27-.005 1.134 1.134 0 0 0 2.27.005zm-1.304-5.082c.226-.797-.883-1.812-2.48-2.265-1.602-.45-3.079-.168-3.305.632-.223.797.886 1.809 2.484 2.262 1.602.453 3.078.172 3.3-.629zm-4.504 29.2c0-.63-.508-1.133-1.133-1.133-.629 0-1.137.503-1.137 1.132 0 .625.508 1.137 1.137 1.137.625 0 1.133-.512 1.133-1.137zm-4.399 2.726c.352-.871-.777-2.149-2.523-2.848-1.742-.703-3.441-.562-3.789.313-.348.867.777 2.144 2.523 2.843 1.743.704 3.442.563 3.79-.308zM31.43 22.922c0-.625-.508-1.133-1.137-1.133a1.13 1.13 0 0 0-1.129 1.133c0 .625.504 1.137 1.129 1.137.629 0 1.137-.512 1.137-1.137zm-.57 22.117c0-.625-.505-1.137-1.133-1.137-.625 0-1.133.512-1.133 1.137a1.134 1.134 0 0 0 2.265 0zm-2.876-3.05c.903-.259 1.227-1.93.723-3.735-.504-1.813-1.648-3.078-2.55-2.82-.91.25-1.231 1.921-.727 3.734.504 1.809 1.648 3.07 2.554 2.82zm.043 7.59a1.701 1.701 0 1 0-3.402-.005 1.701 1.701 0 0 0 3.402.004zm-2.27-18.72c0-.937-.76-1.695-1.698-1.695-.942 0-1.704.758-1.704 1.695a1.702 1.702 0 1 0 3.403 0zm-3.402 9.078c0-.628-.503-1.136-1.132-1.136-.625 0-1.137.508-1.137 1.136 0 .626.512 1.133 1.137 1.133.629 0 1.132-.508 1.132-1.133zm0 0"/><path fill="#e15c63" d="M43.902 31.43c4.7 0 8.512 3.808 8.512 8.508 0 4.695-3.812 8.503-8.512 8.503a8.506 8.506 0 0 1-6.734-13.695 8.481 8.481 0 0 1 6.734-3.316zm5.106 11.34c0-.942-.762-1.7-1.7-1.7a1.702 1.702 0 1 0 1.7 1.7zm0 0"/><path fill="#f6a7b7" d="M47.309 41.07a1.701 1.701 0 1 1-.004 3.402 1.701 1.701 0 0 1 .004-3.402zm0 0"/><path fill="#2e6977" d="M42.527 19.813c1.598.453 2.707 1.468 2.48 2.265-.222.8-1.698 1.082-3.3.629-1.598-.453-2.707-1.465-2.484-2.262.226-.8 1.703-1.082 3.304-.633zM33.582 51.156c1.746.7 2.875 1.977 2.523 2.848-.347.871-2.046 1.012-3.789.309-1.746-.7-2.87-1.977-2.523-2.844.348-.875 2.047-1.016 3.789-.313zM28.707 38.254c.504 1.805.18 3.476-.723 3.734-.906.25-2.05-1.011-2.554-2.82-.504-1.813-.184-3.484.726-3.734.903-.258 2.047 1.007 2.551 2.82zm0 0"/><path fill="#65b39f" d="M26.328 47.875a1.701 1.701 0 1 1-.004 3.403 1.701 1.701 0 0 1 .004-3.403zm0 0"/><g clip-path="url(#b)"><path fill="#3a322b" d="M37.668 14.043c-13.027 0-23.625 10.598-23.625 23.625s10.598 23.625 23.625 23.625 23.625-10.598 23.625-23.625-10.598-23.625-23.625-23.625zm0 46.5c-12.613 0-22.875-10.262-22.875-22.875s10.262-22.875 22.875-22.875 22.875 10.262 22.875 22.875-10.262 22.875-22.875 22.875zm0 0"/></g><path fill="#3a322b" d="M37.668 16.879c-11.465 0-20.79 9.324-20.79 20.789 0 11.46 9.325 20.789 20.79 20.789 11.46 0 20.789-9.328 20.789-20.789 0-11.465-9.328-20.79-20.789-20.79zm0 40.828c-11.05 0-20.04-8.988-20.04-20.039 0-11.05 8.99-20.04 20.04-20.04 11.05 0 20.039 8.99 20.039 20.04 0 11.05-8.988 20.039-20.039 20.039zm0 0"/><path fill="#3a322b" d="M43.906 31.055a8.876 8.876 0 0 0-6.765 3.133l-.387-.391a1.398 1.398 0 0 1-.41-1.09c.031-.406.234-.777.57-1.031a13.262 13.262 0 0 1 4.352-2.168c.468-.133.84-.488.992-.95a1.471 1.471 0 0 0-.223-1.363c-.347-.465-.969-.672-1.582-.539-.281.059-.558.133-.832.211h-.012c-.199.059-.394.117-.586.184-.007.004-.015.004-.023.008-.234.078-.469.164-.695.253l-.055.024c-.21.082-.418.172-.625.266-.027.011-.05.027-.078.039-.195.09-.387.183-.578.285-.032.015-.067.031-.098.05-.18.098-.36.196-.535.297l-.117.07a10.7 10.7 0 0 0-.496.317 12.19 12.19 0 0 0-.71.496 14.044 14.044 0 0 0-3.103 3.246c-.02.024-.035.055-.055.082a9.045 9.045 0 0 0-.296.453.743.743 0 0 1-.602.352.7.7 0 0 1-.61-.289.719.719 0 0 1-.062-.785 13.365 13.365 0 0 1 3.73-4.38 13.396 13.396 0 0 1 4.348-2.167h.004c.469-.133.84-.488.996-.95.153-.464.07-.972-.226-1.363a1.501 1.501 0 0 0-1.512-.554 14.08 14.08 0 0 0-5.512 2.515 14.069 14.069 0 0 0-4.27 5.286.374.374 0 0 0 .34.53.378.378 0 0 0 .344-.214 13.285 13.285 0 0 1 4.04-5.004 13.354 13.354 0 0 1 5.214-2.383.76.76 0 0 1 .758.274.723.723 0 0 1 .11.675.704.704 0 0 1-.489.465 14.255 14.255 0 0 0-4.597 2.29 14.173 14.173 0 0 0-3.942 4.628 1.494 1.494 0 0 0 .125 1.59 1.48 1.48 0 0 0 1.18.586h.066a1.507 1.507 0 0 0 1.192-.691l.004-.004c.093-.153.19-.297.289-.442a.884.884 0 0 1 .05-.078c.004-.008.012-.015.02-.027.8-1.156 1.8-2.2 2.918-3.043.18-.133.363-.266.55-.39a13.038 13.038 0 0 1 .586-.375c.04-.024.083-.048.126-.075.16-.094.324-.184.488-.273.035-.02.07-.04.11-.055.171-.094.35-.18.53-.262a.881.881 0 0 1 .086-.043c.192-.086.383-.168.579-.246.02-.008.042-.02.062-.027.215-.086.434-.164.656-.238.008-.004.016-.004.024-.008.445-.149.894-.274 1.351-.375.325-.07.653.035.825.258a.723.723 0 0 1 .109.675.71.71 0 0 1-.488.47 13.947 13.947 0 0 0-4.61 2.296 2.152 2.152 0 0 0-.227 3.242l.454.457a8.826 8.826 0 0 0-1.653 5.153c0 4.894 3.985 8.878 8.883 8.878 4.895 0 8.88-3.984 8.88-8.879 0-4.898-3.985-8.882-8.88-8.882zm0 17.011c-4.484 0-8.133-3.648-8.133-8.132 0-4.48 3.649-8.13 8.133-8.13 4.48 0 8.13 3.65 8.13 8.13 0 4.484-3.65 8.132-8.13 8.132zm0 0"/><path fill="#3a322b" d="M47.309 40.695c-1.145 0-2.079.93-2.079 2.075 0 1.144.934 2.078 2.079 2.078a2.076 2.076 0 0 0 0-4.152zm0 3.403a1.326 1.326 0 1 1-.004-2.652 1.326 1.326 0 0 1 .004 2.652zM21.223 38.426a1.509 1.509 0 1 0 .001 3.017 1.509 1.509 0 0 0-.001-3.017zm0 2.27a.76.76 0 0 1 0-1.52.759.759 0 0 1 0 1.52zM30.297 24.434a1.509 1.509 0 1 0-.002-3.022 1.509 1.509 0 0 0 .002 3.022zm0-2.27a.759.759 0 1 1-.002 1.517.759.759 0 0 1 .002-1.517zM51.277 27.652a1.509 1.509 0 0 0 0 3.016 1.509 1.509 0 0 0 0-3.016zm0 2.27a.759.759 0 1 1 .001-1.522.759.759 0 0 1 0 1.522zM43.668 27.156a1.51 1.51 0 0 0 1.508 1.512 1.51 1.51 0 0 0 0-3.02c-.832 0-1.508.676-1.508 1.508zm2.27 0a.76.76 0 1 1-1.52.005.76.76 0 0 1 1.52-.005zM55.246 35.023a1.509 1.509 0 1 0 .002 3.018 1.509 1.509 0 0 0-.002-3.018zm0 2.27a.76.76 0 0 1 0-1.52.759.759 0 0 1 0 1.52zM31.238 45.04c0-.833-.68-1.509-1.511-1.509-.829 0-1.508.676-1.508 1.508s.68 1.508 1.508 1.508c.832 0 1.511-.676 1.511-1.508zm-2.27 0a.759.759 0 1 1 1.518 0 .759.759 0 0 1-1.517 0zM39.367 49.77a1.509 1.509 0 1 0 .002 3.017 1.509 1.509 0 0 0-.002-3.017zm0 2.265a.759.759 0 1 1 .002-1.517.759.759 0 0 1-.002 1.517zM26.324 47.5a2.076 2.076 0 1 0 .003 4.151 2.076 2.076 0 0 0-.003-4.151zm0 3.402a1.326 1.326 0 1 1 .004-2.652 1.326 1.326 0 0 1-.004 2.652zM26.133 30.863c0-1.144-.93-2.078-2.074-2.078a2.082 2.082 0 0 0-2.079 2.078 2.076 2.076 0 0 0 4.152 0zm-2.074 1.325a1.326 1.326 0 1 1-.004-2.653 1.326 1.326 0 0 1 .004 2.652zM45.04 50.336a2.076 2.076 0 1 0 .002 4.151 2.076 2.076 0 0 0-.003-4.151zm0 3.402a1.326 1.326 0 1 1 .003-2.652 1.326 1.326 0 0 1-.004 2.652zM25.07 39.266c.512 1.843 1.645 3.125 2.684 3.125.113 0 .223-.012.332-.043.582-.164.992-.723 1.156-1.575.149-.761.086-1.691-.176-2.62-.257-.934-.687-1.762-1.207-2.337-.586-.644-1.226-.91-1.804-.746-1.121.313-1.555 2.157-.985 4.196zm1.32-3.493c.27 0 .594.192.91.547.446.489.817 1.211 1.048 2.032.226.82.285 1.628.16 2.277-.11.55-.336.914-.625.996-.602.164-1.613-.84-2.09-2.559-.48-1.718-.14-3.105.46-3.273a.525.525 0 0 1 .138-.02zM39.527 21.984c.512.465 1.25.852 2.078 1.086a5.999 5.999 0 0 0 1.586.235c1.125 0 1.977-.407 2.18-1.125.149-.528-.086-1.114-.668-1.64-.512-.466-1.246-.852-2.074-1.087-1.86-.523-3.477-.14-3.766.887-.152.531.086 1.113.664 1.644zm.055-1.437c.098-.34.672-.57 1.473-.57.41 0 .875.058 1.367.199.719.203 1.351.527 1.777.918.348.316.516.648.45.883-.145.511-1.391.78-2.84.37-.72-.202-1.348-.53-1.774-.917-.351-.32-.52-.649-.453-.883zM33.723 50.809c-.895-.36-1.813-.524-2.59-.461-.863.07-1.465.418-1.688.98-.226.559-.035 1.227.543 1.875.516.582 1.29 1.098 2.188 1.457.789.317 1.562.469 2.234.469 1.008 0 1.785-.34 2.043-.988.438-1.078-.766-2.543-2.73-3.332zm2.035 3.054c-.235.582-1.649.766-3.305.102-1.652-.664-2.547-1.778-2.312-2.36.129-.324.625-.523 1.324-.523.558 0 1.242.129 1.976.422 1.657.664 2.551 1.777 2.317 2.36zm0 0"/></svg>