<svg xmlns="http://www.w3.org/2000/svg" width="100" viewBox="0 0 75 75" height="100" version="1.0"><defs><clipPath id="a"><path d="M16.727 14.305H32V30H16.727zm0 0"/></clipPath><clipPath id="b"><path d="M45 41h12.977v14H45zm0 0"/></clipPath><clipPath id="c"><path d="M20 53h8v7.805h-8zm0 0"/></clipPath></defs><path fill="#ffecb3" d="M37.5 0C16.79 0 0 16.79 0 37.5S16.79 75 37.5 75 75 58.21 75 37.5 58.21 0 37.5 0"/><g clip-path="url(#a)"><path fill="#e8403a" d="M24.238 29.473c4.16 0 7.543-3.391 7.543-7.559s-3.383-7.559-7.543-7.559c-4.156 0-7.539 3.391-7.539 7.56 0 4.167 3.383 7.558 7.54 7.558zm0-13.032c3.012 0 5.461 2.457 5.461 5.473s-2.449 5.473-5.46 5.473c-3.009 0-5.458-2.453-5.458-5.473 0-3.016 2.45-5.473 5.457-5.473zm0 0"/></g><g clip-path="url(#b)"><path fill="#e8403a" d="M51.48 41.64c-3.57 0-6.472 2.91-6.472 6.485 0 3.574 2.902 6.484 6.472 6.484 3.567 0 6.47-2.91 6.47-6.484s-2.903-6.484-6.47-6.484zm0 10.883a4.399 4.399 0 0 1 0-8.796c2.418 0 4.387 1.972 4.387 4.398 0 2.426-1.969 4.398-4.387 4.398zm0 0"/></g><path fill="#4677b2" d="M44.05 25.066a3.498 3.498 0 0 0 0-6.996 3.5 3.5 0 0 0 0 6.996zm0-4.91a1.413 1.413 0 0 1 0 2.824 1.412 1.412 0 0 1 0-2.824zM25.828 40.227a3.5 3.5 0 0 0-3.492-3.497 3.498 3.498 0 0 0 0 6.997 3.5 3.5 0 0 0 3.492-3.5zm-4.902 0c0-.778.633-1.41 1.41-1.41a1.412 1.412 0 0 1 0 2.824c-.777 0-1.41-.633-1.41-1.414zm0 0"/><g clip-path="url(#c)"><path fill="#4677b2" d="M24.238 53.703a3.496 3.496 0 0 0 0 6.992 3.497 3.497 0 0 0 0-6.992zm0 4.91a1.415 1.415 0 0 1 0-2.828c.778 0 1.41.637 1.41 1.414 0 .778-.632 1.414-1.41 1.414zm0 0"/></g><path fill="#737373" d="M45.992 43.348a1.045 1.045 0 0 0-.137-1.47l-3.16-2.62a4.683 4.683 0 0 0 .485-2.074 4.73 4.73 0 0 0-2.22-4.004l2.165-6.43a1.044 1.044 0 0 0-.652-1.32 1.037 1.037 0 0 0-1.317.656l-2.16 6.406a3.957 3.957 0 0 0-.531-.035c-.887 0-1.715.254-2.426.684l-3.96-4.875a1.041 1.041 0 1 0-1.614 1.32l4.066 5a4.74 4.74 0 0 0-.77 2.36l-6.507 1.437c-.563.125-.918.68-.793 1.242.105.488.539.82 1.016.82a.869.869 0 0 0 .222-.027L34.117 39c.285.688.73 1.29 1.285 1.77l-8.754 11.566a1.045 1.045 0 0 0 .2 1.46 1.036 1.036 0 0 0 1.457-.2l8.968-11.846c.38.102.782.16 1.192.16a4.683 4.683 0 0 0 2.926-1.027l3.136 2.601c.196.164.43.243.664.243.301 0 .598-.13.801-.38zm-7.527-3.524a2.64 2.64 0 0 1 0-5.281 2.642 2.642 0 0 1 0 5.281zm0 0"/></svg>