<svg xmlns="http://www.w3.org/2000/svg" xmlns:xlink="http://www.w3.org/1999/xlink" width="100" zoomAndPan="magnify" viewBox="0 0 75 74.999997" height="100" preserveAspectRatio="xMidYMid meet" version="1.0"><defs><clipPath id="id1"><path d="M 16.726562 14.304688 L 32 14.304688 L 32 30 L 16.726562 30 Z M 16.726562 14.304688 " clip-rule="nonzero"/></clipPath><clipPath id="id2"><path d="M 45 41 L 57.976562 41 L 57.976562 55 L 45 55 Z M 45 41 " clip-rule="nonzero"/></clipPath><clipPath id="id3"><path d="M 20 53 L 28 53 L 28 60.804688 L 20 60.804688 Z M 20 53 " clip-rule="nonzero"/></clipPath></defs><path fill="#ffecb3" d="M 37.5 0 C 16.789062 0 0 16.789062 0 37.5 C 0 58.210938 16.789062 75 37.5 75 C 58.210938 75 75 58.210938 75 37.5 C 75 16.789062 58.210938 0 37.5 0 " fill-opacity="1" fill-rule="nonzero"/><g clip-path="url(#id1)"><path fill="#e8403a" d="M 24.238281 29.472656 C 28.398438 29.472656 31.78125 26.082031 31.78125 21.914062 C 31.78125 17.746094 28.398438 14.355469 24.238281 14.355469 C 20.082031 14.355469 16.699219 17.746094 16.699219 21.914062 C 16.699219 26.082031 20.082031 29.472656 24.238281 29.472656 Z M 24.238281 16.441406 C 27.25 16.441406 29.699219 18.898438 29.699219 21.914062 C 29.699219 24.929688 27.25 27.386719 24.238281 27.386719 C 21.230469 27.386719 18.78125 24.933594 18.78125 21.914062 C 18.78125 18.898438 21.230469 16.441406 24.238281 16.441406 Z M 24.238281 16.441406 " fill-opacity="1" fill-rule="nonzero"/></g><g clip-path="url(#id2)"><path fill="#e8403a" d="M 51.480469 41.640625 C 47.910156 41.640625 45.007812 44.550781 45.007812 48.125 C 45.007812 51.699219 47.910156 54.609375 51.480469 54.609375 C 55.046875 54.609375 57.949219 51.699219 57.949219 48.125 C 57.949219 44.550781 55.046875 41.640625 51.480469 41.640625 Z M 51.480469 52.523438 C 49.058594 52.523438 47.089844 50.550781 47.089844 48.125 C 47.089844 45.699219 49.058594 43.726562 51.480469 43.726562 C 53.898438 43.726562 55.867188 45.699219 55.867188 48.125 C 55.867188 50.550781 53.898438 52.523438 51.480469 52.523438 Z M 51.480469 52.523438 " fill-opacity="1" fill-rule="nonzero"/></g><path fill="#4677b2" d="M 44.050781 25.066406 C 45.972656 25.066406 47.539062 23.496094 47.539062 21.570312 C 47.539062 19.640625 45.972656 18.070312 44.050781 18.070312 C 42.125 18.070312 40.558594 19.640625 40.558594 21.570312 C 40.558594 23.496094 42.125 25.066406 44.050781 25.066406 Z M 44.050781 20.15625 C 44.828125 20.15625 45.460938 20.789062 45.460938 21.570312 C 45.460938 22.347656 44.828125 22.980469 44.050781 22.980469 C 43.273438 22.980469 42.640625 22.347656 42.640625 21.570312 C 42.640625 20.789062 43.273438 20.15625 44.050781 20.15625 Z M 44.050781 20.15625 " fill-opacity="1" fill-rule="nonzero"/><path fill="#4677b2" d="M 25.828125 40.226562 C 25.828125 38.300781 24.261719 36.730469 22.335938 36.730469 C 20.414062 36.730469 18.847656 38.300781 18.847656 40.226562 C 18.847656 42.15625 20.414062 43.726562 22.335938 43.726562 C 24.261719 43.726562 25.828125 42.15625 25.828125 40.226562 Z M 20.925781 40.226562 C 20.925781 39.449219 21.558594 38.816406 22.335938 38.816406 C 23.113281 38.816406 23.746094 39.449219 23.746094 40.226562 C 23.746094 41.007812 23.113281 41.640625 22.335938 41.640625 C 21.558594 41.640625 20.925781 41.007812 20.925781 40.226562 Z M 20.925781 40.226562 " fill-opacity="1" fill-rule="nonzero"/><g clip-path="url(#id3)"><path fill="#4677b2" d="M 24.238281 53.703125 C 22.316406 53.703125 20.75 55.269531 20.75 57.199219 C 20.75 59.128906 22.316406 60.695312 24.238281 60.695312 C 26.164062 60.695312 27.730469 59.128906 27.730469 57.199219 C 27.730469 55.269531 26.164062 53.703125 24.238281 53.703125 Z M 24.238281 58.613281 C 23.464844 58.613281 22.832031 57.976562 22.832031 57.199219 C 22.832031 56.421875 23.464844 55.785156 24.238281 55.785156 C 25.015625 55.785156 25.648438 56.421875 25.648438 57.199219 C 25.648438 57.976562 25.015625 58.613281 24.238281 58.613281 Z M 24.238281 58.613281 " fill-opacity="1" fill-rule="nonzero"/></g><path fill="#737373" d="M 45.992188 43.347656 C 46.359375 42.902344 46.296875 42.246094 45.855469 41.878906 L 42.695312 39.257812 C 43.003906 38.628906 43.179688 37.929688 43.179688 37.183594 C 43.179688 35.496094 42.289062 34.015625 40.960938 33.179688 L 43.125 26.75 C 43.308594 26.207031 43.015625 25.613281 42.472656 25.429688 C 41.929688 25.246094 41.335938 25.539062 41.15625 26.085938 L 38.996094 32.492188 C 38.824219 32.46875 38.644531 32.457031 38.464844 32.457031 C 37.578125 32.457031 36.75 32.710938 36.039062 33.140625 L 32.078125 28.265625 C 31.714844 27.820312 31.058594 27.753906 30.613281 28.117188 C 30.167969 28.480469 30.101562 29.136719 30.464844 29.585938 L 34.53125 34.585938 C 34.082031 35.269531 33.808594 36.074219 33.761719 36.945312 L 27.253906 38.382812 C 26.691406 38.507812 26.335938 39.0625 26.460938 39.625 C 26.566406 40.113281 27 40.445312 27.476562 40.445312 C 27.550781 40.445312 27.625 40.4375 27.699219 40.417969 L 34.117188 39 C 34.402344 39.6875 34.847656 40.289062 35.402344 40.769531 L 26.648438 52.335938 C 26.300781 52.792969 26.390625 53.449219 26.847656 53.796875 C 27.035156 53.9375 27.257812 54.007812 27.476562 54.007812 C 27.789062 54.007812 28.101562 53.867188 28.304688 53.597656 L 37.273438 41.75 C 37.652344 41.851562 38.054688 41.910156 38.464844 41.910156 C 39.570312 41.910156 40.585938 41.523438 41.390625 40.882812 L 44.527344 43.484375 C 44.722656 43.648438 44.957031 43.726562 45.191406 43.726562 C 45.492188 43.726562 45.789062 43.597656 45.992188 43.347656 Z M 38.464844 39.824219 C 37.015625 39.824219 35.832031 38.640625 35.832031 37.183594 C 35.832031 35.726562 37.015625 34.542969 38.464844 34.542969 C 39.917969 34.542969 41.101562 35.726562 41.101562 37.183594 C 41.101562 38.640625 39.917969 39.824219 38.464844 39.824219 Z M 38.464844 39.824219 " fill-opacity="1" fill-rule="nonzero"/></svg>