<svg xmlns="http://www.w3.org/2000/svg" xmlns:xlink="http://www.w3.org/1999/xlink" width="100" zoomAndPan="magnify" viewBox="0 0 75 74.999997" height="100" preserveAspectRatio="xMidYMid meet" version="1.0"><defs><clipPath id="id1"><path d="M 6.574219 0 L 69.519531 0 L 69.519531 74.996094 L 6.574219 74.996094 Z M 6.574219 0 " clip-rule="nonzero"/></clipPath><clipPath id="id2"><path d="M 9.890625 5.570312 L 63.617188 5.570312 L 63.617188 74.996094 L 9.890625 74.996094 Z M 9.890625 5.570312 " clip-rule="nonzero"/></clipPath><clipPath id="id3"><path d="M 10.34375 0 L 69.519531 0 L 69.519531 69.113281 L 10.34375 69.113281 Z M 10.34375 0 " clip-rule="nonzero"/></clipPath></defs><g clip-path="url(#id1)"><path fill="#7ec0a4" d="M 62.792969 74.695312 L 14.257812 71.546875 L 31.820312 71.488281 L 31.824219 71.488281 C 31.824219 71.488281 31.828125 71.488281 31.828125 71.488281 L 53.441406 71.410156 C 53.445312 71.464844 53.453125 71.519531 53.457031 71.574219 C 53.578125 71.5625 53.699219 71.546875 53.820312 71.535156 C 53.804688 71.492188 53.789062 71.429688 53.769531 71.410156 L 60.601562 71.386719 L 61.085938 71.386719 C 61.6875 71.386719 62.261719 71.277344 62.792969 71.078125 Z M 20.242188 0 L 19.953125 3.390625 L 16.6875 3.113281 L 16.152344 9.347656 L 8.472656 9.523438 L 6.574219 71.574219 L 9.976562 71.5625 L 62.929688 74.996094 L 62.941406 74.996094 C 62.976562 74.996094 63.011719 74.984375 63.039062 74.957031 C 63.070312 74.929688 63.085938 74.890625 63.085938 74.851562 L 63.085938 70.957031 C 64.78125 70.195312 65.960938 68.496094 65.960938 66.523438 L 65.960938 45.699219 L 69.519531 4.207031 L 20.242188 0 " fill-opacity="1" fill-rule="nonzero"/></g><g clip-path="url(#id2)"><path fill="#1a1e2d" d="M 49.671875 6.285156 C 51.019531 6.285156 51.183594 7.589844 51.199219 7.738281 C 51.214844 7.925781 51.382812 8.0625 51.566406 8.046875 C 51.753906 8.03125 51.894531 7.863281 51.878906 7.679688 C 51.835938 7.21875 51.601562 6.503906 51.015625 6.042969 C 50.6875 5.785156 50.25 5.605469 49.671875 5.605469 C 49.253906 5.605469 48.90625 5.695312 48.621094 5.839844 C 47.75 6.273438 47.433594 7.210938 47.433594 7.707031 L 47.433594 17.882812 C 47.433594 17.886719 47.433594 17.890625 47.433594 17.894531 C 47.460938 18.640625 47.96875 20.046875 49.671875 20.046875 C 50.300781 20.046875 50.816406 19.851562 51.203125 19.460938 C 51.898438 18.765625 51.902344 17.710938 51.902344 17.667969 L 51.90625 13.101562 L 51.90625 10.390625 C 51.90625 10.203125 51.753906 10.050781 51.566406 10.050781 C 51.378906 10.050781 51.226562 10.203125 51.226562 10.390625 L 51.222656 13.148438 L 51.21875 17.667969 C 51.21875 17.839844 51.171875 19.367188 49.671875 19.367188 C 48.242188 19.367188 48.125 18.046875 48.113281 17.875 L 48.113281 7.707031 C 48.113281 7.328125 48.484375 6.285156 49.671875 6.285156 Z M 39.070312 20.140625 C 39.070312 20.140625 39.070312 20.140625 39.074219 20.140625 L 47.628906 19.925781 C 47.683594 19.921875 47.722656 19.878906 47.722656 19.824219 C 47.722656 19.773438 47.679688 19.730469 47.625 19.730469 C 47.625 19.730469 47.625 19.730469 47.621094 19.730469 L 39.070312 19.945312 C 39.015625 19.945312 38.972656 19.992188 38.972656 20.042969 C 38.976562 20.097656 39.019531 20.140625 39.070312 20.140625 Z M 38.9375 21.515625 C 38.9375 21.515625 38.941406 21.515625 38.941406 21.515625 L 48.589844 21.207031 C 48.644531 21.203125 48.6875 21.160156 48.6875 21.105469 C 48.683594 21.054688 48.640625 21.011719 48.589844 21.011719 C 48.585938 21.011719 48.585938 21.011719 48.585938 21.011719 L 38.933594 21.324219 C 38.878906 21.324219 38.839844 21.367188 38.839844 21.421875 C 38.839844 21.476562 38.886719 21.515625 38.9375 21.515625 Z M 49.84375 23.371094 L 38.871094 22.410156 C 38.816406 22.40625 38.769531 22.445312 38.761719 22.5 C 38.757812 22.550781 38.796875 22.601562 38.851562 22.605469 L 49.828125 23.566406 C 49.828125 23.566406 49.832031 23.566406 49.835938 23.566406 C 49.886719 23.566406 49.925781 23.527344 49.933594 23.476562 C 49.9375 23.421875 49.898438 23.375 49.84375 23.371094 Z M 36.226562 32.753906 L 36.222656 32.753906 L 56.796875 33.84375 L 54.261719 13.242188 L 55.601562 32.25 Z M 61.183594 61.132812 C 61.265625 61.132812 61.332031 61.066406 61.332031 60.984375 L 61.332031 42.019531 C 61.332031 41.9375 61.265625 41.871094 61.183594 41.871094 C 61.105469 41.871094 61.039062 41.9375 61.039062 42.019531 L 61.039062 60.984375 C 61.039062 61.066406 61.105469 61.132812 61.183594 61.132812 Z M 62.160156 63.417969 C 62.160156 63.5 62.226562 63.5625 62.304688 63.5625 C 62.386719 63.5625 62.453125 63.5 62.453125 63.417969 L 62.453125 42.015625 C 62.453125 41.9375 62.386719 41.871094 62.304688 41.871094 C 62.226562 41.871094 62.160156 41.9375 62.160156 42.015625 Z M 63.476562 42.015625 C 63.476562 41.9375 63.410156 41.871094 63.328125 41.871094 C 63.25 41.871094 63.183594 41.9375 63.183594 42.015625 L 63.183594 66.433594 C 63.183594 66.515625 63.25 66.578125 63.328125 66.578125 C 63.410156 66.578125 63.476562 66.515625 63.476562 66.433594 Z M 63.085938 70.957031 L 63.085938 74.851562 C 63.085938 74.890625 63.070312 74.929688 63.039062 74.957031 C 63.011719 74.984375 62.976562 74.996094 62.941406 74.996094 L 62.929688 74.996094 L 9.976562 71.5625 L 14.257812 71.546875 L 62.792969 74.695312 L 62.792969 71.078125 C 62.890625 71.042969 62.988281 71 63.085938 70.957031 " fill-opacity="1" fill-rule="nonzero"/></g><g clip-path="url(#id3)"><path fill="#f14975" d="M 10.550781 69.046875 C 10.554688 69.046875 10.554688 69.046875 10.554688 69.046875 C 10.632812 69.046875 10.699219 68.984375 10.703125 68.902344 L 11.0625 54.476562 C 11.042969 54.445312 11.027344 54.414062 11.035156 54.398438 C 11.042969 54.371094 11.054688 54.34375 11.066406 54.3125 L 11.132812 51.671875 C 11.113281 51.703125 11.097656 51.734375 11.078125 51.769531 C 10.988281 51.714844 10.914062 51.667969 10.839844 51.625 L 10.410156 68.894531 C 10.40625 68.976562 10.472656 69.042969 10.550781 69.046875 Z M 11.144531 50.941406 C 11.148438 50.941406 11.148438 50.941406 11.148438 50.945312 L 11.609375 32.589844 C 11.511719 32.59375 11.414062 32.59375 11.316406 32.585938 L 10.847656 51.425781 C 10.949219 51.179688 11.046875 51.019531 11.144531 50.941406 Z M 12.136719 11.40625 C 12.140625 11.328125 12.074219 11.261719 11.992188 11.257812 C 11.910156 11.253906 11.847656 11.320312 11.84375 11.402344 L 11.324219 32.292969 C 11.414062 32.265625 11.511719 32.234375 11.617188 32.199219 Z M 49.933594 23.476562 C 49.9375 23.421875 49.898438 23.375 49.84375 23.371094 L 38.867188 22.410156 C 38.816406 22.40625 38.769531 22.445312 38.765625 22.5 C 38.761719 22.550781 38.800781 22.597656 38.851562 22.601562 L 49.828125 23.566406 C 49.828125 23.566406 49.832031 23.566406 49.835938 23.566406 C 49.886719 23.566406 49.925781 23.527344 49.933594 23.476562 Z M 38.839844 21.421875 C 38.839844 21.476562 38.882812 21.515625 38.9375 21.515625 C 38.9375 21.515625 38.941406 21.515625 38.941406 21.515625 L 48.589844 21.207031 C 48.644531 21.203125 48.6875 21.160156 48.6875 21.105469 C 48.683594 21.050781 48.640625 21.011719 48.585938 21.011719 L 38.933594 21.320312 C 38.882812 21.324219 38.839844 21.367188 38.839844 21.421875 Z M 38.972656 20.042969 C 38.972656 20.097656 39.019531 20.140625 39.070312 20.140625 C 39.070312 20.140625 39.070312 20.140625 39.074219 20.140625 L 47.628906 19.925781 C 47.683594 19.921875 47.722656 19.878906 47.722656 19.824219 C 47.722656 19.773438 47.679688 19.730469 47.625 19.730469 L 47.621094 19.730469 L 39.070312 19.945312 C 39.015625 19.945312 38.972656 19.992188 38.972656 20.042969 Z M 55.601562 32.25 L 36.222656 32.753906 L 35.699219 32.765625 L 34.984375 14.289062 L 47.433594 13.414062 L 47.433594 17.882812 C 47.433594 17.886719 47.433594 17.890625 47.433594 17.894531 C 47.460938 18.640625 47.96875 20.046875 49.671875 20.046875 C 50.300781 20.046875 50.816406 19.847656 51.203125 19.460938 C 51.898438 18.765625 51.902344 17.710938 51.902344 17.667969 L 51.90625 13.101562 L 54.238281 12.941406 L 54.261719 13.242188 Z M 49.671875 19.367188 C 51.171875 19.367188 51.21875 17.839844 51.21875 17.667969 L 51.222656 13.148438 L 48.113281 13.367188 L 48.113281 17.875 C 48.125 18.046875 48.242188 19.367188 49.671875 19.367188 Z M 48.621094 5.839844 L 19.953125 3.390625 L 20.242188 0 L 69.519531 4.207031 L 65.960938 45.699219 L 65.960938 43.117188 C 65.960938 41.214844 64.863281 39.566406 63.265625 38.765625 L 65.960938 7.320312 L 51.015625 6.042969 C 50.6875 5.785156 50.25 5.605469 49.671875 5.605469 C 49.253906 5.605469 48.90625 5.695312 48.621094 5.839844 " fill-opacity="1" fill-rule="nonzero"/></g><path fill="#f7cd34" d="M 31.210938 18.65625 C 31.171875 18.660156 31.128906 18.667969 31.085938 18.675781 C 31.101562 18.753906 31.117188 18.832031 31.128906 18.910156 C 31.167969 18.902344 31.210938 18.894531 31.246094 18.890625 C 31.234375 18.8125 31.222656 18.734375 31.210938 18.65625 Z M 10.796875 10.539062 C 10.839844 10.535156 10.914062 10.535156 10.914062 10.53125 C 10.917969 10.449219 10.914062 10.371094 10.910156 10.289062 C 10.867188 10.289062 10.828125 10.292969 10.785156 10.292969 C 10.789062 10.375 10.792969 10.457031 10.796875 10.539062 Z M 17.230469 20.601562 C 17.207031 20.59375 17.132812 20.660156 17.125 20.707031 C 17.117188 20.734375 17.179688 20.78125 17.222656 20.835938 C 17.28125 20.785156 17.324219 20.75 17.363281 20.71875 C 17.320312 20.675781 17.28125 20.617188 17.230469 20.601562 Z M 64.84375 53.082031 C 64.800781 53.058594 64.753906 53.035156 64.710938 53.015625 C 64.679688 53.121094 64.644531 53.230469 64.609375 53.339844 C 64.644531 53.351562 64.675781 53.363281 64.710938 53.375 C 64.753906 53.277344 64.800781 53.179688 64.84375 53.082031 Z M 22.144531 31.375 C 22.144531 31.273438 22.144531 31.167969 22.144531 31.066406 C 22.113281 31.066406 22.085938 31.066406 22.054688 31.066406 C 22.054688 31.167969 22.054688 31.273438 22.054688 31.375 C 22.085938 31.375 22.113281 31.375 22.144531 31.375 Z M 33.324219 39.640625 C 33.371094 39.636719 33.417969 39.628906 33.460938 39.625 C 33.449219 39.519531 33.433594 39.414062 33.417969 39.308594 C 33.375 39.316406 33.332031 39.320312 33.289062 39.328125 C 33.300781 39.429688 33.3125 39.535156 33.324219 39.640625 Z M 63.125 68.5625 C 63.132812 68.609375 63.214844 68.679688 63.257812 68.675781 C 63.304688 68.667969 63.371094 68.59375 63.378906 68.542969 C 63.386719 68.492188 63.328125 68.429688 63.28125 68.335938 C 63.1875 68.464844 63.121094 68.519531 63.125 68.5625 Z M 14.585938 50.84375 C 14.585938 50.75 14.585938 50.65625 14.585938 50.5625 C 14.542969 50.5625 14.5 50.558594 14.457031 50.558594 C 14.457031 50.652344 14.457031 50.746094 14.464844 50.839844 C 14.464844 50.84375 14.542969 50.84375 14.585938 50.84375 Z M 34.179688 19.863281 C 34.175781 19.851562 34.101562 19.851562 34.058594 19.84375 C 34.050781 19.929688 34.039062 20.011719 34.03125 20.09375 C 34.082031 20.101562 34.132812 20.105469 34.183594 20.109375 C 34.183594 20.027344 34.1875 19.941406 34.179688 19.863281 Z M 38.101562 36.445312 C 38.058594 36.441406 38.011719 36.4375 37.964844 36.433594 C 37.957031 36.542969 37.953125 36.648438 37.945312 36.753906 C 37.984375 36.753906 38.023438 36.757812 38.0625 36.761719 C 38.074219 36.65625 38.089844 36.550781 38.101562 36.445312 Z M 19.796875 19.476562 C 19.792969 19.515625 19.871094 19.601562 19.90625 19.601562 C 19.960938 19.597656 20.039062 19.535156 20.046875 19.488281 C 20.054688 19.445312 19.984375 19.386719 19.929688 19.3125 C 19.867188 19.382812 19.800781 19.425781 19.796875 19.476562 Z M 53.757812 35.261719 C 53.757812 35.257812 53.648438 35.253906 53.644531 35.261719 C 53.636719 35.34375 53.632812 35.425781 53.628906 35.511719 C 53.675781 35.511719 53.71875 35.511719 53.765625 35.515625 C 53.765625 35.429688 53.765625 35.347656 53.757812 35.261719 Z M 38.050781 65.335938 C 38.0625 65.222656 38.074219 65.109375 38.085938 64.992188 C 38.042969 64.988281 38.003906 64.984375 37.960938 64.980469 C 37.949219 65.09375 37.9375 65.207031 37.921875 65.324219 C 37.964844 65.328125 38.007812 65.332031 38.050781 65.335938 Z M 18.648438 39.84375 C 18.546875 39.882812 18.449219 39.925781 18.347656 39.964844 C 18.375 40.011719 18.402344 40.058594 18.433594 40.109375 C 18.519531 40.058594 18.609375 40.007812 18.699219 39.957031 C 18.683594 39.921875 18.664062 39.882812 18.648438 39.84375 Z M 50.269531 41.082031 C 50.316406 41.089844 50.375 41.027344 50.457031 40.980469 C 50.382812 40.914062 50.339844 40.839844 50.289062 40.835938 C 50.246094 40.832031 50.160156 40.90625 50.15625 40.949219 C 50.152344 40.996094 50.222656 41.078125 50.269531 41.082031 Z M 47.429688 61.796875 C 47.386719 61.789062 47.34375 61.78125 47.300781 61.773438 C 47.285156 61.867188 47.269531 61.957031 47.261719 62.050781 C 47.261719 62.054688 47.375 62.070312 47.375 62.070312 C 47.398438 61.980469 47.414062 61.890625 47.429688 61.796875 Z M 57.640625 32.238281 C 57.605469 32.242188 57.566406 32.246094 57.527344 32.25 C 57.53125 32.335938 57.539062 32.421875 57.542969 32.503906 C 57.589844 32.5 57.640625 32.492188 57.6875 32.484375 C 57.671875 32.402344 57.660156 32.320312 57.640625 32.238281 Z M 13.765625 30.105469 C 13.746094 30.195312 13.726562 30.289062 13.707031 30.378906 C 13.761719 30.386719 13.8125 30.394531 13.863281 30.40625 C 13.871094 30.3125 13.882812 30.222656 13.878906 30.132812 C 13.878906 30.121094 13.804688 30.113281 13.765625 30.105469 Z M 40.695312 60.144531 C 40.675781 60.226562 40.664062 60.3125 40.652344 60.398438 C 40.703125 60.40625 40.75 60.414062 40.800781 60.421875 C 40.804688 60.332031 40.8125 60.246094 40.808594 60.160156 C 40.808594 60.152344 40.695312 60.140625 40.695312 60.144531 Z M 18.371094 59.34375 C 18.402344 59.34375 18.429688 59.34375 18.460938 59.339844 C 18.460938 59.214844 18.460938 59.089844 18.460938 58.964844 C 18.421875 58.964844 18.386719 58.964844 18.351562 58.964844 C 18.359375 59.089844 18.363281 59.21875 18.371094 59.34375 Z M 37.8125 58.824219 C 37.917969 58.832031 38.023438 58.84375 38.128906 58.851562 C 38.136719 58.816406 38.144531 58.78125 38.148438 58.742188 C 38.042969 58.71875 37.9375 58.695312 37.828125 58.667969 C 37.824219 58.722656 37.816406 58.773438 37.8125 58.824219 Z M 56.277344 19.980469 C 56.292969 20.015625 56.308594 20.050781 56.324219 20.082031 C 56.433594 20.035156 56.542969 19.988281 56.65625 19.941406 C 56.636719 19.898438 56.617188 19.859375 56.597656 19.820312 C 56.488281 19.875 56.382812 19.929688 56.277344 19.980469 Z M 60.746094 69.453125 C 60.785156 69.457031 60.820312 69.457031 60.855469 69.457031 C 60.863281 69.375 60.871094 69.292969 60.871094 69.210938 C 60.871094 69.207031 60.777344 69.203125 60.726562 69.199219 C 60.734375 69.285156 60.738281 69.371094 60.746094 69.453125 Z M 39.011719 44.738281 C 39.066406 44.734375 39.117188 44.683594 39.203125 44.632812 C 39.125 44.574219 39.074219 44.507812 39.023438 44.507812 C 38.980469 44.507812 38.925781 44.585938 38.910156 44.636719 C 38.902344 44.660156 38.976562 44.742188 39.011719 44.738281 Z M 57.707031 67.519531 C 57.707031 67.566406 57.707031 67.613281 57.707031 67.660156 C 57.785156 67.660156 57.863281 67.660156 57.945312 67.660156 C 57.9375 67.613281 57.9375 67.519531 57.921875 67.515625 C 57.851562 67.503906 57.78125 67.515625 57.707031 67.519531 Z M 58.332031 23.1875 C 58.1875 23.066406 58.140625 23.027344 58.09375 22.988281 C 58.058594 23.039062 57.996094 23.089844 57.996094 23.140625 C 58 23.1875 58.066406 23.261719 58.113281 23.265625 C 58.171875 23.273438 58.238281 23.222656 58.332031 23.1875 Z M 20.695312 51.355469 C 20.707031 51.253906 20.71875 51.148438 20.730469 51.046875 C 20.683594 51.039062 20.636719 51.03125 20.589844 51.023438 C 20.566406 51.125 20.546875 51.222656 20.523438 51.324219 C 20.582031 51.335938 20.636719 51.347656 20.695312 51.355469 Z M 16.878906 68.878906 C 16.898438 68.984375 16.914062 69.089844 16.933594 69.195312 C 16.972656 69.1875 17.007812 69.183594 17.046875 69.179688 C 17.039062 69.070312 17.03125 68.964844 17.023438 68.859375 C 16.976562 68.863281 16.925781 68.871094 16.878906 68.878906 Z M 20.554688 41.933594 C 20.5625 41.984375 20.636719 42.054688 20.683594 42.058594 C 20.730469 42.058594 20.777344 41.980469 20.847656 41.917969 C 20.765625 41.867188 20.714844 41.804688 20.660156 41.804688 C 20.621094 41.800781 20.546875 41.894531 20.554688 41.933594 Z M 49.78125 38.90625 C 49.832031 38.910156 49.886719 38.847656 50 38.78125 C 49.917969 38.722656 49.863281 38.660156 49.8125 38.660156 C 49.765625 38.660156 49.6875 38.726562 49.679688 38.769531 C 49.675781 38.8125 49.738281 38.902344 49.78125 38.90625 Z M 57.671875 42.058594 C 57.671875 42.050781 57.574219 42.074219 57.523438 42.082031 C 57.542969 42.164062 57.5625 42.246094 57.582031 42.328125 C 57.628906 42.320312 57.675781 42.308594 57.726562 42.300781 C 57.710938 42.21875 57.699219 42.136719 57.671875 42.058594 Z M 49.726562 69.640625 C 49.726562 69.75 49.726562 69.855469 49.726562 69.960938 C 49.769531 69.960938 49.808594 69.957031 49.851562 69.957031 C 49.84375 69.851562 49.835938 69.742188 49.828125 69.636719 C 49.792969 69.636719 49.761719 69.640625 49.726562 69.640625 Z M 28.621094 14.800781 C 28.628906 14.742188 28.570312 14.675781 28.515625 14.558594 C 28.425781 14.722656 28.367188 14.785156 28.375 14.835938 C 28.382812 14.886719 28.457031 14.925781 28.503906 14.96875 C 28.546875 14.914062 28.617188 14.859375 28.621094 14.800781 Z M 18.800781 14.457031 C 18.910156 14.429688 19.023438 14.398438 19.132812 14.371094 C 19.125 14.332031 19.113281 14.289062 19.101562 14.25 C 18.992188 14.277344 18.878906 14.308594 18.769531 14.335938 C 18.78125 14.375 18.789062 14.417969 18.800781 14.457031 Z M 59.40625 62.769531 C 59.355469 62.769531 59.300781 62.769531 59.25 62.773438 C 59.25 62.855469 59.25 62.941406 59.25 63.027344 C 59.300781 63.023438 59.398438 63.027344 59.398438 63.019531 C 59.410156 62.9375 59.40625 62.851562 59.40625 62.769531 Z M 22.367188 57.769531 C 22.398438 57.660156 22.429688 57.550781 22.460938 57.441406 C 22.410156 57.433594 22.359375 57.425781 22.304688 57.417969 C 22.289062 57.527344 22.269531 57.640625 22.25 57.75 C 22.289062 57.757812 22.328125 57.765625 22.367188 57.769531 Z M 49.828125 56.414062 C 49.789062 56.410156 49.753906 56.410156 49.710938 56.40625 C 49.703125 56.5 49.691406 56.59375 49.679688 56.6875 C 49.730469 56.695312 49.777344 56.703125 49.828125 56.710938 C 49.828125 56.613281 49.828125 56.511719 49.828125 56.414062 Z M 21.589844 63.3125 C 21.628906 63.3125 21.671875 63.3125 21.710938 63.3125 C 21.722656 63.234375 21.738281 63.152344 21.734375 63.074219 C 21.730469 63.058594 21.621094 63.054688 21.5625 63.046875 C 21.570312 63.136719 21.578125 63.222656 21.589844 63.3125 Z M 59.03125 36.621094 C 59.011719 36.722656 58.992188 36.828125 58.972656 36.929688 C 59.019531 36.9375 59.066406 36.949219 59.117188 36.957031 C 59.136719 36.855469 59.15625 36.753906 59.179688 36.648438 C 59.128906 36.640625 59.078125 36.628906 59.03125 36.621094 Z M 36.402344 54.328125 C 36.347656 54.324219 36.296875 54.320312 36.246094 54.316406 C 36.242188 54.402344 36.234375 54.488281 36.230469 54.574219 C 36.277344 54.578125 36.328125 54.578125 36.375 54.585938 C 36.382812 54.5 36.390625 54.414062 36.402344 54.328125 Z M 25.484375 15.746094 C 25.507812 15.855469 25.519531 15.972656 25.519531 16.089844 C 25.519531 16.117188 25.515625 16.140625 25.515625 16.164062 C 25.5625 16.160156 25.609375 16.152344 25.652344 16.144531 C 25.636719 16.003906 25.617188 15.867188 25.597656 15.726562 C 25.558594 15.734375 25.523438 15.738281 25.484375 15.746094 Z M 31.417969 15.136719 C 31.375 15.222656 31.328125 15.304688 31.28125 15.390625 C 31.328125 15.414062 31.371094 15.441406 31.414062 15.464844 C 31.460938 15.390625 31.511719 15.316406 31.539062 15.234375 C 31.546875 15.21875 31.460938 15.171875 31.417969 15.136719 Z M 17.671875 16.328125 C 17.667969 16.347656 17.792969 16.445312 17.800781 16.4375 C 17.867188 16.390625 17.933594 16.324219 17.96875 16.253906 C 17.976562 16.230469 17.894531 16.164062 17.828125 16.085938 C 17.761719 16.183594 17.699219 16.25 17.671875 16.328125 Z M 36.425781 68.796875 C 36.4375 68.832031 36.449219 68.863281 36.460938 68.898438 C 36.589844 68.863281 36.714844 68.824219 36.84375 68.785156 C 36.828125 68.742188 36.816406 68.695312 36.800781 68.648438 C 36.675781 68.699219 36.550781 68.746094 36.425781 68.796875 Z M 18.398438 11.414062 C 18.53125 11.445312 18.660156 11.476562 18.789062 11.511719 C 18.800781 11.464844 18.808594 11.417969 18.820312 11.371094 C 18.6875 11.347656 18.558594 11.324219 18.425781 11.296875 C 18.417969 11.335938 18.410156 11.375 18.398438 11.414062 Z M 42.019531 43.015625 C 41.972656 43.011719 41.882812 42.996094 41.878906 43.003906 C 41.855469 43.09375 41.847656 43.1875 41.835938 43.28125 C 41.878906 43.289062 41.925781 43.296875 41.972656 43.304688 C 41.988281 43.207031 42.003906 43.113281 42.019531 43.015625 Z M 53.042969 44.996094 C 53.039062 44.984375 52.929688 45 52.867188 45 C 52.886719 45.085938 52.902344 45.171875 52.917969 45.253906 C 52.964844 45.25 53.015625 45.246094 53.0625 45.242188 C 53.058594 45.160156 53.0625 45.074219 53.042969 44.996094 Z M 20.53125 13.035156 C 20.585938 13.046875 20.636719 13.054688 20.691406 13.0625 C 20.699219 12.953125 20.707031 12.839844 20.714844 12.730469 C 20.671875 12.726562 20.632812 12.71875 20.59375 12.714844 C 20.570312 12.820312 20.550781 12.929688 20.53125 13.035156 Z M 28.46875 49.285156 C 28.589844 49.316406 28.710938 49.347656 28.828125 49.378906 C 28.839844 49.332031 28.851562 49.285156 28.863281 49.238281 C 28.746094 49.207031 28.625 49.175781 28.507812 49.144531 C 28.496094 49.191406 28.480469 49.238281 28.46875 49.285156 Z M 48.753906 69.675781 L 48.753906 69.953125 C 48.792969 69.953125 48.835938 69.957031 48.875 69.957031 C 48.882812 69.855469 48.894531 69.75 48.90625 69.644531 C 48.898438 69.644531 48.886719 69.644531 48.878906 69.644531 C 48.839844 69.65625 48.796875 69.667969 48.753906 69.675781 Z M 46.757812 47.167969 C 46.824219 47.160156 46.890625 47.113281 47 47.0625 C 46.90625 46.992188 46.84375 46.914062 46.804688 46.921875 C 46.742188 46.941406 46.695312 47.015625 46.640625 47.0625 C 46.679688 47.101562 46.722656 47.167969 46.757812 47.167969 Z M 16.355469 10.097656 C 16.34375 10.007812 16.335938 9.914062 16.3125 9.824219 C 16.308594 9.8125 16.214844 9.828125 16.164062 9.832031 C 16.171875 9.921875 16.179688 10.015625 16.1875 10.109375 C 16.242188 10.105469 16.300781 10.101562 16.355469 10.097656 Z M 59.207031 15.257812 C 59.214844 15.308594 59.21875 15.359375 59.226562 15.410156 C 59.339844 15.386719 59.457031 15.367188 59.570312 15.34375 C 59.5625 15.304688 59.550781 15.226562 59.546875 15.226562 C 59.433594 15.230469 59.320312 15.246094 59.207031 15.257812 Z M 59.984375 29.199219 C 60.253906 29.019531 60.253906 29.019531 59.964844 28.839844 C 59.972656 28.972656 59.976562 29.070312 59.984375 29.199219 Z M 19.816406 57.40625 C 19.902344 57.417969 19.988281 57.414062 20.078125 57.414062 C 20.078125 57.367188 20.078125 57.316406 20.082031 57.269531 C 19.988281 57.265625 19.898438 57.261719 19.808594 57.257812 C 19.8125 57.308594 19.808594 57.40625 19.816406 57.40625 Z M 30.609375 38.390625 C 30.609375 38.496094 30.609375 38.601562 30.609375 38.707031 C 30.660156 38.707031 30.714844 38.707031 30.769531 38.710938 C 30.761719 38.601562 30.75 38.492188 30.742188 38.382812 C 30.699219 38.382812 30.652344 38.386719 30.609375 38.390625 Z M 11.566406 41.617188 C 11.617188 41.597656 11.664062 41.582031 11.714844 41.566406 C 11.6875 41.476562 11.660156 41.382812 11.632812 41.292969 C 11.578125 41.3125 11.476562 41.34375 11.480469 41.351562 C 11.5 41.441406 11.535156 41.527344 11.566406 41.617188 Z M 28.789062 24.054688 C 28.789062 23.945312 28.789062 23.835938 28.789062 23.726562 C 28.738281 23.730469 28.683594 23.730469 28.628906 23.734375 C 28.640625 23.84375 28.652344 23.949219 28.664062 24.058594 C 28.707031 24.058594 28.746094 24.054688 28.789062 24.054688 Z M 57.90625 64.535156 C 57.867188 64.632812 57.835938 64.738281 57.804688 64.84375 C 57.851562 64.863281 57.894531 64.878906 57.941406 64.894531 C 57.988281 64.792969 58.03125 64.6875 58.078125 64.585938 C 58.019531 64.566406 57.910156 64.527344 57.90625 64.535156 Z M 56.25 11.105469 C 56.253906 11.015625 56.269531 10.921875 56.25 10.835938 C 56.246094 10.8125 56.125 10.816406 56.054688 10.8125 C 56.0625 10.90625 56.074219 11.003906 56.082031 11.101562 C 56.136719 11.105469 56.191406 11.105469 56.25 11.105469 Z M 53.046875 64.28125 C 53.066406 64.234375 53.082031 64.1875 53.101562 64.140625 C 53 64.101562 52.898438 64.058594 52.792969 64.027344 C 52.785156 64.023438 52.75 64.113281 52.726562 64.160156 C 52.835938 64.203125 52.941406 64.242188 53.046875 64.28125 Z M 38.585938 64.285156 C 38.609375 64.238281 38.628906 64.191406 38.652344 64.140625 C 38.546875 64.101562 38.441406 64.0625 38.335938 64.027344 C 38.328125 64.027344 38.300781 64.101562 38.28125 64.136719 C 38.382812 64.1875 38.484375 64.238281 38.585938 64.285156 Z M 53.640625 44.242188 C 53.542969 44.269531 53.445312 44.296875 53.355469 44.335938 C 53.34375 44.34375 53.371094 44.433594 53.378906 44.484375 C 53.480469 44.460938 53.582031 44.4375 53.683594 44.414062 C 53.667969 44.355469 53.65625 44.296875 53.640625 44.242188 Z M 17.570312 22.515625 C 17.570312 22.453125 17.566406 22.386719 17.5625 22.320312 C 17.46875 22.335938 17.371094 22.339844 17.28125 22.371094 C 17.257812 22.378906 17.265625 22.464844 17.257812 22.515625 C 17.363281 22.515625 17.46875 22.515625 17.570312 22.515625 Z M 11.992188 42.414062 C 11.992188 42.363281 11.90625 42.304688 11.835938 42.222656 C 11.777344 42.304688 11.703125 42.367188 11.714844 42.402344 C 11.734375 42.46875 11.800781 42.519531 11.851562 42.578125 C 11.898438 42.523438 11.988281 42.472656 11.992188 42.414062 Z M 43.542969 50.402344 C 43.546875 50.453125 43.546875 50.503906 43.550781 50.554688 C 43.660156 50.546875 43.769531 50.542969 43.878906 50.527344 C 43.886719 50.523438 43.882812 50.429688 43.882812 50.378906 C 43.769531 50.386719 43.65625 50.394531 43.542969 50.402344 Z M 29.523438 49.335938 C 29.523438 49.15625 29.523438 48.980469 29.523438 48.804688 C 29.5 48.800781 29.476562 48.800781 29.453125 48.800781 C 29.453125 48.980469 29.453125 49.160156 29.453125 49.339844 C 29.476562 49.335938 29.5 49.335938 29.523438 49.335938 Z M 34.289062 66.6875 C 34.390625 66.707031 34.5 66.707031 34.605469 66.714844 C 34.609375 66.664062 34.613281 66.617188 34.617188 66.566406 C 34.507812 66.550781 34.398438 66.535156 34.285156 66.519531 C 34.285156 66.578125 34.277344 66.683594 34.289062 66.6875 Z M 41.292969 62.257812 C 41.285156 62.121094 41.273438 61.980469 41.261719 61.84375 C 41.210938 61.847656 41.15625 61.855469 41.105469 61.863281 C 41.125 62 41.144531 62.136719 41.171875 62.269531 C 41.171875 62.273438 41.292969 62.261719 41.292969 62.257812 Z M 16.554688 47.378906 C 16.53125 47.671875 16.578125 47.695312 16.964844 47.542969 C 16.777344 47.46875 16.671875 47.425781 16.554688 47.378906 Z M 57.324219 70.140625 C 57.324219 70.285156 57.324219 70.429688 57.324219 70.574219 C 57.351562 70.570312 57.378906 70.570312 57.402344 70.570312 C 57.402344 70.425781 57.402344 70.285156 57.402344 70.140625 C 57.378906 70.140625 57.351562 70.140625 57.324219 70.140625 Z M 45.992188 57.261719 C 45.890625 57.21875 45.820312 57.15625 45.773438 57.171875 C 45.695312 57.199219 45.636719 57.273438 45.570312 57.328125 C 45.625 57.378906 45.679688 57.46875 45.738281 57.472656 C 45.789062 57.476562 45.847656 57.386719 45.992188 57.261719 Z M 55.675781 10.398438 C 55.566406 10.386719 55.457031 10.371094 55.347656 10.367188 C 55.339844 10.367188 55.328125 10.460938 55.320312 10.511719 C 55.433594 10.527344 55.546875 10.542969 55.660156 10.558594 C 55.664062 10.507812 55.671875 10.453125 55.675781 10.398438 Z M 28.300781 65.230469 C 28.1875 65.253906 28.074219 65.273438 27.964844 65.3125 C 27.949219 65.320312 27.964844 65.410156 27.964844 65.464844 C 28.089844 65.445312 28.210938 65.425781 28.332031 65.40625 C 28.320312 65.347656 28.3125 65.289062 28.300781 65.230469 Z M 47.753906 61.25 C 47.734375 61.375 47.714844 61.496094 47.691406 61.621094 C 47.75 61.628906 47.808594 61.636719 47.871094 61.644531 C 47.882812 61.519531 47.898438 61.394531 47.914062 61.273438 C 47.859375 61.265625 47.808594 61.257812 47.753906 61.25 Z M 41.324219 47.609375 C 41.296875 47.46875 41.265625 47.324219 41.238281 47.179688 C 41.183594 47.191406 41.132812 47.203125 41.078125 47.210938 C 41.113281 47.355469 41.148438 47.5 41.183594 47.644531 C 41.230469 47.632812 41.277344 47.621094 41.324219 47.609375 Z M 44.566406 12.320312 C 44.75 12.632812 44.75 12.632812 45.011719 12.320312 C 44.84375 12.320312 44.714844 12.320312 44.566406 12.320312 Z M 20.996094 29.070312 C 20.972656 28.921875 20.945312 28.777344 20.917969 28.628906 C 20.863281 28.644531 20.808594 28.652344 20.75 28.667969 C 20.785156 28.8125 20.820312 28.957031 20.855469 29.101562 C 20.902344 29.089844 20.949219 29.078125 20.996094 29.070312 Z M 49.734375 53.980469 C 49.761719 53.980469 49.789062 53.980469 49.820312 53.980469 C 49.820312 53.832031 49.820312 53.6875 49.820312 53.542969 C 49.789062 53.542969 49.761719 53.542969 49.734375 53.542969 C 49.734375 53.6875 49.734375 53.835938 49.734375 53.980469 Z M 53.769531 71.410156 C 53.765625 71.40625 53.761719 71.402344 53.761719 71.402344 C 53.65625 71.386719 53.546875 71.394531 53.4375 71.394531 C 53.4375 71.398438 53.441406 71.40625 53.441406 71.410156 C 53.445312 71.464844 53.453125 71.519531 53.457031 71.574219 C 53.578125 71.5625 53.699219 71.546875 53.820312 71.535156 C 53.804688 71.492188 53.789062 71.429688 53.769531 71.410156 Z M 42.988281 67.515625 C 42.96875 67.519531 42.972656 67.640625 42.96875 67.707031 C 43.085938 67.691406 43.203125 67.675781 43.320312 67.660156 C 43.316406 67.609375 43.3125 67.558594 43.308594 67.507812 C 43.203125 67.507812 43.09375 67.496094 42.988281 67.515625 Z M 30.574219 25.683594 C 30.5 25.710938 30.433594 25.777344 30.386719 25.84375 C 30.375 25.863281 30.457031 25.941406 30.582031 26.113281 C 30.640625 25.988281 30.703125 25.90625 30.710938 25.816406 C 30.714844 25.773438 30.601562 25.671875 30.574219 25.683594 Z M 50.894531 68.914062 C 51.105469 68.882812 51.242188 68.863281 51.441406 68.832031 C 51.214844 68.585938 51.078125 68.570312 50.894531 68.914062 Z M 31.734375 20.320312 C 31.628906 20.339844 31.519531 20.347656 31.417969 20.386719 C 31.398438 20.390625 31.417969 20.5 31.417969 20.558594 C 31.535156 20.53125 31.648438 20.507812 31.765625 20.480469 C 31.753906 20.425781 31.746094 20.371094 31.734375 20.320312 Z M 26.292969 16.160156 C 26.246094 16.171875 26.195312 16.183594 26.148438 16.195312 C 26.179688 16.34375 26.210938 16.496094 26.242188 16.644531 C 26.285156 16.636719 26.332031 16.628906 26.378906 16.617188 C 26.347656 16.464844 26.320312 16.3125 26.292969 16.160156 Z M 15.464844 67.921875 C 15.496094 67.921875 15.527344 67.921875 15.558594 67.921875 C 15.558594 67.761719 15.558594 67.601562 15.558594 67.441406 C 15.527344 67.445312 15.496094 67.445312 15.464844 67.445312 C 15.464844 67.605469 15.464844 67.765625 15.464844 67.921875 Z M 34.058594 69.878906 C 34.09375 69.878906 34.132812 69.878906 34.171875 69.875 C 34.171875 69.714844 34.171875 69.554688 34.171875 69.390625 C 34.125 69.394531 34.078125 69.394531 34.035156 69.394531 C 34.039062 69.558594 34.050781 69.71875 34.058594 69.878906 Z M 59.867188 11.28125 C 59.835938 11.28125 59.800781 11.285156 59.769531 11.289062 C 59.769531 11.453125 59.769531 11.617188 59.769531 11.785156 C 59.800781 11.785156 59.835938 11.78125 59.867188 11.78125 C 59.867188 11.613281 59.867188 11.445312 59.867188 11.28125 Z M 19.046875 49.140625 C 19.066406 49.300781 19.085938 49.464844 19.105469 49.625 C 19.164062 49.617188 19.21875 49.609375 19.277344 49.601562 C 19.257812 49.441406 19.234375 49.28125 19.214844 49.121094 C 19.15625 49.128906 19.101562 49.132812 19.046875 49.140625 Z M 58.21875 70.59375 C 58.246094 70.761719 58.273438 70.925781 58.308594 71.089844 C 58.308594 71.09375 58.449219 71.074219 58.449219 71.070312 C 58.433594 70.902344 58.410156 70.734375 58.386719 70.5625 C 58.332031 70.574219 58.273438 70.582031 58.21875 70.59375 Z M 19.890625 58.914062 C 19.921875 58.691406 19.941406 58.5625 19.957031 58.4375 C 19.84375 58.453125 19.734375 58.472656 19.546875 58.5 C 19.679688 58.660156 19.746094 58.738281 19.890625 58.914062 Z M 33.613281 55.601562 C 33.773438 55.664062 33.933594 55.722656 34.09375 55.78125 C 34.109375 55.722656 34.121094 55.664062 34.136719 55.605469 C 33.976562 55.558594 33.816406 55.515625 33.65625 55.46875 C 33.640625 55.515625 33.628906 55.558594 33.613281 55.601562 Z M 44.34375 70.859375 C 44.371094 70.859375 44.402344 70.859375 44.433594 70.859375 C 44.433594 70.6875 44.433594 70.515625 44.433594 70.34375 C 44.402344 70.34375 44.371094 70.34375 44.34375 70.347656 C 44.34375 70.515625 44.34375 70.6875 44.34375 70.859375 Z M 59.332031 24.777344 C 59.347656 24.84375 59.367188 24.976562 59.375 24.972656 C 59.5 24.964844 59.621094 24.9375 59.742188 24.914062 C 59.734375 24.851562 59.722656 24.792969 59.714844 24.730469 C 59.585938 24.746094 59.460938 24.761719 59.332031 24.777344 Z M 14 36.4375 C 13.964844 36.441406 13.929688 36.441406 13.894531 36.445312 C 13.894531 36.625 13.894531 36.800781 13.894531 36.980469 C 13.929688 36.980469 13.964844 36.980469 14 36.980469 C 14 36.800781 14 36.617188 14 36.4375 Z M 34.804688 24.183594 C 34.84375 24.1875 34.882812 24.1875 34.917969 24.1875 C 34.9375 24.03125 34.957031 23.875 34.972656 23.71875 C 34.632812 23.863281 34.707031 24.023438 34.804688 24.183594 Z M 16.796875 57.929688 C 16.8125 57.769531 16.828125 57.613281 16.832031 57.457031 C 16.832031 57.453125 16.730469 57.445312 16.675781 57.4375 C 16.683594 57.597656 16.6875 57.753906 16.695312 57.910156 C 16.695312 57.914062 16.714844 57.917969 16.796875 57.929688 Z M 55.539062 35.4375 C 55.507812 35.277344 55.476562 35.117188 55.445312 34.957031 C 55.390625 34.964844 55.335938 34.976562 55.28125 34.988281 C 55.3125 35.148438 55.339844 35.308594 55.367188 35.472656 C 55.425781 35.460938 55.484375 35.449219 55.539062 35.4375 Z M 62.125 48.808594 C 62.066406 48.609375 62.027344 48.46875 61.984375 48.328125 C 61.9375 48.335938 61.890625 48.339844 61.84375 48.34375 C 61.835938 48.484375 61.816406 48.625 61.832031 48.761719 C 61.835938 48.785156 61.984375 48.789062 62.125 48.808594 Z M 30.425781 57.484375 C 30.457031 57.492188 30.492188 57.503906 30.523438 57.511719 C 30.609375 57.445312 30.695312 57.378906 30.796875 57.300781 C 30.691406 57.1875 30.613281 57.109375 30.453125 56.9375 C 30.441406 57.191406 30.433594 57.339844 30.425781 57.484375 Z M 60.609375 60.335938 C 60.609375 60.144531 60.609375 59.953125 60.609375 59.765625 C 60.558594 59.765625 60.511719 59.769531 60.464844 59.773438 C 60.476562 59.960938 60.488281 60.152344 60.5 60.34375 C 60.535156 60.339844 60.570312 60.339844 60.609375 60.335938 Z M 29.65625 67.53125 C 29.71875 67.359375 29.765625 67.214844 29.816406 67.070312 C 29.738281 67.078125 29.640625 67.0625 29.582031 67.101562 C 29.429688 67.207031 29.351562 67.335938 29.65625 67.53125 Z M 13.316406 69.464844 C 13.339844 69.417969 13.367188 69.371094 13.390625 69.320312 C 13.207031 69.253906 13.023438 69.1875 12.839844 69.117188 C 12.871094 69.496094 13.140625 69.394531 13.316406 69.464844 Z M 15.640625 69.714844 C 15.734375 69.925781 15.796875 70.054688 15.855469 70.1875 C 15.910156 70.179688 15.964844 70.171875 16.015625 70.160156 C 15.996094 70.027344 15.988281 69.886719 15.9375 69.765625 C 15.921875 69.726562 15.785156 69.734375 15.640625 69.714844 Z M 40.539062 47.917969 C 40.539062 47.746094 40.539062 47.570312 40.539062 47.308594 C 40.238281 47.558594 40.375 47.738281 40.539062 47.917969 Z M 34.941406 10.292969 C 34.921875 10.140625 34.90625 9.988281 34.882812 9.835938 C 34.878906 9.824219 34.847656 9.8125 34.828125 9.796875 C 34.792969 9.800781 34.757812 9.804688 34.722656 9.808594 C 34.742188 9.976562 34.757812 10.140625 34.785156 10.304688 C 34.789062 10.308594 34.886719 10.296875 34.941406 10.292969 Z M 33.746094 17.507812 C 33.671875 17.449219 33.625 17.414062 33.582031 17.375 C 33.5 17.511719 33.414062 17.644531 33.351562 17.789062 C 33.335938 17.820312 33.410156 17.886719 33.445312 17.933594 C 33.539062 17.800781 33.632812 17.667969 33.746094 17.507812 Z M 32.992188 14.472656 C 32.84375 14.433594 32.640625 14.320312 32.605469 14.730469 C 32.8125 14.691406 32.976562 14.664062 33.140625 14.632812 C 33.09375 14.578125 33.050781 14.488281 32.992188 14.472656 Z M 22.414062 64.066406 C 22.460938 64.074219 22.503906 64.085938 22.550781 64.09375 C 22.621094 64.011719 22.695312 63.929688 22.769531 63.847656 C 22.761719 63.804688 22.757812 63.761719 22.75 63.714844 C 22.613281 63.703125 22.472656 63.691406 22.332031 63.679688 C 22.359375 63.808594 22.386719 63.9375 22.414062 64.066406 Z M 24.085938 42.847656 C 23.660156 43.097656 23.65625 43.183594 24.042969 43.4375 C 24.058594 43.230469 24.070312 43.074219 24.085938 42.847656 Z M 28.609375 39.511719 C 28.476562 39.878906 28.488281 39.976562 28.675781 40.109375 C 28.835938 39.691406 28.824219 39.609375 28.609375 39.511719 Z M 22.976562 69.082031 C 23 68.9375 23.039062 68.800781 23.09375 68.667969 C 23.0625 68.640625 23.027344 68.617188 22.984375 68.589844 C 22.8125 68.769531 22.753906 68.929688 22.976562 69.082031 Z M 31.128906 66.347656 C 31.113281 66.386719 31.199219 66.457031 31.242188 66.515625 C 31.324219 66.414062 31.40625 66.308594 31.515625 66.179688 C 31.429688 66.078125 31.378906 66.015625 31.328125 65.953125 C 31.257812 66.082031 31.175781 66.210938 31.128906 66.347656 Z M 60.460938 41.492188 C 60.449219 41.695312 60.398438 41.917969 60.707031 42.03125 C 60.699219 41.875 60.695312 41.714844 60.671875 41.5625 C 60.667969 41.515625 60.617188 41.464844 60.570312 41.445312 C 60.546875 41.429688 60.464844 41.472656 60.460938 41.492188 Z M 50.683594 47.683594 C 50.566406 47.308594 50.542969 47.300781 50.1875 47.527344 C 50.292969 47.773438 50.417969 47.933594 50.683594 47.683594 Z M 14.996094 37.003906 C 15.019531 37.140625 15.09375 37.265625 15.152344 37.394531 C 15.21875 37.371094 15.289062 37.34375 15.355469 37.320312 C 15.316406 37.164062 15.28125 37.011719 15.242188 36.855469 C 15.15625 36.90625 14.988281 36.96875 14.996094 37.003906 Z M 24.289062 46.589844 C 24.171875 46.457031 24.050781 46.300781 23.859375 46.5 C 23.808594 46.550781 23.824219 46.667969 23.8125 46.753906 C 23.96875 46.746094 24.128906 46.738281 24.285156 46.730469 C 24.285156 46.683594 24.289062 46.636719 24.289062 46.589844 Z M 42.238281 68.441406 C 42.296875 68.484375 42.414062 68.453125 42.5 68.453125 C 42.464844 68.292969 42.429688 68.136719 42.394531 67.976562 C 42.164062 68.136719 42.011719 68.277344 42.238281 68.441406 Z M 15.886719 19.5625 C 15.992188 19.714844 16.070312 19.882812 16.113281 19.875 C 16.269531 19.839844 16.414062 19.75 16.5625 19.679688 C 16.546875 19.640625 16.53125 19.601562 16.515625 19.5625 C 16.339844 19.5625 16.164062 19.5625 15.886719 19.5625 Z M 52.480469 11.316406 C 52.546875 11.363281 52.660156 11.335938 52.753906 11.339844 C 52.722656 11.1875 52.691406 11.03125 52.664062 10.878906 C 52.613281 10.882812 52.5625 10.890625 52.515625 10.894531 C 52.425781 11.027344 52.257812 11.15625 52.480469 11.316406 Z M 25.113281 56.285156 C 25.167969 56.3125 25.222656 56.335938 25.277344 56.363281 C 25.398438 56.230469 25.519531 56.09375 25.640625 55.960938 C 25.496094 55.972656 25.339844 55.953125 25.214844 56.003906 C 25.152344 56.03125 25.144531 56.1875 25.113281 56.285156 Z M 56.101562 67 C 56.105469 66.9375 56.105469 66.875 56.109375 66.8125 C 55.949219 66.777344 55.792969 66.742188 55.632812 66.707031 C 55.636719 66.808594 55.628906 67 55.648438 67 C 55.796875 67.019531 55.949219 67.003906 56.101562 67 Z M 44.875 34.710938 C 44.867188 34.652344 44.863281 34.589844 44.855469 34.527344 C 44.6875 34.523438 44.515625 34.523438 44.347656 34.519531 C 44.371094 34.617188 44.390625 34.71875 44.414062 34.820312 C 44.566406 34.785156 44.722656 34.75 44.875 34.710938 Z M 50.273438 50.421875 C 50.210938 50.417969 50.144531 50.417969 50.082031 50.414062 C 50.058594 50.578125 50.039062 50.746094 50.015625 50.910156 C 50.113281 50.914062 50.207031 50.917969 50.300781 50.921875 C 50.292969 50.753906 50.285156 50.589844 50.273438 50.421875 Z M 27.117188 61.71875 C 27.042969 61.5625 26.9375 61.421875 26.847656 61.273438 C 26.808594 61.277344 26.769531 61.277344 26.734375 61.277344 C 26.734375 61.367188 26.703125 61.476562 26.738281 61.542969 C 26.8125 61.679688 26.925781 61.792969 27.023438 61.914062 C 27.058594 61.847656 27.136719 61.761719 27.117188 61.71875 Z M 52.699219 51.800781 C 52.699219 51.835938 52.871094 51.863281 52.964844 51.894531 C 52.972656 51.738281 52.984375 51.578125 52.992188 51.421875 C 52.917969 51.410156 52.84375 51.402344 52.769531 51.390625 C 52.742188 51.527344 52.691406 51.664062 52.699219 51.800781 Z M 19.632812 31.332031 C 19.738281 31.347656 19.839844 31.363281 19.941406 31.378906 C 19.941406 31.21875 19.941406 31.058594 19.941406 30.898438 C 19.867188 30.890625 19.792969 30.878906 19.71875 30.867188 C 19.691406 31.023438 19.660156 31.179688 19.632812 31.332031 Z M 54.941406 56.539062 C 54.871094 56.53125 54.804688 56.523438 54.738281 56.515625 C 54.707031 56.660156 54.664062 56.800781 54.652344 56.949219 C 54.652344 56.964844 54.839844 56.992188 54.941406 57.019531 C 54.941406 56.859375 54.941406 56.699219 54.941406 56.539062 Z M 14.246094 69.410156 C 14.183594 69.382812 14.074219 69.453125 13.988281 69.480469 C 14.050781 69.628906 14.117188 69.773438 14.199219 69.972656 C 14.4375 69.695312 14.484375 69.523438 14.246094 69.410156 Z M 44.523438 68.34375 C 44.769531 68.605469 44.820312 68.59375 45.050781 68.25 C 44.835938 67.980469 44.671875 68.054688 44.523438 68.34375 Z M 36.75 66.75 C 36.792969 66.902344 36.835938 67.050781 36.875 67.203125 C 36.949219 67.1875 37.023438 67.175781 37.097656 67.160156 C 37.082031 67.023438 37.085938 66.878906 37.039062 66.753906 C 37.027344 66.71875 36.851562 66.75 36.75 66.75 Z M 31.328125 22.585938 C 31.425781 22.515625 31.5 22.46875 31.570312 22.417969 C 31.457031 22.359375 31.347656 22.265625 31.230469 22.25 C 31.132812 22.238281 31.023438 22.316406 30.921875 22.355469 C 31.046875 22.425781 31.175781 22.5 31.328125 22.585938 Z M 16.375 44.851562 C 16.347656 44.753906 16.332031 44.652344 16.324219 44.546875 C 16.28125 44.570312 16.242188 44.59375 16.203125 44.621094 C 16.175781 44.644531 16.246094 44.804688 16.273438 44.914062 C 16.308594 44.890625 16.34375 44.871094 16.375 44.851562 Z M 61.878906 55.285156 C 61.753906 55.085938 61.65625 54.929688 61.558594 54.769531 C 61.511719 54.878906 61.433594 54.984375 61.417969 55.097656 C 61.378906 55.359375 61.535156 55.378906 61.878906 55.285156 Z M 49.546875 52.289062 C 49.539062 52.214844 49.53125 52.144531 49.523438 52.070312 C 49.351562 52.070312 49.179688 52.070312 49.003906 52.070312 C 49.023438 52.167969 49.042969 52.355469 49.058594 52.355469 C 49.222656 52.351562 49.382812 52.316406 49.546875 52.289062 Z M 14.300781 46.953125 C 14.363281 46.796875 14.375 46.621094 14.402344 46.457031 C 14.3125 46.476562 14.175781 46.464844 14.140625 46.519531 C 14.058594 46.65625 14.027344 46.820312 13.976562 46.96875 C 13.996094 47 14.019531 47.03125 14.039062 47.0625 C 14.128906 47.027344 14.273438 47.015625 14.300781 46.953125 Z M 59.863281 28.179688 C 59.882812 28.109375 59.941406 28.03125 59.925781 27.972656 C 59.890625 27.828125 59.824219 27.695312 59.757812 27.527344 C 59.644531 27.578125 59.554688 27.617188 59.4375 27.671875 C 59.53125 27.84375 59.589844 27.976562 59.671875 28.085938 C 59.707031 28.136719 59.796875 28.148438 59.863281 28.179688 Z M 57.285156 36.105469 C 57.429688 36.050781 57.578125 36 57.71875 35.929688 C 57.792969 35.894531 57.855469 35.824219 57.945312 35.753906 C 57.875 35.695312 57.816406 35.621094 57.796875 35.632812 C 57.597656 35.722656 57.40625 35.824219 57.222656 35.933594 C 57.210938 35.941406 57.261719 36.046875 57.285156 36.105469 Z M 64.421875 56.890625 C 64.464844 56.832031 64.554688 56.761719 64.542969 56.71875 C 64.492188 56.535156 64.410156 56.359375 64.34375 56.183594 C 64.304688 56.1875 64.265625 56.191406 64.226562 56.195312 C 64.1875 56.261719 64.09375 56.355469 64.113281 56.394531 C 64.199219 56.566406 64.316406 56.726562 64.421875 56.890625 Z M 25.226562 57.472656 C 25.375 57.742188 25.503906 57.777344 25.621094 57.566406 C 25.691406 57.441406 25.988281 57.320312 25.734375 57.171875 C 25.652344 57.125 25.398438 57.363281 25.226562 57.472656 Z M 43.875 45.707031 C 43.886719 45.667969 43.898438 45.628906 43.90625 45.589844 C 43.746094 45.539062 43.585938 45.484375 43.425781 45.433594 C 43.417969 45.542969 43.355469 45.6875 43.40625 45.757812 C 43.59375 46.03125 43.722656 45.769531 43.875 45.707031 Z M 53.664062 10.078125 C 53.3125 10.390625 53.308594 10.433594 53.585938 10.703125 C 53.9375 10.503906 53.9375 10.488281 53.664062 10.078125 Z M 21.824219 22.402344 C 21.527344 22.292969 21.25 22.1875 20.976562 22.082031 C 20.964844 22.113281 20.953125 22.144531 20.941406 22.175781 C 21.222656 22.523438 21.621094 22.652344 21.824219 22.402344 Z M 26.0625 63.9375 C 26.195312 63.824219 26.289062 63.742188 26.382812 63.664062 C 26.277344 63.613281 26.171875 63.515625 26.066406 63.519531 C 25.960938 63.523438 25.855469 63.621094 25.75 63.675781 C 25.835938 63.75 25.921875 63.824219 26.0625 63.9375 Z M 57.460938 49.179688 C 57.441406 49.027344 57.4375 48.871094 57.398438 48.726562 C 57.375 48.640625 57.300781 48.570312 57.214844 48.445312 C 57.128906 48.558594 57.039062 48.628906 57.050781 48.667969 C 57.109375 48.84375 57.183594 49.011719 57.273438 49.171875 C 57.289062 49.199219 57.394531 49.179688 57.460938 49.179688 Z M 40.523438 38.496094 C 40.53125 38.476562 40.535156 38.453125 40.539062 38.433594 C 40.472656 38.300781 40.425781 38.160156 40.398438 38.011719 C 40.332031 38.132812 40.261719 38.25 40.21875 38.375 C 40.199219 38.445312 40.292969 38.550781 40.335938 38.640625 C 40.402344 38.59375 40.496094 38.558594 40.523438 38.496094 Z M 57.9375 45.609375 C 57.9375 45.546875 57.878906 45.449219 57.828125 45.433594 C 57.777344 45.417969 57.667969 45.46875 57.640625 45.523438 C 57.574219 45.667969 57.535156 45.824219 57.476562 46 C 57.828125 46.125 57.941406 46.023438 57.9375 45.609375 Z M 21.820312 18.238281 C 22.1875 18.816406 22.195312 18.824219 22.433594 18.589844 C 22.070312 17.984375 22.042969 17.96875 21.820312 18.238281 Z M 19.070312 18.199219 C 19.007812 17.964844 18.949219 17.730469 18.878906 17.46875 C 18.734375 17.546875 18.652344 17.589844 18.53125 17.65625 C 18.648438 17.851562 18.734375 18.015625 18.847656 18.160156 C 18.882812 18.207031 18.992188 18.1875 19.070312 18.199219 Z M 11.988281 38.242188 C 12.003906 38.195312 11.914062 38.109375 11.808594 37.9375 C 11.683594 38.214844 11.589844 38.390625 11.53125 38.578125 C 11.523438 38.613281 11.660156 38.691406 11.730469 38.75 C 11.820312 38.582031 11.921875 38.417969 11.988281 38.242188 Z M 33.277344 61.992188 C 33.285156 61.925781 33.222656 61.847656 33.191406 61.777344 C 33.121094 61.8125 33.019531 61.828125 32.984375 61.886719 C 32.898438 62.019531 32.84375 62.171875 32.769531 62.339844 C 32.878906 62.390625 32.980469 62.433594 33.125 62.5 C 33.1875 62.296875 33.25 62.148438 33.277344 61.992188 Z M 35.746094 41.554688 C 35.789062 41.5625 35.863281 41.382812 35.976562 41.207031 C 35.660156 41.179688 35.441406 41.160156 35.222656 41.15625 C 35.21875 41.15625 35.179688 41.351562 35.203125 41.363281 C 35.375 41.441406 35.558594 41.523438 35.746094 41.554688 Z M 54.828125 41.648438 C 54.972656 41.667969 55.167969 41.789062 55.195312 41.5 C 55.207031 41.339844 55.144531 41.175781 55.117188 41.015625 C 54.988281 41.1875 54.859375 41.355469 54.730469 41.527344 C 54.761719 41.566406 54.796875 41.609375 54.828125 41.648438 Z M 25.765625 22.660156 C 26.039062 22.777344 26.203125 22.875 26.378906 22.910156 C 26.441406 22.921875 26.53125 22.792969 26.609375 22.726562 C 26.429688 22.628906 26.257812 22.511719 26.070312 22.445312 C 26.015625 22.425781 25.914062 22.550781 25.765625 22.660156 Z M 31.488281 56.0625 C 31.4375 56.164062 31.425781 56.285156 31.382812 56.390625 C 31.273438 56.636719 31.40625 56.695312 31.652344 56.71875 C 31.691406 56.496094 31.734375 56.304688 31.75 56.109375 C 31.753906 56.050781 31.6875 55.984375 31.652344 55.921875 C 31.597656 55.96875 31.519531 56.003906 31.488281 56.0625 Z M 57.214844 12.960938 C 57.226562 12.730469 57.222656 12.492188 57.222656 12.226562 C 57.050781 12.257812 56.964844 12.277344 56.84375 12.296875 C 56.882812 12.523438 56.902344 12.707031 56.949219 12.882812 C 56.960938 12.9375 57.019531 13 57.070312 13.023438 C 57.105469 13.035156 57.214844 12.988281 57.214844 12.960938 Z M 25.65625 44.601562 C 25.742188 44.621094 25.867188 44.648438 25.972656 44.671875 C 26 44.640625 26.027344 44.609375 26.058594 44.578125 C 25.882812 44.488281 25.722656 44.371094 25.578125 44.230469 C 25.503906 44.238281 25.4375 44.304688 25.398438 44.46875 C 25.492188 44.519531 25.570312 44.578125 25.65625 44.601562 Z M 16.984375 21.390625 C 16.964844 21.378906 16.941406 21.382812 16.871094 21.371094 C 16.828125 21.4375 16.761719 21.515625 16.738281 21.605469 C 16.691406 21.761719 16.667969 21.929688 16.636719 22.089844 C 16.636719 22.101562 16.679688 22.132812 16.691406 22.125 C 16.789062 22.066406 16.949219 22.015625 16.972656 21.933594 C 17.019531 21.761719 17.261719 21.570312 16.984375 21.390625 Z M 43.222656 65.230469 C 43.40625 65.09375 43.566406 64.980469 43.714844 64.855469 C 43.734375 64.835938 43.75 64.800781 43.757812 64.765625 C 43.734375 64.707031 43.710938 64.644531 43.691406 64.585938 C 43.667969 64.566406 43.640625 64.550781 43.621094 64.550781 C 43.347656 64.515625 43.082031 64.914062 43.222656 65.230469 Z M 59.730469 50.203125 C 59.652344 50.265625 59.542969 50.316406 59.507812 50.398438 C 59.449219 50.535156 59.441406 50.6875 59.410156 50.859375 C 59.511719 50.898438 59.601562 50.929688 59.738281 50.980469 C 59.78125 50.761719 59.828125 50.605469 59.835938 50.445312 C 59.839844 50.367188 59.765625 50.285156 59.730469 50.203125 Z M 10.523438 26.152344 C 10.589844 26.035156 10.664062 25.917969 10.726562 25.800781 C 10.738281 25.710938 10.757812 25.625 10.78125 25.542969 C 10.746094 25.484375 10.675781 25.410156 10.636719 25.351562 C 10.597656 25.363281 10.558594 25.378906 10.519531 25.390625 C 10.453125 25.574219 10.363281 25.75 10.328125 25.9375 C 10.320312 25.996094 10.457031 26.082031 10.523438 26.152344 Z M 23.605469 65.609375 C 23.6875 65.535156 23.777344 65.46875 23.867188 65.410156 C 23.820312 65.359375 23.765625 65.300781 23.707031 65.238281 C 23.558594 65.378906 23.515625 65.457031 23.605469 65.609375 Z M 48.753906 57.167969 C 48.839844 57.019531 48.890625 56.851562 48.96875 56.667969 C 48.863281 56.617188 48.773438 56.574219 48.648438 56.515625 C 48.566406 56.726562 48.488281 56.882812 48.449219 57.050781 C 48.433594 57.125 48.496094 57.21875 48.523438 57.304688 C 48.601562 57.257812 48.710938 57.234375 48.753906 57.167969 Z M 65.519531 43.199219 C 65.578125 42.847656 65.207031 43.015625 65.027344 42.960938 C 64.960938 42.941406 64.894531 42.929688 64.839844 42.941406 C 64.832031 43.035156 64.8125 43.128906 64.789062 43.222656 C 64.863281 43.238281 64.929688 43.257812 64.996094 43.253906 C 65.179688 43.246094 65.46875 43.496094 65.519531 43.199219 Z M 11.609375 32.589844 C 11.636719 32.585938 11.667969 32.585938 11.695312 32.582031 C 11.730469 32.578125 11.746094 32.371094 11.792969 32.144531 C 11.730469 32.164062 11.671875 32.183594 11.617188 32.199219 C 11.511719 32.234375 11.414062 32.265625 11.324219 32.292969 C 11.21875 32.324219 11.125 32.359375 11.03125 32.390625 C 11.027344 32.394531 11.054688 32.5625 11.078125 32.566406 C 11.15625 32.574219 11.234375 32.582031 11.316406 32.585938 C 11.414062 32.59375 11.511719 32.59375 11.609375 32.589844 Z M 19.433594 55.941406 C 19.46875 55.820312 19.5 55.71875 19.539062 55.609375 C 19.277344 55.523438 19.058594 55.453125 18.84375 55.382812 C 18.722656 55.683594 18.722656 55.683594 19.433594 55.941406 Z M 24.175781 33.363281 C 24.082031 33.578125 23.992188 33.796875 23.894531 34.027344 C 24.015625 34.078125 24.097656 34.113281 24.175781 34.144531 C 24.535156 33.59375 24.535156 33.4375 24.175781 33.363281 Z M 32.292969 70.746094 C 31.566406 71.214844 31.550781 71.234375 31.820312 71.488281 L 31.824219 71.488281 C 31.824219 71.488281 31.828125 71.488281 31.828125 71.488281 C 32.46875 71.039062 32.503906 70.988281 32.292969 70.746094 Z M 18.535156 27.890625 C 18.15625 27.222656 18.089844 27.183594 17.824219 27.488281 C 17.964844 27.675781 18.109375 27.867188 18.265625 28.078125 C 18.375 28.003906 18.453125 27.949219 18.535156 27.890625 Z M 29.003906 27.554688 C 28.996094 27.335938 28.960938 27.117188 28.917969 26.78125 C 28.773438 26.886719 28.628906 26.941406 28.625 27.003906 C 28.613281 27.210938 28.644531 27.421875 28.683594 27.628906 C 28.691406 27.675781 28.816406 27.75 28.859375 27.734375 C 28.921875 27.707031 29.003906 27.617188 29.003906 27.554688 Z M 50.886719 60.394531 C 51.140625 59.972656 51.128906 59.902344 50.746094 59.632812 C 50.394531 59.886719 50.429688 60.085938 50.886719 60.394531 Z M 11.0625 54.476562 C 11.105469 54.542969 11.1875 54.621094 11.210938 54.613281 C 11.382812 54.5625 11.539062 54.460938 11.726562 54.363281 C 11.570312 54.179688 11.46875 54.058594 11.304688 53.863281 C 11.210938 54.039062 11.125 54.175781 11.066406 54.3125 C 11.054688 54.34375 11.042969 54.371094 11.035156 54.398438 C 11.027344 54.414062 11.042969 54.445312 11.0625 54.476562 Z M 59.460938 18.546875 C 59.546875 18.664062 59.636719 18.78125 59.742188 18.921875 C 59.929688 18.769531 60.085938 18.636719 60.238281 18.511719 C 60.027344 18.167969 59.945312 18.175781 59.460938 18.546875 Z M 16.230469 38.535156 C 16.261719 38.578125 16.296875 38.621094 16.324219 38.667969 C 16.363281 38.683594 16.402344 38.691406 16.425781 38.679688 C 16.660156 38.582031 16.886719 38.464844 17.109375 38.339844 C 17.152344 38.316406 17.183594 38.222656 17.171875 38.171875 C 17.160156 38.125 17.082031 38.089844 17.035156 38.050781 C 16.765625 38.183594 16.511719 38.296875 16.269531 38.433594 C 16.246094 38.441406 16.234375 38.488281 16.230469 38.535156 Z M 28.695312 56.183594 C 28.773438 55.914062 28.851562 55.6875 28.894531 55.449219 C 28.90625 55.382812 28.816406 55.296875 28.777344 55.21875 C 28.710938 55.265625 28.613281 55.300781 28.589844 55.363281 C 28.503906 55.578125 28.445312 55.800781 28.378906 56.023438 C 28.375 56.039062 28.390625 56.0625 28.402344 56.101562 C 28.480469 56.125 28.566406 56.148438 28.695312 56.183594 Z M 38.167969 48.9375 C 38.015625 48.84375 37.84375 48.78125 37.585938 48.660156 C 37.679688 48.921875 37.710938 49.101562 37.800781 49.242188 C 37.855469 49.324219 38.003906 49.390625 38.101562 49.378906 C 38.207031 49.367188 38.304688 49.261719 38.40625 49.195312 C 38.328125 49.109375 38.265625 49 38.167969 48.9375 Z M 54.15625 12.546875 C 54.378906 12.429688 54.589844 12.285156 54.808594 12.152344 C 54.8125 12.109375 54.816406 12.070312 54.820312 12.027344 C 54.695312 11.996094 54.550781 11.910156 54.453125 11.945312 C 54.273438 12.015625 54.109375 12.144531 53.960938 12.273438 C 53.914062 12.3125 53.894531 12.453125 53.929688 12.496094 C 53.964844 12.546875 54.097656 12.574219 54.15625 12.546875 Z M 11.132812 51.671875 C 11.226562 51.488281 11.320312 51.316406 11.414062 51.140625 C 11.320312 51.082031 11.230469 51.015625 11.148438 50.945312 C 11.148438 50.941406 11.148438 50.941406 11.144531 50.941406 C 11.046875 51.019531 10.949219 51.179688 10.847656 51.425781 C 10.824219 51.476562 10.800781 51.53125 10.78125 51.589844 C 10.800781 51.601562 10.820312 51.613281 10.839844 51.625 C 10.914062 51.667969 10.988281 51.714844 11.078125 51.769531 C 11.097656 51.734375 11.113281 51.703125 11.132812 51.671875 Z M 14.261719 33.546875 C 14.027344 33.765625 13.824219 33.957031 13.582031 34.183594 C 13.699219 34.296875 13.785156 34.378906 13.855469 34.445312 C 14.09375 34.230469 14.300781 34.046875 14.550781 33.820312 C 14.445312 33.71875 14.363281 33.644531 14.261719 33.546875 Z M 11.710938 67.382812 C 11.492188 67.09375 11.296875 66.839844 11.074219 66.542969 C 10.960938 66.644531 10.886719 66.714844 10.808594 66.785156 C 11.027344 67.085938 11.210938 67.335938 11.417969 67.617188 C 11.53125 67.527344 11.613281 67.460938 11.710938 67.382812 Z M 45.785156 59.519531 C 45.941406 59.570312 46.085938 59.652344 46.210938 59.753906 C 46.339844 59.636719 46.46875 59.523438 46.613281 59.390625 C 46.484375 59.257812 46.378906 59.15625 46.296875 59.074219 C 46.105469 59.238281 45.949219 59.375 45.785156 59.519531 Z M 33.007812 45.941406 C 32.925781 46.230469 33.222656 46.519531 33.515625 46.449219 C 33.648438 46.414062 33.773438 46.367188 33.96875 46.300781 C 33.691406 46.125 33.472656 45.976562 33.238281 45.851562 C 33.1875 45.828125 33.023438 45.890625 33.007812 45.941406 Z M 28.304688 17.25 C 28.242188 17.265625 28.148438 17.386719 28.15625 17.453125 C 28.179688 17.703125 28.234375 17.953125 28.28125 18.199219 C 28.597656 18.226562 28.691406 18.105469 28.617188 17.832031 C 28.578125 17.683594 28.574219 17.527344 28.515625 17.390625 C 28.484375 17.324219 28.367188 17.238281 28.304688 17.25 Z M 21.265625 15.621094 C 21.050781 15.660156 20.832031 15.695312 20.59375 15.734375 C 20.609375 15.863281 20.621094 15.960938 20.636719 16.109375 C 20.980469 16.058594 21.277344 16.015625 21.5625 15.972656 C 21.605469 15.695312 21.523438 15.574219 21.265625 15.621094 Z M 50.9375 66.054688 C 50.847656 65.996094 50.753906 65.933594 50.636719 65.855469 C 50.449219 66.121094 50.28125 66.367188 50.097656 66.632812 C 50.382812 66.878906 50.695312 66.65625 50.9375 66.054688 Z M 23.550781 18.054688 C 23.445312 18.054688 23.34375 18.042969 23.246094 18.027344 C 23.433594 18.15625 23.625 18.289062 23.824219 18.425781 C 23.898438 18.316406 23.957031 18.234375 24.027344 18.132812 C 23.976562 18.09375 23.929688 18.058594 23.886719 18.023438 C 23.777344 18.042969 23.664062 18.054688 23.550781 18.054688 Z M 56.050781 14.347656 C 55.972656 14.136719 55.898438 13.921875 55.820312 13.707031 C 55.773438 13.707031 55.722656 13.707031 55.675781 13.710938 C 55.675781 14.007812 55.628906 14.3125 55.695312 14.597656 C 55.71875 14.703125 55.945312 14.761719 56.105469 14.835938 C 56.066406 14.707031 56.042969 14.574219 56.042969 14.4375 C 56.042969 14.40625 56.046875 14.378906 56.050781 14.347656 Z M 30.589844 35.390625 C 31.292969 35.5 31.609375 35.242188 31.527344 34.59375 C 31.207031 34.894531 30.785156 34.988281 30.589844 35.390625 Z M 15.972656 28.867188 C 15.949219 28.878906 15.960938 29.035156 15.992188 29.046875 C 16.234375 29.152344 16.484375 29.25 16.734375 29.328125 C 16.765625 29.335938 16.867188 29.226562 16.875 29.164062 C 16.914062 28.953125 16.675781 28.671875 16.402344 28.667969 C 16.304688 28.710938 16.132812 28.78125 15.972656 28.867188 Z M 26.425781 24.972656 C 26.386719 24.953125 26.347656 24.9375 26.304688 24.917969 C 26.097656 25.179688 25.886719 25.4375 25.648438 25.738281 C 25.863281 25.832031 26.039062 25.910156 26.296875 26.027344 C 26.34375 25.632812 26.386719 25.304688 26.425781 24.972656 Z M 30.960938 69.71875 C 30.796875 69.925781 30.660156 70.160156 30.480469 70.429688 C 30.628906 70.515625 30.746094 70.582031 30.886719 70.664062 C 31.03125 70.390625 31.167969 70.148438 31.277344 69.890625 C 31.304688 69.824219 31.253906 69.71875 31.242188 69.628906 C 31.144531 69.65625 31.011719 69.65625 30.960938 69.71875 Z M 38.332031 42.210938 C 38.113281 41.929688 37.90625 41.664062 37.664062 41.355469 C 37.535156 41.464844 37.441406 41.546875 37.332031 41.640625 C 37.585938 41.925781 37.8125 42.183594 38.054688 42.460938 C 38.164062 42.359375 38.238281 42.292969 38.332031 42.210938 Z M 29.199219 62.695312 C 29.328125 62.414062 29.429688 62.113281 29.566406 61.765625 C 29.4375 61.71875 29.335938 61.679688 29.199219 61.628906 C 29.078125 61.957031 28.957031 62.253906 28.863281 62.5625 C 28.839844 62.636719 28.914062 62.742188 28.945312 62.835938 C 29.03125 62.789062 29.164062 62.765625 29.199219 62.695312 Z M 52.90625 39.972656 C 52.941406 39.953125 52.976562 39.9375 53.011719 39.917969 C 53.042969 39.566406 53.078125 39.210938 53.113281 38.859375 C 53.0625 38.835938 53.015625 38.8125 52.96875 38.785156 C 52.796875 39.007812 52.550781 39.210938 52.492188 39.457031 C 52.460938 39.589844 52.757812 39.796875 52.90625 39.972656 Z M 11.480469 57.253906 C 11.269531 57.632812 11.597656 57.660156 11.808594 57.828125 C 11.859375 57.714844 11.90625 57.605469 11.949219 57.496094 C 11.800781 57.390625 11.667969 57.261719 11.550781 57.121094 C 11.53125 57.160156 11.503906 57.203125 11.480469 57.253906 Z M 11.648438 70.742188 C 11.917969 70.679688 11.957031 70.519531 11.8125 70.261719 C 11.746094 70.140625 11.699219 70.003906 11.664062 69.871094 C 11.570312 69.542969 11.398438 69.542969 11.136719 69.746094 C 11.265625 70.082031 11.394531 70.414062 11.523438 70.742188 C 11.5625 70.742188 11.605469 70.742188 11.648438 70.742188 Z M 38.394531 62.195312 C 38.480469 62.21875 38.660156 62.136719 38.6875 62.066406 C 38.753906 61.878906 38.308594 61.480469 38.113281 61.550781 C 37.902344 61.625 37.707031 61.734375 37.429688 61.859375 C 37.804688 61.996094 38.09375 62.117188 38.394531 62.195312 Z M 38.199219 71.265625 C 38.425781 71.273438 38.652344 71.28125 38.878906 71.289062 C 38.917969 71.234375 38.960938 71.179688 39.003906 71.121094 C 38.730469 70.984375 38.507812 70.875 38.273438 70.757812 C 38.246094 70.96875 38.21875 71.136719 38.199219 71.265625 Z M 48.429688 52.0625 C 48.34375 51.917969 48.273438 51.804688 48.191406 51.664062 C 47.84375 51.890625 47.527344 52.101562 47.183594 52.328125 C 47.265625 52.464844 47.332031 52.566406 47.425781 52.710938 C 47.78125 52.480469 48.09375 52.28125 48.429688 52.0625 Z M 46.382812 34.914062 C 46.21875 34.425781 46.082031 34.019531 45.925781 33.554688 C 45.699219 33.824219 45.410156 34.007812 45.515625 34.335938 C 45.628906 34.6875 45.988281 34.765625 46.382812 34.914062 Z M 21.644531 18.933594 C 21.480469 18.742188 21.304688 18.785156 21.226562 18.953125 C 21.132812 19.148438 21.136719 19.386719 21.101562 19.605469 C 21.257812 19.613281 21.425781 19.644531 21.582031 19.621094 C 21.75 19.59375 21.914062 19.519531 22.164062 19.441406 C 21.953125 19.242188 21.785156 19.101562 21.644531 18.933594 Z M 14.492188 27.871094 C 14.324219 28.253906 14.171875 28.59375 14.011719 28.964844 C 14.375 28.964844 14.675781 28.964844 15.046875 28.964844 C 14.816406 28.609375 14.929688 28.152344 14.492188 27.871094 Z M 38.085938 40.875 C 38.316406 40.59375 38.5 40.269531 38.707031 39.964844 C 38.46875 39.773438 38.3125 39.769531 38.164062 39.984375 C 37.96875 40.277344 37.761719 40.558594 37.546875 40.859375 C 37.847656 41.101562 37.882812 41.121094 38.085938 40.875 Z M 43.636719 52.425781 C 43.367188 52.0625 43.113281 51.722656 42.847656 51.363281 C 42.683594 51.503906 42.566406 51.601562 42.425781 51.71875 C 42.730469 52.058594 43.011719 52.367188 43.308594 52.695312 C 43.425781 52.597656 43.519531 52.523438 43.636719 52.425781 Z M 17.605469 69.699219 C 17.191406 69.769531 16.941406 70.320312 17.144531 70.757812 C 17.371094 70.601562 17.574219 70.464844 17.773438 70.324219 C 17.820312 70.292969 17.878906 70.257812 17.898438 70.207031 C 17.949219 70.082031 18.050781 69.890625 18.003906 69.835938 C 17.921875 69.742188 17.734375 69.679688 17.605469 69.699219 Z M 16.910156 32.164062 C 16.929688 32.109375 16.96875 32.058594 16.96875 32 C 16.972656 31.929688 16.96875 31.824219 16.925781 31.792969 C 16.878906 31.757812 16.757812 31.765625 16.710938 31.804688 C 16.414062 32.050781 16.132812 32.308594 15.8125 32.589844 C 16.621094 32.925781 16.664062 32.90625 16.910156 32.164062 Z M 55.101562 15.410156 C 55.101562 15.433594 55.097656 15.460938 55.097656 15.488281 C 55.199219 15.640625 55.300781 15.800781 55.410156 15.96875 C 55.578125 15.71875 55.707031 15.53125 55.863281 15.300781 C 55.5625 15.125 55.28125 14.960938 55.003906 14.804688 C 55.066406 14.996094 55.101562 15.199219 55.101562 15.410156 Z M 56.984375 21.136719 C 57.160156 21.183594 57.300781 21.21875 57.460938 21.265625 C 57.59375 20.742188 57.71875 20.261719 57.847656 19.757812 C 57.71875 19.710938 57.613281 19.671875 57.457031 19.613281 C 57.292969 20.144531 57.144531 20.628906 56.984375 21.136719 Z M 15.035156 54.71875 C 15.390625 54.71875 15.777344 54.773438 16.101562 54.660156 C 16.28125 54.59375 16.363281 54.246094 16.488281 54.023438 C 16.464844 54 16.4375 53.976562 16.414062 53.953125 C 15.964844 54.101562 15.515625 54.246094 15.070312 54.40625 C 15.011719 54.425781 14.96875 54.519531 14.953125 54.585938 C 14.941406 54.625 15.003906 54.722656 15.035156 54.71875 Z M 53.292969 35.527344 C 52.765625 35.699219 52.339844 35.839844 51.851562 36.003906 C 52.132812 36.296875 52.371094 36.542969 52.65625 36.839844 C 52.875 36.390625 53.0625 36 53.292969 35.527344 Z M 40.621094 63.125 C 40.398438 63.167969 40.355469 63.308594 40.410156 63.480469 C 40.507812 63.789062 40.628906 64.085938 40.773438 64.484375 C 41.0625 63.921875 41.300781 63.453125 41.578125 62.917969 C 41.207031 63 40.917969 63.074219 40.621094 63.125 Z M 52.683594 43.4375 C 53.613281 43.277344 54.097656 42.742188 53.972656 42.226562 C 53.675781 42.359375 53.398438 42.476562 53.128906 42.597656 C 52.710938 42.785156 52.574219 43.046875 52.683594 43.4375 Z M 41.507812 51.046875 C 41.613281 51.035156 41.722656 51.007812 41.828125 50.984375 C 41.769531 50.890625 41.714844 50.785156 41.644531 50.695312 C 41.585938 50.625 41.507812 50.574219 41.433594 50.511719 C 40.753906 49.949219 40.691406 49.949219 40.035156 50.527344 C 39.972656 50.578125 39.914062 50.632812 39.792969 50.742188 C 40.34375 50.839844 40.820312 50.925781 41.300781 51.011719 C 41.367188 51.023438 41.4375 51.050781 41.507812 51.046875 Z M 47.433594 8.640625 L 47.433594 7.707031 C 47.433594 7.210938 47.75 6.273438 48.621094 5.839844 L 19.953125 3.390625 L 16.6875 3.113281 L 16.152344 9.347656 Z M 65.960938 7.320312 L 63.265625 38.765625 C 62.609375 38.4375 61.871094 38.253906 61.085938 38.253906 L 60.601562 38.253906 L 60.601562 8.34375 L 48.113281 8.625 L 48.113281 7.707031 C 48.113281 7.328125 48.484375 6.285156 49.671875 6.285156 C 51.019531 6.285156 51.183594 7.589844 51.199219 7.738281 C 51.214844 7.925781 51.382812 8.0625 51.566406 8.046875 C 51.753906 8.03125 51.894531 7.863281 51.878906 7.679688 C 51.835938 7.21875 51.601562 6.503906 51.015625 6.042969 L 65.960938 7.320312 " fill-opacity="1" fill-rule="nonzero"/></svg>