<svg xmlns="http://www.w3.org/2000/svg" xmlns:xlink="http://www.w3.org/1999/xlink" width="100" zoomAndPan="magnify" viewBox="0 0 75 74.999997" height="100" preserveAspectRatio="xMidYMid meet" version="1.0"><defs><clipPath id="id1"><path d="M 0 50 L 75 50 L 75 69.613281 L 0 69.613281 Z M 0 50 " clip-rule="nonzero"/></clipPath><clipPath id="id2"><path d="M 23 5.113281 L 46 5.113281 L 46 23 L 23 23 Z M 23 5.113281 " clip-rule="nonzero"/></clipPath><clipPath id="id3"><path d="M 5 5.113281 L 75 5.113281 L 75 68 L 5 68 Z M 5 5.113281 " clip-rule="nonzero"/></clipPath></defs><path fill="#78bdbc" d="M 72.800781 62.328125 C 69.691406 62.503906 62.644531 62 60.40625 61.921875 C 57.460938 61.816406 51.988281 61.503906 48.304688 61.816406 C 44.625 62.132812 35.996094 61.710938 30.070312 60.914062 C 27.425781 60.558594 23.617188 59.703125 20.179688 58.855469 C 19.304688 58.640625 18.453125 58.425781 17.652344 58.21875 C 14.527344 57.417969 12.148438 56.757812 12.011719 56.730469 C 11.941406 56.71875 11.667969 56.539062 11.269531 56.257812 C 12.269531 55.398438 13.152344 54.90625 13.796875 55.007812 C 13.796875 55.007812 13.980469 54.945312 14.324219 54.835938 C 13.988281 54.515625 13.714844 54.164062 13.589844 53.9375 C 13.164062 53.148438 12.882812 52.269531 12.929688 51.363281 C 12.980469 50.347656 13.308594 49.328125 13.585938 48.351562 C 13.875 47.328125 14.1875 46.304688 14.363281 45.253906 C 14.53125 44.257812 14.589844 43.25 14.8125 42.261719 C 15.019531 41.328125 15.316406 40.414062 15.738281 39.554688 C 16.152344 38.714844 16.644531 37.867188 17.347656 37.226562 C 18.484375 36.1875 19.953125 35.785156 21.316406 35.140625 C 23.214844 32.734375 25.921875 30.441406 29.644531 29.578125 C 29.308594 28.863281 28.96875 28.148438 28.617188 27.441406 L 28.976562 27.398438 L 30.117188 27.257812 L 30.183594 27.25 L 31.046875 27.144531 L 31.117188 27.136719 L 31.910156 27.039062 L 31.96875 27.03125 L 33.460938 26.847656 L 33.527344 26.839844 L 35.046875 26.652344 L 35.535156 26.59375 L 35.636719 26.578125 L 36.1875 26.511719 L 36.308594 26.496094 L 37.339844 26.371094 L 37.40625 26.363281 L 39.179688 26.144531 L 39.25 26.136719 L 41.144531 25.902344 L 41.21875 25.894531 L 42.558594 25.730469 L 42.621094 25.722656 L 44.964844 25.433594 L 45.167969 25.410156 L 45.863281 25.324219 L 46.542969 26.753906 C 48.761719 26.585938 56.339844 26.316406 61.03125 29.859375 C 61.285156 30.054688 61.53125 30.257812 61.765625 30.46875 C 61.8125 30.421875 61.886719 30.398438 61.964844 30.445312 C 62.269531 30.621094 62.660156 30.632812 63 30.707031 C 63.34375 30.78125 63.675781 30.894531 64 31.035156 C 64.808594 31.390625 65.535156 31.921875 66.351562 32.253906 C 67.734375 32.8125 69.136719 33.621094 70.054688 34.816406 C 71.621094 36.859375 71.910156 39.597656 71.804688 42.09375 C 71.734375 43.832031 71.355469 45.546875 71.378906 47.289062 C 71.402344 49.347656 71.785156 51.394531 71.730469 53.453125 C 71.6875 55.019531 71.34375 57.398438 70.007812 58.484375 C 71.195312 59.550781 72.230469 60.835938 72.800781 62.328125 Z M 72.800781 62.328125 " fill-opacity="1" fill-rule="nonzero"/><path fill="#cce5df" d="M 66.628906 42.632812 C 66.628906 42.632812 64.796875 44.617188 62.589844 47.019531 C 61.535156 48.167969 60.390625 49.410156 59.324219 50.578125 C 58.613281 51.355469 57.9375 52.101562 57.339844 52.761719 C 56.480469 53.710938 55.785156 54.488281 55.402344 54.933594 C 55.1875 55.183594 55.070312 55.328125 55.070312 55.351562 C 55.070312 55.558594 52.613281 56.257812 51.5625 56.609375 C 50.511719 56.957031 36.40625 56.398438 36.234375 56.609375 C 36.0625 56.816406 34.859375 56.632812 33.671875 56.726562 C 32.484375 56.816406 26.046875 55.558594 26.046875 55.558594 L 24.46875 55.167969 L 23.847656 54.371094 L 22.957031 52.6875 L 20.90625 48.789062 L 19.761719 46.621094 L 17.507812 42.339844 C 17.507812 42.335938 17.511719 42.332031 17.511719 42.328125 C 17.582031 42.089844 18.546875 38.890625 20.882812 35.710938 C 21.023438 35.519531 21.164062 35.332031 21.316406 35.140625 C 23.214844 32.734375 25.921875 30.441406 29.644531 29.578125 C 29.761719 29.550781 29.875 29.527344 29.992188 29.503906 C 30.027344 29.496094 30.066406 29.488281 30.101562 29.480469 C 30.125 29.476562 30.144531 29.472656 30.167969 29.46875 C 30.355469 29.429688 30.546875 29.398438 30.738281 29.371094 C 30.8125 29.359375 30.886719 29.347656 30.960938 29.335938 C 30.984375 29.332031 31.003906 29.332031 31.027344 29.328125 C 31.273438 29.292969 31.515625 29.253906 31.753906 29.21875 C 31.777344 29.214844 31.800781 29.210938 31.824219 29.207031 C 32.433594 29.117188 33.023438 29.027344 33.59375 28.9375 C 33.613281 28.9375 33.636719 28.933594 33.660156 28.929688 C 34.386719 28.816406 35.078125 28.707031 35.738281 28.601562 C 35.761719 28.597656 35.785156 28.597656 35.808594 28.59375 C 36.367188 28.503906 36.90625 28.417969 37.417969 28.332031 C 37.449219 28.328125 37.476562 28.324219 37.503906 28.320312 C 37.644531 28.292969 37.785156 28.273438 37.925781 28.25 C 37.976562 28.238281 38.027344 28.230469 38.078125 28.222656 C 38.101562 28.21875 38.125 28.214844 38.148438 28.210938 C 38.785156 28.105469 39.382812 28.003906 39.941406 27.910156 C 39.964844 27.90625 39.984375 27.902344 40.007812 27.898438 C 40.675781 27.785156 41.289062 27.675781 41.847656 27.578125 C 41.871094 27.574219 41.894531 27.570312 41.914062 27.566406 C 42.34375 27.488281 42.742188 27.417969 43.101562 27.351562 C 43.125 27.347656 43.144531 27.34375 43.167969 27.339844 C 43.433594 27.289062 43.679688 27.246094 43.910156 27.199219 C 43.9375 27.195312 43.964844 27.191406 43.996094 27.183594 C 44.1875 27.148438 44.363281 27.117188 44.527344 27.085938 C 44.605469 27.070312 44.679688 27.054688 44.75 27.042969 C 44.773438 27.039062 44.792969 27.03125 44.8125 27.027344 L 44.816406 27.027344 C 44.839844 27.023438 44.867188 27.019531 44.894531 27.015625 C 45.574219 26.882812 45.917969 26.8125 45.917969 26.8125 C 45.917969 26.8125 46.144531 26.785156 46.542969 26.753906 C 48.761719 26.585938 56.339844 26.316406 61.03125 29.859375 C 61.289062 30.054688 61.53125 30.257812 61.765625 30.46875 C 61.925781 30.613281 62.082031 30.761719 62.230469 30.914062 C 66.582031 35.335938 66.628906 42.632812 66.628906 42.632812 Z M 66.628906 42.632812 " fill-opacity="1" fill-rule="nonzero"/><g clip-path="url(#id1)"><path fill="#697a78" d="M 0.207031 69.546875 C 0.046875 69.21875 0.226562 68.859375 0.390625 68.570312 C 0.816406 67.820312 1.570312 67.46875 2.152344 66.867188 C 2.789062 66.210938 2.8125 65.230469 3.386719 64.535156 C 4 63.796875 4.960938 63.410156 5.519531 62.621094 C 6.007812 61.929688 6.289062 61.132812 6.71875 60.410156 C 6.929688 60.050781 7.175781 59.699219 7.480469 59.414062 C 7.789062 59.128906 8.152344 58.917969 8.476562 58.65625 C 8.804688 58.394531 9.128906 58.085938 9.324219 57.707031 C 9.5 57.371094 9.714844 57.039062 9.992188 56.78125 C 10.304688 56.492188 10.652344 56.324219 11.023438 56.125 C 11.304688 55.972656 11.597656 55.84375 11.902344 55.753906 C 12.414062 55.378906 12.878906 55.128906 13.285156 55.035156 C 14.125 54.507812 15.289062 54.136719 16.28125 54.199219 C 16.320312 54.199219 16.351562 54.210938 16.375 54.230469 C 16.65625 54.152344 16.960938 54.070312 17.28125 53.988281 C 17.441406 53.945312 17.609375 53.902344 17.777344 53.855469 C 19.191406 53.492188 20.9375 53.082031 22.957031 52.6875 C 24.140625 52.453125 25.414062 52.226562 26.769531 52.015625 C 33.738281 50.929688 42.816406 50.289062 52.226562 51.753906 C 53.925781 52.015625 55.632812 52.347656 57.339844 52.761719 C 58.46875 53.03125 59.601562 53.339844 60.726562 53.679688 C 61.640625 53.957031 62.550781 54.261719 63.457031 54.589844 C 63.457031 54.589844 63.929688 54.757812 64.667969 55.09375 C 64.742188 55.128906 64.820312 55.164062 64.898438 55.199219 C 66.121094 55.769531 67.933594 56.738281 69.554688 58.09375 C 69.617188 58.144531 69.679688 58.195312 69.738281 58.25 C 69.832031 58.324219 69.921875 58.40625 70.007812 58.484375 C 70.335938 58.78125 70.652344 59.089844 70.949219 59.417969 C 70.96875 59.445312 70.988281 59.472656 71.011719 59.496094 C 71.015625 59.503906 71.023438 59.511719 71.03125 59.519531 C 71.046875 59.535156 71.0625 59.550781 71.082031 59.570312 C 71.09375 59.578125 71.101562 59.585938 71.113281 59.59375 C 71.117188 59.597656 71.121094 59.605469 71.125 59.609375 C 71.148438 59.625 71.167969 59.640625 71.191406 59.660156 C 71.238281 59.726562 71.285156 59.792969 71.332031 59.859375 C 71.445312 59.996094 71.554688 60.136719 71.660156 60.277344 C 72.230469 60.96875 72.890625 61.589844 73.363281 62.355469 C 73.652344 62.824219 73.925781 63.382812 73.972656 63.941406 C 74.003906 64.308594 73.914062 64.644531 73.835938 65 C 73.746094 65.417969 73.757812 65.753906 73.941406 66.140625 C 74.070312 66.414062 74.226562 66.679688 74.308594 66.96875 C 74.390625 67.257812 74.382812 67.53125 74.398438 67.828125 C 74.425781 68.464844 74.722656 68.917969 74.929688 69.5 C 74.945312 69.535156 74.957031 69.574219 74.96875 69.609375 L 0.242188 69.609375 C 0.230469 69.589844 0.21875 69.570312 0.207031 69.546875 Z M 0.207031 69.546875 " fill-opacity="1" fill-rule="nonzero"/></g><path fill="#fedebd" d="M 47.074219 27.871094 C 46.578125 28.726562 45.917969 29.324219 45.246094 29.742188 C 45.226562 29.753906 45.203125 29.769531 45.179688 29.78125 C 45 29.894531 44.820312 29.988281 44.640625 30.074219 C 44.570312 30.109375 44.5 30.140625 44.429688 30.171875 C 44.363281 30.203125 44.296875 30.226562 44.234375 30.253906 C 44.214844 30.261719 44.191406 30.269531 44.171875 30.277344 C 43.171875 30.667969 42.363281 30.710938 42.363281 30.710938 L 40.625 29.75 L 40.539062 29.699219 L 38.242188 28.425781 L 38.144531 28.371094 L 37.925781 28.25 L 37.921875 28.25 L 37.289062 27.894531 L 37.164062 27.828125 L 35.484375 26.894531 L 35.421875 26.859375 L 35.046875 26.652344 L 33.21875 25.636719 L 33.03125 25.53125 L 32.882812 25.449219 L 32.742188 25.371094 L 31.472656 24.667969 L 31.40625 24.632812 L 30.886719 24.34375 L 30.765625 24.046875 L 30.730469 23.957031 L 30.421875 23.199219 L 30.332031 22.976562 L 28.609375 18.710938 L 28.535156 18.523438 L 28.34375 18.058594 C 28.222656 17.757812 27.875 15.914062 27.765625 14.328125 C 27.722656 13.660156 27.722656 13.039062 27.800781 12.59375 C 28 11.417969 35.234375 10.714844 39.179688 11.074219 C 39.203125 11.078125 39.222656 11.078125 39.242188 11.082031 C 40.320312 11.183594 41.144531 11.367188 41.496094 11.644531 C 42.214844 12.210938 42.710938 13.988281 43.039062 15.8125 C 43.476562 15.496094 43.964844 15.273438 44.351562 15.476562 C 45.222656 15.929688 46.328125 20.039062 43.703125 20.777344 L 44.382812 22.207031 L 44.410156 22.269531 L 44.675781 22.824219 L 44.78125 23.046875 L 45.34375 24.230469 L 45.472656 24.496094 L 45.863281 25.324219 L 46.542969 26.753906 Z M 47.074219 27.871094 " fill-opacity="1" fill-rule="nonzero"/><path fill="#78bdbc" d="M 44.414062 37.597656 C 44.40625 37.789062 44.414062 38 44.414062 38.214844 C 44.527344 38.214844 44.640625 38.21875 44.753906 38.238281 C 44.808594 38.179688 44.933594 38.203125 44.933594 38.308594 L 44.933594 38.394531 C 44.933594 38.496094 44.816406 38.519531 44.757812 38.46875 C 44.746094 38.460938 44.742188 38.453125 44.734375 38.445312 C 44.625 38.425781 44.519531 38.421875 44.410156 38.421875 C 44.402344 38.605469 44.382812 38.78125 44.335938 38.941406 C 44.300781 39.070312 44.097656 39.015625 44.136719 38.886719 C 44.171875 38.761719 44.1875 38.601562 44.191406 38.433594 C 43.820312 38.46875 43.453125 38.566406 43.085938 38.605469 C 43.035156 38.613281 42.980469 38.617188 42.925781 38.625 C 42.847656 38.628906 42.765625 38.636719 42.6875 38.640625 C 42.667969 38.640625 42.644531 38.640625 42.625 38.640625 C 42.601562 38.644531 42.578125 38.644531 42.554688 38.644531 C 42.519531 38.644531 42.484375 38.644531 42.453125 38.644531 C 42.4375 38.644531 42.421875 38.644531 42.410156 38.644531 C 42.355469 38.644531 42.304688 38.644531 42.253906 38.640625 C 42.25 38.640625 42.246094 38.640625 42.242188 38.640625 C 42.195312 38.636719 42.148438 38.632812 42.101562 38.628906 C 42.089844 38.628906 42.074219 38.628906 42.066406 38.625 C 42.023438 38.621094 41.984375 38.617188 41.941406 38.609375 C 41.929688 38.609375 41.917969 38.609375 41.90625 38.605469 C 41.855469 38.597656 41.804688 38.589844 41.753906 38.578125 C 41.296875 38.484375 40.890625 38.316406 40.476562 38.109375 C 39.96875 37.855469 39.558594 37.8125 39.082031 38.140625 C 38.285156 38.691406 37.433594 38.570312 36.511719 38.589844 C 36.003906 38.601562 35.554688 38.5625 35.125 38.886719 C 34.785156 39.140625 34.5 39.453125 34.125 39.65625 C 34.066406 39.6875 33.992188 39.660156 33.972656 39.59375 C 33.917969 39.40625 33.867188 39.21875 33.816406 39.03125 C 33.808594 39.011719 33.804688 38.996094 33.800781 38.976562 C 33.78125 38.90625 33.761719 38.832031 33.738281 38.761719 C 33.722656 38.703125 33.703125 38.640625 33.6875 38.582031 C 33.671875 38.53125 33.660156 38.480469 33.644531 38.433594 C 33.613281 38.332031 33.582031 38.230469 33.550781 38.128906 C 33.546875 38.121094 33.542969 38.113281 33.542969 38.105469 C 33.542969 38.101562 33.539062 38.097656 33.539062 38.097656 C 33.523438 38.078125 33.511719 38.058594 33.503906 38.035156 C 33.476562 37.957031 33.449219 37.882812 33.417969 37.808594 C 33.375 37.703125 33.332031 37.597656 33.289062 37.492188 C 32.511719 35.59375 31.597656 33.742188 30.726562 31.890625 C 30.546875 31.503906 30.367188 31.117188 30.1875 30.730469 C 30.164062 30.6875 30.144531 30.640625 30.125 30.597656 C 29.964844 30.257812 29.804688 29.917969 29.644531 29.578125 C 29.308594 28.863281 28.96875 28.148438 28.617188 27.441406 C 28.46875 27.148438 28.320312 26.859375 28.171875 26.566406 C 28.105469 26.441406 28.203125 26.324219 28.3125 26.304688 C 28.90625 25.789062 29.097656 24.890625 29.453125 24.21875 C 29.480469 24.164062 29.511719 24.113281 29.539062 24.058594 C 29.546875 24.046875 29.554688 24.035156 29.5625 24.023438 C 29.585938 23.980469 29.609375 23.941406 29.632812 23.898438 C 29.644531 23.882812 29.652344 23.871094 29.660156 23.855469 C 29.683594 23.816406 29.707031 23.78125 29.734375 23.742188 C 29.742188 23.726562 29.753906 23.710938 29.761719 23.699219 C 29.789062 23.660156 29.8125 23.625 29.839844 23.585938 C 29.847656 23.574219 29.859375 23.558594 29.867188 23.542969 C 29.894531 23.507812 29.921875 23.46875 29.949219 23.433594 C 29.957031 23.421875 29.96875 23.40625 29.976562 23.394531 C 30.007812 23.359375 30.035156 23.320312 30.066406 23.285156 C 30.074219 23.273438 30.082031 23.261719 30.09375 23.25 C 30.125 23.210938 30.15625 23.171875 30.191406 23.132812 C 30.199219 23.125 30.203125 23.117188 30.210938 23.109375 C 30.25 23.066406 30.285156 23.027344 30.324219 22.984375 C 30.324219 22.984375 30.328125 22.980469 30.332031 22.976562 C 30.332031 22.972656 30.335938 22.972656 30.335938 22.972656 C 30.363281 22.941406 30.390625 22.914062 30.417969 22.886719 C 30.429688 22.871094 30.445312 22.859375 30.457031 22.84375 C 30.480469 22.824219 30.503906 22.800781 30.527344 22.777344 C 30.546875 22.761719 30.5625 22.742188 30.582031 22.726562 C 30.601562 22.707031 30.625 22.6875 30.648438 22.664062 C 30.667969 22.648438 30.6875 22.628906 30.707031 22.613281 C 30.730469 22.59375 30.75 22.574219 30.773438 22.558594 C 30.792969 22.539062 30.816406 22.519531 30.835938 22.503906 C 30.859375 22.484375 30.878906 22.46875 30.902344 22.453125 C 30.925781 22.433594 30.949219 22.414062 30.972656 22.398438 C 30.992188 22.382812 31.011719 22.367188 31.035156 22.351562 C 31.058594 22.332031 31.085938 22.3125 31.113281 22.292969 C 31.132812 22.28125 31.152344 22.265625 31.171875 22.253906 C 31.214844 22.222656 31.261719 22.191406 31.308594 22.164062 C 31.714844 21.910156 32.207031 21.84375 32.617188 21.59375 C 33.023438 21.34375 33.238281 20.902344 33.578125 20.585938 C 34.101562 20.101562 34.816406 19.980469 35.503906 20.09375 C 35.535156 20.097656 35.554688 20.113281 35.566406 20.132812 C 35.808594 20.128906 36.0625 20.214844 36.285156 20.28125 C 36.664062 20.398438 37.039062 20.523438 37.414062 20.652344 C 37.90625 20.820312 38.390625 21.011719 38.882812 21.183594 C 39.429688 21.371094 39.9375 21.457031 40.519531 21.445312 C 41.433594 21.421875 42.257812 21.433594 43.011719 22.007812 C 43.292969 22.222656 43.5625 22.472656 43.878906 22.636719 C 43.910156 22.65625 43.941406 22.667969 43.972656 22.683594 C 43.976562 22.683594 43.984375 22.6875 43.992188 22.691406 C 44.019531 22.703125 44.046875 22.714844 44.074219 22.726562 C 44.078125 22.726562 44.078125 22.726562 44.082031 22.726562 C 44.109375 22.738281 44.140625 22.746094 44.171875 22.753906 C 44.175781 22.757812 44.183594 22.757812 44.1875 22.761719 C 44.214844 22.769531 44.242188 22.773438 44.269531 22.78125 C 44.273438 22.78125 44.277344 22.78125 44.28125 22.785156 C 44.308594 22.789062 44.339844 22.796875 44.371094 22.800781 C 44.375 22.800781 44.382812 22.800781 44.386719 22.800781 C 44.410156 22.804688 44.4375 22.808594 44.460938 22.8125 C 44.46875 22.8125 44.476562 22.8125 44.484375 22.8125 C 44.511719 22.816406 44.539062 22.820312 44.570312 22.820312 C 44.578125 22.820312 44.585938 22.824219 44.59375 22.824219 C 44.613281 22.824219 44.636719 22.824219 44.660156 22.824219 C 44.671875 22.824219 44.679688 22.828125 44.6875 22.828125 C 44.789062 22.828125 44.890625 22.828125 45 22.828125 C 45.542969 22.820312 45.964844 22.957031 45.773438 23.574219 C 45.726562 23.71875 45.679688 23.863281 45.632812 24.007812 C 45.621094 24.050781 45.605469 24.09375 45.589844 24.136719 C 45.535156 24.308594 45.476562 24.480469 45.417969 24.652344 C 45.410156 24.679688 45.402344 24.703125 45.394531 24.726562 C 45.363281 24.816406 45.335938 24.902344 45.308594 24.988281 C 45.273438 25.089844 45.242188 25.191406 45.207031 25.292969 C 45.191406 25.339844 45.175781 25.386719 45.160156 25.4375 C 45.15625 25.453125 45.148438 25.472656 45.144531 25.488281 C 45.113281 25.589844 45.082031 25.6875 45.050781 25.789062 C 45.042969 25.816406 45.035156 25.84375 45.027344 25.867188 C 45 25.964844 44.96875 26.058594 44.945312 26.15625 C 44.9375 26.179688 44.929688 26.203125 44.921875 26.230469 C 44.890625 26.347656 44.855469 26.46875 44.828125 26.585938 C 44.8125 26.644531 44.800781 26.699219 44.792969 26.757812 C 44.785156 26.785156 44.78125 26.816406 44.777344 26.847656 C 44.773438 26.878906 44.765625 26.910156 44.761719 26.941406 C 44.761719 26.949219 44.761719 26.957031 44.757812 26.964844 C 44.753906 27.003906 44.75 27.046875 44.746094 27.085938 C 44.742188 27.148438 44.734375 27.210938 44.730469 27.277344 C 44.730469 27.296875 44.726562 27.316406 44.726562 27.335938 C 44.722656 27.417969 44.71875 27.503906 44.714844 27.585938 C 44.714844 27.609375 44.714844 27.632812 44.714844 27.65625 C 44.710938 27.738281 44.707031 27.820312 44.707031 27.898438 C 44.703125 27.988281 44.703125 28.078125 44.699219 28.167969 C 44.683594 28.730469 44.664062 29.292969 44.648438 29.859375 C 44.636719 30.328125 44.621094 30.800781 44.609375 31.269531 C 44.597656 31.644531 44.585938 32.019531 44.578125 32.394531 C 44.554688 33.136719 44.535156 33.875 44.511719 34.617188 C 44.5 35.058594 44.488281 35.496094 44.472656 35.9375 C 44.472656 35.988281 44.46875 36.039062 44.46875 36.089844 C 44.46875 36.105469 44.464844 36.117188 44.464844 36.132812 C 44.453125 36.5625 44.4375 36.992188 44.421875 37.425781 C 44.421875 37.453125 44.417969 37.480469 44.417969 37.507812 C 44.417969 37.539062 44.414062 37.566406 44.414062 37.597656 Z M 44.414062 37.597656 " fill-opacity="1" fill-rule="nonzero"/><path fill="#fedebd" d="M 35.046875 32.703125 C 35.238281 33.363281 35.339844 34.066406 35.25 34.746094 C 35.171875 35.359375 35.023438 35.972656 34.785156 36.550781 C 34.5625 37.085938 34.265625 37.628906 33.765625 38.007812 C 28.472656 52.089844 22.285156 57.710938 21.320312 58.527344 C 21.25 58.554688 21.179688 58.578125 21.105469 58.597656 C 21.027344 58.621094 20.972656 58.65625 20.933594 58.707031 C 18.070312 59.457031 16.882812 57.785156 16.394531 56.097656 C 16.394531 56.097656 14.515625 50.222656 17.742188 41.699219 C 17.742188 41.699219 21.601562 39.976562 24.355469 41.75 C 27.375 38.816406 30.144531 36.519531 30.484375 36.242188 C 30.480469 36.070312 30.464844 35.898438 30.449219 35.730469 C 30.425781 35.492188 30.394531 35.25 30.382812 35.011719 C 30.363281 34.707031 30.390625 34.402344 30.382812 34.097656 C 30.359375 33.332031 30.128906 32.597656 30.109375 31.835938 C 30.085938 31.070312 30.164062 30.304688 30.105469 29.539062 C 30.035156 28.585938 30.070312 27.632812 30.167969 26.679688 C 30.226562 26.078125 30.28125 25.46875 30.417969 24.878906 C 30.515625 24.472656 30.628906 23.960938 30.96875 23.648438 C 31.3125 23.332031 31.707031 23.542969 31.984375 23.816406 C 32.058594 23.753906 32.128906 23.6875 32.238281 23.710938 C 32.4375 23.746094 32.597656 23.855469 32.710938 24.003906 C 32.734375 24.050781 32.753906 24.097656 32.773438 24.148438 C 32.777344 24.160156 32.78125 24.175781 32.789062 24.1875 C 32.800781 24.226562 32.816406 24.265625 32.828125 24.304688 C 32.832031 24.316406 32.835938 24.324219 32.839844 24.335938 C 32.867188 24.4375 32.894531 24.539062 32.910156 24.640625 C 32.910156 24.644531 32.914062 24.648438 32.914062 24.652344 C 32.914062 24.652344 32.914062 24.648438 32.910156 24.648438 C 32.957031 24.898438 32.96875 25.152344 32.964844 25.414062 C 32.964844 25.417969 32.964844 25.425781 32.964844 25.429688 C 32.960938 25.605469 32.949219 25.78125 32.9375 25.960938 C 32.9375 25.96875 32.9375 25.976562 32.941406 25.980469 C 32.941406 25.992188 32.945312 26.007812 32.953125 26.015625 C 32.988281 26.054688 33.042969 26.058594 33.085938 26.078125 C 33.207031 26.136719 33.308594 26.285156 33.378906 26.394531 C 33.398438 26.421875 33.417969 26.453125 33.433594 26.484375 C 33.433594 26.488281 33.4375 26.492188 33.441406 26.496094 C 33.453125 26.523438 33.464844 26.550781 33.476562 26.574219 C 33.480469 26.585938 33.484375 26.59375 33.488281 26.605469 C 33.5 26.636719 33.511719 26.671875 33.519531 26.707031 C 33.53125 26.875 33.539062 27.046875 33.542969 27.21875 C 33.558594 27.621094 33.59375 28.019531 33.621094 28.421875 C 33.675781 29.242188 33.773438 30.054688 34.113281 30.824219 C 34.125 30.824219 34.132812 30.828125 34.140625 30.835938 C 34.222656 30.996094 34.300781 31.148438 34.40625 31.296875 C 34.503906 31.441406 34.59375 31.589844 34.671875 31.746094 C 34.828125 32.054688 34.953125 32.375 35.046875 32.703125 Z M 66.628906 42.632812 C 63.195312 39.699219 55.382812 41.699219 55.382812 41.699219 L 45.914062 34.714844 C 45.933594 33.917969 45.777344 33.121094 45.609375 32.339844 C 45.507812 31.859375 45.394531 31.382812 45.332031 30.894531 C 45.269531 30.410156 45.253906 29.925781 45.238281 29.4375 C 45.21875 28.835938 45.207031 28.230469 45.140625 27.628906 C 45.109375 27.324219 44.9375 26.875 44.542969 26.816406 C 44.121094 26.753906 43.84375 27.242188 43.761719 27.53125 C 43.644531 27.945312 43.691406 28.386719 43.699219 28.8125 C 43.605469 28.566406 43.511719 28.320312 43.417969 28.070312 C 43.089844 27.214844 42.902344 26.316406 42.515625 25.476562 C 42.300781 25.003906 42.015625 24.597656 41.65625 24.199219 C 41.332031 23.839844 40.9375 23.4375 40.445312 23.257812 C 40.136719 23.140625 39.871094 23.222656 39.699219 23.441406 C 39.425781 23.074219 39.144531 22.714844 38.859375 22.359375 C 38.558594 21.984375 37.9375 21.425781 37.421875 21.894531 C 37.121094 22.164062 37.179688 22.652344 37.292969 23.003906 C 37.265625 22.988281 37.238281 22.972656 37.210938 22.957031 C 36.957031 22.832031 36.707031 22.988281 36.535156 23.148438 C 36.058594 23.597656 36.230469 24.230469 36.46875 24.738281 C 36.753906 25.332031 37.179688 25.863281 37.382812 26.488281 C 37.703125 27.476562 38.191406 28.414062 38.578125 29.382812 C 38.574219 29.386719 38.574219 29.394531 38.574219 29.398438 C 38.574219 29.402344 38.574219 29.402344 38.570312 29.40625 C 38.644531 29.585938 38.703125 29.777344 38.6875 29.972656 C 38.683594 30 38.664062 30.027344 38.632812 30.027344 C 38.582031 30.027344 38.539062 29.984375 38.507812 29.933594 C 38.503906 29.949219 38.503906 29.960938 38.5 29.972656 C 38.359375 29.761719 38.203125 29.554688 38.074219 29.34375 C 37.652344 28.65625 37.3125 27.9375 36.953125 27.222656 C 36.828125 26.972656 36.667969 26.726562 36.417969 26.558594 C 36.230469 26.433594 35.9375 26.351562 35.714844 26.449219 C 35.351562 26.605469 35.378906 27.140625 35.40625 27.476562 C 35.398438 27.476562 35.394531 27.480469 35.390625 27.480469 C 35.390625 27.5 35.390625 27.515625 35.390625 27.53125 C 35.402344 27.585938 35.414062 27.636719 35.421875 27.6875 C 35.679688 28.546875 36.058594 29.375 36.429688 30.203125 C 36.820312 31.082031 37.15625 31.976562 37.542969 32.855469 C 38.253906 34.464844 39.257812 35.933594 40.597656 37.195312 C 40.9375 37.515625 41.292969 37.820312 41.695312 38.078125 C 41.984375 38.265625 42.324219 38.4375 42.683594 38.476562 L 42.6875 38.476562 C 42.6875 38.476562 56.023438 61.019531 62.335938 57.238281 C 67.917969 55.773438 66.628906 42.632812 66.628906 42.632812 Z M 66.628906 42.632812 " fill-opacity="1" fill-rule="nonzero"/><g clip-path="url(#id2)"><path fill="#697a78" d="M 45.996094 17.28125 C 45.992188 18.289062 45.875 19.257812 45.5625 20.21875 C 45.425781 20.632812 45.3125 21.089844 45.101562 21.472656 C 44.914062 21.8125 44.605469 22.046875 44.351562 22.332031 C 44.351562 22.335938 44.355469 22.335938 44.355469 22.339844 C 44.351562 22.339844 44.347656 22.339844 44.339844 22.34375 C 44.320312 22.347656 44.300781 22.355469 44.28125 22.367188 C 44.277344 22.355469 44.273438 22.34375 44.269531 22.328125 C 44.261719 22.316406 44.253906 22.300781 44.242188 22.289062 C 44.25 22.289062 44.253906 22.289062 44.257812 22.292969 C 44.175781 22.121094 44.101562 21.945312 44.027344 21.769531 C 43.890625 21.433594 43.683594 21.113281 43.609375 20.757812 C 43.605469 20.742188 43.605469 20.730469 43.625 20.722656 C 43.6875 20.6875 43.753906 20.65625 43.824219 20.632812 C 43.835938 20.628906 43.839844 20.628906 43.847656 20.632812 C 44.136719 20.496094 44.4375 20.347656 44.644531 20.097656 C 44.917969 19.769531 45.089844 19.339844 45.175781 18.925781 C 45.355469 18.066406 45.210938 17.117188 44.925781 16.296875 C 44.816406 15.980469 44.621094 15.570312 44.261719 15.476562 C 44.003906 15.410156 43.753906 15.523438 43.550781 15.679688 C 43.132812 16 42.820312 16.460938 42.566406 16.914062 C 42.558594 16.925781 42.542969 16.929688 42.53125 16.925781 L 42.527344 16.925781 C 42.523438 16.929688 42.519531 16.929688 42.515625 16.929688 C 42.511719 16.929688 42.507812 16.929688 42.503906 16.925781 C 42.5 16.933594 42.492188 16.933594 42.484375 16.929688 C 42 16.679688 41.566406 16.257812 41.226562 15.84375 C 40.871094 15.40625 40.53125 14.957031 40.25 14.46875 C 39.964844 13.976562 39.734375 13.453125 39.542969 12.914062 C 39.464844 12.6875 39.402344 12.460938 39.347656 12.230469 C 39.347656 12.226562 39.347656 12.222656 39.351562 12.214844 C 39.351562 12.214844 39.347656 12.210938 39.347656 12.210938 C 39.347656 12.207031 39.347656 12.203125 39.347656 12.199219 C 39.347656 12.199219 39.347656 12.199219 39.347656 12.195312 C 39.347656 12.195312 39.34375 12.191406 39.34375 12.191406 C 39.34375 12.1875 39.339844 12.183594 39.339844 12.179688 C 39.335938 12.179688 39.335938 12.175781 39.335938 12.175781 C 39.332031 12.171875 39.328125 12.171875 39.328125 12.167969 C 39.324219 12.167969 39.324219 12.167969 39.324219 12.164062 C 39.320312 12.164062 39.316406 12.160156 39.3125 12.160156 C 39.3125 12.160156 39.308594 12.160156 39.308594 12.160156 C 39.304688 12.15625 39.296875 12.15625 39.292969 12.15625 C 39.296875 12.152344 39.300781 12.148438 39.304688 12.144531 C 39.285156 12.152344 39.261719 12.15625 39.242188 12.160156 C 39.234375 12.148438 39.21875 12.140625 39.207031 12.128906 C 39.199219 12.121094 39.191406 12.117188 39.183594 12.109375 C 39.136719 12.078125 39.078125 12.058594 39.007812 12.058594 C 38.882812 12.058594 38.796875 12.117188 38.746094 12.195312 C 38.730469 12.21875 38.71875 12.242188 38.710938 12.265625 C 38.347656 12.324219 37.976562 12.359375 37.613281 12.402344 C 36.992188 12.476562 36.367188 12.507812 35.742188 12.488281 C 35.171875 12.472656 34.605469 12.417969 34.050781 12.296875 C 34.023438 12.289062 33.996094 12.285156 33.96875 12.277344 C 33.574219 12.621094 33.054688 12.738281 32.550781 12.832031 C 32.265625 12.882812 31.976562 12.929688 31.695312 13.011719 C 31.410156 13.09375 31.164062 13.222656 30.914062 13.382812 C 30.371094 13.734375 29.824219 14.128906 29.1875 14.296875 C 28.757812 14.40625 28.28125 14.441406 27.832031 14.363281 C 27.835938 15.101562 27.921875 15.84375 28.054688 16.570312 C 28.121094 16.9375 28.199219 17.304688 28.285156 17.671875 C 28.332031 17.855469 28.371094 18.039062 28.441406 18.214844 C 28.5 18.367188 28.570312 18.519531 28.628906 18.671875 C 28.640625 18.707031 28.597656 18.722656 28.578125 18.703125 C 28.574219 18.707031 28.570312 18.710938 28.5625 18.714844 C 28.410156 18.769531 28.222656 18.714844 28.074219 18.664062 C 27.855469 18.589844 27.644531 18.488281 27.441406 18.367188 C 27.015625 18.113281 26.660156 17.792969 26.425781 17.351562 C 26.421875 17.347656 26.421875 17.347656 26.417969 17.34375 C 26.417969 17.339844 26.417969 17.335938 26.414062 17.332031 C 26.414062 17.328125 26.410156 17.324219 26.410156 17.320312 C 26.410156 17.320312 26.40625 17.316406 26.40625 17.3125 C 26.273438 16.996094 26.109375 16.351562 26.5625 16.289062 C 26.410156 16.1875 26.273438 16.074219 26.136719 15.953125 C 25.769531 15.621094 25.378906 15.222656 25.214844 14.746094 C 25.101562 14.414062 25.085938 13.773438 25.542969 13.679688 C 25.59375 13.671875 25.640625 13.667969 25.691406 13.667969 C 25.558594 13.519531 25.375 13.40625 25.230469 13.277344 C 25.078125 13.144531 24.933594 13.003906 24.804688 12.851562 C 24.570312 12.566406 24.394531 12.253906 24.246094 11.921875 C 24.003906 11.375 23.730469 10.683594 23.894531 10.082031 C 23.964844 9.828125 24.132812 9.566406 24.394531 9.46875 C 24.710938 9.351562 25.0625 9.4375 25.367188 9.554688 C 25.699219 9.683594 26.027344 9.847656 26.34375 10.015625 C 26.414062 10.050781 26.484375 10.089844 26.558594 10.125 C 26.503906 10.0625 26.460938 9.996094 26.433594 9.957031 C 26.011719 9.3125 25.917969 8.398438 26.238281 7.691406 C 26.390625 7.351562 26.621094 6.976562 26.976562 6.816406 C 27.148438 6.738281 27.332031 6.691406 27.515625 6.640625 C 27.710938 6.59375 27.890625 6.539062 28.09375 6.550781 C 28.578125 6.585938 29.0625 6.527344 29.542969 6.589844 C 29.808594 6.621094 30.070312 6.675781 30.332031 6.699219 C 30.578125 6.71875 30.820312 6.726562 31.066406 6.734375 C 31.164062 6.738281 31.265625 6.742188 31.367188 6.746094 C 31.363281 6.742188 31.363281 6.738281 31.359375 6.734375 C 31.347656 6.710938 31.332031 6.691406 31.324219 6.667969 C 31.300781 6.605469 31.289062 6.542969 31.285156 6.476562 C 31.273438 6.320312 31.289062 6.152344 31.34375 6.007812 C 31.457031 5.703125 31.738281 5.476562 32.039062 5.367188 C 32.472656 5.214844 32.984375 5.183594 33.441406 5.152344 C 33.953125 5.117188 34.460938 5.121094 34.972656 5.160156 C 35.996094 5.246094 37.015625 5.4375 38.019531 5.660156 C 38.484375 5.757812 38.953125 5.878906 39.398438 6.054688 C 39.820312 6.21875 40.207031 6.433594 40.59375 6.660156 C 41.285156 7.066406 42.007812 7.515625 42.457031 8.195312 C 42.695312 8.554688 42.949219 9.042969 42.960938 9.503906 C 44.074219 9.945312 44.71875 11.0625 45.117188 12.136719 C 45.378906 12.832031 45.5625 13.558594 45.699219 14.289062 C 45.886719 15.273438 45.996094 16.277344 45.996094 17.28125 Z M 45.996094 17.28125 " fill-opacity="1" fill-rule="nonzero"/></g><path fill="#cce5df" d="M 39.566406 14.660156 C 39.410156 14.957031 39.125 15.1875 38.804688 15.289062 C 38.308594 15.453125 37.792969 15.542969 37.269531 15.59375 C 36.140625 15.703125 35.007812 15.730469 33.878906 15.902344 C 32.808594 16.070312 31.761719 16.328125 30.71875 16.625 C 30.265625 16.757812 29.804688 16.890625 29.382812 17.105469 C 29.167969 17.210938 28.953125 17.332031 28.773438 17.496094 C 28.644531 17.613281 28.523438 17.75 28.382812 17.859375 C 28.375 17.875 28.363281 17.882812 28.339844 17.894531 C 28.335938 17.898438 28.335938 17.898438 28.335938 17.898438 C 28.332031 17.898438 28.332031 17.898438 28.332031 17.898438 C 28.332031 17.898438 28.332031 17.898438 28.328125 17.898438 C 28.320312 17.902344 28.316406 17.902344 28.308594 17.898438 C 28.304688 17.898438 28.304688 17.898438 28.304688 17.894531 C 28.304688 17.894531 28.304688 17.894531 28.300781 17.894531 C 28.300781 17.894531 28.296875 17.890625 28.296875 17.890625 C 28.023438 17.585938 27.863281 17.234375 27.792969 16.832031 C 27.714844 16.417969 27.664062 16.023438 27.507812 15.628906 C 27.234375 14.933594 26.871094 14.078125 27.503906 13.457031 C 28.15625 12.824219 29.003906 12.390625 29.835938 12.039062 C 30.746094 11.65625 31.726562 11.460938 32.691406 11.269531 C 33.230469 11.160156 33.761719 11.027344 34.300781 10.914062 C 34.816406 10.808594 35.332031 10.730469 35.855469 10.671875 C 36.351562 10.617188 36.855469 10.566406 37.355469 10.609375 C 37.746094 10.644531 38.183594 10.707031 38.503906 10.945312 C 39.03125 11.34375 39.246094 12.117188 39.414062 12.722656 C 39.582031 13.324219 39.875 14.058594 39.566406 14.660156 Z M 39.566406 14.660156 " fill-opacity="1" fill-rule="nonzero"/><g clip-path="url(#id3)"><path fill="#3d3f3f" d="M 25.65625 13.675781 C 25.621094 13.644531 25.671875 13.59375 25.703125 13.625 C 25.730469 13.652344 25.765625 13.625 25.792969 13.644531 C 25.851562 13.683594 25.910156 13.71875 25.972656 13.75 C 26.105469 13.8125 26.242188 13.867188 26.378906 13.90625 C 26.628906 13.980469 26.882812 14.03125 27.140625 14.082031 C 27.183594 14.09375 27.164062 14.160156 27.121094 14.148438 C 26.8125 14.085938 26.496094 14.03125 26.199219 13.921875 C 26.078125 13.878906 25.957031 13.828125 25.84375 13.761719 C 25.785156 13.722656 25.707031 13.722656 25.65625 13.675781 Z M 26.527344 16.3125 C 26.894531 16.519531 27.347656 16.472656 27.71875 16.660156 C 27.738281 16.671875 27.753906 16.664062 27.765625 16.652344 C 27.757812 16.632812 27.75 16.613281 27.742188 16.59375 C 27.371094 16.414062 26.921875 16.457031 26.5625 16.25 C 26.523438 16.230469 26.488281 16.289062 26.527344 16.3125 Z M 27.472656 10.457031 C 27.941406 10.53125 28.457031 10.496094 28.929688 10.449219 C 30.003906 10.34375 31.058594 10.121094 32.101562 9.835938 C 32.640625 9.691406 33.183594 9.550781 33.734375 9.425781 C 34.285156 9.296875 34.851562 9.171875 35.417969 9.140625 C 35.984375 9.105469 36.554688 9.167969 37.113281 9.265625 C 37.625 9.359375 38.132812 9.5 38.601562 9.738281 C 38.90625 9.890625 39.132812 10.089844 39.363281 10.335938 C 39.414062 10.390625 39.839844 10.847656 39.824219 10.980469 C 39.84375 10.996094 39.851562 11.023438 39.84375 11.046875 C 39.839844 11.054688 39.835938 11.066406 39.824219 11.070312 C 39.820312 11.070312 39.816406 11.074219 39.8125 11.074219 C 39.816406 11.074219 39.816406 11.074219 39.820312 11.074219 C 39.535156 11.410156 39.339844 11.808594 39.34375 12.253906 C 39.347656 12.296875 39.417969 12.296875 39.414062 12.253906 C 39.410156 11.769531 39.648438 11.347656 39.980469 11.003906 C 39.980469 11.019531 39.992188 11.03125 40.011719 11.03125 C 40.414062 11.019531 40.78125 11.464844 41.015625 11.757812 C 41.332031 12.152344 41.597656 12.605469 41.839844 13.046875 C 42.113281 13.539062 42.320312 14.0625 42.515625 14.589844 C 42.699219 15.09375 42.867188 15.605469 42.996094 16.125 C 43.015625 16.152344 43.027344 16.1875 43.035156 16.21875 C 43.046875 16.203125 43.0625 16.1875 43.078125 16.171875 C 42.941406 15.605469 42.761719 15.058594 42.5625 14.511719 C 42.359375 13.960938 42.128906 13.414062 41.839844 12.902344 C 41.601562 12.472656 41.339844 12.046875 41.03125 11.667969 C 40.890625 11.488281 40.730469 11.320312 40.546875 11.183594 C 40.457031 11.117188 40.359375 11.054688 40.257812 11 C 40.210938 10.976562 40.164062 10.957031 40.113281 10.9375 C 40.101562 10.933594 40.050781 10.945312 40.027344 10.953125 C 40.238281 10.742188 40.480469 10.558594 40.71875 10.410156 C 40.820312 10.34375 40.925781 10.277344 41.035156 10.214844 C 41.050781 10.21875 41.070312 10.210938 41.074219 10.191406 C 41.25 10.085938 41.433594 9.984375 41.617188 9.894531 C 41.628906 9.910156 41.644531 9.917969 41.667969 9.910156 C 41.75 9.863281 41.917969 10.015625 41.976562 10.058594 C 42.105469 10.160156 42.226562 10.277344 42.347656 10.390625 C 42.59375 10.625 42.820312 10.871094 43.023438 11.148438 C 43.617188 11.960938 44.03125 12.921875 44.402344 13.851562 C 44.804688 14.847656 45.101562 15.886719 45.269531 16.949219 C 45.433594 18 45.53125 19.164062 45.152344 20.179688 C 44.921875 20.796875 44.480469 21.300781 44.007812 21.753906 C 44.023438 21.78125 44.035156 21.808594 44.046875 21.835938 C 44.050781 21.835938 44.050781 21.835938 44.050781 21.835938 C 44.058594 21.828125 44.066406 21.820312 44.066406 21.808594 C 44.066406 21.804688 44.066406 21.796875 44.066406 21.792969 C 44.742188 21.144531 45.253906 20.414062 45.414062 19.472656 C 45.5 18.972656 45.484375 18.460938 45.449219 17.957031 C 45.417969 17.441406 45.34375 16.929688 45.246094 16.421875 C 45.046875 15.390625 44.71875 14.375 44.296875 13.417969 C 43.90625 12.53125 43.507812 11.636719 42.898438 10.871094 C 42.691406 10.609375 42.445312 10.375 42.195312 10.15625 C 42.109375 10.078125 41.910156 9.867188 41.746094 9.835938 C 41.964844 9.734375 42.195312 9.65625 42.429688 9.609375 C 42.429688 9.613281 42.429688 9.613281 42.433594 9.613281 C 42.441406 9.609375 42.449219 9.605469 42.460938 9.605469 C 42.472656 9.605469 42.488281 9.605469 42.5 9.605469 C 42.5 9.605469 42.503906 9.601562 42.5 9.597656 C 42.636719 9.574219 42.777344 9.5625 42.917969 9.5625 C 42.917969 9.566406 42.921875 9.570312 42.925781 9.574219 C 42.945312 9.59375 42.976562 9.585938 42.984375 9.558594 C 42.988281 9.550781 42.988281 9.546875 42.992188 9.539062 C 42.996094 9.515625 42.980469 9.496094 42.957031 9.496094 C 42.800781 9.488281 42.644531 9.5 42.492188 9.527344 C 42.445312 9.175781 42.390625 8.859375 42.210938 8.535156 C 42.015625 8.179688 41.738281 7.875 41.449219 7.589844 C 41.15625 7.296875 40.84375 7.015625 40.511719 6.765625 C 40.117188 6.472656 39.683594 6.230469 39.257812 5.984375 C 39.21875 5.960938 39.183594 6.019531 39.222656 6.042969 C 39.613281 6.269531 40.003906 6.492188 40.375 6.753906 C 40.714844 6.992188 41.023438 7.277344 41.324219 7.566406 C 41.617188 7.84375 41.886719 8.140625 42.101562 8.484375 C 42.207031 8.652344 42.289062 8.835938 42.34375 9.027344 C 42.386719 9.164062 42.398438 9.304688 42.414062 9.441406 C 42.449219 9.46875 42.4375 9.539062 42.382812 9.539062 L 42.363281 9.539062 C 42.363281 9.542969 42.367188 9.546875 42.367188 9.550781 C 41.910156 9.652344 41.472656 9.871094 41.066406 10.113281 C 41.027344 9.800781 40.894531 9.46875 40.746094 9.199219 C 40.582031 8.902344 40.359375 8.644531 40.109375 8.414062 C 39.585938 7.933594 38.929688 7.609375 38.269531 7.359375 C 37.574219 7.09375 36.84375 6.902344 36.109375 6.765625 C 35.03125 6.5625 33.925781 6.617188 32.832031 6.667969 C 32.59375 6.675781 32.355469 6.667969 32.117188 6.699219 C 31.886719 6.722656 31.648438 6.773438 31.417969 6.726562 C 31.371094 6.714844 31.355469 6.78125 31.398438 6.792969 C 31.601562 6.835938 31.800781 6.808594 32.003906 6.78125 C 32.257812 6.75 32.511719 6.746094 32.769531 6.738281 C 33.324219 6.71875 33.875 6.6875 34.429688 6.691406 C 35.386719 6.699219 36.3125 6.847656 37.234375 7.097656 C 38.609375 7.472656 40.246094 8.113281 40.824219 9.527344 C 40.890625 9.691406 40.960938 9.886719 40.988281 10.070312 C 41.007812 10.09375 41.011719 10.121094 41.003906 10.148438 C 41.003906 10.152344 41.003906 10.152344 41.003906 10.15625 C 41.003906 10.164062 41 10.167969 40.992188 10.175781 C 40.980469 10.191406 40.957031 10.195312 40.9375 10.191406 C 40.835938 10.253906 40.738281 10.316406 40.640625 10.375 C 40.378906 10.539062 40.117188 10.746094 39.898438 10.988281 C 39.90625 10.746094 39.308594 10.175781 39.226562 10.097656 C 38.660156 9.539062 37.824219 9.324219 37.066406 9.1875 C 36.542969 9.09375 36.011719 9.046875 35.484375 9.066406 C 34.953125 9.085938 34.425781 9.203125 33.910156 9.3125 C 32.824219 9.546875 31.761719 9.882812 30.671875 10.109375 C 29.910156 10.269531 29.128906 10.394531 28.351562 10.414062 C 28.023438 10.425781 27.683594 10.429688 27.359375 10.367188 C 27.101562 10.316406 26.777344 10.25 26.570312 10.085938 C 26.535156 10.058594 26.484375 10.109375 26.519531 10.136719 C 26.773438 10.335938 27.160156 10.410156 27.472656 10.457031 Z M 44.40625 16.5625 C 44.433594 16.597656 44.484375 16.546875 44.457031 16.511719 C 44.042969 16.03125 43.335938 17.375 43.25 17.667969 C 43.25 17.679688 43.25 17.6875 43.253906 17.691406 C 43.257812 17.703125 43.261719 17.710938 43.277344 17.710938 C 43.777344 17.832031 43.8125 18.40625 43.8125 18.820312 C 43.8125 18.863281 43.882812 18.863281 43.882812 18.820312 C 43.882812 18.386719 43.828125 17.800781 43.328125 17.65625 C 43.445312 17.339844 44.078125 16.179688 44.40625 16.5625 Z M 43.410156 20.832031 C 43.480469 20.8125 43.550781 20.804688 43.621094 20.792969 C 43.613281 20.769531 43.609375 20.746094 43.609375 20.726562 C 43.535156 20.742188 43.464844 20.742188 43.394531 20.765625 C 43.351562 20.777344 43.367188 20.84375 43.410156 20.832031 Z M 27.847656 15.8125 C 27.769531 15.597656 27.648438 15.398438 27.570312 15.179688 C 27.488281 14.945312 27.410156 14.667969 27.4375 14.410156 C 27.433594 14.402344 27.433594 14.394531 27.4375 14.382812 C 27.441406 14.378906 27.441406 14.378906 27.441406 14.375 C 27.449219 14.320312 27.460938 14.269531 27.480469 14.21875 C 27.492188 14.113281 27.492188 14.003906 27.539062 13.910156 C 27.632812 13.597656 27.96875 13.378906 28.242188 13.226562 C 28.460938 13.105469 28.6875 13.003906 28.910156 12.882812 C 29.195312 12.726562 29.472656 12.570312 29.78125 12.453125 C 30.164062 12.308594 30.554688 12.199219 30.945312 12.089844 C 31.332031 11.980469 31.714844 11.839844 32.105469 11.769531 C 32.324219 11.726562 32.546875 11.703125 32.765625 11.660156 C 32.984375 11.617188 33.199219 11.554688 33.414062 11.507812 C 33.820312 11.417969 34.230469 11.339844 34.640625 11.265625 C 35.59375 11.09375 36.609375 10.921875 37.578125 11.066406 C 37.851562 11.109375 38.210938 11.195312 38.339844 11.472656 C 38.546875 11.914062 38.335938 12.421875 38.503906 12.875 C 38.636719 13.234375 38.914062 13.578125 38.886719 13.984375 C 38.867188 14.292969 38.734375 14.617188 38.410156 14.714844 C 38.054688 14.820312 37.625 14.789062 37.253906 14.792969 C 36.671875 14.796875 36.117188 14.863281 35.546875 14.96875 C 33.535156 15.34375 31.4375 15.507812 29.558594 16.382812 C 29.328125 16.488281 29.105469 16.609375 28.882812 16.730469 C 28.75 16.800781 28.609375 16.882812 28.460938 16.921875 C 28.191406 16.992188 28.007812 16.855469 27.96875 16.578125 C 27.933594 16.328125 27.933594 16.054688 27.847656 15.8125 Z M 27.824219 15.5625 C 27.914062 15.773438 27.96875 15.980469 27.996094 16.210938 C 28.019531 16.386719 27.992188 16.820312 28.238281 16.867188 C 28.421875 16.902344 28.617188 16.792969 28.769531 16.710938 C 28.984375 16.597656 29.195312 16.476562 29.414062 16.371094 C 29.851562 16.167969 30.300781 15.992188 30.761719 15.847656 C 31.730469 15.550781 32.726562 15.359375 33.722656 15.203125 C 34.238281 15.121094 34.75 15.046875 35.257812 14.953125 C 35.789062 14.851562 36.320312 14.742188 36.859375 14.726562 C 37.148438 14.722656 37.433594 14.722656 37.71875 14.710938 C 37.894531 14.703125 38.074219 14.710938 38.246094 14.679688 C 38.441406 14.648438 38.625 14.5625 38.71875 14.375 C 38.828125 14.152344 38.851562 13.890625 38.773438 13.652344 C 38.636719 13.238281 38.363281 12.902344 38.355469 12.445312 C 38.347656 11.988281 38.460938 11.414062 37.921875 11.222656 C 37.542969 11.085938 37.105469 11.085938 36.707031 11.09375 C 36.132812 11.105469 35.558594 11.175781 34.992188 11.273438 C 34.449219 11.367188 33.90625 11.464844 33.367188 11.589844 C 33.085938 11.652344 32.8125 11.726562 32.523438 11.769531 C 32.257812 11.808594 31.992188 11.851562 31.734375 11.933594 C 31.246094 12.085938 30.746094 12.207031 30.261719 12.359375 C 29.792969 12.511719 29.375 12.714844 28.945312 12.945312 C 28.664062 13.09375 28.371094 13.21875 28.101562 13.390625 C 27.953125 13.488281 27.796875 13.601562 27.691406 13.75 C 27.679688 13.773438 27.636719 13.863281 27.609375 13.949219 C 27.605469 13.949219 27.601562 13.949219 27.597656 13.949219 C 27.535156 14.089844 27.5625 14.253906 27.507812 14.398438 C 27.449219 14.792969 27.675781 15.226562 27.824219 15.5625 Z M 38.066406 16.378906 C 37.246094 16.222656 36.4375 16.546875 35.730469 16.9375 C 35.503906 17.066406 34.167969 17.992188 34.054688 17.363281 C 34.046875 17.316406 33.976562 17.335938 33.988281 17.382812 C 34.085938 17.929688 34.960938 17.480469 35.222656 17.320312 C 36.058594 16.808594 37.027344 16.253906 38.046875 16.445312 C 38.089844 16.453125 38.109375 16.386719 38.066406 16.378906 Z M 31.667969 18.40625 C 31.832031 18.40625 31.933594 18.308594 31.992188 18.164062 C 32.007812 18.125 31.941406 18.105469 31.921875 18.148438 C 31.808594 18.421875 31.511719 18.320312 31.277344 18.308594 C 31.003906 18.292969 30.730469 18.300781 30.464844 18.359375 C 30.054688 18.449219 29.601562 18.582031 29.347656 18.941406 C 29.324219 18.980469 29.382812 19.011719 29.410156 18.976562 C 29.714844 18.539062 30.394531 18.402344 30.894531 18.375 C 31.152344 18.363281 31.410156 18.410156 31.667969 18.40625 Z M 37.511719 17.878906 C 36.773438 18.03125 36.167969 18.488281 35.558594 18.894531 C 35.53125 18.914062 35.542969 18.953125 35.570312 18.960938 C 35.574219 18.96875 35.578125 18.972656 35.589844 18.976562 C 36.289062 19.144531 37.015625 19.042969 37.710938 19.21875 C 37.753906 19.230469 37.773438 19.164062 37.730469 19.152344 C 37.078125 18.988281 36.398438 19.066406 35.742188 18.9375 C 36.375 18.839844 36.996094 18.664062 37.632812 18.59375 C 37.679688 18.589844 37.679688 18.519531 37.632812 18.523438 C 36.988281 18.59375 36.359375 18.773438 35.71875 18.871094 C 36.28125 18.488281 36.847656 18.085938 37.527344 17.945312 C 37.574219 17.9375 37.554688 17.871094 37.511719 17.878906 Z M 30.984375 20.988281 C 31.34375 20.707031 31.714844 20.441406 32.078125 20.164062 C 32.113281 20.167969 32.136719 20.117188 32.101562 20.097656 C 31.613281 19.824219 31.023438 19.875 30.484375 19.890625 C 30.4375 19.890625 30.4375 19.960938 30.484375 19.960938 C 30.980469 19.945312 31.527344 19.898438 31.988281 20.117188 C 31.875 20.152344 31.746094 20.152344 31.628906 20.164062 C 31.472656 20.179688 31.316406 20.207031 31.164062 20.246094 C 30.875 20.3125 30.578125 20.410156 30.320312 20.566406 C 30.28125 20.589844 30.316406 20.652344 30.355469 20.628906 C 30.644531 20.453125 30.984375 20.355469 31.3125 20.28125 C 31.492188 20.242188 31.707031 20.25 31.894531 20.214844 C 31.574219 20.457031 31.25 20.691406 30.933594 20.941406 C 30.898438 20.96875 30.949219 21.019531 30.984375 20.988281 Z M 32.726562 18.023438 C 32.710938 17.984375 32.644531 18 32.660156 18.042969 C 32.816406 18.472656 33.023438 18.882812 33.183594 19.3125 C 33.261719 19.519531 33.324219 19.738281 33.410156 19.945312 C 33.480469 20.125 33.578125 20.316406 33.570312 20.511719 C 33.570312 20.558594 33.640625 20.558594 33.640625 20.511719 C 33.648438 20.355469 33.585938 20.207031 33.53125 20.058594 C 33.449219 19.847656 33.375 19.636719 33.296875 19.421875 C 33.128906 18.945312 32.898438 18.496094 32.726562 18.023438 Z M 33.808594 17.824219 C 33.566406 17.761719 33.335938 17.539062 33.289062 17.292969 C 33.28125 17.246094 33.214844 17.265625 33.222656 17.308594 C 33.269531 17.582031 33.527344 17.824219 33.789062 17.894531 C 33.832031 17.902344 33.851562 17.835938 33.808594 17.824219 Z M 40.582031 29.265625 C 40.480469 28.691406 40.148438 28.191406 39.886719 27.683594 C 39.578125 27.101562 39.355469 26.472656 39.074219 25.875 C 38.785156 25.253906 38.429688 24.683594 38.058594 24.105469 C 37.917969 23.882812 37.78125 23.660156 37.660156 23.425781 C 37.566406 23.25 37.46875 23.042969 37.292969 22.933594 C 37.257812 22.910156 37.222656 22.96875 37.257812 22.992188 C 37.324219 23.035156 37.378906 23.089844 37.425781 23.15625 C 37.253906 23.125 37.03125 23.253906 36.894531 23.320312 C 36.625 23.449219 36.429688 23.644531 36.3125 23.917969 C 36.292969 23.960938 36.355469 23.996094 36.371094 23.953125 C 36.476562 23.71875 36.632812 23.535156 36.863281 23.414062 C 37.003906 23.34375 37.289062 23.167969 37.453125 23.234375 C 37.464844 23.242188 37.472656 23.238281 37.480469 23.234375 C 37.542969 23.335938 37.59375 23.449219 37.644531 23.546875 C 37.660156 23.578125 37.679688 23.609375 37.695312 23.640625 C 37.6875 23.652344 37.6875 23.667969 37.703125 23.679688 C 37.8125 23.78125 37.6875 24.042969 37.632812 24.136719 C 37.539062 24.304688 37.378906 24.425781 37.191406 24.460938 C 36.839844 24.527344 36.570312 24.257812 36.425781 23.972656 C 36.402344 23.929688 36.34375 23.964844 36.363281 24.007812 C 36.546875 24.363281 36.886719 24.628906 37.304688 24.503906 C 37.503906 24.449219 37.652344 24.265625 37.738281 24.085938 C 37.769531 24.023438 37.800781 23.929688 37.8125 23.839844 C 37.894531 23.980469 37.984375 24.117188 38.070312 24.253906 C 38.417969 24.792969 38.742188 25.328125 39.015625 25.910156 C 39.28125 26.472656 39.5 27.058594 39.773438 27.617188 C 40.039062 28.164062 40.40625 28.675781 40.515625 29.28125 C 40.523438 29.328125 40.589844 29.308594 40.582031 29.265625 Z M 41.105469 26.113281 C 40.875 25.640625 40.660156 25.15625 40.40625 24.699219 C 40.28125 24.472656 40.148438 24.246094 40.003906 24.027344 C 39.886719 23.851562 39.828125 23.636719 39.683594 23.476562 C 39.652344 23.445312 39.703125 23.394531 39.734375 23.429688 C 39.835938 23.539062 39.890625 23.675781 39.957031 23.808594 C 39.984375 23.519531 40.265625 23.335938 40.539062 23.292969 C 40.546875 23.289062 40.550781 23.289062 40.554688 23.292969 C 40.5625 23.277344 40.582031 23.265625 40.601562 23.277344 C 40.898438 23.445312 41.109375 23.746094 41.03125 24.097656 C 40.992188 24.28125 40.925781 24.355469 40.773438 24.46875 C 40.667969 24.546875 40.554688 24.613281 40.429688 24.59375 C 40.429688 24.597656 40.433594 24.601562 40.433594 24.605469 C 40.699219 25.085938 40.925781 25.582031 41.164062 26.078125 C 41.632812 27.054688 42.039062 28.050781 42.382812 29.078125 C 42.398438 29.121094 42.332031 29.140625 42.316406 29.097656 C 41.972656 28.074219 41.570312 27.082031 41.105469 26.113281 Z M 40.039062 23.953125 C 40.160156 24.136719 40.273438 24.324219 40.382812 24.511719 C 40.546875 24.566406 40.695312 24.449219 40.808594 24.347656 C 40.917969 24.253906 40.96875 24.140625 40.972656 23.992188 C 40.980469 23.703125 40.824219 23.488281 40.582031 23.34375 C 40.578125 23.351562 40.570312 23.355469 40.558594 23.359375 C 40.296875 23.402344 40.019531 23.574219 40.023438 23.867188 C 40.023438 23.882812 40.015625 23.890625 40.003906 23.898438 C 40.015625 23.917969 40.027344 23.9375 40.039062 23.953125 Z M 45.214844 29.761719 C 45.214844 29.203125 45.25 28.652344 45.164062 28.097656 C 45.164062 28.09375 45.164062 28.09375 45.164062 28.089844 C 44.960938 28.226562 44.664062 28.269531 44.464844 28.109375 C 44.25 27.929688 44.234375 27.652344 44.214844 27.394531 C 44.214844 27.378906 44.222656 27.367188 44.230469 27.363281 C 44.230469 27.351562 44.230469 27.34375 44.242188 27.332031 C 44.425781 27.1875 44.625 27.085938 44.859375 27.078125 C 44.824219 27.023438 44.78125 26.96875 44.734375 26.921875 C 44.699219 26.890625 44.75 26.84375 44.78125 26.875 C 45.074219 27.15625 45.164062 27.621094 45.222656 28.007812 C 45.230469 28.015625 45.230469 28.03125 45.226562 28.039062 C 45.3125 28.617188 45.285156 29.183594 45.285156 29.761719 C 45.285156 29.808594 45.214844 29.808594 45.214844 29.761719 Z M 45.15625 28.039062 C 45.15625 28.035156 45.15625 28.035156 45.15625 28.035156 C 45.152344 28.03125 45.152344 28.027344 45.148438 28.023438 C 45.140625 28.011719 45.144531 27.996094 45.148438 27.988281 C 45.105469 27.710938 45.046875 27.398438 44.902344 27.148438 C 44.667969 27.144531 44.472656 27.242188 44.292969 27.382812 C 44.289062 27.386719 44.285156 27.386719 44.285156 27.386719 C 44.285156 27.390625 44.285156 27.390625 44.285156 27.394531 C 44.300781 27.589844 44.296875 27.847656 44.449219 28 C 44.574219 28.125 44.757812 28.179688 44.929688 28.125 C 44.992188 28.101562 45.058594 28.078125 45.117188 28.039062 C 45.136719 28.027344 45.148438 28.03125 45.15625 28.039062 Z M 43.648438 28.769531 C 43.730469 28.988281 43.808594 29.203125 43.882812 29.421875 C 43.898438 29.464844 43.964844 29.445312 43.949219 29.402344 C 43.875 29.183594 43.796875 28.96875 43.714844 28.753906 C 43.699219 28.710938 43.632812 28.730469 43.648438 28.769531 Z M 31.136719 27.128906 C 31.109375 27.773438 31.105469 28.417969 31.113281 29.0625 C 31.121094 29.710938 31.15625 30.359375 31.324219 30.988281 C 31.335938 31.03125 31.269531 31.050781 31.257812 31.003906 C 31.078125 30.332031 31.042969 29.628906 31.042969 28.933594 C 31.042969 28.199219 31.039062 27.460938 31.085938 26.726562 C 31.132812 26.054688 31.183594 25.339844 31.378906 24.691406 C 31.449219 24.453125 31.546875 24.234375 31.703125 24.042969 C 31.742188 24 31.90625 23.757812 31.988281 23.820312 C 32.023438 23.84375 31.988281 23.90625 31.953125 23.878906 C 31.945312 23.875 31.925781 23.890625 31.898438 23.917969 C 31.984375 24.042969 32.023438 24.191406 32.101562 24.316406 C 32.171875 24.429688 32.277344 24.523438 32.339844 24.640625 C 32.4375 24.828125 32.390625 25.03125 32.269531 25.199219 C 32.144531 25.371094 31.972656 25.460938 31.761719 25.382812 C 31.578125 25.316406 31.484375 25.125 31.382812 24.972656 C 31.371094 25.03125 31.359375 25.089844 31.347656 25.148438 C 31.230469 25.804688 31.164062 26.464844 31.136719 27.128906 Z M 31.609375 24.304688 C 31.507812 24.492188 31.445312 24.695312 31.398438 24.898438 C 31.40625 24.898438 31.417969 24.902344 31.425781 24.914062 C 31.53125 25.058594 31.628906 25.292969 31.828125 25.335938 C 32.070312 25.382812 32.261719 25.175781 32.3125 24.953125 C 32.367188 24.703125 32.1875 24.585938 32.070312 24.398438 C 31.984375 24.261719 31.933594 24.109375 31.851562 23.972656 C 31.753906 24.089844 31.621094 24.277344 31.609375 24.304688 Z M 54.410156 39.523438 C 54.515625 40.136719 54.664062 40.742188 54.914062 41.3125 C 54.910156 41.316406 54.910156 41.316406 54.90625 41.320312 C 54.917969 41.34375 54.929688 41.367188 54.9375 41.390625 C 54.972656 41.386719 55.007812 41.40625 55.027344 41.433594 C 55.035156 41.425781 55.035156 41.417969 55.03125 41.40625 C 55.03125 41.402344 55.03125 41.402344 55.027344 41.398438 C 54.871094 41.066406 54.753906 40.71875 54.660156 40.363281 C 54.664062 40.363281 54.667969 40.359375 54.671875 40.359375 C 54.945312 40.105469 55.40625 40.058594 55.757812 39.996094 C 56.226562 39.90625 56.695312 39.832031 57.171875 39.769531 C 57.703125 39.699219 58.234375 39.605469 58.769531 39.566406 C 59.324219 39.523438 59.878906 39.527344 60.433594 39.550781 C 61.425781 39.601562 62.429688 39.730469 63.40625 39.902344 C 64.3125 40.0625 65.222656 40.304688 66.03125 40.753906 C 66.152344 40.820312 66.273438 40.894531 66.386719 40.972656 C 66.40625 40.988281 66.507812 41.046875 66.53125 41.074219 C 66.523438 41.035156 66.515625 40.996094 66.503906 40.957031 C 66.449219 40.917969 66.378906 40.886719 66.335938 40.855469 C 66.144531 40.730469 65.941406 40.621094 65.738281 40.523438 C 65.339844 40.332031 64.921875 40.191406 64.5 40.074219 C 63.644531 39.835938 62.761719 39.734375 61.882812 39.617188 C 60.789062 39.472656 59.675781 39.414062 58.574219 39.511719 C 58.039062 39.558594 57.507812 39.65625 56.976562 39.726562 C 56.546875 39.78125 56.121094 39.855469 55.691406 39.9375 C 55.347656 40 54.917969 40.050781 54.640625 40.292969 C 54.488281 39.683594 54.40625 39.054688 54.3125 38.433594 C 54.144531 37.296875 53.949219 36.167969 53.886719 35.019531 C 53.777344 32.953125 53.820312 30.839844 54.289062 28.820312 C 54.417969 28.273438 54.582031 27.734375 54.785156 27.210938 C 54.804688 27.167969 54.734375 27.148438 54.71875 27.191406 C 53.976562 29.085938 53.78125 31.148438 53.773438 33.167969 C 53.769531 34.242188 53.8125 35.320312 53.941406 36.386719 C 54.070312 37.433594 54.234375 38.484375 54.410156 39.523438 Z M 46.695312 27.199219 C 47.109375 27.128906 47.574219 27.191406 47.78125 27.601562 C 48.015625 28.070312 47.734375 28.664062 47.484375 29.070312 C 46.984375 29.886719 46.160156 30.511719 45.335938 30.976562 C 45.296875 31 45.332031 31.0625 45.371094 31.039062 C 46.292969 30.515625 47.222656 29.789062 47.703125 28.824219 C 47.917969 28.390625 48.0625 27.828125 47.738281 27.40625 C 47.496094 27.089844 47.039062 27.070312 46.679688 27.132812 C 46.632812 27.140625 46.652344 27.207031 46.695312 27.199219 Z M 59.425781 44.933594 C 58.894531 44.394531 58.320312 43.914062 57.742188 43.429688 C 57.296875 43.050781 56.855469 42.671875 56.398438 42.308594 C 56.152344 42.117188 55.90625 41.925781 55.644531 41.753906 C 55.613281 41.734375 55.566406 41.699219 55.511719 41.667969 C 55.480469 41.671875 55.445312 41.679688 55.410156 41.6875 C 55.511719 41.734375 55.632812 41.832031 55.675781 41.855469 C 55.90625 42.011719 56.128906 42.1875 56.347656 42.359375 C 56.804688 42.722656 57.25 43.101562 57.695312 43.476562 C 58.269531 43.964844 58.84375 44.445312 59.375 44.980469 C 60.128906 45.742188 60.816406 46.582031 61.390625 47.488281 C 61.910156 48.3125 62.417969 49.164062 62.710938 50.097656 C 62.726562 50.140625 62.792969 50.125 62.78125 50.082031 C 62.472656 49.101562 61.933594 48.210938 61.382812 47.351562 C 60.824219 46.476562 60.152344 45.671875 59.425781 44.933594 Z M 24.351562 41.710938 C 24.15625 42.074219 23.792969 42.339844 23.5 42.621094 C 23.136719 42.972656 22.820312 43.367188 22.46875 43.726562 C 22.109375 44.097656 21.722656 44.433594 21.355469 44.796875 C 20.976562 45.171875 20.609375 45.558594 20.253906 45.953125 C 19.546875 46.734375 18.878906 47.550781 18.21875 48.375 C 17.660156 49.078125 17.074219 49.828125 16.914062 50.730469 C 16.90625 50.773438 16.972656 50.792969 16.980469 50.75 C 17.152344 49.789062 17.800781 49.011719 18.394531 48.269531 C 19.050781 47.449219 19.722656 46.640625 20.429688 45.863281 C 20.777344 45.484375 21.132812 45.113281 21.496094 44.753906 C 21.863281 44.394531 22.25 44.054688 22.605469 43.683594 C 22.9375 43.34375 23.242188 42.96875 23.585938 42.636719 C 23.875 42.363281 24.222656 42.105469 24.414062 41.746094 C 24.433594 41.707031 24.375 41.671875 24.351562 41.710938 Z M 18.578125 39.734375 C 19.195312 39.425781 19.886719 39.382812 20.5625 39.410156 C 20.890625 39.425781 21.21875 39.460938 21.546875 39.496094 C 21.898438 39.535156 22.257812 39.554688 22.613281 39.609375 C 23.207031 39.695312 23.769531 39.902344 24.320312 40.136719 C 24.523438 40.226562 24.726562 40.316406 24.921875 40.421875 C 25.015625 40.472656 25.339844 40.613281 25.328125 40.753906 C 25.328125 40.796875 25.398438 40.796875 25.398438 40.753906 C 25.40625 40.632812 25.253906 40.546875 25.171875 40.488281 C 24.972656 40.355469 24.746094 40.253906 24.527344 40.152344 C 23.976562 39.902344 23.40625 39.6875 22.808594 39.570312 C 22.46875 39.503906 22.117188 39.488281 21.769531 39.449219 C 21.386719 39.410156 21.003906 39.363281 20.621094 39.34375 C 19.914062 39.304688 19.183594 39.351562 18.542969 39.675781 C 18.503906 39.695312 18.539062 39.753906 18.578125 39.734375 Z M 25.441406 40.664062 C 25.523438 40.625 25.519531 40.320312 25.53125 40.242188 C 25.566406 39.945312 25.597656 39.648438 25.621094 39.351562 C 25.703125 38.429688 25.765625 37.515625 25.902344 36.597656 C 26.097656 35.242188 26.339844 33.898438 26.667969 32.570312 C 26.785156 32.105469 26.902344 31.640625 27.03125 31.183594 C 27.074219 31.019531 27.121094 30.855469 27.171875 30.695312 C 27.191406 30.644531 27.207031 30.59375 27.226562 30.539062 C 27.246094 30.492188 27.273438 30.480469 27.238281 30.472656 C 27.28125 30.480469 27.300781 30.414062 27.253906 30.402344 C 27.132812 30.375 27 31.035156 26.976562 31.105469 C 26.820312 31.667969 26.679688 32.230469 26.539062 32.796875 C 26.203125 34.179688 25.964844 35.582031 25.777344 36.988281 C 25.671875 37.765625 25.617188 38.539062 25.554688 39.320312 C 25.535156 39.582031 25.507812 39.84375 25.476562 40.109375 C 25.460938 40.226562 25.449219 40.34375 25.429688 40.460938 C 25.425781 40.492188 25.398438 40.609375 25.40625 40.605469 C 25.363281 40.625 25.398438 40.683594 25.441406 40.664062 Z M 32.089844 27.359375 C 32.078125 27.617188 32.078125 27.878906 32.078125 28.132812 C 32.078125 28.601562 32.085938 29.082031 32.148438 29.550781 C 32.207031 30.011719 32.328125 30.464844 32.4375 30.917969 C 32.445312 30.960938 32.378906 30.980469 32.367188 30.9375 C 32.246094 30.410156 32.101562 29.890625 32.058594 29.351562 C 32.007812 28.789062 31.996094 28.222656 32.015625 27.65625 C 32.03125 27.277344 32.007812 26.824219 32.183594 26.472656 C 32.253906 26.335938 32.351562 26.207031 32.484375 26.128906 C 32.605469 26.058594 32.78125 25.949219 32.925781 25.996094 C 32.96875 26.011719 32.949219 26.078125 32.90625 26.0625 C 32.773438 26.019531 32.574219 26.128906 32.4375 26.25 C 32.539062 26.375 32.667969 26.453125 32.804688 26.53125 C 32.878906 26.574219 32.957031 26.621094 33.003906 26.695312 C 33.105469 26.863281 33.097656 27.0625 33.027344 27.238281 C 32.960938 27.398438 32.742188 27.519531 32.574219 27.539062 C 32.480469 27.546875 32.359375 27.550781 32.273438 27.5 C 32.242188 27.480469 32.128906 27.371094 32.089844 27.359375 Z M 32.144531 26.835938 C 32.121094 26.984375 32.105469 27.136719 32.09375 27.289062 C 32.148438 27.296875 32.195312 27.351562 32.234375 27.382812 C 32.4375 27.558594 32.894531 27.457031 32.976562 27.175781 C 33.046875 26.929688 33 26.726562 32.769531 26.59375 C 32.628906 26.507812 32.492188 26.429688 32.386719 26.300781 C 32.355469 26.332031 32.328125 26.367188 32.308594 26.394531 C 32.222656 26.53125 32.171875 26.679688 32.144531 26.835938 Z M 30.523438 24.632812 C 30.632812 24.796875 30.785156 24.925781 30.996094 24.933594 C 31.199219 24.941406 31.316406 24.75 31.390625 24.59375 C 31.464844 24.429688 31.539062 24.230469 31.464844 24.058594 C 31.425781 23.964844 31.339844 23.917969 31.285156 23.839844 C 31.222656 23.753906 31.175781 23.660156 31.105469 23.578125 C 31.074219 23.546875 31.027344 23.59375 31.054688 23.628906 C 31.128906 23.710938 31.167969 23.835938 31.25 23.910156 C 31.40625 24.054688 31.449219 24.167969 31.398438 24.382812 C 31.359375 24.527344 31.28125 24.691406 31.171875 24.796875 C 30.953125 25.011719 30.65625 24.730469 30.550781 24.546875 C 30.53125 24.515625 30.472656 24.535156 30.484375 24.574219 C 30.484375 24.578125 30.484375 24.585938 30.484375 24.589844 C 30.476562 24.617188 30.5 24.632812 30.523438 24.632812 Z M 35.402344 27.320312 C 35.382812 27.316406 35.367188 27.292969 35.382812 27.269531 C 35.527344 27.039062 35.679688 26.914062 35.933594 26.808594 C 36.160156 26.71875 36.414062 26.632812 36.640625 26.769531 C 36.644531 26.769531 36.644531 26.773438 36.648438 26.777344 C 36.648438 26.777344 36.648438 26.777344 36.648438 26.773438 C 36.664062 26.761719 36.695312 26.761719 36.703125 26.78125 C 36.863281 27.136719 36.894531 27.683594 36.488281 27.894531 C 36.035156 28.128906 35.480469 27.855469 35.394531 27.351562 C 35.394531 27.339844 35.398438 27.328125 35.402344 27.320312 Z M 35.441406 27.304688 C 35.441406 27.308594 35.441406 27.308594 35.441406 27.308594 C 35.453125 27.308594 35.460938 27.316406 35.464844 27.332031 C 35.539062 27.796875 36.148438 28.125 36.535156 27.777344 C 36.800781 27.539062 36.785156 27.160156 36.660156 26.855469 C 36.652344 26.855469 36.648438 26.859375 36.640625 26.863281 C 36.609375 26.882812 36.578125 26.847656 36.589844 26.820312 C 36.359375 26.691406 36.085938 26.816406 35.867188 26.914062 C 35.667969 27 35.554688 27.128906 35.441406 27.304688 Z M 37.34375 22.8125 C 37.328125 22.808594 37.316406 22.792969 37.324219 22.773438 C 37.453125 22.46875 37.492188 22.179688 37.820312 22.023438 C 37.9375 21.964844 38.058594 21.925781 38.191406 21.914062 C 38.246094 21.90625 38.34375 21.882812 38.398438 21.910156 C 38.410156 21.894531 38.433594 21.886719 38.453125 21.902344 C 38.457031 21.90625 38.464844 21.910156 38.46875 21.917969 C 38.472656 21.921875 38.476562 21.925781 38.476562 21.933594 C 38.636719 22.128906 38.820312 22.378906 38.800781 22.640625 C 38.785156 22.871094 38.648438 23.070312 38.457031 23.199219 C 38.277344 23.320312 38.058594 23.402344 37.847656 23.300781 C 37.636719 23.203125 37.496094 23.019531 37.351562 22.84375 C 37.34375 22.832031 37.339844 22.824219 37.34375 22.8125 Z M 37.394531 22.789062 C 37.394531 22.789062 37.398438 22.792969 37.402344 22.792969 C 37.632812 23.082031 37.933594 23.433594 38.335938 23.191406 C 38.523438 23.078125 38.738281 22.878906 38.730469 22.640625 C 38.722656 22.390625 38.589844 22.183594 38.4375 21.996094 C 38.421875 22 38.40625 21.992188 38.398438 21.980469 C 38.390625 21.980469 38.382812 21.980469 38.375 21.976562 C 38.332031 21.945312 38.175781 21.980469 38.128906 21.992188 C 38.019531 22.015625 37.90625 22.046875 37.808594 22.109375 C 37.535156 22.277344 37.507812 22.519531 37.394531 22.789062 Z M 38.855469 30.335938 C 38.808594 30.21875 38.769531 30.085938 38.679688 29.992188 C 38.648438 29.960938 38.601562 30.011719 38.632812 30.042969 C 38.710938 30.128906 38.746094 30.25 38.785156 30.355469 C 38.800781 30.394531 38.871094 30.378906 38.855469 30.335938 Z M 67.808594 42.910156 C 67.945312 43.988281 67.96875 45.078125 67.847656 46.160156 C 67.738281 47.117188 67.488281 48.050781 67.253906 48.984375 C 67.019531 49.910156 66.78125 50.832031 66.597656 51.769531 C 66.449219 52.527344 66.347656 53.304688 66.304688 54.074219 C 66.269531 54.75 66.300781 55.46875 66.582031 56.09375 C 66.613281 56.097656 66.644531 56.109375 66.675781 56.125 C 66.28125 55.316406 66.335938 54.347656 66.425781 53.472656 C 66.527344 52.464844 66.714844 51.472656 66.949219 50.488281 C 67.210938 49.402344 67.515625 48.328125 67.742188 47.234375 C 67.960938 46.179688 68.035156 45.101562 67.980469 44.023438 C 67.933594 43.105469 67.765625 42.207031 67.664062 41.296875 C 67.5625 40.367188 67.519531 39.433594 67.542969 38.496094 C 67.570312 37.609375 67.644531 36.703125 67.886719 35.84375 C 68 35.4375 68.15625 35.007812 68.386719 34.648438 C 68.414062 34.609375 68.445312 34.566406 68.476562 34.527344 C 69.695312 36.035156 70.320312 37.902344 70.515625 39.8125 C 70.730469 41.867188 70.347656 43.902344 70.269531 45.953125 C 70.226562 46.992188 70.328125 48.011719 70.425781 49.046875 C 70.519531 50.105469 70.582031 51.167969 70.566406 52.226562 C 70.550781 53.21875 70.472656 54.203125 70.207031 55.15625 C 69.953125 56.050781 69.554688 56.898438 69.035156 57.664062 C 69.03125 57.660156 69.03125 57.65625 69.027344 57.652344 C 69.027344 57.660156 69.027344 57.671875 69.027344 57.679688 C 69.035156 57.683594 69.042969 57.6875 69.046875 57.695312 C 69.058594 57.703125 69.0625 57.714844 69.066406 57.726562 C 69.070312 57.726562 69.070312 57.730469 69.074219 57.730469 C 69.621094 56.933594 70.027344 56.046875 70.289062 55.117188 C 70.574219 54.113281 70.628906 53.0625 70.636719 52.023438 C 70.648438 50.894531 70.566406 49.765625 70.457031 48.644531 C 70.402344 48.078125 70.34375 47.519531 70.328125 46.949219 C 70.316406 46.398438 70.335938 45.84375 70.371094 45.292969 C 70.4375 44.242188 70.566406 43.199219 70.628906 42.152344 C 70.683594 41.222656 70.65625 40.285156 70.53125 39.363281 C 70.296875 37.589844 69.65625 35.871094 68.519531 34.472656 C 68.691406 34.257812 68.894531 34.058594 68.992188 33.800781 C 69.007812 33.757812 68.9375 33.738281 68.921875 33.78125 C 68.84375 33.996094 68.675781 34.167969 68.53125 34.34375 C 68.382812 34.527344 68.261719 34.710938 68.160156 34.925781 C 67.953125 35.355469 67.804688 35.816406 67.703125 36.285156 C 67.476562 37.339844 67.445312 38.453125 67.472656 39.527344 C 67.5 40.667969 67.671875 41.78125 67.808594 42.910156 Z M 45.0625 23.484375 C 44.601562 23.515625 44.121094 23.339844 43.722656 23.128906 C 43.511719 23.015625 43.3125 22.882812 43.113281 22.746094 C 42.917969 22.609375 42.734375 22.445312 42.507812 22.351562 C 42.09375 22.183594 41.644531 22.0625 41.195312 22.046875 C 40.65625 22.023438 40.125 21.992188 39.589844 21.90625 C 39.039062 21.8125 38.496094 21.628906 37.957031 21.46875 C 37.421875 21.304688 36.882812 21.128906 36.339844 20.980469 C 35.902344 20.863281 35.449219 20.800781 34.996094 20.84375 C 34.628906 20.878906 34.28125 21.003906 33.972656 21.199219 C 33.660156 21.394531 33.421875 21.675781 33.148438 21.917969 C 32.832031 22.199219 32.40625 22.335938 32.023438 22.503906 C 31.640625 22.679688 31.269531 22.867188 30.941406 23.132812 C 30.402344 23.578125 30.050781 24.195312 29.78125 24.828125 C 29.617188 25.21875 29.480469 25.617188 29.261719 25.988281 C 29.144531 26.191406 29.011719 26.394531 28.847656 26.5625 C 28.699219 26.71875 28.535156 26.855469 28.390625 27.015625 C 28.359375 27.046875 28.410156 27.097656 28.441406 27.0625 C 28.597656 26.890625 28.777344 26.738281 28.9375 26.570312 C 29.105469 26.398438 29.234375 26.175781 29.355469 25.972656 C 29.597656 25.558594 29.734375 25.101562 29.929688 24.667969 C 30.3125 23.820312 30.871094 23.144531 31.714844 22.726562 C 32.15625 22.507812 32.671875 22.363281 33.074219 22.070312 C 33.421875 21.808594 33.683594 21.460938 34.058594 21.226562 C 34.976562 20.648438 36.054688 20.960938 37.007812 21.25 C 37.851562 21.507812 38.703125 21.820312 39.574219 21.972656 C 39.949219 22.039062 40.335938 22.082031 40.714844 22.105469 C 41.140625 22.125 41.539062 22.113281 41.953125 22.246094 C 42.097656 22.292969 42.25 22.332031 42.398438 22.382812 C 42.597656 22.453125 42.757812 22.574219 42.925781 22.695312 C 43.25 22.929688 43.585938 23.160156 43.957031 23.320312 C 44.253906 23.449219 44.574219 23.535156 44.902344 23.558594 C 45.09375 23.574219 45.472656 23.460938 45.621094 23.636719 C 45.605469 23.652344 45.613281 23.695312 45.648438 23.695312 C 45.652344 23.699219 45.65625 23.699219 45.664062 23.703125 C 45.683594 23.734375 45.742188 23.714844 45.726562 23.675781 C 45.726562 23.671875 45.722656 23.671875 45.722656 23.667969 C 45.722656 23.667969 45.722656 23.667969 45.722656 23.664062 C 45.609375 23.421875 45.28125 23.46875 45.0625 23.484375 Z M 40.535156 37.179688 C 40.519531 37.160156 40.507812 37.140625 40.5 37.117188 C 39.988281 36.972656 39.53125 36.734375 39.003906 36.96875 C 38.730469 37.089844 38.480469 37.261719 38.21875 37.40625 C 37.882812 37.597656 37.535156 37.664062 37.15625 37.660156 C 36.515625 37.660156 35.875 37.496094 35.25 37.710938 C 34.683594 37.90625 34.160156 38.273438 33.722656 38.679688 C 33.6875 38.707031 33.738281 38.757812 33.769531 38.726562 C 34.21875 38.316406 34.746094 37.957031 35.320312 37.757812 C 35.929688 37.550781 36.59375 37.730469 37.214844 37.730469 C 37.476562 37.730469 37.761719 37.699219 38 37.59375 C 38.277344 37.46875 38.527344 37.300781 38.789062 37.152344 C 39.078125 36.988281 39.367188 36.890625 39.699219 36.949219 C 39.96875 36.996094 40.222656 37.109375 40.484375 37.183594 C 40.480469 37.1875 40.480469 37.1875 40.480469 37.191406 C 40.496094 37.183594 40.515625 37.179688 40.535156 37.179688 Z M 65.765625 37.246094 C 65.859375 36.714844 65.953125 36.1875 66.0625 35.660156 C 66.148438 35.246094 66.316406 34.863281 66.472656 34.472656 C 66.714844 33.871094 66.980469 33.277344 67.257812 32.691406 C 67.277344 32.648438 67.214844 32.613281 67.195312 32.65625 C 66.933594 33.207031 66.6875 33.765625 66.457031 34.332031 C 66.285156 34.75 66.097656 35.167969 66.003906 35.613281 C 65.886719 36.148438 65.792969 36.6875 65.695312 37.226562 C 65.6875 37.269531 65.757812 37.289062 65.765625 37.246094 Z M 15.164062 54.214844 C 15.1875 54.230469 15.203125 54.246094 15.222656 54.265625 C 15.230469 54.277344 15.242188 54.292969 15.25 54.304688 C 15.273438 54.332031 15.324219 54.300781 15.308594 54.269531 C 15.296875 54.234375 15.28125 54.21875 15.257812 54.199219 C 14.742188 53.53125 14.675781 52.644531 14.710938 51.828125 C 14.730469 51.402344 14.78125 50.976562 14.835938 50.554688 C 14.890625 50.109375 14.933594 49.65625 15 49.210938 C 15.15625 48.132812 15.492188 47.09375 15.765625 46.042969 C 16.042969 44.976562 16.246094 43.890625 16.523438 42.820312 C 16.863281 41.503906 17.273438 40.207031 17.699219 38.914062 C 17.875 38.375 18.0625 37.839844 18.242188 37.300781 C 18.300781 37.121094 18.355469 36.941406 18.402344 36.757812 C 18.414062 36.714844 18.484375 36.550781 18.4375 36.511719 C 18.425781 36.5 18.410156 36.496094 18.394531 36.503906 C 18.394531 36.507812 18.390625 36.507812 18.390625 36.507812 C 18.351562 36.53125 18.386719 36.589844 18.425781 36.566406 C 18.371094 36.601562 18.386719 36.515625 18.375 36.585938 C 18.371094 36.609375 18.363281 36.632812 18.359375 36.652344 C 18.34375 36.714844 18.324219 36.777344 18.308594 36.839844 C 18.261719 37 18.214844 37.160156 18.160156 37.316406 C 18.015625 37.757812 17.863281 38.199219 17.714844 38.640625 C 17.363281 39.707031 17.015625 40.773438 16.710938 41.851562 C 16.414062 42.910156 16.15625 43.980469 15.925781 45.058594 C 15.695312 46.128906 15.363281 47.171875 15.113281 48.234375 C 14.980469 48.816406 14.90625 49.394531 14.835938 49.984375 C 14.777344 50.496094 14.703125 51.003906 14.660156 51.519531 C 14.589844 52.417969 14.613281 53.414062 15.152344 54.171875 C 15.148438 54.1875 15.148438 54.207031 15.164062 54.214844 Z M 74.324219 67.246094 C 74.296875 67.199219 74.265625 67.15625 74.234375 67.113281 C 74.230469 67.09375 74.226562 67.074219 74.222656 67.046875 C 74.214844 67.015625 74.183594 67.015625 74.164062 67.03125 C 73.960938 66.792969 73.691406 66.621094 73.460938 66.40625 C 73.125 66.097656 72.769531 65.808594 72.410156 65.53125 C 71.929688 65.164062 71.421875 64.828125 70.902344 64.519531 C 70.859375 64.265625 70.765625 64.03125 70.664062 63.796875 C 70.601562 63.648438 70.539062 63.503906 70.488281 63.351562 C 70.429688 63.183594 70.453125 62.964844 70.472656 62.789062 C 70.503906 62.488281 70.546875 62.199219 70.535156 61.894531 C 70.523438 61.601562 70.464844 61.3125 70.398438 61.027344 C 70.273438 60.484375 70.085938 59.949219 70.042969 59.390625 C 70.027344 59.179688 70.011719 58.96875 69.980469 58.757812 C 69.964844 58.636719 69.945312 58.507812 69.898438 58.390625 C 69.855469 58.375 69.820312 58.355469 69.785156 58.332031 C 69.882812 58.480469 69.902344 58.683594 69.925781 58.855469 C 69.953125 59.070312 69.964844 59.289062 69.984375 59.507812 C 70.03125 60.050781 70.226562 60.578125 70.347656 61.109375 C 70.414062 61.40625 70.460938 61.710938 70.46875 62.015625 C 70.476562 62.320312 70.417969 62.613281 70.390625 62.914062 C 70.34375 63.480469 70.714844 63.9375 70.820312 64.476562 C 70.558594 64.324219 70.292969 64.179688 70.023438 64.039062 C 68.425781 63.226562 66.671875 62.722656 64.882812 62.566406 C 64.761719 62.558594 64.644531 62.550781 64.527344 62.542969 C 64.453125 61.59375 64.035156 60.722656 63.6875 59.851562 C 63.5 59.375 63.371094 58.914062 63.332031 58.398438 C 63.300781 57.9375 63.300781 57.46875 63.191406 57.019531 C 63.183594 56.972656 63.113281 56.992188 63.125 57.035156 C 63.234375 57.503906 63.234375 57.984375 63.269531 58.457031 C 63.300781 58.914062 63.414062 59.332031 63.578125 59.757812 C 63.921875 60.667969 64.378906 61.554688 64.457031 62.539062 C 63.648438 62.503906 62.839844 62.554688 62.035156 62.652344 C 61.035156 62.773438 60.027344 62.769531 59.027344 62.660156 C 58.140625 62.5625 57.238281 62.402344 56.367188 62.191406 C 56.273438 61.628906 56.039062 61.105469 55.917969 60.550781 C 55.78125 59.933594 55.863281 59.261719 55.886719 58.632812 C 55.910156 58.015625 55.925781 57.402344 55.882812 56.785156 C 55.847656 56.273438 55.851562 55.742188 55.710938 55.25 C 55.699219 55.203125 55.628906 55.222656 55.644531 55.265625 C 55.789062 55.773438 55.78125 56.3125 55.816406 56.835938 C 55.859375 57.457031 55.839844 58.078125 55.8125 58.699219 C 55.792969 59.296875 55.730469 59.917969 55.839844 60.511719 C 55.941406 61.078125 56.191406 61.605469 56.289062 62.171875 C 56.148438 62.136719 56.007812 62.101562 55.871094 62.0625 C 54.867188 61.789062 53.839844 61.636719 52.8125 61.503906 C 50.914062 61.253906 49.019531 60.976562 47.132812 60.648438 C 47.0625 60.21875 46.976562 59.789062 46.933594 59.355469 C 46.890625 58.90625 46.929688 58.476562 46.972656 58.03125 C 47.074219 57.0625 47.0625 56.089844 47.058594 55.117188 C 47.058594 54.652344 47.054688 54.183594 47.03125 53.71875 C 47.015625 53.339844 46.960938 52.964844 46.953125 52.585938 C 46.949219 52.304688 46.957031 52.023438 46.941406 51.742188 C 46.933594 51.570312 46.9375 51.320312 46.816406 51.183594 C 46.785156 51.148438 46.738281 51.199219 46.765625 51.230469 C 46.902344 51.386719 46.875 51.714844 46.878906 51.90625 C 46.886719 52.175781 46.875 52.445312 46.886719 52.714844 C 46.902344 53.117188 46.957031 53.519531 46.972656 53.921875 C 46.988281 54.386719 46.992188 54.851562 46.992188 55.3125 C 46.992188 56.28125 47.011719 57.261719 46.878906 58.222656 C 46.769531 59.039062 46.929688 59.835938 47.0625 60.636719 C 46.8125 60.59375 46.5625 60.546875 46.3125 60.503906 C 45.257812 60.3125 44.207031 60.109375 43.164062 59.878906 C 42.210938 59.671875 41.238281 59.566406 40.261719 59.582031 C 39.476562 59.589844 38.703125 59.695312 37.933594 59.835938 C 37.953125 59.078125 37.996094 58.335938 38.109375 57.585938 C 38.226562 56.835938 38.355469 56.089844 38.480469 55.34375 C 38.722656 53.894531 39.058594 52.449219 39.066406 50.972656 C 39.066406 50.929688 38.996094 50.929688 38.996094 50.972656 C 38.988281 52.464844 38.644531 53.925781 38.402344 55.390625 C 38.277344 56.136719 38.148438 56.882812 38.03125 57.632812 C 37.917969 58.371094 37.882812 59.101562 37.863281 59.847656 C 36.621094 60.082031 35.390625 60.410156 34.148438 60.609375 C 33.167969 60.769531 32.183594 60.898438 31.199219 61.03125 C 31.269531 60.570312 31.527344 60.199219 31.730469 59.789062 C 31.9375 59.375 32 58.910156 32.082031 58.460938 C 32.164062 58.003906 32.246094 57.550781 32.289062 57.089844 C 32.332031 56.570312 32.34375 56.050781 32.367188 55.53125 C 32.386719 55.035156 32.421875 54.542969 32.46875 54.054688 C 32.492188 53.808594 32.515625 53.566406 32.539062 53.324219 C 32.566406 53.085938 32.574219 52.835938 32.621094 52.601562 C 32.675781 52.347656 32.730469 52.09375 32.769531 51.839844 C 32.785156 51.714844 32.859375 51.421875 32.742188 51.320312 C 32.707031 51.292969 32.65625 51.339844 32.691406 51.371094 C 32.75 51.417969 32.726562 51.554688 32.722656 51.617188 C 32.714844 51.765625 32.6875 51.910156 32.664062 52.054688 C 32.621094 52.296875 32.554688 52.539062 32.527344 52.785156 C 32.421875 53.765625 32.328125 54.746094 32.289062 55.734375 C 32.269531 56.207031 32.253906 56.683594 32.210938 57.15625 C 32.167969 57.652344 32.070312 58.136719 31.980469 58.628906 C 31.898438 59.097656 31.792969 59.535156 31.566406 59.957031 C 31.375 60.308594 31.183594 60.640625 31.125 61.039062 C 31.070312 61.046875 31.019531 61.054688 30.964844 61.0625 C 29.890625 61.210938 28.835938 61.484375 27.773438 61.6875 C 26.386719 61.945312 24.976562 62.085938 23.566406 62.191406 C 23.648438 61.8125 23.84375 61.492188 24.03125 61.160156 C 24.234375 60.800781 24.441406 60.449219 24.621094 60.078125 C 24.792969 59.730469 24.929688 59.363281 25.019531 58.984375 C 25.121094 58.535156 25.171875 58.070312 25.261719 57.613281 C 25.4375 56.707031 25.625 55.8125 25.917969 54.9375 C 26.1875 54.132812 26.492188 53.320312 26.535156 52.464844 C 26.535156 52.417969 26.464844 52.417969 26.464844 52.464844 C 26.421875 53.332031 26.105469 54.160156 25.832031 54.976562 C 25.546875 55.832031 25.367188 56.710938 25.195312 57.597656 C 25.109375 58.03125 25.050781 58.472656 24.964844 58.90625 C 24.878906 59.320312 24.722656 59.71875 24.535156 60.097656 C 24.355469 60.464844 24.140625 60.820312 23.941406 61.179688 C 23.753906 61.507812 23.566406 61.820312 23.492188 62.195312 C 22.683594 62.253906 21.875 62.304688 21.070312 62.359375 C 20.003906 62.433594 18.933594 62.492188 17.863281 62.515625 C 17.992188 61.714844 18.253906 60.941406 18.574219 60.199219 C 18.675781 59.964844 18.777344 59.726562 18.882812 59.492188 C 18.953125 59.324219 19.019531 59.101562 19.132812 58.960938 C 19.164062 58.925781 19.113281 58.875 19.085938 58.910156 C 18.972656 59.050781 18.910156 59.257812 18.835938 59.417969 C 18.726562 59.667969 18.621094 59.917969 18.511719 60.164062 C 18.183594 60.917969 17.921875 61.703125 17.789062 62.515625 C 16.671875 62.539062 15.550781 62.523438 14.433594 62.449219 C 13.035156 62.351562 11.664062 62.09375 10.257812 62.050781 C 10.105469 62.046875 9.953125 62.042969 9.800781 62.042969 C 10.03125 61.675781 10.3125 61.339844 10.5625 60.988281 C 10.8125 60.640625 11.039062 60.28125 11.238281 59.902344 C 11.554688 59.308594 11.761719 58.667969 11.941406 58.019531 C 12.101562 57.445312 12.246094 56.871094 12.460938 56.316406 C 12.632812 55.867188 12.898438 55.199219 13.414062 55.058594 C 13.457031 55.046875 13.4375 54.980469 13.394531 54.992188 C 12.9375 55.117188 12.679688 55.628906 12.503906 56.027344 C 12.25 56.59375 12.089844 57.203125 11.929688 57.800781 C 11.746094 58.476562 11.542969 59.144531 11.226562 59.773438 C 11.039062 60.152344 10.8125 60.511719 10.570312 60.859375 C 10.292969 61.257812 9.976562 61.628906 9.714844 62.039062 C 8.640625 62.027344 7.542969 62.074219 6.503906 62.328125 C 6.054688 62.441406 5.480469 62.621094 5.246094 63.054688 C 5.226562 63.097656 5.285156 63.132812 5.308594 63.089844 C 5.523438 62.6875 6.046875 62.523438 6.460938 62.414062 C 7.074219 62.246094 7.71875 62.1875 8.351562 62.144531 C 8.804688 62.117188 9.261719 62.105469 9.714844 62.105469 C 9.726562 62.113281 9.742188 62.113281 9.753906 62.105469 C 10.476562 62.109375 11.203125 62.152344 11.921875 62.230469 C 12.804688 62.328125 13.675781 62.464844 14.5625 62.527344 C 15.664062 62.601562 16.765625 62.609375 17.867188 62.585938 C 20.09375 62.535156 22.3125 62.335938 24.527344 62.164062 C 25.582031 62.085938 26.621094 61.964844 27.664062 61.777344 C 28.726562 61.582031 29.777344 61.296875 30.851562 61.148438 C 33.007812 60.847656 35.140625 60.539062 37.265625 60.050781 C 39.367188 59.566406 41.433594 59.539062 43.535156 60.035156 C 45.601562 60.527344 47.726562 60.84375 49.824219 61.167969 C 50.898438 61.332031 51.980469 61.460938 53.058594 61.605469 C 54.136719 61.75 55.179688 61.984375 56.242188 62.222656 C 56.265625 62.230469 56.289062 62.234375 56.3125 62.238281 C 56.316406 62.242188 56.324219 62.242188 56.328125 62.242188 C 58.265625 62.671875 60.179688 62.949219 62.164062 62.707031 C 66.0625 62.230469 69.894531 63.535156 72.898438 66.011719 C 73.128906 66.203125 73.355469 66.402344 73.578125 66.609375 C 73.664062 66.691406 73.734375 66.761719 73.839844 66.820312 C 73.929688 66.878906 74.007812 66.949219 74.082031 67.027344 C 74.117188 67.0625 74.144531 67.09375 74.167969 67.121094 C 74.1875 67.183594 74.21875 67.234375 74.265625 67.289062 C 74.292969 67.320312 74.339844 67.28125 74.324219 67.246094 Z M 74.324219 67.246094 " fill-opacity="1" fill-rule="nonzero"/></g></svg>