<svg xmlns="http://www.w3.org/2000/svg" width="100" viewBox="0 0 75 75" height="100" version="1.0"><defs><clipPath id="a"><path d="M12.512 44H62v13.3H12.512zm0 0"/></clipPath><clipPath id="b"><path d="M28 14.55h15V26H28zm0 0"/></clipPath></defs><path fill="#ffecb3" d="M37.5 0C16.79 0 0 16.79 0 37.5S16.79 75 37.5 75 75 58.21 75 37.5 58.21 0 37.5 0"/><path fill="#78bdbc" d="M60.563 52.469c-2.055.12-6.704-.215-8.184-.266-1.941-.07-5.555-.281-7.984-.07-2.43.207-8.125-.07-12.036-.598-1.746-.234-4.257-.805-6.527-1.367-.578-.14-1.14-.285-1.668-.418-2.062-.531-3.633-.973-3.727-.988-.042-.008-.226-.125-.484-.313.66-.57 1.238-.898 1.668-.832l.344-.113a2.741 2.741 0 0 1-.48-.594c-.286-.523-.47-1.105-.438-1.707.031-.672.25-1.348.433-1.996.192-.68.399-1.355.512-2.055.11-.66.149-1.328.297-1.98a7.779 7.779 0 0 1 .613-1.793c.274-.559.598-1.121 1.059-1.543.75-.691 1.719-.957 2.621-1.383 1.254-1.598 3.04-3.117 5.496-3.687-.223-.477-.445-.95-.68-1.418l.239-.028.754-.093.043-.004.57-.07.047-.008.523-.063.04-.004.984-.125.043-.004 1.004-.125.32-.039.07-.008.36-.043h.003l.079-.011.68-.082.046-.008 1.168-.145.047-.004 1.25-.156.047-.004.887-.11.043-.007 1.546-.187.133-.02.461-.055.445.95c1.465-.114 6.47-.293 9.563 2.058.168.125.332.262.484.402a.104.104 0 0 1 .133-.015c.203.117.461.125.684.172.226.05.445.125.66.218.531.235 1.016.586 1.55.81.915.37 1.84.901 2.446 1.694 1.035 1.36 1.223 3.172 1.156 4.825-.047 1.152-.297 2.289-.285 3.445.02 1.363.27 2.719.234 4.086-.027 1.039-.253 2.613-1.136 3.336.781.707 1.468 1.554 1.843 2.543zm0 0"/><path fill="#cce5df" d="m56.488 39.418-2.664 2.906c-.699.762-1.453 1.586-2.156 2.36-.469.515-.918 1.007-1.309 1.445a90.219 90.219 0 0 0-1.28 1.441c-.142.164-.22.262-.22.278 0 .136-1.62.601-2.316.832-.691.23-10.004-.14-10.117 0-.114.14-.906.02-1.688.078-.785.062-5.035-.774-5.035-.774l-1.043-.257-.41-.528-.586-1.117L26.31 43.5l-.754-1.441-1.489-2.836c.004-.004.004-.004.004-.008.047-.156.684-2.278 2.227-4.387.09-.125.183-.25.285-.375 1.254-1.598 3.04-3.117 5.496-3.687.074-.02.152-.036.227-.051.027-.004.05-.012.078-.016.012-.004.027-.004.039-.008.125-.023.25-.046.379-.066.047-.004.097-.012.144-.02.016-.003.032-.003.047-.007l.477-.07c.015-.005.031-.005.047-.008.402-.06.793-.122 1.168-.18.015 0 .03-.004.046-.004.477-.074.934-.148 1.372-.219.015 0 .027-.004.043-.008.37-.058.726-.113 1.066-.172.02 0 .035-.003.055-.007l.277-.047c.035-.004.07-.012.102-.016a.196.196 0 0 1 .046-.008c.418-.07.817-.136 1.184-.199.016-.004.027-.008.043-.008.441-.078.848-.148 1.215-.215a369.098 369.098 0 0 0 .828-.148c.016-.004.027-.008.043-.008.176-.031.34-.062.488-.093.02 0 .04-.004.059-.008l.351-.067.145-.031a.14.14 0 0 0 .043-.008c.02-.004.035-.004.055-.008l.671-.136s.153-.016.418-.035c1.461-.114 6.465-.293 9.559 2.058.172.129.332.262.484.402.106.094.211.196.309.293 2.871 2.93 2.902 7.77 2.902 7.77zm0 0"/><g clip-path="url(#a)"><path fill="#697a78" d="M12.648 57.258c-.105-.223.016-.457.122-.649.28-.496.777-.73 1.164-1.129.418-.437.433-1.085.816-1.546.402-.489 1.035-.746 1.406-1.27.32-.457.508-.984.79-1.465.14-.238.3-.472.503-.66.203-.187.442-.328.66-.5.215-.176.43-.379.559-.629a2.1 2.1 0 0 1 .441-.617c.203-.191.434-.3.68-.434a2.83 2.83 0 0 1 .582-.246c.332-.246.64-.414.91-.476.555-.348 1.324-.594 1.977-.555a.11.11 0 0 1 .062.023c.188-.05.387-.105.598-.164.105-.027.215-.054.328-.086a59.016 59.016 0 0 1 3.418-.773 55.766 55.766 0 0 1 2.516-.445c4.601-.723 10.593-1.145 16.804-.176 1.118.176 2.246.394 3.375.668.746.18 1.489.383 2.235.61.601.187 1.203.386 1.8.6a12.021 12.021 0 0 0 .954.407c.804.379 2 1.02 3.074 1.918.039.035.078.066.121.102.059.05.117.105.176.156.215.2.426.402.62.621.013.02.028.035.04.05l.016.016c.011.012.02.024.03.032.009.007.016.011.02.02.004.003.008.003.012.007l.043.035.094.133c.074.09.144.184.215.277.379.457.812.867 1.125 1.375.191.313.37.684.402 1.051.02.246-.04.465-.09.703-.062.278-.05.5.07.758.082.18.184.355.239.547.054.191.05.375.062.57.02.422.215.723.352 1.106l.023.074h-49.32l-.024-.04zm0 0"/></g><path fill="#fedebd" d="M43.582 29.633c-.328.566-.766.96-1.207 1.242l-.043.027c-.117.07-.238.137-.355.192l-.141.066a1.818 1.818 0 0 0-.129.055c-.012.004-.027.008-.039.015a4.238 4.238 0 0 1-1.195.286l-1.149-.637-.054-.035L37.754 30l-.066-.035-.145-.082-.418-.235-.082-.043-1.11-.62-.042-.02-.246-.14-1.208-.673-.124-.07-.098-.055-.094-.05-.836-.465-.043-.028-.344-.191-.082-.195-.023-.059-.2-.504-.062-.148-1.136-2.825-.051-.125-.121-.308c-.082-.2-.313-1.418-.383-2.473-.027-.441-.031-.855.02-1.148.132-.781 4.91-1.246 7.511-1.008.016.004.027.004.043.004.711.07 1.254.191 1.488.375.473.375.801 1.55 1.016 2.762.289-.211.613-.356.867-.223.574.3 1.305 3.023-.43 3.512l.45.949.02.039.245.52.371.78.082.177.262.55.445.946zm0 0"/><path fill="#78bdbc" d="M41.828 36.078c-.008.129 0 .27 0 .41.074 0 .149.004.223.016.035-.04.117-.024.117.047v.054c0 .07-.078.086-.117.051-.004-.004-.008-.008-.012-.015a1.326 1.326 0 0 0-.215-.016c-.004.121-.02.238-.047.344-.027.086-.16.05-.136-.035.027-.082.035-.188.039-.301-.242.023-.489.09-.73.117-.036.004-.071.008-.106.008-.051.008-.106.012-.157.012-.015 0-.027.003-.039.003H40.504c-.035 0-.07 0-.106-.003h-.003c-.032 0-.063-.004-.098-.004-.004-.004-.012-.004-.02-.004l-.082-.012h-.023c-.035-.008-.067-.012-.102-.02-.3-.062-.57-.175-.843-.312-.332-.168-.606-.195-.918.023-.528.364-1.09.286-1.7.297-.336.008-.632-.02-.914.196-.222.171-.41.375-.66.511-.039.02-.09 0-.101-.043-.036-.125-.07-.25-.102-.37a.491.491 0 0 0-.012-.04c-.011-.047-.027-.094-.039-.14l-.035-.122c-.008-.03-.02-.066-.027-.097-.02-.067-.043-.133-.063-.203-.004-.004-.004-.008-.004-.016-.004 0-.004-.004-.004-.004-.007-.012-.02-.023-.023-.039-.02-.05-.035-.101-.059-.152l-.082-.211c-.515-1.258-1.117-2.48-1.691-3.711-.121-.254-.238-.512-.355-.77a.881.881 0 0 1-.043-.086c-.106-.226-.211-.453-.317-.675-.223-.477-.445-.95-.68-1.418-.097-.192-.195-.387-.293-.578-.043-.086.024-.165.094-.172.39-.344.52-.938.754-1.387.016-.035.035-.07.055-.106.008-.007.012-.015.015-.023L32.07 27c.008-.008.012-.02.02-.027.015-.028.031-.051.047-.078.008-.008.011-.016.02-.028.015-.023.03-.05.05-.074a.119.119 0 0 1 .02-.027l.05-.075c.008-.007.016-.015.02-.023l.058-.074c.008-.008.012-.016.02-.024.02-.027.043-.05.063-.078l.015-.015c.024-.028.047-.055.074-.082 0 0 .004-.004.004-.008h.004a.75.75 0 0 1 .055-.059c.008-.008.015-.015.023-.027.016-.016.032-.028.047-.043l.035-.035c.016-.012.032-.028.043-.04.016-.011.028-.023.043-.035l.04-.039.046-.035a.274.274 0 0 1 .04-.031c.015-.016.03-.027.046-.04.016-.007.027-.019.043-.03l.05-.035.04-.028c.027-.02.059-.039.09-.058.27-.168.594-.211.863-.38.27-.163.41-.456.637-.667.344-.32.816-.403 1.27-.328a.07.07 0 0 1 .042.027c.157 0 .328.055.473.098.25.078.5.16.746.246.324.113.645.238.969.351.36.125.695.184 1.078.176.605-.016 1.148-.008 1.644.371.188.145.368.309.575.418.02.012.043.02.062.031.004 0 .008.004.012.004l.055.024h.003c.02.007.04.015.063.02.004 0 .004.003.008.003l.054.012c.004 0 .004.004.008.004l.059.011h.012c.015.004.03.004.05.008h.012c.02.004.04.004.059.004a.03.03 0 0 1 .015.004h.063c.066.004.133.004.203 0 .36-.004.637.086.512.496-.032.098-.059.192-.09.29-.012.027-.02.054-.031.081-.036.117-.075.23-.114.344-.004.016-.008.035-.015.05-.02.06-.04.114-.059.173-.02.066-.043.132-.062.199-.012.035-.024.066-.032.098l-.011.035-.063.199c-.004.016-.012.035-.016.05-.02.067-.035.13-.054.192-.004.016-.008.031-.016.05-.02.079-.043.157-.062.235l-.024.114c-.004.02-.004.039-.008.058a1.869 1.869 0 0 1-.011.063v.015a.583.583 0 0 0-.008.082l-.012.125c0 .016 0 .028-.004.043 0 .051-.004.11-.008.164v.047c0 .051-.003.106-.003.16 0 .059-.004.121-.004.18l-.036 1.117c-.007.313-.015.625-.027.938-.004.25-.012.496-.02.742-.011.492-.027.984-.042 1.476-.008.293-.016.583-.028.875v.102c-.004.008-.004.016-.004.027-.007.286-.015.57-.027.856 0 .02-.004.039-.004.055v.058zm0 0"/><path fill="#fedebd" d="M35.645 32.836c.125.437.19.902.132 1.355-.05.403-.148.809-.304 1.196-.149.351-.344.715-.672.965-3.496 9.336-7.582 13.058-8.215 13.601-.047.016-.094.035-.145.047a.21.21 0 0 0-.113.07c-1.89.5-2.672-.61-2.996-1.73 0 0-1.238-3.89.89-9.54 0 0 2.548-1.144 4.364.032 1.996-1.945 3.824-3.465 4.047-3.652a4.688 4.688 0 0 0-.024-.336c-.015-.16-.035-.32-.043-.477-.011-.203.004-.406 0-.61-.015-.503-.168-.991-.183-1.495-.012-.508.039-1.016 0-1.524a10.966 10.966 0 0 1 .039-1.894c.043-.399.074-.801.168-1.196.062-.27.14-.605.363-.812.227-.211.484-.07.668.11.05-.04.098-.083.168-.071a.499.499 0 0 1 .313.195c.015.032.027.063.043.094 0 .012.003.02.007.027.012.028.02.055.028.079.004.007.004.015.008.02.019.065.035.136.046.202v.008-.004c.032.168.04.336.036.508v.012c-.004.117-.012.234-.02.351 0 .004.004.008.004.012 0 .012.004.02.008.027.023.024.058.024.09.04.078.038.144.136.191.206l.035.063c.004 0 .004.004.004.008l.023.05a.066.066 0 0 1 .008.02c.008.023.016.047.024.066.008.114.011.23.015.344.012.262.032.527.051.793.035.547.098 1.086.324 1.594.008 0 .016.004.016.008.059.105.11.207.176.304.066.098.125.196.176.297.105.207.187.418.25.637zm20.843 6.582c-2.265-1.945-7.422-.617-7.422-.617l-6.25-4.633c.012-.527-.09-1.055-.199-1.57-.07-.32-.144-.637-.183-.961a8.889 8.889 0 0 1-.063-.965c-.012-.399-.02-.8-.062-1.2-.024-.202-.137-.5-.399-.538-.277-.04-.46.285-.512.472-.082.278-.046.57-.043.852l-.187-.492c-.215-.57-.34-1.16-.594-1.72a3.385 3.385 0 0 0-.566-.847c-.215-.238-.477-.504-.801-.625-.203-.074-.379-.023-.492.121-.18-.242-.367-.476-.555-.715-.2-.25-.61-.617-.95-.308-.198.18-.16.5-.085.734a.357.357 0 0 1-.05-.031c-.169-.082-.337.02-.45.129-.313.297-.2.719-.043 1.05.188.395.469.75.602 1.16.214.657.535 1.278.789 1.923v.008c0 .003-.004.003-.004.003.05.122.086.25.078.38 0 .019-.016.035-.035.035-.035 0-.063-.028-.082-.063-.004.008-.004.02-.004.027-.098-.14-.2-.277-.281-.418-.282-.457-.508-.933-.743-1.406a1.076 1.076 0 0 0-.355-.441c-.121-.082-.317-.133-.461-.07-.238.101-.223.456-.207.68-.004 0-.004.003-.008.003v.035a.78.78 0 0 1 .02.102c.172.57.422 1.117.664 1.668.258.582.48 1.175.738 1.758a8.748 8.748 0 0 0 2.016 2.874c.222.211.457.415.722.586.192.125.414.239.653.266h.004s8.8 14.941 12.968 12.434c3.684-.973 2.832-9.68 2.832-9.68zm0 0"/><g clip-path="url(#b)"><path fill="#697a78" d="M42.871 22.613c0 .668-.078 1.313-.289 1.95-.09.273-.16.574-.3.832-.126.222-.329.378-.497.566 0 .004.004.004.004.004-.004.004-.008.004-.012.004-.011.004-.023.011-.039.015-.004-.007-.004-.015-.008-.023-.003-.012-.011-.02-.015-.027.004 0 .008 0 .008.003-.055-.113-.102-.23-.153-.347-.09-.223-.226-.434-.277-.672 0-.008 0-.02.012-.023a.807.807 0 0 1 .133-.06c.007-.003.011-.003.015 0 .192-.093.387-.187.524-.355.183-.214.296-.5.355-.777.117-.566.02-1.195-.168-1.742-.074-.207-.2-.48-.441-.543-.168-.043-.332.031-.465.133-.278.215-.485.52-.653.82a.019.019 0 0 1-.023.008c-.004 0-.004.004-.008.004s-.008-.004-.008-.004c-.004.004-.007.004-.015.004-.317-.168-.606-.445-.828-.723a6.725 6.725 0 0 1-.645-.91 6.466 6.466 0 0 1-.469-1.031c-.05-.149-.09-.301-.129-.453.004 0 .004-.004.004-.008v-.012s-.004 0-.004-.004v-.004l-.003-.004-.004-.004-.004-.003-.004-.004s-.004 0-.004-.004h-.016c.004-.004.004-.008.008-.008-.012.004-.027.004-.039.008-.008-.008-.016-.012-.023-.02-.004-.004-.012-.008-.02-.012a.195.195 0 0 0-.113-.035c-.082 0-.14.04-.172.09a.132.132 0 0 0-.023.047c-.243.04-.485.063-.723.09-.41.05-.824.074-1.238.058a5.894 5.894 0 0 1-1.168-.14c-.262.23-.606.308-.938.367-.187.035-.379.066-.562.121-.192.055-.356.14-.52.246-.355.235-.719.492-1.137.606a2.158 2.158 0 0 1-.894.043c0 .492.058.98.148 1.465.043.242.094.484.153.726.027.121.054.246.101.363.04.102.086.2.121.305.012.02-.02.031-.031.02l-.012.003c-.101.04-.222.004-.32-.03a2.392 2.392 0 0 1-.418-.196 1.745 1.745 0 0 1-.672-.676l-.004-.004c0-.004 0-.008-.004-.008 0-.003 0-.003-.004-.007v-.008c-.09-.207-.199-.633.102-.676-.098-.066-.188-.145-.277-.223-.246-.222-.504-.484-.61-.8-.078-.22-.086-.645.215-.707a.822.822 0 0 1 .098-.008c-.086-.098-.207-.172-.305-.258-.098-.09-.195-.18-.281-.285a2.505 2.505 0 0 1-.367-.613c-.16-.364-.34-.82-.23-1.22.046-.171.155-.343.327-.405.207-.079.442-.02.64.054.22.086.438.195.645.305.047.027.094.05.141.074-.035-.043-.062-.086-.078-.11-.281-.429-.344-1.034-.133-1.503.102-.227.254-.473.488-.578.114-.055.235-.086.36-.117.125-.032.242-.07.379-.06.32.02.64-.015.957.024.175.02.347.059.52.075.16.011.323.015.484.023.066 0 .132.004.199.008 0-.004-.004-.008-.004-.012a.093.093 0 0 1-.023-.043.447.447 0 0 1-.028-.125.775.775 0 0 1 .04-.312c.073-.2.26-.352.456-.422.29-.102.625-.125.93-.145.336-.02.672-.02 1.008.008.676.055 1.351.184 2.011.328.31.067.618.149.91.262.278.11.536.254.79.402.457.27.933.567 1.23 1.02.156.234.324.558.332.867.735.289 1.16 1.031 1.426 1.742.168.465.293.942.383 1.426.12.656.195 1.32.195 1.984zm0 0"/></g><path fill="#cce5df" d="M38.625 20.875a.876.876 0 0 1-.5.422 4.688 4.688 0 0 1-1.012.2c-.75.07-1.496.089-2.238.206-.71.11-1.398.281-2.086.477-.3.086-.605.175-.883.316a1.861 1.861 0 0 0-.402.258c-.086.082-.164.172-.258.246-.004.008-.016.016-.027.02v.003h-.008a.012.012 0 0 1-.016 0c-.004 0-.004-.003-.004-.003h-.003a1.4 1.4 0 0 1-.333-.704c-.05-.273-.085-.535-.187-.796-.18-.461-.422-1.028 0-1.438.43-.422.988-.71 1.535-.941.602-.254 1.25-.383 1.887-.512.355-.07.707-.16 1.058-.234.344-.07.684-.122 1.028-.16.328-.036.664-.07.992-.044.258.024.547.063.758.223.347.266.488.777.601 1.18.11.398.301.883.098 1.281zm0 0"/><path fill="#3d3f3f" d="M29.445 20.223c-.023-.02.012-.051.032-.032.02.016.043 0 .058.012.04.027.078.05.121.07.086.043.176.079.266.106.168.047.336.082.504.117.027.004.015.05-.016.043-.203-.043-.41-.078-.605-.152a1.392 1.392 0 0 1-.235-.106c-.039-.023-.09-.023-.125-.058zm.575 1.75c.242.136.543.105.789.23.011.008.023 0 .027-.008l-.012-.035c-.246-.12-.543-.09-.781-.226-.023-.016-.047.023-.023.039zm.625-3.88c.312.048.652.024.96-.007a12.71 12.71 0 0 0 2.094-.406c.356-.098.715-.192 1.078-.274.364-.082.739-.164 1.114-.187a4.67 4.67 0 0 1 1.117.082c.34.062.672.156.98.312.203.102.352.235.504.399.035.035.317.34.305.425.016.012.02.032.012.043 0 .008-.004.016-.012.016-.004.004-.004.004-.008.004h.004c-.188.223-.316.488-.313.781 0 .032.047.032.047 0-.004-.32.157-.597.371-.828.004.012.008.02.024.02.266-.008.508.289.664.48.207.262.383.563.543.856.18.324.316.671.445 1.023.121.332.23.672.317 1.016.011.02.02.043.027.062a.105.105 0 0 1 .027-.031 9.664 9.664 0 0 0-.343-1.098 7.483 7.483 0 0 0-.473-1.07 5.995 5.995 0 0 0-.535-.816c-.094-.118-.2-.23-.32-.32a1.217 1.217 0 0 0-.192-.122c-.031-.015-.062-.031-.094-.043-.008-.004-.043.004-.058.012.14-.14.3-.262.457-.363.07-.043.136-.086.21-.13.012.005.024-.003.024-.015.117-.07.238-.137.36-.195.007.008.019.015.03.008.055-.028.169.074.208.101.086.067.164.145.242.219.164.156.312.32.45.504.39.535.663 1.176.91 1.789.261.66.456 1.351.57 2.055.109.695.175 1.468-.078 2.14-.153.41-.442.746-.754 1.043.007.02.02.035.027.055a.021.021 0 0 0 .012-.02v-.008c.445-.43.78-.914.89-1.539.055-.328.043-.671.024-1.003a8.29 8.29 0 0 0-.137-1.02 9.667 9.667 0 0 0-.625-1.992c-.258-.586-.52-1.18-.922-1.684a3.828 3.828 0 0 0-.465-.476c-.058-.051-.191-.192-.297-.211.145-.067.297-.117.45-.149h.004c.003 0 .011-.004.02-.004h.023v-.007c.093-.016.183-.024.273-.02.004 0 .008.004.008.008.011.012.035.004.039-.012 0-.004.004-.008.004-.012.004-.015-.008-.03-.024-.03a1.598 1.598 0 0 0-.304.019c-.032-.23-.067-.442-.184-.653-.129-.238-.316-.441-.504-.629a5.87 5.87 0 0 0-.621-.546c-.262-.196-.547-.356-.828-.52-.024-.016-.047.027-.024.043.258.148.52.297.762.469.227.16.43.347.63.539.19.183.37.383.51.61.067.109.122.23.16.359.028.09.036.183.048.273.02.02.015.066-.024.066h-.011l.004.004c-.301.07-.59.215-.86.375a1.748 1.748 0 0 0-.21-.605 2.16 2.16 0 0 0-.423-.52c-.343-.32-.777-.535-1.214-.699a7.835 7.835 0 0 0-1.422-.394c-.715-.137-1.446-.098-2.164-.067-.16.008-.317.004-.473.02-.152.02-.309.05-.465.02-.027-.005-.039.038-.012.046.133.027.27.008.403-.008.168-.023.332-.023.504-.027.367-.016.73-.035 1.093-.035a7.274 7.274 0 0 1 1.856.273c.902.246 1.984.672 2.367 1.61.043.105.09.238.11.359a.06.06 0 0 1 .011.05c0 .005 0 .005-.004.005 0 .004-.004.011-.004.015-.011.008-.023.012-.039.008-.066.043-.133.082-.195.125-.172.11-.348.246-.492.402.008-.16-.387-.535-.442-.59-.375-.367-.925-.511-1.425-.601a4.94 4.94 0 0 0-1.047-.082c-.348.016-.696.09-1.035.164-.72.156-1.418.379-2.137.531-.504.102-1.02.188-1.535.2a2.802 2.802 0 0 1-.653-.032c-.168-.031-.383-.078-.523-.183-.024-.02-.055.011-.031.03.168.134.425.18.629.216zm11.175 4.044c.02.023.055-.008.035-.032-.273-.32-.738.575-.796.766v.016c.004.008.007.011.015.011.332.082.356.461.356.735 0 .031.047.031.047 0 0-.285-.036-.672-.368-.77.078-.21.496-.98.711-.726zm-.656 2.832c.047-.016.094-.02.137-.028-.004-.015-.004-.03-.008-.043-.047.008-.094.012-.14.024-.028.012-.016.055.011.047zm-10.27-3.328c-.05-.145-.132-.274-.183-.418-.055-.157-.106-.34-.09-.512 0-.004-.004-.012 0-.016 0-.004.004-.004.004-.008a.428.428 0 0 1 .023-.101c.008-.07.012-.14.04-.207.062-.203.285-.352.464-.453.145-.078.297-.149.442-.227.187-.101.37-.207.574-.285.254-.094.512-.168.77-.242.253-.07.507-.164.765-.211.145-.027.29-.043.434-.07.144-.028.285-.07.43-.106.269-.058.538-.11.808-.16.629-.113 1.3-.227 1.938-.129.18.027.421.086.503.27.137.289 0 .629.11.925.086.243.27.47.254.739-.016.207-.102.418-.317.484-.234.07-.52.047-.761.05-.383.005-.75.048-1.13.118-1.327.246-2.71.36-3.952.938a6.78 6.78 0 0 0-.442.23c-.09.047-.183.102-.281.125-.18.047-.3-.043-.324-.227-.024-.168-.024-.347-.078-.507zm-.019-.164c.063.14.098.277.113.425.016.121 0 .407.164.438.118.023.246-.047.348-.102.145-.078.281-.156.426-.226.289-.137.586-.25.89-.348.637-.2 1.297-.324 1.954-.43.34-.05.68-.101 1.015-.164.348-.066.7-.14 1.055-.148.191-.004.379-.004.57-.012.113-.004.23 0 .344-.02.133-.023.25-.078.312-.203a.612.612 0 0 0 .036-.476c-.09-.277-.27-.5-.274-.8-.004-.306.067-.684-.289-.813-.25-.09-.535-.09-.797-.086a7.281 7.281 0 0 0-1.133.12c-.359.063-.718.126-1.074.208-.183.043-.367.094-.558.12a3.414 3.414 0 0 0-.52.11c-.32.102-.652.18-.973.282a5.75 5.75 0 0 0-.867.386c-.187.102-.379.184-.555.297-.101.067-.203.14-.273.238a1.18 1.18 0 0 0-.055.133h-.007c-.04.094-.024.203-.059.297-.04.262.113.55.207.774zm6.762.539c-.543-.102-1.075.113-1.54.37-.152.087-1.03.7-1.109.282-.004-.027-.05-.016-.043.012.067.363.64.066.817-.04.55-.34 1.187-.706 1.863-.581.027.007.04-.04.012-.043zm-4.223 1.343c.106 0 .172-.062.215-.16.008-.027-.035-.039-.047-.012-.074.184-.273.118-.426.11a1.89 1.89 0 0 0-.535.031c-.27.059-.57.149-.738.387-.016.023.023.047.039.023.203-.289.652-.383.98-.398.172-.008.34.023.512.02zm3.856-.347c-.485.097-.887.402-1.29.672-.015.011-.007.039.008.043.004.003.008.011.016.011.457.11.941.043 1.398.16.028.008.043-.035.012-.043-.43-.109-.879-.058-1.309-.144.415-.063.825-.18 1.247-.227.027-.004.027-.05 0-.047-.426.047-.84.165-1.266.231.371-.254.746-.52 1.195-.613.032-.004.016-.051-.011-.043zm-4.31 2.062c.24-.187.485-.367.724-.55a.023.023 0 0 0 .015-.044c-.32-.18-.71-.144-1.066-.136-.031 0-.031.047 0 .047.328-.008.687-.043.992.105-.074.024-.16.02-.238.027a2.771 2.771 0 0 0-.305.055c-.191.047-.387.11-.559.215-.023.016 0 .055.024.039.191-.117.414-.18.633-.23.12-.024.258-.02.383-.043-.211.16-.426.316-.633.48-.024.02.008.05.03.035zm1.153-1.969c-.011-.027-.054-.015-.043.016.102.281.239.555.344.84.05.137.094.281.148.418.047.117.114.246.106.379 0 .027.047.027.047 0 .004-.106-.035-.207-.07-.301a13.68 13.68 0 0 1-.157-.426c-.11-.312-.261-.613-.375-.926zm.715-.128c-.16-.043-.316-.192-.344-.356-.007-.031-.05-.016-.047.012.036.18.204.34.376.387.03.007.042-.036.015-.043zm4.469 7.578c-.067-.38-.285-.707-.461-1.043-.2-.39-.348-.805-.531-1.203-.196-.41-.43-.79-.672-1.172a7.52 7.52 0 0 1-.266-.45c-.058-.117-.125-.253-.238-.328-.027-.015-.05.024-.024.043a.35.35 0 0 1 .11.106c-.113-.02-.262.066-.352.11a.792.792 0 0 0-.386.394c-.012.027.03.05.043.023a.701.701 0 0 1 .324-.355c.093-.047.277-.164.39-.117h.016c.04.066.074.14.11.203.007.023.019.043.035.062a.019.019 0 0 0 0 .027c.074.067-.008.239-.043.305a.446.446 0 0 1-.293.215c-.23.043-.41-.137-.504-.328-.016-.024-.055-.004-.043.023.12.239.347.414.62.332.134-.039.231-.16.29-.277a.625.625 0 0 0 .047-.164c.054.094.113.184.172.273.226.36.441.715.62 1.098.176.375.321.762.5 1.133.176.363.423.703.493 1.105.004.028.05.016.043-.015zm.344-2.086c-.149-.317-.293-.633-.461-.938a6.327 6.327 0 0 0-.262-.445c-.078-.117-.117-.258-.215-.363-.02-.024.012-.055.035-.035.067.074.102.164.145.253.02-.191.207-.312.387-.343h.011c.004-.012.016-.016.032-.008.19.11.332.308.28.543-.027.12-.07.172-.167.246-.07.05-.145.094-.23.082 0 .004.003.004.003.008.176.316.324.648.485.976.308.649.574 1.305.804 1.989.008.027-.035.039-.047.011a17.29 17.29 0 0 0-.8-1.976zm-.703-1.43c.082.117.156.242.226.367h.004c.105.04.203-.039.281-.105a.309.309 0 0 0 .106-.238c.008-.192-.098-.333-.258-.43-.004.004-.008.008-.016.008-.172.03-.355.144-.351.34 0 .007-.008.015-.016.019a.343.343 0 0 1 .023.04zm3.417 3.848c0-.371.024-.735-.03-1.102l-.005-.004c-.133.09-.328.117-.46.008-.141-.117-.153-.3-.165-.473 0-.011.004-.015.012-.02-.004-.007 0-.015.008-.019a.662.662 0 0 1 .406-.168.443.443 0 0 0-.086-.105c-.02-.02.012-.05.035-.031.192.187.25.492.29.75.003.007.007.015.003.023.055.383.04.758.04 1.14 0 .032-.048.032-.048 0zm-.039-1.145c0-.004-.004-.004-.004-.008-.007-.007-.003-.015 0-.023-.03-.184-.07-.39-.164-.555a.614.614 0 0 0-.402.153c-.004.003-.004.003-.008.003.004 0 .004.004.004.004.008.133.008.301.106.403a.323.323 0 0 0 .32.082.571.571 0 0 0 .121-.055c.012-.008.023-.004.027-.004zm-.996.488c.055.141.106.286.157.43.007.031.054.016.043-.012-.047-.144-.102-.289-.153-.43-.012-.027-.054-.015-.047.012zm-8.258-1.09c-.019.426-.019.856-.015 1.282.004.43.027.86.14 1.277.008.028-.035.04-.042.012-.122-.445-.141-.91-.145-1.371 0-.488-.004-.977.031-1.465.028-.445.063-.922.192-1.352.047-.156.109-.3.215-.425.023-.032.132-.192.187-.153.023.02 0 .059-.023.043-.004-.004-.02.008-.036.024.055.086.082.183.133.265.047.075.117.137.156.215.067.125.036.258-.042.371-.083.114-.196.172-.336.121-.122-.043-.184-.172-.25-.273a9.234 9.234 0 0 0-.164 1.43zm.313-1.87c-.066.125-.11.257-.14.394.007 0 .015 0 .019.008.07.098.133.254.266.281.16.031.285-.105.32-.254.035-.164-.082-.242-.16-.367-.055-.09-.09-.191-.145-.281a2.237 2.237 0 0 0-.16.219zm15.05 10.085c.071.407.165.81.333 1.188-.004 0-.004.004-.008.004l.023.047c.024 0 .043.011.059.027.004-.004.004-.012.004-.016-.004-.003-.004-.003-.004-.007a3.843 3.843 0 0 1-.242-.684c.004 0 .004-.004.008-.004.18-.168.484-.2.715-.242.312-.059.62-.105.933-.148.352-.047.703-.11 1.055-.137a9.362 9.362 0 0 1 1.097-.008c.657.031 1.317.117 1.961.234.602.106 1.203.266 1.735.563.082.043.16.094.234.144.012.008.082.047.094.067-.004-.024-.008-.051-.016-.074-.039-.028-.082-.051-.11-.07a3.302 3.302 0 0 0-.398-.22 4.524 4.524 0 0 0-.816-.296c-.562-.157-1.145-.227-1.727-.305a9.961 9.961 0 0 0-2.183-.07c-.352.03-.703.097-1.055.14-.285.04-.562.09-.847.14-.227.044-.512.079-.692.24-.101-.407-.156-.825-.219-1.235-.109-.75-.238-1.5-.28-2.262-.071-1.367-.044-2.77.265-4.11a7.82 7.82 0 0 1 .328-1.066c.012-.027-.035-.039-.043-.011-.492 1.253-.621 2.62-.625 3.96-.004.711.023 1.426.11 2.133.085.696.195 1.391.312 2.078zm-5.093-8.167c.273-.047.578-.004.715.269.156.309-.027.703-.192.969-.332.543-.875.957-1.421 1.265-.024.016 0 .055.023.04.61-.344 1.223-.825 1.54-1.465.144-.29.237-.66.023-.942-.16-.207-.461-.222-.7-.18-.027.004-.015.051.012.044zm8.402 11.753c-.351-.355-.73-.675-1.109-.996-.293-.25-.59-.5-.89-.742a6.505 6.505 0 0 0-.497-.367.64.64 0 0 0-.086-.059 2.228 2.228 0 0 0-.066.012c.066.031.144.098.172.113.152.106.3.22.445.332.3.243.594.493.887.743.379.324.762.64 1.11.996a9.92 9.92 0 0 1 1.331 1.664c.344.547.68 1.11.871 1.73.012.028.055.016.047-.015-.203-.645-.558-1.239-.922-1.809a9.963 9.963 0 0 0-1.293-1.602zM28.586 38.81c-.129.238-.371.414-.563.601-.238.23-.449.492-.683.735-.235.242-.492.464-.73.707-.25.246-.493.503-.731.765-.465.52-.906 1.063-1.34 1.606-.371.465-.758.96-.863 1.562-.004.028.039.043.043.012.117-.637.543-1.152.933-1.645.434-.543.875-1.078 1.344-1.593.23-.254.465-.496.703-.735.242-.238.496-.465.735-.71.218-.227.418-.473.644-.692.192-.184.422-.356.547-.59.016-.027-.027-.05-.04-.023zm-3.813-1.313c.407-.203.864-.234 1.309-.215.219.008.434.032.652.055.23.027.47.043.703.078.391.055.762.195 1.125.352.137.054.27.117.399.187.062.035.273.125.27.219-.004.027.042.027.046 0 .004-.078-.097-.137-.152-.176-.133-.09-.281-.156-.426-.223a5.241 5.241 0 0 0-1.133-.386c-.226-.043-.457-.055-.683-.078-.254-.028-.508-.059-.762-.07-.465-.028-.945.003-1.371.218-.027.012-.004.05.023.04zm4.532.617c.054-.027.05-.23.058-.281.024-.195.043-.395.063-.59.05-.61.094-1.219.18-1.824.132-.898.292-1.79.507-2.672.078-.305.157-.613.239-.918.03-.11.062-.215.093-.32.012-.035.024-.07.04-.106.011-.03.027-.039.003-.047.032.008.043-.035.012-.043-.078-.019-.168.418-.18.465-.105.371-.199.746-.289 1.121a26.703 26.703 0 0 0-.508 2.778c-.066.515-.101 1.027-.144 1.547-.016.172-.031.347-.05.52-.013.077-.02.155-.032.234-.004.023-.02.097-.016.097-.027.012-.004.051.024.04zm4.386-8.82c-.007.172-.007.344-.007.512 0 .312.007.633.046.941.04.309.122.606.192.906.004.028-.04.043-.047.012-.082-.348-.176-.691-.203-1.05a8.936 8.936 0 0 1-.027-1.122c.007-.25-.008-.555.109-.785a.533.533 0 0 1 .2-.227c.077-.046.194-.12.288-.09.031.008.02.055-.012.044-.09-.028-.218.046-.308.125.066.082.152.132.242.187a.33.33 0 0 1 .133.11c.066.109.062.242.012.355-.043.11-.188.191-.297.2-.063.007-.14.01-.2-.024-.019-.012-.093-.086-.12-.094zm.04-.344c-.02.098-.028.196-.036.297.035.004.067.043.09.063.137.117.438.05.492-.137.047-.164.016-.297-.136-.387a.87.87 0 0 1-.25-.191v-.004a.374.374 0 0 0-.055.066.777.777 0 0 0-.106.293zm-1.075-1.46c.074.109.176.195.313.198.133.004.215-.12.261-.226.051-.11.098-.242.051-.356-.027-.058-.082-.093-.12-.144-.04-.055-.075-.117-.118-.172-.02-.023-.05.012-.035.031.05.059.074.137.129.188.105.094.133.172.097.312a.618.618 0 0 1-.148.278c-.145.14-.34-.047-.41-.168-.012-.024-.051-.008-.043.02v.007c-.008.02.008.031.023.031zm3.223 1.78c-.012-.003-.024-.019-.016-.035a.73.73 0 0 1 .364-.304c.152-.063.32-.117.468-.028l.004.004h.004c.008-.008.027-.008.035.004.106.238.125.602-.144.738a.495.495 0 0 1-.719-.359c-.004-.008 0-.016.004-.02zm.027-.011s-.004 0-.004.004c.008 0 .016.004.016.015.05.305.453.524.707.293.176-.156.164-.41.082-.61-.004 0-.008.005-.012.005-.02.012-.039-.012-.035-.027-.152-.086-.328-.004-.476.062a.591.591 0 0 0-.278.258zm1.254-2.977c-.012-.004-.02-.011-.012-.027.082-.2.11-.395.329-.496a.648.648 0 0 1 .242-.074c.035-.004.101-.02.136 0 .008-.012.024-.016.036-.004.004 0 .007.004.011.008.004.003.004.007.008.011.102.13.223.293.211.469a.49.49 0 0 1-.226.367c-.118.082-.262.137-.403.07-.14-.066-.23-.187-.328-.304-.004-.008-.004-.012-.004-.02zm.031-.015c.004 0 .004 0 .008.004.153.187.348.421.614.261.124-.074.265-.207.261-.363-.004-.168-.094-.305-.191-.43-.012.004-.02 0-.028-.008-.003 0-.007 0-.015-.003-.028-.02-.133.003-.16.007a.71.71 0 0 0-.215.078c-.18.114-.2.274-.274.454zm.965 5c-.031-.078-.054-.164-.113-.227-.02-.02-.055.012-.035.035.054.055.078.137.105.203.008.028.055.016.043-.011zm19.114 8.336c.085.714.105 1.437.023 2.152-.074.637-.238 1.254-.39 1.871-.157.613-.313 1.227-.434 1.848-.098.5-.164 1.015-.192 1.527-.027.45-.007.922.18 1.34a.293.293 0 0 1 .063.02c-.262-.536-.227-1.18-.168-1.758.07-.668.191-1.325.347-1.98.172-.72.375-1.43.524-2.153.144-.7.191-1.418.156-2.13-.031-.609-.14-1.202-.207-1.808a13.354 13.354 0 0 1-.078-1.855c.015-.59.062-1.188.226-1.758.075-.27.176-.555.328-.793.02-.027.04-.055.059-.078.805.996 1.219 2.234 1.348 3.5.14 1.363-.114 2.71-.164 4.07-.028.692.039 1.367.101 2.051.067.703.106 1.406.094 2.11-.008.656-.059 1.308-.238 1.94a5.599 5.599 0 0 1-.774 1.66v-.007c-.004.008-.004.012-.004.02.008 0 .012.004.016.011.004.004.012.012.012.02h.004a5.878 5.878 0 0 0 .804-1.73c.184-.669.223-1.36.227-2.051a21.422 21.422 0 0 0-.117-2.239c-.04-.375-.078-.746-.086-1.125-.008-.363.008-.73.027-1.097.047-.696.133-1.387.172-2.082a9.738 9.738 0 0 0-.063-1.848c-.16-1.176-.582-2.316-1.328-3.242.114-.14.246-.274.309-.446.012-.027-.035-.039-.043-.011-.055.14-.164.258-.258.37-.098.122-.18.247-.246.388a3.83 3.83 0 0 0-.3.902c-.153.7-.173 1.434-.153 2.148.016.754.129 1.493.223 2.243zM42.254 26.727c-.305.02-.621-.094-.883-.239a3.318 3.318 0 0 1-.402-.254c-.13-.09-.25-.195-.399-.257a2.578 2.578 0 0 0-.867-.204 8.734 8.734 0 0 1-1.058-.093c-.368-.063-.727-.184-1.079-.29-.355-.109-.71-.226-1.066-.324a2.449 2.449 0 0 0-.89-.09 1.538 1.538 0 0 0-.676.235c-.207.129-.364.316-.543.477-.207.183-.493.277-.743.39a3.186 3.186 0 0 0-.714.414c-.356.297-.586.703-.766 1.125-.11.258-.2.524-.344.77-.078.133-.164.27-.27.379-.097.105-.21.195-.304.3-.02.02.012.055.035.032.102-.118.223-.215.328-.328.11-.114.192-.262.274-.395.16-.273.25-.578.379-.867.254-.559.62-1.008 1.18-1.281.292-.149.632-.243.894-.438.234-.172.406-.402.652-.559.606-.386 1.317-.175 1.946.016.558.168 1.12.375 1.695.477.246.043.5.074.754.09.277.011.543.003.812.093.098.032.2.055.297.09.129.047.238.125.348.207.215.156.437.309.68.414.199.086.41.14.624.16.13.008.38-.07.477.047-.012.012-.008.04.016.043.004 0 .007.004.011.004.012.02.051.008.04-.02v-.003c-.075-.164-.294-.133-.438-.121zm-2.988 9.078-.024-.043c-.336-.098-.637-.254-.984-.098-.184.078-.348.191-.524.29-.218.124-.449.167-.699.167-.422 0-.844-.11-1.258.031-.375.133-.718.375-1.007.645-.024.02.011.05.03.031.298-.273.645-.512 1.024-.64.403-.141.84-.02 1.25-.02.172 0 .36-.02.52-.09.183-.082.347-.195.52-.293.19-.11.382-.176.6-.137.177.032.345.106.52.157l-.004.004c.012-.004.024-.004.036-.004zm16.652.043c.062-.352.125-.703.2-1.051.054-.274.163-.531.269-.79.16-.398.332-.792.515-1.179.012-.027-.027-.05-.039-.023-.172.363-.336.734-.488 1.11-.113.276-.238.554-.3.847-.075.355-.138.715-.2 1.074-.008.027.04.039.043.012zM22.52 47.094c.015.008.027.02.039.031.007.012.011.02.02.027.015.02.046 0 .038-.023a.107.107 0 0 0-.035-.047c-.34-.441-.383-1.027-.36-1.57.012-.282.048-.563.083-.844.035-.297.062-.594.105-.89.106-.715.328-1.403.508-2.098.184-.711.316-1.43.5-2.137a39.49 39.49 0 0 1 .777-2.59c.117-.355.239-.71.356-1.07.039-.117.074-.238.11-.36.007-.027.05-.136.019-.164-.008-.007-.016-.007-.028-.004-.027.016-.004.06.024.043-.04.02-.028-.035-.035.012l-.012.043c-.012.043-.02.082-.031.125-.032.106-.063.211-.098.317-.098.292-.2.585-.293.878-.234.704-.465 1.41-.664 2.125a33.67 33.67 0 0 0-.52 2.125c-.152.711-.37 1.403-.535 2.106-.09.387-.136.77-.183 1.16-.04.34-.09.676-.117 1.016-.047.597-.032 1.258.324 1.761 0 .008 0 .02.008.028zm39.046 8.636a1.638 1.638 0 0 0-.058-.085c0-.016-.004-.028-.008-.047-.004-.02-.027-.02-.04-.012-.132-.156-.308-.27-.464-.41a9.732 9.732 0 0 0-1.687-1.25 2.095 2.095 0 0 0-.157-.48 3.904 3.904 0 0 1-.117-.298c-.039-.113-.023-.253-.008-.37.02-.2.047-.391.04-.594a3.193 3.193 0 0 0-.09-.575c-.082-.359-.207-.714-.235-1.086-.012-.14-.02-.28-.039-.418a1.075 1.075 0 0 0-.058-.246.249.249 0 0 1-.07-.039c.062.102.073.235.09.348.019.145.023.289.038.434.031.359.16.71.238 1.062.047.195.079.398.082.602.004.199-.035.394-.05.593-.032.375.21.68.28 1.036a9.247 9.247 0 0 0-3.918-1.266c-.077-.008-.155-.012-.233-.016-.051-.629-.325-1.207-.555-1.785a3.266 3.266 0 0 1-.234-.96c-.024-.31-.02-.618-.094-.915-.004-.031-.051-.02-.043.012.074.308.07.625.094.941.023.301.097.578.203.86.23.605.53 1.195.582 1.847a9.105 9.105 0 0 0-1.598.075 8.87 8.87 0 0 1-1.984.003 14.158 14.158 0 0 1-1.758-.312c-.063-.371-.215-.719-.297-1.086-.09-.41-.035-.855-.02-1.27.016-.41.028-.82-.003-1.226-.024-.34-.02-.692-.114-1.02-.008-.027-.05-.015-.043.012.094.336.09.695.114 1.043.03.41.015.82 0 1.234-.016.395-.059.809.015 1.204.067.37.23.722.297 1.097l-.277-.07c-.66-.184-1.34-.281-2.02-.371-1.254-.168-2.5-.352-3.746-.567-.047-.285-.101-.57-.133-.859a4.412 4.412 0 0 1 .028-.879c.066-.64.058-1.285.058-1.93a18.3 18.3 0 0 0-.02-.925c-.011-.25-.046-.5-.05-.75-.004-.188 0-.375-.008-.563-.008-.113-.004-.277-.082-.371-.023-.02-.055.012-.035.035.09.102.07.32.074.446.004.18-.004.359.004.535.012.27.047.535.059.8.011.309.011.618.011.926 0 .64.012 1.29-.074 1.926-.074.543.035 1.07.121 1.598-.164-.028-.332-.055-.496-.086A63.026 63.026 0 0 1 41 50.848a8.519 8.519 0 0 0-1.914-.2 9.236 9.236 0 0 0-1.54.172c.017-.504.044-.996.122-1.492.074-.496.16-.992.242-1.484.16-.961.383-1.918.387-2.899 0-.03-.047-.03-.047 0-.004.989-.23 1.957-.39 2.926-.087.496-.169.992-.247 1.488-.074.489-.097.973-.113 1.47-.816.151-1.629.37-2.45.503-.648.105-1.296.191-1.948.281.046-.308.218-.554.355-.824.133-.277.176-.586.23-.883.055-.3.11-.601.137-.906.028-.344.035-.691.051-1.035.012-.328.04-.653.066-.977l.047-.484c.02-.16.024-.324.055-.48.035-.169.074-.337.098-.504.011-.083.058-.278-.02-.344-.02-.02-.055.011-.031.031.039.035.023.121.02.164-.005.098-.024.195-.04.29-.027.163-.07.323-.09.484-.066.652-.132 1.3-.156 1.957-.011.312-.023.628-.05.941-.028.328-.094.652-.153.977-.055.308-.125.601-.277.878-.125.235-.25.454-.29.72-.034.003-.07.01-.105.015-.71.097-1.402.281-2.105.414-.918.172-1.848.262-2.778.332.055-.25.184-.461.305-.684.137-.234.274-.468.39-.715.118-.23.208-.472.262-.726.07-.297.106-.606.165-.906.117-.602.238-1.196.433-1.778.176-.53.375-1.07.402-1.636.004-.032-.043-.032-.043 0-.03.574-.238 1.125-.418 1.664-.19.57-.304 1.152-.421 1.738-.055.289-.094.578-.153.867-.054.277-.16.54-.281.79-.121.245-.262.48-.395.714-.12.219-.246.426-.292.676-.536.039-1.067.07-1.602.11a47.7 47.7 0 0 1-2.117.1 6.552 6.552 0 0 1 .469-1.53c.07-.157.136-.317.203-.473.05-.11.093-.258.168-.352.02-.023-.012-.054-.032-.031-.074.09-.117.227-.164.336-.074.164-.14.328-.215.496a6.569 6.569 0 0 0-.476 1.555 24.65 24.65 0 0 1-2.215-.043c-.926-.063-1.828-.235-2.754-.262a7.93 7.93 0 0 0-.305-.008c.153-.242.336-.465.504-.699.164-.23.313-.469.446-.719.207-.394.343-.82.465-1.246.105-.383.203-.762.343-1.133.114-.297.285-.738.63-.832.027-.007.015-.05-.013-.043-.304.082-.472.422-.59.684-.167.379-.273.781-.378 1.176-.121.449-.258.89-.465 1.308-.125.25-.274.489-.434.72-.183.265-.39.51-.562.784-.711-.011-1.434.02-2.121.192-.297.07-.676.191-.828.48-.016.027.023.05.039.024.144-.27.488-.375.761-.45.403-.109.828-.152 1.246-.175.301-.02.602-.028.903-.028a.025.025 0 0 0 .023 0c.477.004.957.031 1.43.082.582.067 1.16.157 1.746.196.727.05 1.453.054 2.18.039 1.468-.032 2.933-.164 4.398-.278a20.447 20.447 0 0 0 2.067-.258c.703-.128 1.398-.316 2.105-.417 1.422-.196 2.832-.403 4.234-.727 1.387-.32 2.75-.34 4.137-.008 1.363.324 2.766.535 4.152.746.707.114 1.422.196 2.133.293.711.098 1.403.254 2.102.41l.047.012h.011c1.278.285 2.54.469 3.852.309 2.57-.317 5.102.547 7.082 2.187.152.13.305.262.45.399.058.054.1.101.171.14.059.04.113.086.16.137a.804.804 0 0 1 .059.062.25.25 0 0 0 .066.11c.016.02.047-.004.035-.028zm0 0"/></svg>