<svg xmlns="http://www.w3.org/2000/svg" xmlns:xlink="http://www.w3.org/1999/xlink" width="100" zoomAndPan="magnify" viewBox="0 0 75 74.999997" height="100" preserveAspectRatio="xMidYMid meet" version="1.0"><defs><clipPath id="id1"><path d="M 12.511719 44 L 62 44 L 62 57.300781 L 12.511719 57.300781 Z M 12.511719 44 " clip-rule="nonzero"/></clipPath><clipPath id="id2"><path d="M 28 14.550781 L 43 14.550781 L 43 26 L 28 26 Z M 28 14.550781 " clip-rule="nonzero"/></clipPath></defs><path fill="#ffecb3" d="M 37.5 0 C 16.789062 0 0 16.789062 0 37.5 C 0 58.210938 16.789062 75 37.5 75 C 58.210938 75 75 58.210938 75 37.5 C 75 16.789062 58.210938 0 37.5 0 " fill-opacity="1" fill-rule="nonzero"/><path fill="#78bdbc" d="M 60.5625 52.46875 C 58.507812 52.589844 53.859375 52.253906 52.378906 52.203125 C 50.4375 52.132812 46.824219 51.921875 44.394531 52.132812 C 41.964844 52.339844 36.269531 52.0625 32.359375 51.535156 C 30.613281 51.300781 28.101562 50.730469 25.832031 50.167969 C 25.253906 50.027344 24.691406 49.882812 24.164062 49.75 C 22.101562 49.21875 20.53125 48.777344 20.4375 48.761719 C 20.394531 48.753906 20.210938 48.636719 19.953125 48.449219 C 20.613281 47.878906 21.191406 47.550781 21.621094 47.617188 C 21.621094 47.617188 21.738281 47.578125 21.964844 47.503906 C 21.746094 47.292969 21.5625 47.058594 21.484375 46.910156 C 21.199219 46.386719 21.015625 45.804688 21.046875 45.203125 C 21.078125 44.53125 21.296875 43.855469 21.480469 43.207031 C 21.671875 42.527344 21.878906 41.851562 21.992188 41.152344 C 22.101562 40.492188 22.140625 39.824219 22.289062 39.171875 C 22.425781 38.550781 22.621094 37.945312 22.902344 37.378906 C 23.175781 36.820312 23.5 36.257812 23.960938 35.835938 C 24.710938 35.144531 25.679688 34.878906 26.582031 34.453125 C 27.835938 32.855469 29.621094 31.335938 32.078125 30.765625 C 31.855469 30.289062 31.632812 29.816406 31.398438 29.347656 L 31.636719 29.320312 L 32.390625 29.226562 L 32.433594 29.222656 L 33.003906 29.152344 L 33.050781 29.144531 L 33.574219 29.082031 L 33.613281 29.078125 L 34.597656 28.953125 L 34.640625 28.949219 L 35.644531 28.824219 L 35.964844 28.785156 L 36.035156 28.777344 L 36.394531 28.734375 C 36.398438 28.734375 36.398438 28.734375 36.398438 28.734375 L 36.476562 28.722656 L 37.15625 28.640625 L 37.203125 28.632812 L 38.371094 28.488281 L 38.417969 28.484375 L 39.667969 28.328125 L 39.714844 28.324219 L 40.601562 28.214844 L 40.644531 28.207031 L 42.191406 28.019531 L 42.324219 28 L 42.785156 27.945312 L 43.230469 28.894531 C 44.695312 28.78125 49.699219 28.601562 52.792969 30.953125 C 52.960938 31.078125 53.125 31.214844 53.277344 31.355469 C 53.308594 31.324219 53.359375 31.308594 53.410156 31.339844 C 53.613281 31.457031 53.871094 31.464844 54.09375 31.511719 C 54.320312 31.5625 54.539062 31.636719 54.753906 31.730469 C 55.285156 31.964844 55.769531 32.316406 56.304688 32.539062 C 57.21875 32.910156 58.144531 33.441406 58.75 34.234375 C 59.785156 35.59375 59.972656 37.40625 59.90625 39.058594 C 59.859375 40.210938 59.609375 41.347656 59.621094 42.503906 C 59.640625 43.867188 59.890625 45.222656 59.855469 46.589844 C 59.828125 47.628906 59.601562 49.203125 58.71875 49.925781 C 59.5 50.632812 60.1875 51.480469 60.5625 52.46875 Z M 60.5625 52.46875 " fill-opacity="1" fill-rule="nonzero"/><path fill="#cce5df" d="M 56.488281 39.417969 C 56.488281 39.417969 55.28125 40.734375 53.824219 42.324219 C 53.125 43.085938 52.371094 43.910156 51.667969 44.683594 C 51.199219 45.199219 50.75 45.691406 50.359375 46.128906 C 49.789062 46.761719 49.332031 47.273438 49.078125 47.570312 C 48.9375 47.734375 48.859375 47.832031 48.859375 47.847656 C 48.859375 47.984375 47.238281 48.449219 46.542969 48.679688 C 45.851562 48.910156 36.539062 48.539062 36.425781 48.679688 C 36.3125 48.820312 35.519531 48.699219 34.738281 48.757812 C 33.953125 48.820312 29.703125 47.984375 29.703125 47.984375 L 28.660156 47.726562 L 28.25 47.199219 L 27.664062 46.082031 L 26.308594 43.5 L 25.554688 42.058594 L 24.066406 39.222656 C 24.070312 39.21875 24.070312 39.21875 24.070312 39.214844 C 24.117188 39.058594 24.753906 36.9375 26.296875 34.828125 C 26.386719 34.703125 26.480469 34.578125 26.582031 34.453125 C 27.835938 32.855469 29.621094 31.335938 32.078125 30.765625 C 32.152344 30.746094 32.230469 30.730469 32.304688 30.714844 C 32.332031 30.710938 32.355469 30.703125 32.382812 30.699219 C 32.394531 30.695312 32.410156 30.695312 32.421875 30.691406 C 32.546875 30.667969 32.671875 30.644531 32.800781 30.625 C 32.847656 30.621094 32.898438 30.613281 32.945312 30.605469 C 32.960938 30.601562 32.976562 30.601562 32.992188 30.597656 C 33.152344 30.574219 33.3125 30.550781 33.46875 30.527344 C 33.484375 30.523438 33.5 30.523438 33.515625 30.519531 C 33.917969 30.460938 34.308594 30.398438 34.683594 30.339844 C 34.699219 30.339844 34.714844 30.335938 34.730469 30.335938 C 35.207031 30.261719 35.664062 30.1875 36.101562 30.117188 C 36.117188 30.117188 36.128906 30.113281 36.144531 30.109375 C 36.515625 30.050781 36.871094 29.996094 37.210938 29.9375 C 37.230469 29.9375 37.246094 29.933594 37.265625 29.929688 C 37.359375 29.914062 37.449219 29.898438 37.542969 29.882812 C 37.578125 29.878906 37.613281 29.871094 37.644531 29.867188 C 37.660156 29.863281 37.675781 29.859375 37.691406 29.859375 C 38.109375 29.789062 38.507812 29.722656 38.875 29.660156 C 38.890625 29.65625 38.902344 29.652344 38.917969 29.652344 C 39.359375 29.574219 39.765625 29.503906 40.132812 29.4375 C 40.148438 29.4375 40.164062 29.433594 40.175781 29.429688 C 40.460938 29.378906 40.722656 29.332031 40.960938 29.289062 C 40.976562 29.285156 40.988281 29.28125 41.003906 29.28125 C 41.179688 29.25 41.34375 29.21875 41.492188 29.1875 C 41.511719 29.1875 41.53125 29.183594 41.550781 29.179688 C 41.675781 29.15625 41.792969 29.132812 41.902344 29.113281 C 41.953125 29.101562 42 29.09375 42.046875 29.082031 C 42.0625 29.082031 42.078125 29.078125 42.089844 29.074219 C 42.109375 29.070312 42.125 29.070312 42.144531 29.066406 C 42.589844 28.976562 42.816406 28.929688 42.816406 28.929688 C 42.816406 28.929688 42.96875 28.914062 43.234375 28.894531 C 44.695312 28.78125 49.699219 28.601562 52.792969 30.953125 C 52.964844 31.082031 53.125 31.214844 53.277344 31.355469 C 53.382812 31.449219 53.488281 31.550781 53.585938 31.648438 C 56.457031 34.578125 56.488281 39.417969 56.488281 39.417969 Z M 56.488281 39.417969 " fill-opacity="1" fill-rule="nonzero"/><g clip-path="url(#id1)"><path fill="#697a78" d="M 12.648438 57.257812 C 12.542969 57.035156 12.664062 56.800781 12.769531 56.609375 C 13.050781 56.113281 13.546875 55.878906 13.933594 55.480469 C 14.351562 55.042969 14.367188 54.394531 14.75 53.933594 C 15.152344 53.445312 15.785156 53.1875 16.15625 52.664062 C 16.476562 52.207031 16.664062 51.679688 16.945312 51.199219 C 17.085938 50.960938 17.246094 50.726562 17.449219 50.539062 C 17.652344 50.351562 17.890625 50.210938 18.109375 50.039062 C 18.324219 49.863281 18.539062 49.660156 18.667969 49.410156 C 18.78125 49.183594 18.921875 48.964844 19.109375 48.792969 C 19.3125 48.601562 19.542969 48.492188 19.789062 48.359375 C 19.972656 48.257812 20.167969 48.171875 20.371094 48.113281 C 20.703125 47.867188 21.011719 47.699219 21.28125 47.636719 C 21.835938 47.289062 22.605469 47.042969 23.257812 47.082031 C 23.28125 47.082031 23.304688 47.09375 23.320312 47.105469 C 23.507812 47.054688 23.707031 47 23.917969 46.941406 C 24.023438 46.914062 24.132812 46.886719 24.246094 46.855469 C 25.179688 46.613281 26.332031 46.34375 27.664062 46.082031 C 28.445312 45.925781 29.285156 45.773438 30.179688 45.636719 C 34.78125 44.914062 40.773438 44.492188 46.984375 45.460938 C 48.101562 45.636719 49.230469 45.855469 50.359375 46.128906 C 51.105469 46.308594 51.847656 46.511719 52.59375 46.738281 C 53.195312 46.925781 53.796875 47.125 54.394531 47.339844 C 54.394531 47.339844 54.707031 47.453125 55.195312 47.675781 C 55.242188 47.699219 55.292969 47.722656 55.347656 47.746094 C 56.152344 48.125 57.347656 48.765625 58.421875 49.664062 C 58.460938 49.699219 58.5 49.730469 58.542969 49.765625 C 58.601562 49.816406 58.660156 49.871094 58.71875 49.921875 C 58.933594 50.121094 59.144531 50.324219 59.339844 50.542969 C 59.351562 50.5625 59.367188 50.578125 59.378906 50.59375 C 59.382812 50.597656 59.390625 50.605469 59.394531 50.609375 C 59.40625 50.621094 59.414062 50.632812 59.425781 50.640625 C 59.433594 50.648438 59.441406 50.652344 59.445312 50.660156 C 59.449219 50.664062 59.453125 50.664062 59.457031 50.667969 C 59.472656 50.679688 59.484375 50.691406 59.5 50.703125 C 59.53125 50.746094 59.5625 50.792969 59.59375 50.835938 C 59.667969 50.925781 59.738281 51.019531 59.808594 51.113281 C 60.1875 51.570312 60.621094 51.980469 60.933594 52.488281 C 61.125 52.800781 61.304688 53.171875 61.335938 53.539062 C 61.355469 53.785156 61.296875 54.003906 61.246094 54.242188 C 61.183594 54.519531 61.195312 54.742188 61.316406 55 C 61.398438 55.179688 61.5 55.355469 61.554688 55.546875 C 61.609375 55.738281 61.605469 55.921875 61.617188 56.117188 C 61.636719 56.539062 61.832031 56.839844 61.96875 57.222656 C 61.976562 57.246094 61.984375 57.273438 61.992188 57.296875 L 12.671875 57.296875 C 12.664062 57.285156 12.65625 57.269531 12.648438 57.257812 Z M 12.648438 57.257812 " fill-opacity="1" fill-rule="nonzero"/></g><path fill="#fedebd" d="M 43.582031 29.632812 C 43.253906 30.199219 42.816406 30.59375 42.375 30.875 C 42.363281 30.882812 42.347656 30.890625 42.332031 30.902344 C 42.214844 30.972656 42.09375 31.039062 41.976562 31.09375 C 41.929688 31.117188 41.882812 31.136719 41.835938 31.160156 C 41.792969 31.175781 41.75 31.195312 41.707031 31.214844 C 41.695312 31.21875 41.679688 31.222656 41.667969 31.230469 C 41.007812 31.488281 40.472656 31.515625 40.472656 31.515625 L 39.324219 30.878906 L 39.269531 30.84375 L 37.753906 30 L 37.6875 29.964844 L 37.542969 29.882812 L 37.125 29.648438 L 37.042969 29.605469 L 35.933594 28.984375 L 35.890625 28.964844 L 35.644531 28.824219 L 34.4375 28.152344 L 34.3125 28.082031 L 34.214844 28.027344 L 34.121094 27.976562 L 33.285156 27.511719 L 33.242188 27.484375 L 32.898438 27.292969 L 32.816406 27.097656 L 32.792969 27.039062 L 32.59375 26.535156 L 32.53125 26.386719 L 31.394531 23.5625 L 31.34375 23.4375 L 31.222656 23.128906 C 31.140625 22.929688 30.910156 21.710938 30.839844 20.65625 C 30.8125 20.214844 30.808594 19.800781 30.859375 19.507812 C 30.992188 18.726562 35.769531 18.261719 38.371094 18.5 C 38.386719 18.503906 38.398438 18.503906 38.414062 18.503906 C 39.125 18.574219 39.667969 18.695312 39.902344 18.878906 C 40.375 19.253906 40.703125 20.429688 40.917969 21.640625 C 41.207031 21.429688 41.53125 21.285156 41.785156 21.417969 C 42.359375 21.71875 43.089844 24.441406 41.355469 24.929688 L 41.804688 25.878906 L 41.824219 25.917969 L 42.070312 26.4375 L 42.441406 27.21875 L 42.523438 27.394531 L 42.785156 27.945312 L 43.230469 28.890625 Z M 43.582031 29.632812 " fill-opacity="1" fill-rule="nonzero"/><path fill="#78bdbc" d="M 41.828125 36.078125 C 41.820312 36.207031 41.828125 36.347656 41.828125 36.488281 C 41.902344 36.488281 41.976562 36.492188 42.050781 36.503906 C 42.085938 36.464844 42.167969 36.480469 42.167969 36.550781 L 42.167969 36.605469 C 42.167969 36.675781 42.089844 36.691406 42.050781 36.65625 C 42.046875 36.652344 42.042969 36.648438 42.039062 36.640625 C 41.96875 36.628906 41.894531 36.625 41.824219 36.625 C 41.820312 36.746094 41.804688 36.863281 41.777344 36.96875 C 41.75 37.054688 41.617188 37.019531 41.640625 36.933594 C 41.667969 36.851562 41.675781 36.746094 41.679688 36.632812 C 41.4375 36.65625 41.191406 36.722656 40.949219 36.75 C 40.914062 36.753906 40.878906 36.757812 40.84375 36.757812 C 40.792969 36.765625 40.738281 36.769531 40.6875 36.769531 C 40.671875 36.769531 40.660156 36.773438 40.648438 36.773438 C 40.628906 36.773438 40.613281 36.773438 40.597656 36.773438 C 40.574219 36.773438 40.554688 36.773438 40.53125 36.773438 C 40.523438 36.773438 40.511719 36.773438 40.503906 36.773438 C 40.46875 36.773438 40.433594 36.773438 40.398438 36.769531 C 40.398438 36.769531 40.394531 36.769531 40.394531 36.769531 C 40.363281 36.769531 40.332031 36.765625 40.296875 36.765625 C 40.292969 36.761719 40.285156 36.761719 40.277344 36.761719 C 40.25 36.757812 40.222656 36.753906 40.195312 36.75 C 40.1875 36.75 40.179688 36.75 40.171875 36.75 C 40.136719 36.742188 40.105469 36.738281 40.070312 36.730469 C 39.769531 36.667969 39.5 36.554688 39.226562 36.417969 C 38.894531 36.25 38.621094 36.222656 38.308594 36.441406 C 37.78125 36.804688 37.21875 36.726562 36.609375 36.738281 C 36.273438 36.746094 35.976562 36.71875 35.695312 36.933594 C 35.472656 37.105469 35.285156 37.308594 35.035156 37.445312 C 34.996094 37.464844 34.945312 37.445312 34.933594 37.402344 C 34.898438 37.277344 34.863281 37.152344 34.832031 37.03125 C 34.828125 37.015625 34.824219 37.003906 34.820312 36.992188 C 34.808594 36.945312 34.792969 36.898438 34.78125 36.851562 C 34.769531 36.8125 34.757812 36.773438 34.746094 36.730469 C 34.738281 36.699219 34.726562 36.664062 34.71875 36.632812 C 34.699219 36.566406 34.675781 36.5 34.65625 36.429688 C 34.652344 36.425781 34.652344 36.421875 34.652344 36.414062 C 34.648438 36.414062 34.648438 36.410156 34.648438 36.410156 C 34.640625 36.398438 34.628906 36.386719 34.625 36.371094 C 34.605469 36.320312 34.589844 36.269531 34.566406 36.21875 C 34.539062 36.148438 34.511719 36.078125 34.484375 36.007812 C 33.96875 34.75 33.367188 33.527344 32.792969 32.296875 C 32.671875 32.042969 32.554688 31.785156 32.4375 31.527344 C 32.421875 31.5 32.40625 31.46875 32.394531 31.441406 C 32.289062 31.214844 32.183594 30.988281 32.078125 30.765625 C 31.855469 30.289062 31.632812 29.816406 31.398438 29.347656 C 31.300781 29.15625 31.203125 28.960938 31.105469 28.769531 C 31.0625 28.683594 31.128906 28.605469 31.199219 28.597656 C 31.589844 28.253906 31.71875 27.660156 31.953125 27.210938 C 31.96875 27.175781 31.988281 27.140625 32.007812 27.105469 C 32.015625 27.097656 32.019531 27.089844 32.023438 27.082031 C 32.039062 27.054688 32.054688 27.027344 32.070312 27 C 32.078125 26.992188 32.082031 26.980469 32.089844 26.972656 C 32.105469 26.945312 32.121094 26.921875 32.136719 26.894531 C 32.144531 26.886719 32.148438 26.878906 32.15625 26.867188 C 32.171875 26.84375 32.1875 26.816406 32.207031 26.792969 C 32.210938 26.785156 32.21875 26.773438 32.226562 26.765625 C 32.242188 26.742188 32.261719 26.714844 32.277344 26.691406 C 32.285156 26.683594 32.292969 26.675781 32.296875 26.667969 C 32.316406 26.640625 32.335938 26.617188 32.355469 26.59375 C 32.363281 26.585938 32.367188 26.578125 32.375 26.570312 C 32.394531 26.542969 32.417969 26.519531 32.4375 26.492188 C 32.441406 26.488281 32.449219 26.480469 32.453125 26.476562 C 32.476562 26.449219 32.5 26.421875 32.527344 26.394531 C 32.527344 26.394531 32.53125 26.390625 32.53125 26.386719 C 32.53125 26.386719 32.535156 26.386719 32.535156 26.386719 C 32.550781 26.367188 32.570312 26.347656 32.589844 26.328125 C 32.597656 26.320312 32.605469 26.3125 32.613281 26.300781 C 32.628906 26.285156 32.644531 26.273438 32.660156 26.257812 C 32.671875 26.246094 32.683594 26.234375 32.695312 26.222656 C 32.710938 26.210938 32.726562 26.195312 32.738281 26.183594 C 32.753906 26.171875 32.765625 26.160156 32.78125 26.148438 C 32.792969 26.136719 32.808594 26.121094 32.820312 26.109375 C 32.835938 26.097656 32.851562 26.085938 32.867188 26.074219 C 32.878906 26.0625 32.894531 26.050781 32.90625 26.042969 C 32.921875 26.027344 32.9375 26.015625 32.953125 26.003906 C 32.96875 25.996094 32.980469 25.984375 32.996094 25.972656 C 33.011719 25.960938 33.03125 25.949219 33.046875 25.9375 C 33.058594 25.929688 33.074219 25.917969 33.085938 25.910156 C 33.113281 25.890625 33.144531 25.871094 33.175781 25.851562 C 33.445312 25.683594 33.769531 25.640625 34.039062 25.472656 C 34.308594 25.308594 34.449219 25.015625 34.675781 24.804688 C 35.019531 24.484375 35.492188 24.402344 35.945312 24.476562 C 35.964844 24.480469 35.980469 24.492188 35.988281 24.503906 C 36.144531 24.503906 36.316406 24.558594 36.460938 24.601562 C 36.710938 24.679688 36.960938 24.761719 37.207031 24.847656 C 37.53125 24.960938 37.851562 25.085938 38.175781 25.199219 C 38.535156 25.324219 38.871094 25.382812 39.253906 25.375 C 39.859375 25.359375 40.402344 25.367188 40.898438 25.746094 C 41.085938 25.890625 41.265625 26.054688 41.472656 26.164062 C 41.492188 26.175781 41.515625 26.183594 41.535156 26.195312 C 41.539062 26.195312 41.542969 26.199219 41.546875 26.199219 C 41.566406 26.207031 41.585938 26.214844 41.601562 26.222656 C 41.605469 26.222656 41.605469 26.222656 41.605469 26.222656 C 41.625 26.230469 41.644531 26.238281 41.667969 26.242188 C 41.671875 26.242188 41.671875 26.246094 41.675781 26.246094 C 41.695312 26.25 41.710938 26.253906 41.730469 26.257812 C 41.734375 26.257812 41.734375 26.261719 41.738281 26.261719 C 41.757812 26.265625 41.777344 26.269531 41.796875 26.273438 C 41.800781 26.273438 41.804688 26.273438 41.808594 26.273438 C 41.824219 26.277344 41.839844 26.277344 41.859375 26.28125 C 41.863281 26.28125 41.867188 26.28125 41.871094 26.28125 C 41.890625 26.285156 41.910156 26.285156 41.929688 26.285156 C 41.933594 26.285156 41.9375 26.285156 41.945312 26.289062 C 41.960938 26.289062 41.972656 26.289062 41.988281 26.289062 C 41.996094 26.289062 42 26.289062 42.007812 26.289062 C 42.074219 26.292969 42.140625 26.292969 42.210938 26.289062 C 42.570312 26.285156 42.847656 26.375 42.722656 26.785156 C 42.691406 26.882812 42.664062 26.976562 42.632812 27.074219 C 42.621094 27.101562 42.613281 27.128906 42.601562 27.15625 C 42.566406 27.273438 42.527344 27.386719 42.488281 27.5 C 42.484375 27.515625 42.480469 27.535156 42.472656 27.550781 C 42.453125 27.609375 42.433594 27.664062 42.414062 27.722656 C 42.394531 27.789062 42.371094 27.855469 42.351562 27.921875 C 42.339844 27.957031 42.328125 27.988281 42.320312 28.019531 C 42.316406 28.03125 42.3125 28.042969 42.308594 28.054688 C 42.289062 28.121094 42.265625 28.1875 42.246094 28.253906 C 42.242188 28.269531 42.234375 28.289062 42.230469 28.304688 C 42.210938 28.371094 42.195312 28.433594 42.175781 28.496094 C 42.171875 28.511719 42.167969 28.527344 42.160156 28.546875 C 42.140625 28.625 42.117188 28.703125 42.097656 28.78125 C 42.089844 28.820312 42.082031 28.855469 42.074219 28.894531 C 42.070312 28.914062 42.070312 28.933594 42.066406 28.953125 C 42.0625 28.976562 42.058594 28.996094 42.054688 29.015625 C 42.054688 29.023438 42.054688 29.027344 42.054688 29.03125 C 42.050781 29.058594 42.046875 29.085938 42.046875 29.113281 C 42.042969 29.15625 42.039062 29.195312 42.035156 29.238281 C 42.035156 29.253906 42.035156 29.265625 42.03125 29.28125 C 42.03125 29.332031 42.027344 29.390625 42.023438 29.445312 C 42.023438 29.460938 42.023438 29.476562 42.023438 29.492188 C 42.023438 29.542969 42.019531 29.597656 42.019531 29.652344 C 42.019531 29.710938 42.015625 29.773438 42.015625 29.832031 C 42.003906 30.203125 41.992188 30.578125 41.980469 30.949219 C 41.972656 31.261719 41.964844 31.574219 41.953125 31.886719 C 41.949219 32.136719 41.941406 32.382812 41.933594 32.628906 C 41.921875 33.121094 41.90625 33.613281 41.890625 34.105469 C 41.882812 34.398438 41.875 34.6875 41.863281 34.980469 C 41.863281 35.011719 41.863281 35.046875 41.863281 35.082031 C 41.859375 35.089844 41.859375 35.097656 41.859375 35.109375 C 41.851562 35.394531 41.84375 35.679688 41.832031 35.964844 C 41.832031 35.984375 41.828125 36.003906 41.828125 36.019531 C 41.828125 36.039062 41.828125 36.058594 41.828125 36.078125 Z M 41.828125 36.078125 " fill-opacity="1" fill-rule="nonzero"/><path fill="#fedebd" d="M 35.644531 32.835938 C 35.769531 33.273438 35.835938 33.738281 35.777344 34.191406 C 35.726562 34.59375 35.628906 35 35.472656 35.386719 C 35.324219 35.738281 35.128906 36.101562 34.800781 36.351562 C 31.304688 45.6875 27.21875 49.410156 26.585938 49.953125 C 26.539062 49.96875 26.492188 49.988281 26.441406 50 C 26.390625 50.011719 26.355469 50.039062 26.328125 50.070312 C 24.4375 50.570312 23.65625 49.460938 23.332031 48.339844 C 23.332031 48.339844 22.09375 44.449219 24.222656 38.800781 C 24.222656 38.800781 26.769531 37.65625 28.585938 38.832031 C 30.582031 36.886719 32.410156 35.367188 32.632812 35.179688 C 32.628906 35.066406 32.621094 34.953125 32.609375 34.84375 C 32.59375 34.683594 32.574219 34.523438 32.566406 34.367188 C 32.554688 34.164062 32.570312 33.960938 32.566406 33.757812 C 32.550781 33.253906 32.398438 32.765625 32.382812 32.261719 C 32.371094 31.753906 32.421875 31.246094 32.382812 30.738281 C 32.335938 30.105469 32.359375 29.476562 32.421875 28.84375 C 32.464844 28.445312 32.496094 28.042969 32.589844 27.648438 C 32.652344 27.378906 32.730469 27.042969 32.953125 26.835938 C 33.179688 26.625 33.4375 26.765625 33.621094 26.945312 C 33.671875 26.90625 33.71875 26.863281 33.789062 26.875 C 33.921875 26.898438 34.027344 26.972656 34.101562 27.070312 C 34.117188 27.101562 34.128906 27.132812 34.144531 27.164062 C 34.144531 27.175781 34.148438 27.183594 34.152344 27.191406 C 34.164062 27.21875 34.171875 27.246094 34.179688 27.269531 C 34.183594 27.277344 34.183594 27.285156 34.1875 27.289062 C 34.207031 27.355469 34.222656 27.425781 34.234375 27.492188 C 34.234375 27.496094 34.234375 27.496094 34.234375 27.5 C 34.234375 27.5 34.234375 27.496094 34.234375 27.496094 C 34.265625 27.664062 34.273438 27.832031 34.269531 28.003906 C 34.269531 28.007812 34.269531 28.011719 34.269531 28.015625 C 34.265625 28.132812 34.257812 28.25 34.25 28.367188 C 34.25 28.371094 34.253906 28.375 34.253906 28.378906 C 34.253906 28.390625 34.257812 28.398438 34.261719 28.40625 C 34.285156 28.429688 34.320312 28.429688 34.351562 28.445312 C 34.429688 28.484375 34.496094 28.582031 34.542969 28.652344 C 34.554688 28.671875 34.566406 28.695312 34.578125 28.714844 C 34.582031 28.714844 34.582031 28.71875 34.582031 28.722656 C 34.589844 28.738281 34.597656 28.757812 34.605469 28.773438 C 34.609375 28.78125 34.613281 28.789062 34.613281 28.792969 C 34.621094 28.816406 34.628906 28.839844 34.636719 28.859375 C 34.644531 28.972656 34.648438 29.089844 34.652344 29.203125 C 34.664062 29.464844 34.683594 29.730469 34.703125 29.996094 C 34.738281 30.542969 34.800781 31.082031 35.027344 31.589844 C 35.035156 31.589844 35.042969 31.59375 35.042969 31.597656 C 35.101562 31.703125 35.152344 31.804688 35.21875 31.902344 C 35.285156 32 35.34375 32.097656 35.394531 32.199219 C 35.5 32.40625 35.582031 32.617188 35.644531 32.835938 Z M 56.488281 39.417969 C 54.222656 37.472656 49.066406 38.800781 49.066406 38.800781 L 42.816406 34.167969 C 42.828125 33.640625 42.726562 33.113281 42.617188 32.597656 C 42.546875 32.277344 42.472656 31.960938 42.433594 31.636719 C 42.390625 31.316406 42.378906 30.992188 42.371094 30.671875 C 42.359375 30.273438 42.351562 29.871094 42.308594 29.472656 C 42.285156 29.269531 42.171875 28.972656 41.910156 28.933594 C 41.632812 28.894531 41.449219 29.21875 41.398438 29.40625 C 41.316406 29.683594 41.351562 29.976562 41.355469 30.257812 C 41.292969 30.09375 41.230469 29.929688 41.167969 29.765625 C 40.953125 29.195312 40.828125 28.605469 40.574219 28.046875 C 40.429688 27.734375 40.242188 27.460938 40.007812 27.199219 C 39.792969 26.960938 39.53125 26.695312 39.207031 26.574219 C 39.003906 26.5 38.828125 26.550781 38.714844 26.695312 C 38.535156 26.453125 38.347656 26.21875 38.160156 25.980469 C 37.960938 25.730469 37.550781 25.363281 37.210938 25.671875 C 37.011719 25.851562 37.050781 26.171875 37.125 26.40625 C 37.109375 26.398438 37.089844 26.386719 37.074219 26.375 C 36.90625 26.292969 36.738281 26.394531 36.625 26.503906 C 36.3125 26.800781 36.425781 27.222656 36.582031 27.554688 C 36.769531 27.949219 37.050781 28.304688 37.183594 28.714844 C 37.398438 29.371094 37.71875 29.992188 37.972656 30.636719 C 37.972656 30.640625 37.972656 30.640625 37.972656 30.644531 C 37.972656 30.648438 37.96875 30.648438 37.96875 30.648438 C 38.019531 30.769531 38.054688 30.898438 38.046875 31.027344 C 38.046875 31.046875 38.03125 31.0625 38.011719 31.0625 C 37.976562 31.0625 37.949219 31.035156 37.929688 31 C 37.925781 31.007812 37.925781 31.019531 37.925781 31.027344 C 37.828125 30.886719 37.726562 30.75 37.644531 30.609375 C 37.363281 30.152344 37.136719 29.675781 36.902344 29.203125 C 36.820312 29.035156 36.714844 28.875 36.546875 28.761719 C 36.425781 28.679688 36.230469 28.628906 36.085938 28.691406 C 35.847656 28.792969 35.863281 29.148438 35.878906 29.371094 C 35.875 29.371094 35.875 29.375 35.871094 29.375 C 35.871094 29.386719 35.871094 29.398438 35.871094 29.410156 C 35.878906 29.441406 35.886719 29.476562 35.890625 29.511719 C 36.0625 30.082031 36.3125 30.628906 36.554688 31.179688 C 36.8125 31.761719 37.035156 32.355469 37.292969 32.9375 C 37.757812 34.003906 38.425781 34.976562 39.308594 35.8125 C 39.53125 36.023438 39.765625 36.226562 40.03125 36.398438 C 40.222656 36.523438 40.445312 36.636719 40.683594 36.664062 L 40.6875 36.664062 C 40.6875 36.664062 49.488281 51.605469 53.65625 49.097656 C 57.339844 48.125 56.488281 39.417969 56.488281 39.417969 Z M 56.488281 39.417969 " fill-opacity="1" fill-rule="nonzero"/><g clip-path="url(#id2)"><path fill="#697a78" d="M 42.871094 22.613281 C 42.871094 23.28125 42.792969 23.925781 42.582031 24.5625 C 42.492188 24.835938 42.421875 25.136719 42.28125 25.394531 C 42.15625 25.617188 41.953125 25.773438 41.785156 25.960938 C 41.785156 25.964844 41.789062 25.964844 41.789062 25.964844 C 41.785156 25.96875 41.78125 25.96875 41.777344 25.96875 C 41.765625 25.972656 41.753906 25.980469 41.738281 25.984375 C 41.734375 25.976562 41.734375 25.96875 41.730469 25.960938 C 41.726562 25.949219 41.71875 25.941406 41.714844 25.933594 C 41.71875 25.933594 41.722656 25.933594 41.722656 25.9375 C 41.667969 25.824219 41.621094 25.707031 41.570312 25.589844 C 41.480469 25.367188 41.34375 25.15625 41.292969 24.917969 C 41.292969 24.910156 41.292969 24.898438 41.304688 24.894531 C 41.347656 24.871094 41.390625 24.851562 41.4375 24.835938 C 41.445312 24.832031 41.449219 24.832031 41.453125 24.835938 C 41.644531 24.742188 41.839844 24.648438 41.976562 24.480469 C 42.160156 24.265625 42.273438 23.980469 42.332031 23.703125 C 42.449219 23.136719 42.351562 22.507812 42.164062 21.960938 C 42.089844 21.753906 41.964844 21.480469 41.722656 21.417969 C 41.554688 21.375 41.390625 21.449219 41.257812 21.550781 C 40.980469 21.765625 40.773438 22.070312 40.605469 22.371094 C 40.601562 22.378906 40.589844 22.382812 40.582031 22.378906 C 40.578125 22.378906 40.578125 22.382812 40.574219 22.382812 C 40.570312 22.382812 40.566406 22.378906 40.566406 22.378906 C 40.5625 22.382812 40.558594 22.382812 40.550781 22.382812 C 40.234375 22.214844 39.945312 21.9375 39.722656 21.660156 C 39.488281 21.371094 39.261719 21.074219 39.078125 20.75 C 38.890625 20.421875 38.738281 20.078125 38.609375 19.71875 C 38.558594 19.570312 38.519531 19.417969 38.480469 19.265625 C 38.484375 19.265625 38.484375 19.261719 38.484375 19.257812 C 38.484375 19.257812 38.484375 19.253906 38.484375 19.253906 C 38.484375 19.25 38.484375 19.25 38.484375 19.246094 C 38.484375 19.246094 38.480469 19.246094 38.480469 19.242188 C 38.480469 19.242188 38.480469 19.242188 38.480469 19.238281 C 38.480469 19.238281 38.476562 19.234375 38.476562 19.234375 C 38.476562 19.234375 38.472656 19.230469 38.472656 19.230469 C 38.472656 19.230469 38.46875 19.226562 38.46875 19.226562 C 38.46875 19.226562 38.464844 19.222656 38.464844 19.222656 C 38.464844 19.222656 38.460938 19.222656 38.460938 19.21875 C 38.457031 19.21875 38.457031 19.21875 38.457031 19.21875 C 38.453125 19.21875 38.449219 19.21875 38.445312 19.21875 C 38.449219 19.214844 38.449219 19.210938 38.453125 19.210938 C 38.441406 19.214844 38.425781 19.214844 38.414062 19.21875 C 38.40625 19.210938 38.398438 19.207031 38.390625 19.199219 C 38.386719 19.195312 38.378906 19.191406 38.371094 19.1875 C 38.34375 19.167969 38.304688 19.152344 38.257812 19.152344 C 38.175781 19.152344 38.117188 19.191406 38.085938 19.242188 C 38.074219 19.257812 38.066406 19.273438 38.0625 19.289062 C 37.820312 19.328125 37.578125 19.351562 37.339844 19.378906 C 36.929688 19.429688 36.515625 19.453125 36.101562 19.4375 C 35.726562 19.425781 35.351562 19.390625 34.988281 19.308594 C 34.96875 19.304688 34.949219 19.300781 34.933594 19.296875 C 34.671875 19.527344 34.328125 19.605469 33.996094 19.664062 C 33.808594 19.699219 33.617188 19.730469 33.433594 19.785156 C 33.242188 19.839844 33.078125 19.925781 32.914062 20.03125 C 32.558594 20.265625 32.195312 20.523438 31.777344 20.636719 C 31.492188 20.710938 31.175781 20.730469 30.882812 20.679688 C 30.882812 21.171875 30.941406 21.660156 31.03125 22.144531 C 31.074219 22.386719 31.125 22.628906 31.183594 22.871094 C 31.210938 22.992188 31.238281 23.117188 31.285156 23.234375 C 31.324219 23.335938 31.371094 23.433594 31.40625 23.539062 C 31.417969 23.558594 31.386719 23.570312 31.375 23.558594 C 31.371094 23.558594 31.367188 23.5625 31.363281 23.5625 C 31.261719 23.601562 31.140625 23.566406 31.042969 23.53125 C 30.898438 23.480469 30.757812 23.414062 30.625 23.335938 C 30.34375 23.167969 30.109375 22.953125 29.953125 22.660156 C 29.953125 22.660156 29.949219 22.65625 29.949219 22.65625 C 29.949219 22.652344 29.949219 22.648438 29.945312 22.648438 C 29.945312 22.644531 29.945312 22.644531 29.941406 22.640625 C 29.941406 22.640625 29.941406 22.636719 29.941406 22.636719 C 29.941406 22.636719 29.941406 22.636719 29.941406 22.632812 C 29.851562 22.425781 29.742188 22 30.042969 21.957031 C 29.945312 21.890625 29.855469 21.8125 29.765625 21.734375 C 29.519531 21.511719 29.261719 21.25 29.15625 20.933594 C 29.078125 20.714844 29.070312 20.289062 29.371094 20.226562 C 29.402344 20.222656 29.4375 20.21875 29.46875 20.21875 C 29.382812 20.121094 29.261719 20.046875 29.164062 19.960938 C 29.066406 19.871094 28.96875 19.78125 28.882812 19.675781 C 28.726562 19.492188 28.613281 19.28125 28.515625 19.0625 C 28.355469 18.699219 28.175781 18.242188 28.285156 17.84375 C 28.332031 17.671875 28.441406 17.5 28.613281 17.4375 C 28.820312 17.359375 29.054688 17.417969 29.253906 17.492188 C 29.472656 17.578125 29.691406 17.6875 29.898438 17.796875 C 29.945312 17.824219 29.992188 17.847656 30.039062 17.871094 C 30.003906 17.828125 29.976562 17.785156 29.960938 17.761719 C 29.679688 17.332031 29.617188 16.726562 29.828125 16.257812 C 29.929688 16.03125 30.082031 15.785156 30.316406 15.679688 C 30.429688 15.625 30.550781 15.59375 30.675781 15.5625 C 30.800781 15.53125 30.917969 15.492188 31.054688 15.503906 C 31.375 15.523438 31.695312 15.488281 32.011719 15.527344 C 32.1875 15.546875 32.359375 15.585938 32.53125 15.601562 C 32.691406 15.613281 32.855469 15.617188 33.015625 15.625 C 33.082031 15.625 33.148438 15.628906 33.214844 15.632812 C 33.214844 15.628906 33.210938 15.625 33.210938 15.621094 C 33.199219 15.609375 33.191406 15.59375 33.1875 15.578125 C 33.171875 15.539062 33.164062 15.496094 33.160156 15.453125 C 33.152344 15.351562 33.164062 15.238281 33.199219 15.140625 C 33.273438 14.941406 33.460938 14.789062 33.65625 14.71875 C 33.945312 14.617188 34.28125 14.59375 34.585938 14.574219 C 34.921875 14.554688 35.257812 14.554688 35.59375 14.582031 C 36.269531 14.636719 36.945312 14.765625 37.605469 14.910156 C 37.914062 14.976562 38.222656 15.058594 38.515625 15.171875 C 38.792969 15.28125 39.050781 15.425781 39.304688 15.574219 C 39.761719 15.84375 40.238281 16.140625 40.535156 16.59375 C 40.691406 16.828125 40.859375 17.152344 40.867188 17.460938 C 41.601562 17.75 42.027344 18.492188 42.292969 19.203125 C 42.460938 19.667969 42.585938 20.144531 42.675781 20.628906 C 42.796875 21.285156 42.871094 21.949219 42.871094 22.613281 Z M 42.871094 22.613281 " fill-opacity="1" fill-rule="nonzero"/></g><path fill="#cce5df" d="M 38.625 20.875 C 38.523438 21.074219 38.335938 21.226562 38.125 21.296875 C 37.796875 21.402344 37.457031 21.464844 37.113281 21.496094 C 36.363281 21.566406 35.617188 21.585938 34.875 21.703125 C 34.164062 21.8125 33.476562 21.984375 32.789062 22.179688 C 32.488281 22.265625 32.183594 22.355469 31.90625 22.496094 C 31.761719 22.570312 31.621094 22.648438 31.503906 22.753906 C 31.417969 22.835938 31.339844 22.925781 31.246094 23 C 31.242188 23.007812 31.230469 23.015625 31.21875 23.019531 C 31.21875 23.019531 31.21875 23.019531 31.21875 23.023438 C 31.214844 23.023438 31.214844 23.023438 31.214844 23.023438 C 31.210938 23.023438 31.210938 23.023438 31.210938 23.023438 C 31.207031 23.027344 31.199219 23.027344 31.195312 23.023438 C 31.191406 23.023438 31.191406 23.019531 31.191406 23.019531 C 31.191406 23.019531 31.191406 23.019531 31.1875 23.019531 C 31.007812 22.816406 30.902344 22.582031 30.855469 22.316406 C 30.804688 22.042969 30.769531 21.78125 30.667969 21.519531 C 30.488281 21.058594 30.246094 20.492188 30.667969 20.082031 C 31.097656 19.660156 31.65625 19.371094 32.203125 19.140625 C 32.804688 18.886719 33.453125 18.757812 34.089844 18.628906 C 34.445312 18.558594 34.796875 18.46875 35.148438 18.394531 C 35.492188 18.324219 35.832031 18.273438 36.175781 18.234375 C 36.503906 18.199219 36.839844 18.164062 37.167969 18.191406 C 37.425781 18.214844 37.714844 18.253906 37.925781 18.414062 C 38.273438 18.679688 38.414062 19.191406 38.527344 19.59375 C 38.636719 19.992188 38.828125 20.476562 38.625 20.875 Z M 38.625 20.875 " fill-opacity="1" fill-rule="nonzero"/><path fill="#3d3f3f" d="M 29.445312 20.222656 C 29.421875 20.203125 29.457031 20.171875 29.476562 20.191406 C 29.496094 20.207031 29.519531 20.191406 29.535156 20.203125 C 29.574219 20.230469 29.613281 20.253906 29.65625 20.273438 C 29.742188 20.316406 29.832031 20.351562 29.921875 20.378906 C 30.089844 20.425781 30.257812 20.460938 30.425781 20.496094 C 30.453125 20.5 30.441406 20.546875 30.410156 20.539062 C 30.207031 20.496094 30 20.460938 29.804688 20.386719 C 29.726562 20.359375 29.644531 20.324219 29.570312 20.28125 C 29.53125 20.257812 29.480469 20.257812 29.445312 20.222656 Z M 30.019531 21.972656 C 30.261719 22.109375 30.5625 22.078125 30.808594 22.203125 C 30.820312 22.210938 30.832031 22.203125 30.835938 22.195312 C 30.832031 22.183594 30.828125 22.171875 30.824219 22.160156 C 30.578125 22.039062 30.28125 22.070312 30.042969 21.933594 C 30.019531 21.917969 29.996094 21.957031 30.019531 21.972656 Z M 30.644531 18.09375 C 30.957031 18.140625 31.296875 18.117188 31.605469 18.085938 C 32.316406 18.015625 33.011719 17.867188 33.699219 17.679688 C 34.054688 17.582031 34.414062 17.488281 34.777344 17.40625 C 35.140625 17.324219 35.515625 17.242188 35.890625 17.21875 C 36.261719 17.195312 36.640625 17.234375 37.007812 17.300781 C 37.347656 17.363281 37.679688 17.457031 37.988281 17.613281 C 38.191406 17.714844 38.339844 17.847656 38.492188 18.011719 C 38.527344 18.046875 38.808594 18.351562 38.796875 18.4375 C 38.8125 18.449219 38.816406 18.46875 38.808594 18.480469 C 38.808594 18.488281 38.804688 18.496094 38.796875 18.496094 C 38.792969 18.5 38.792969 18.5 38.789062 18.5 C 38.792969 18.5 38.792969 18.5 38.792969 18.5 C 38.605469 18.722656 38.476562 18.988281 38.480469 19.28125 C 38.480469 19.3125 38.527344 19.3125 38.527344 19.28125 C 38.523438 18.960938 38.683594 18.683594 38.898438 18.453125 C 38.902344 18.464844 38.90625 18.472656 38.921875 18.472656 C 39.1875 18.464844 39.429688 18.761719 39.585938 18.953125 C 39.792969 19.214844 39.96875 19.515625 40.128906 19.808594 C 40.308594 20.132812 40.445312 20.480469 40.574219 20.832031 C 40.695312 21.164062 40.804688 21.503906 40.890625 21.847656 C 40.902344 21.867188 40.910156 21.890625 40.917969 21.910156 C 40.925781 21.898438 40.933594 21.886719 40.945312 21.878906 C 40.855469 21.503906 40.734375 21.140625 40.601562 20.78125 C 40.46875 20.414062 40.316406 20.050781 40.128906 19.710938 C 39.96875 19.429688 39.796875 19.144531 39.59375 18.894531 C 39.5 18.777344 39.394531 18.664062 39.273438 18.574219 C 39.214844 18.527344 39.148438 18.488281 39.082031 18.453125 C 39.050781 18.4375 39.019531 18.421875 38.988281 18.410156 C 38.980469 18.40625 38.945312 18.414062 38.929688 18.421875 C 39.070312 18.28125 39.230469 18.160156 39.386719 18.058594 C 39.457031 18.015625 39.523438 17.972656 39.597656 17.929688 C 39.609375 17.933594 39.621094 17.925781 39.621094 17.914062 C 39.738281 17.84375 39.859375 17.777344 39.980469 17.71875 C 39.988281 17.726562 40 17.734375 40.011719 17.726562 C 40.066406 17.699219 40.179688 17.800781 40.21875 17.828125 C 40.304688 17.894531 40.382812 17.972656 40.460938 18.046875 C 40.625 18.203125 40.773438 18.367188 40.910156 18.550781 C 41.300781 19.085938 41.574219 19.726562 41.820312 20.339844 C 42.082031 21 42.277344 21.691406 42.390625 22.394531 C 42.5 23.089844 42.566406 23.863281 42.3125 24.535156 C 42.160156 24.945312 41.871094 25.28125 41.558594 25.578125 C 41.566406 25.597656 41.578125 25.613281 41.585938 25.632812 C 41.59375 25.628906 41.597656 25.621094 41.597656 25.613281 C 41.597656 25.609375 41.597656 25.609375 41.597656 25.605469 C 42.042969 25.175781 42.378906 24.691406 42.488281 24.066406 C 42.542969 23.738281 42.53125 23.394531 42.511719 23.0625 C 42.488281 22.722656 42.441406 22.382812 42.375 22.042969 C 42.242188 21.363281 42.027344 20.6875 41.75 20.050781 C 41.492188 19.464844 41.230469 18.871094 40.828125 18.367188 C 40.691406 18.191406 40.527344 18.039062 40.363281 17.890625 C 40.304688 17.839844 40.171875 17.699219 40.066406 17.679688 C 40.210938 17.613281 40.363281 17.5625 40.515625 17.53125 C 40.515625 17.53125 40.515625 17.53125 40.519531 17.53125 C 40.523438 17.53125 40.53125 17.527344 40.539062 17.527344 C 40.546875 17.527344 40.554688 17.527344 40.5625 17.527344 C 40.5625 17.527344 40.5625 17.523438 40.5625 17.523438 C 40.5625 17.523438 40.5625 17.519531 40.5625 17.519531 C 40.65625 17.503906 40.746094 17.496094 40.835938 17.5 C 40.839844 17.5 40.84375 17.503906 40.84375 17.507812 C 40.855469 17.519531 40.878906 17.511719 40.882812 17.496094 C 40.882812 17.492188 40.886719 17.488281 40.886719 17.484375 C 40.890625 17.46875 40.878906 17.453125 40.863281 17.453125 C 40.761719 17.449219 40.660156 17.457031 40.558594 17.472656 C 40.527344 17.242188 40.492188 17.03125 40.375 16.820312 C 40.246094 16.582031 40.058594 16.378906 39.871094 16.191406 C 39.675781 15.996094 39.46875 15.808594 39.25 15.644531 C 38.988281 15.449219 38.703125 15.289062 38.421875 15.125 C 38.398438 15.109375 38.375 15.152344 38.398438 15.167969 C 38.65625 15.316406 38.917969 15.464844 39.160156 15.636719 C 39.386719 15.796875 39.589844 15.984375 39.789062 16.175781 C 39.980469 16.359375 40.160156 16.558594 40.300781 16.785156 C 40.367188 16.894531 40.421875 17.015625 40.460938 17.144531 C 40.488281 17.234375 40.496094 17.328125 40.507812 17.417969 C 40.527344 17.4375 40.523438 17.484375 40.484375 17.484375 L 40.472656 17.484375 C 40.472656 17.484375 40.476562 17.488281 40.476562 17.488281 C 40.175781 17.558594 39.886719 17.703125 39.617188 17.863281 C 39.59375 17.65625 39.503906 17.4375 39.40625 17.257812 C 39.296875 17.0625 39.148438 16.890625 38.984375 16.738281 C 38.640625 16.417969 38.207031 16.203125 37.769531 16.039062 C 37.3125 15.859375 36.828125 15.734375 36.347656 15.644531 C 35.632812 15.507812 34.902344 15.546875 34.183594 15.578125 C 34.023438 15.585938 33.867188 15.582031 33.710938 15.597656 C 33.558594 15.617188 33.402344 15.648438 33.246094 15.617188 C 33.21875 15.613281 33.207031 15.65625 33.234375 15.664062 C 33.367188 15.691406 33.503906 15.671875 33.636719 15.65625 C 33.804688 15.632812 33.96875 15.632812 34.140625 15.628906 C 34.507812 15.613281 34.871094 15.59375 35.234375 15.59375 C 35.867188 15.601562 36.480469 15.699219 37.089844 15.867188 C 37.992188 16.113281 39.074219 16.539062 39.457031 17.476562 C 39.5 17.582031 39.546875 17.714844 39.566406 17.835938 C 39.578125 17.851562 39.582031 17.867188 39.578125 17.886719 C 39.578125 17.890625 39.578125 17.890625 39.574219 17.890625 C 39.574219 17.894531 39.570312 17.902344 39.570312 17.90625 C 39.558594 17.914062 39.546875 17.917969 39.53125 17.914062 C 39.464844 17.957031 39.398438 17.996094 39.335938 18.039062 C 39.164062 18.148438 38.988281 18.285156 38.84375 18.441406 C 38.851562 18.28125 38.457031 17.90625 38.402344 17.851562 C 38.027344 17.484375 37.476562 17.339844 36.976562 17.25 C 36.632812 17.1875 36.28125 17.15625 35.929688 17.167969 C 35.582031 17.183594 35.234375 17.257812 34.894531 17.332031 C 34.175781 17.488281 33.476562 17.710938 32.757812 17.863281 C 32.253906 17.964844 31.738281 18.050781 31.222656 18.0625 C 31.007812 18.070312 30.78125 18.074219 30.570312 18.03125 C 30.402344 18 30.1875 17.953125 30.046875 17.847656 C 30.023438 17.828125 29.992188 17.859375 30.015625 17.878906 C 30.183594 18.011719 30.441406 18.058594 30.644531 18.09375 Z M 41.820312 22.136719 C 41.839844 22.160156 41.875 22.128906 41.855469 22.105469 C 41.582031 21.785156 41.117188 22.679688 41.058594 22.871094 C 41.058594 22.878906 41.058594 22.882812 41.058594 22.886719 C 41.0625 22.894531 41.066406 22.898438 41.074219 22.898438 C 41.40625 22.980469 41.429688 23.359375 41.429688 23.632812 C 41.429688 23.664062 41.476562 23.664062 41.476562 23.632812 C 41.476562 23.347656 41.441406 22.960938 41.109375 22.863281 C 41.1875 22.652344 41.605469 21.882812 41.820312 22.136719 Z M 41.164062 24.96875 C 41.210938 24.953125 41.257812 24.949219 41.300781 24.941406 C 41.296875 24.925781 41.296875 24.910156 41.292969 24.898438 C 41.246094 24.90625 41.199219 24.910156 41.152344 24.921875 C 41.125 24.933594 41.136719 24.976562 41.164062 24.96875 Z M 30.894531 21.640625 C 30.84375 21.496094 30.761719 21.367188 30.710938 21.222656 C 30.65625 21.066406 30.605469 20.882812 30.621094 20.710938 C 30.621094 20.707031 30.617188 20.699219 30.621094 20.695312 C 30.621094 20.691406 30.625 20.691406 30.625 20.6875 C 30.628906 20.652344 30.636719 20.617188 30.648438 20.585938 C 30.65625 20.515625 30.660156 20.445312 30.6875 20.378906 C 30.75 20.175781 30.972656 20.027344 31.152344 19.925781 C 31.296875 19.847656 31.449219 19.777344 31.59375 19.699219 C 31.78125 19.597656 31.964844 19.492188 32.167969 19.414062 C 32.421875 19.320312 32.679688 19.246094 32.9375 19.171875 C 33.191406 19.101562 33.445312 19.007812 33.703125 18.960938 C 33.847656 18.933594 33.992188 18.917969 34.136719 18.890625 C 34.28125 18.863281 34.421875 18.820312 34.566406 18.785156 C 34.835938 18.726562 35.105469 18.675781 35.375 18.625 C 36.003906 18.511719 36.675781 18.398438 37.3125 18.496094 C 37.492188 18.523438 37.734375 18.582031 37.816406 18.765625 C 37.953125 19.054688 37.816406 19.394531 37.925781 19.691406 C 38.011719 19.933594 38.195312 20.160156 38.179688 20.429688 C 38.164062 20.636719 38.078125 20.847656 37.863281 20.914062 C 37.628906 20.984375 37.34375 20.960938 37.101562 20.964844 C 36.71875 20.96875 36.351562 21.011719 35.972656 21.082031 C 34.644531 21.328125 33.261719 21.441406 32.019531 22.019531 C 31.871094 22.089844 31.722656 22.167969 31.578125 22.25 C 31.488281 22.296875 31.394531 22.351562 31.296875 22.375 C 31.117188 22.421875 30.996094 22.332031 30.972656 22.148438 C 30.949219 21.980469 30.949219 21.800781 30.894531 21.640625 Z M 30.875 21.476562 C 30.9375 21.617188 30.972656 21.753906 30.988281 21.902344 C 31.003906 22.023438 30.988281 22.308594 31.152344 22.339844 C 31.269531 22.363281 31.398438 22.292969 31.5 22.238281 C 31.644531 22.160156 31.78125 22.082031 31.925781 22.011719 C 32.214844 21.875 32.511719 21.761719 32.816406 21.664062 C 33.453125 21.464844 34.113281 21.339844 34.769531 21.234375 C 35.109375 21.183594 35.449219 21.132812 35.785156 21.070312 C 36.132812 21.003906 36.484375 20.929688 36.839844 20.921875 C 37.03125 20.917969 37.21875 20.917969 37.410156 20.910156 C 37.523438 20.90625 37.640625 20.910156 37.753906 20.890625 C 37.886719 20.867188 38.003906 20.8125 38.066406 20.6875 C 38.140625 20.542969 38.15625 20.367188 38.101562 20.210938 C 38.011719 19.933594 37.832031 19.710938 37.828125 19.410156 C 37.824219 19.105469 37.894531 18.726562 37.539062 18.597656 C 37.289062 18.507812 37.003906 18.507812 36.742188 18.511719 C 36.359375 18.519531 35.980469 18.566406 35.609375 18.632812 C 35.25 18.695312 34.890625 18.757812 34.535156 18.839844 C 34.351562 18.882812 34.167969 18.933594 33.976562 18.960938 C 33.800781 18.988281 33.628906 19.015625 33.457031 19.070312 C 33.136719 19.171875 32.804688 19.25 32.484375 19.351562 C 32.175781 19.453125 31.902344 19.589844 31.617188 19.738281 C 31.429688 19.839844 31.238281 19.921875 31.0625 20.035156 C 30.960938 20.101562 30.859375 20.175781 30.789062 20.273438 C 30.78125 20.289062 30.753906 20.347656 30.734375 20.40625 C 30.730469 20.40625 30.730469 20.40625 30.726562 20.40625 C 30.6875 20.5 30.703125 20.609375 30.667969 20.703125 C 30.628906 20.964844 30.78125 21.253906 30.875 21.476562 Z M 37.636719 22.015625 C 37.09375 21.914062 36.5625 22.128906 36.097656 22.386719 C 35.945312 22.472656 35.066406 23.085938 34.988281 22.667969 C 34.984375 22.640625 34.9375 22.652344 34.945312 22.679688 C 35.011719 23.042969 35.585938 22.746094 35.761719 22.640625 C 36.3125 22.300781 36.949219 21.933594 37.625 22.058594 C 37.652344 22.066406 37.664062 22.019531 37.636719 22.015625 Z M 33.414062 23.359375 C 33.519531 23.359375 33.585938 23.296875 33.628906 23.199219 C 33.636719 23.171875 33.59375 23.160156 33.582031 23.1875 C 33.507812 23.371094 33.308594 23.304688 33.15625 23.296875 C 32.976562 23.285156 32.796875 23.289062 32.621094 23.328125 C 32.351562 23.386719 32.050781 23.476562 31.882812 23.714844 C 31.867188 23.738281 31.90625 23.761719 31.921875 23.738281 C 32.125 23.449219 32.574219 23.355469 32.902344 23.339844 C 33.074219 23.332031 33.242188 23.363281 33.414062 23.359375 Z M 37.269531 23.011719 C 36.785156 23.109375 36.382812 23.414062 35.980469 23.683594 C 35.964844 23.695312 35.972656 23.722656 35.988281 23.726562 C 35.992188 23.730469 35.996094 23.738281 36.003906 23.738281 C 36.460938 23.847656 36.945312 23.78125 37.402344 23.898438 C 37.429688 23.90625 37.445312 23.863281 37.414062 23.855469 C 36.984375 23.746094 36.535156 23.796875 36.105469 23.710938 C 36.519531 23.648438 36.929688 23.53125 37.351562 23.484375 C 37.378906 23.480469 37.378906 23.433594 37.351562 23.4375 C 36.925781 23.484375 36.511719 23.601562 36.085938 23.667969 C 36.457031 23.414062 36.832031 23.148438 37.28125 23.054688 C 37.3125 23.050781 37.296875 23.003906 37.269531 23.011719 Z M 32.960938 25.074219 C 33.199219 24.886719 33.445312 24.707031 33.683594 24.523438 C 33.707031 24.527344 33.722656 24.496094 33.699219 24.480469 C 33.378906 24.300781 32.988281 24.335938 32.632812 24.34375 C 32.601562 24.34375 32.601562 24.390625 32.632812 24.390625 C 32.960938 24.382812 33.320312 24.347656 33.625 24.496094 C 33.550781 24.519531 33.464844 24.515625 33.386719 24.523438 C 33.285156 24.535156 33.183594 24.554688 33.082031 24.578125 C 32.890625 24.625 32.695312 24.6875 32.523438 24.792969 C 32.5 24.808594 32.523438 24.847656 32.546875 24.832031 C 32.738281 24.714844 32.960938 24.652344 33.179688 24.601562 C 33.300781 24.578125 33.4375 24.582031 33.5625 24.558594 C 33.351562 24.71875 33.136719 24.875 32.929688 25.039062 C 32.90625 25.058594 32.9375 25.089844 32.960938 25.074219 Z M 34.113281 23.105469 C 34.101562 23.078125 34.058594 23.089844 34.070312 23.121094 C 34.171875 23.402344 34.308594 23.675781 34.414062 23.960938 C 34.464844 24.097656 34.507812 24.242188 34.5625 24.378906 C 34.609375 24.496094 34.675781 24.625 34.667969 24.757812 C 34.667969 24.785156 34.714844 24.785156 34.714844 24.757812 C 34.71875 24.652344 34.679688 24.550781 34.644531 24.457031 C 34.589844 24.316406 34.539062 24.175781 34.488281 24.03125 C 34.378906 23.71875 34.226562 23.417969 34.113281 23.105469 Z M 34.828125 22.976562 C 34.667969 22.933594 34.511719 22.785156 34.484375 22.621094 C 34.476562 22.589844 34.433594 22.605469 34.4375 22.632812 C 34.472656 22.8125 34.640625 22.972656 34.8125 23.019531 C 34.84375 23.027344 34.855469 22.984375 34.828125 22.976562 Z M 39.296875 30.554688 C 39.230469 30.175781 39.011719 29.847656 38.835938 29.511719 C 38.636719 29.121094 38.488281 28.707031 38.304688 28.308594 C 38.109375 27.898438 37.875 27.519531 37.632812 27.136719 C 37.539062 26.988281 37.449219 26.839844 37.367188 26.6875 C 37.308594 26.570312 37.242188 26.433594 37.128906 26.359375 C 37.101562 26.34375 37.078125 26.382812 37.105469 26.402344 C 37.148438 26.425781 37.183594 26.464844 37.214844 26.507812 C 37.101562 26.488281 36.953125 26.574219 36.863281 26.617188 C 36.6875 26.703125 36.558594 26.832031 36.476562 27.011719 C 36.464844 27.039062 36.507812 27.0625 36.519531 27.035156 C 36.585938 26.882812 36.691406 26.757812 36.84375 26.679688 C 36.9375 26.632812 37.121094 26.515625 37.234375 26.5625 C 37.238281 26.5625 37.246094 26.5625 37.25 26.5625 C 37.289062 26.628906 37.324219 26.703125 37.359375 26.765625 C 37.367188 26.789062 37.378906 26.808594 37.394531 26.828125 C 37.386719 26.835938 37.386719 26.847656 37.394531 26.855469 C 37.46875 26.921875 37.386719 27.09375 37.351562 27.160156 C 37.289062 27.269531 37.183594 27.347656 37.058594 27.375 C 36.828125 27.417969 36.648438 27.238281 36.554688 27.046875 C 36.539062 27.023438 36.5 27.042969 36.511719 27.070312 C 36.632812 27.308594 36.859375 27.484375 37.132812 27.402344 C 37.265625 27.363281 37.363281 27.242188 37.421875 27.125 C 37.441406 27.082031 37.460938 27.019531 37.46875 26.960938 C 37.523438 27.054688 37.582031 27.144531 37.640625 27.234375 C 37.867188 27.59375 38.082031 27.949219 38.261719 28.332031 C 38.4375 28.707031 38.582031 29.09375 38.761719 29.464844 C 38.9375 29.828125 39.183594 30.167969 39.253906 30.570312 C 39.257812 30.597656 39.304688 30.585938 39.296875 30.554688 Z M 39.640625 28.46875 C 39.492188 28.152344 39.347656 27.835938 39.179688 27.53125 C 39.097656 27.378906 39.011719 27.230469 38.917969 27.085938 C 38.839844 26.96875 38.800781 26.828125 38.703125 26.722656 C 38.683594 26.699219 38.714844 26.667969 38.738281 26.6875 C 38.804688 26.761719 38.839844 26.851562 38.882812 26.941406 C 38.902344 26.75 39.089844 26.628906 39.269531 26.597656 C 39.273438 26.597656 39.277344 26.597656 39.28125 26.597656 C 39.285156 26.585938 39.296875 26.582031 39.3125 26.589844 C 39.503906 26.699219 39.644531 26.898438 39.59375 27.132812 C 39.566406 27.253906 39.523438 27.304688 39.425781 27.378906 C 39.355469 27.429688 39.28125 27.472656 39.195312 27.460938 C 39.195312 27.464844 39.199219 27.464844 39.199219 27.46875 C 39.375 27.785156 39.523438 28.117188 39.683594 28.445312 C 39.992188 29.09375 40.257812 29.75 40.488281 30.433594 C 40.496094 30.460938 40.453125 30.472656 40.441406 30.445312 C 40.214844 29.769531 39.949219 29.113281 39.640625 28.46875 Z M 38.9375 27.039062 C 39.019531 27.15625 39.09375 27.28125 39.164062 27.40625 C 39.164062 27.40625 39.164062 27.40625 39.167969 27.40625 C 39.273438 27.445312 39.371094 27.367188 39.449219 27.300781 C 39.519531 27.234375 39.554688 27.160156 39.554688 27.0625 C 39.5625 26.871094 39.457031 26.730469 39.296875 26.632812 C 39.292969 26.636719 39.289062 26.640625 39.28125 26.640625 C 39.109375 26.671875 38.925781 26.785156 38.929688 26.980469 C 38.929688 26.988281 38.921875 26.996094 38.914062 27 C 38.921875 27.011719 38.929688 27.023438 38.9375 27.039062 Z M 42.355469 30.886719 C 42.355469 30.515625 42.378906 30.152344 42.324219 29.785156 C 42.320312 29.78125 42.320312 29.78125 42.320312 29.78125 C 42.1875 29.871094 41.992188 29.898438 41.859375 29.789062 C 41.71875 29.671875 41.707031 29.488281 41.695312 29.316406 C 41.695312 29.304688 41.699219 29.300781 41.707031 29.296875 C 41.703125 29.289062 41.707031 29.28125 41.714844 29.277344 C 41.835938 29.179688 41.964844 29.113281 42.121094 29.109375 C 42.097656 29.070312 42.070312 29.035156 42.035156 29.003906 C 42.015625 28.984375 42.046875 28.953125 42.070312 28.972656 C 42.261719 29.160156 42.320312 29.464844 42.359375 29.722656 C 42.363281 29.730469 42.367188 29.738281 42.363281 29.746094 C 42.417969 30.128906 42.402344 30.503906 42.402344 30.886719 C 42.402344 30.917969 42.355469 30.917969 42.355469 30.886719 Z M 42.316406 29.742188 C 42.316406 29.738281 42.3125 29.738281 42.3125 29.734375 C 42.304688 29.726562 42.308594 29.71875 42.3125 29.710938 C 42.28125 29.527344 42.242188 29.320312 42.148438 29.15625 C 41.996094 29.152344 41.863281 29.214844 41.746094 29.308594 C 41.742188 29.3125 41.742188 29.3125 41.738281 29.3125 C 41.742188 29.3125 41.742188 29.316406 41.742188 29.316406 C 41.75 29.449219 41.75 29.617188 41.847656 29.71875 C 41.933594 29.800781 42.050781 29.835938 42.167969 29.800781 C 42.210938 29.785156 42.253906 29.769531 42.289062 29.746094 C 42.300781 29.738281 42.3125 29.742188 42.316406 29.742188 Z M 41.320312 30.230469 C 41.375 30.371094 41.425781 30.515625 41.476562 30.660156 C 41.484375 30.691406 41.53125 30.675781 41.519531 30.648438 C 41.472656 30.503906 41.417969 30.359375 41.367188 30.21875 C 41.355469 30.191406 41.3125 30.203125 41.320312 30.230469 Z M 33.0625 29.140625 C 33.042969 29.566406 33.042969 29.996094 33.046875 30.421875 C 33.050781 30.851562 33.074219 31.28125 33.1875 31.699219 C 33.195312 31.726562 33.152344 31.738281 33.144531 31.710938 C 33.023438 31.265625 33.003906 30.800781 33 30.339844 C 33 29.851562 32.996094 29.363281 33.03125 28.875 C 33.058594 28.429688 33.09375 27.953125 33.222656 27.523438 C 33.269531 27.367188 33.332031 27.222656 33.4375 27.097656 C 33.460938 27.066406 33.570312 26.90625 33.625 26.945312 C 33.648438 26.964844 33.625 27.003906 33.601562 26.988281 C 33.597656 26.984375 33.582031 26.996094 33.566406 27.011719 C 33.621094 27.097656 33.648438 27.195312 33.699219 27.277344 C 33.746094 27.351562 33.816406 27.414062 33.855469 27.492188 C 33.921875 27.617188 33.890625 27.75 33.8125 27.863281 C 33.730469 27.976562 33.617188 28.035156 33.476562 27.984375 C 33.355469 27.941406 33.292969 27.8125 33.226562 27.710938 C 33.214844 27.75 33.207031 27.789062 33.203125 27.828125 C 33.125 28.261719 33.078125 28.699219 33.0625 29.140625 Z M 33.375 27.269531 C 33.308594 27.394531 33.265625 27.527344 33.234375 27.664062 C 33.242188 27.664062 33.25 27.664062 33.253906 27.671875 C 33.324219 27.769531 33.386719 27.925781 33.519531 27.953125 C 33.679688 27.984375 33.804688 27.847656 33.839844 27.699219 C 33.875 27.535156 33.757812 27.457031 33.679688 27.332031 C 33.625 27.242188 33.589844 27.140625 33.535156 27.050781 C 33.46875 27.128906 33.382812 27.253906 33.375 27.269531 Z M 48.425781 37.355469 C 48.496094 37.761719 48.589844 38.164062 48.757812 38.542969 C 48.753906 38.542969 48.753906 38.546875 48.75 38.546875 C 48.757812 38.5625 48.765625 38.578125 48.773438 38.59375 C 48.796875 38.59375 48.816406 38.605469 48.832031 38.621094 C 48.835938 38.617188 48.835938 38.609375 48.835938 38.605469 C 48.832031 38.601562 48.832031 38.601562 48.832031 38.597656 C 48.726562 38.378906 48.652344 38.148438 48.589844 37.914062 C 48.59375 37.914062 48.59375 37.910156 48.597656 37.910156 C 48.777344 37.742188 49.082031 37.710938 49.3125 37.667969 C 49.625 37.609375 49.933594 37.5625 50.246094 37.519531 C 50.597656 37.472656 50.949219 37.410156 51.300781 37.382812 C 51.667969 37.355469 52.035156 37.359375 52.398438 37.375 C 53.054688 37.40625 53.714844 37.492188 54.359375 37.609375 C 54.960938 37.714844 55.5625 37.875 56.09375 38.171875 C 56.175781 38.214844 56.253906 38.265625 56.328125 38.316406 C 56.339844 38.324219 56.410156 38.363281 56.421875 38.382812 C 56.417969 38.359375 56.414062 38.332031 56.40625 38.308594 C 56.367188 38.28125 56.324219 38.257812 56.296875 38.238281 C 56.167969 38.15625 56.035156 38.082031 55.898438 38.019531 C 55.640625 37.890625 55.363281 37.800781 55.082031 37.722656 C 54.519531 37.566406 53.9375 37.496094 53.355469 37.417969 C 52.632812 37.320312 51.898438 37.285156 51.171875 37.347656 C 50.820312 37.378906 50.46875 37.445312 50.117188 37.488281 C 49.832031 37.527344 49.554688 37.578125 49.269531 37.628906 C 49.042969 37.671875 48.757812 37.707031 48.578125 37.867188 C 48.476562 37.460938 48.421875 37.042969 48.359375 36.632812 C 48.25 35.882812 48.121094 35.132812 48.078125 34.371094 C 48.007812 33.003906 48.035156 31.601562 48.34375 30.261719 C 48.429688 29.898438 48.535156 29.542969 48.671875 29.195312 C 48.683594 29.167969 48.636719 29.15625 48.628906 29.183594 C 48.136719 30.4375 48.007812 31.804688 48.003906 33.144531 C 48 33.855469 48.027344 34.570312 48.113281 35.277344 C 48.199219 35.972656 48.308594 36.667969 48.425781 37.355469 Z M 43.332031 29.1875 C 43.605469 29.140625 43.910156 29.183594 44.046875 29.457031 C 44.203125 29.765625 44.019531 30.160156 43.855469 30.425781 C 43.523438 30.96875 42.980469 31.382812 42.433594 31.691406 C 42.410156 31.707031 42.433594 31.746094 42.457031 31.730469 C 43.066406 31.386719 43.679688 30.90625 43.996094 30.265625 C 44.140625 29.976562 44.234375 29.605469 44.019531 29.324219 C 43.859375 29.117188 43.558594 29.101562 43.320312 29.144531 C 43.292969 29.148438 43.304688 29.195312 43.332031 29.1875 Z M 51.734375 40.941406 C 51.382812 40.585938 51.003906 40.265625 50.625 39.945312 C 50.332031 39.695312 50.035156 39.445312 49.734375 39.203125 C 49.574219 39.074219 49.410156 38.949219 49.238281 38.835938 C 49.21875 38.820312 49.1875 38.796875 49.152344 38.777344 C 49.128906 38.78125 49.105469 38.785156 49.085938 38.789062 C 49.152344 38.820312 49.230469 38.886719 49.257812 38.902344 C 49.410156 39.007812 49.558594 39.121094 49.703125 39.234375 C 50.003906 39.476562 50.296875 39.726562 50.589844 39.976562 C 50.96875 40.300781 51.351562 40.617188 51.699219 40.972656 C 52.199219 41.480469 52.652344 42.035156 53.03125 42.636719 C 53.375 43.183594 53.710938 43.746094 53.902344 44.367188 C 53.914062 44.394531 53.957031 44.382812 53.949219 44.351562 C 53.746094 43.707031 53.390625 43.113281 53.027344 42.542969 C 52.660156 41.964844 52.214844 41.433594 51.734375 40.941406 Z M 28.585938 38.808594 C 28.457031 39.046875 28.214844 39.222656 28.023438 39.410156 C 27.785156 39.640625 27.574219 39.902344 27.339844 40.144531 C 27.105469 40.386719 26.847656 40.609375 26.609375 40.851562 C 26.359375 41.097656 26.117188 41.355469 25.878906 41.617188 C 25.414062 42.136719 24.972656 42.679688 24.539062 43.222656 C 24.167969 43.6875 23.78125 44.183594 23.675781 44.785156 C 23.671875 44.8125 23.714844 44.828125 23.71875 44.796875 C 23.835938 44.160156 24.261719 43.644531 24.652344 43.152344 C 25.085938 42.609375 25.527344 42.074219 25.996094 41.558594 C 26.226562 41.304688 26.460938 41.0625 26.699219 40.824219 C 26.941406 40.585938 27.195312 40.359375 27.433594 40.113281 C 27.652344 39.886719 27.851562 39.640625 28.078125 39.421875 C 28.269531 39.238281 28.5 39.066406 28.625 38.832031 C 28.640625 38.804688 28.597656 38.78125 28.585938 38.808594 Z M 24.773438 37.496094 C 25.179688 37.292969 25.636719 37.261719 26.082031 37.28125 C 26.300781 37.289062 26.515625 37.3125 26.734375 37.335938 C 26.964844 37.363281 27.203125 37.378906 27.4375 37.414062 C 27.828125 37.46875 28.199219 37.609375 28.5625 37.765625 C 28.699219 37.820312 28.832031 37.882812 28.960938 37.953125 C 29.023438 37.988281 29.234375 38.078125 29.230469 38.171875 C 29.226562 38.199219 29.273438 38.199219 29.277344 38.171875 C 29.28125 38.09375 29.179688 38.035156 29.125 37.996094 C 28.992188 37.90625 28.84375 37.839844 28.699219 37.773438 C 28.335938 37.609375 27.960938 37.464844 27.566406 37.386719 C 27.339844 37.34375 27.109375 37.332031 26.882812 37.308594 C 26.628906 37.28125 26.375 37.25 26.121094 37.238281 C 25.65625 37.210938 25.175781 37.242188 24.75 37.457031 C 24.722656 37.46875 24.746094 37.507812 24.773438 37.496094 Z M 29.304688 38.113281 C 29.359375 38.085938 29.355469 37.882812 29.363281 37.832031 C 29.386719 37.636719 29.40625 37.4375 29.425781 37.242188 C 29.476562 36.632812 29.519531 36.023438 29.605469 35.417969 C 29.738281 34.519531 29.898438 33.628906 30.113281 32.746094 C 30.191406 32.441406 30.269531 32.132812 30.351562 31.828125 C 30.382812 31.71875 30.414062 31.613281 30.445312 31.507812 C 30.457031 31.472656 30.46875 31.4375 30.484375 31.402344 C 30.496094 31.371094 30.511719 31.363281 30.488281 31.355469 C 30.519531 31.363281 30.53125 31.320312 30.5 31.3125 C 30.421875 31.292969 30.332031 31.730469 30.320312 31.777344 C 30.214844 32.148438 30.121094 32.523438 30.03125 32.898438 C 29.808594 33.8125 29.648438 34.742188 29.523438 35.675781 C 29.457031 36.191406 29.421875 36.703125 29.378906 37.222656 C 29.363281 37.394531 29.347656 37.570312 29.328125 37.742188 C 29.316406 37.820312 29.308594 37.898438 29.296875 37.976562 C 29.292969 38 29.277344 38.074219 29.28125 38.074219 C 29.253906 38.085938 29.277344 38.125 29.304688 38.113281 Z M 33.691406 29.292969 C 33.683594 29.464844 33.683594 29.636719 33.683594 29.804688 C 33.683594 30.117188 33.691406 30.4375 33.730469 30.746094 C 33.769531 31.054688 33.851562 31.351562 33.921875 31.652344 C 33.925781 31.679688 33.882812 31.695312 33.875 31.664062 C 33.792969 31.316406 33.699219 30.972656 33.671875 30.613281 C 33.640625 30.242188 33.628906 29.867188 33.644531 29.492188 C 33.652344 29.242188 33.636719 28.9375 33.753906 28.707031 C 33.800781 28.617188 33.863281 28.53125 33.953125 28.480469 C 34.03125 28.433594 34.148438 28.359375 34.242188 28.390625 C 34.273438 28.398438 34.261719 28.445312 34.230469 28.433594 C 34.140625 28.40625 34.011719 28.480469 33.921875 28.558594 C 33.988281 28.640625 34.074219 28.691406 34.164062 28.746094 C 34.214844 28.773438 34.265625 28.804688 34.296875 28.855469 C 34.363281 28.964844 34.359375 29.097656 34.308594 29.210938 C 34.265625 29.320312 34.121094 29.402344 34.011719 29.410156 C 33.949219 29.417969 33.871094 29.421875 33.8125 29.386719 C 33.792969 29.375 33.71875 29.300781 33.691406 29.292969 Z M 33.730469 28.949219 C 33.710938 29.046875 33.703125 29.144531 33.695312 29.246094 C 33.730469 29.25 33.761719 29.289062 33.785156 29.308594 C 33.921875 29.425781 34.222656 29.359375 34.277344 29.171875 C 34.324219 29.007812 34.292969 28.875 34.140625 28.785156 C 34.046875 28.730469 33.957031 28.675781 33.890625 28.59375 C 33.890625 28.59375 33.890625 28.59375 33.890625 28.589844 C 33.867188 28.613281 33.847656 28.636719 33.835938 28.65625 C 33.78125 28.746094 33.746094 28.84375 33.730469 28.949219 Z M 32.65625 27.488281 C 32.730469 27.597656 32.832031 27.683594 32.96875 27.6875 C 33.101562 27.691406 33.183594 27.566406 33.230469 27.460938 C 33.28125 27.351562 33.328125 27.21875 33.28125 27.105469 C 33.253906 27.046875 33.199219 27.011719 33.160156 26.960938 C 33.121094 26.90625 33.085938 26.84375 33.042969 26.789062 C 33.023438 26.765625 32.992188 26.800781 33.007812 26.820312 C 33.058594 26.878906 33.082031 26.957031 33.136719 27.007812 C 33.242188 27.101562 33.269531 27.179688 33.234375 27.320312 C 33.210938 27.417969 33.15625 27.527344 33.085938 27.597656 C 32.941406 27.738281 32.746094 27.550781 32.675781 27.429688 C 32.664062 27.40625 32.625 27.421875 32.632812 27.449219 C 32.632812 27.453125 32.632812 27.457031 32.632812 27.457031 C 32.625 27.476562 32.640625 27.488281 32.65625 27.488281 Z M 35.878906 29.269531 C 35.867188 29.265625 35.855469 29.25 35.863281 29.234375 C 35.960938 29.082031 36.0625 29 36.226562 28.929688 C 36.378906 28.867188 36.546875 28.8125 36.695312 28.902344 C 36.699219 28.90625 36.699219 28.90625 36.699219 28.90625 C 36.699219 28.90625 36.703125 28.90625 36.703125 28.90625 C 36.710938 28.898438 36.730469 28.898438 36.738281 28.910156 C 36.84375 29.148438 36.863281 29.511719 36.59375 29.648438 C 36.296875 29.804688 35.929688 29.625 35.875 29.289062 C 35.871094 29.28125 35.875 29.273438 35.878906 29.269531 Z M 35.90625 29.257812 C 35.90625 29.257812 35.902344 29.257812 35.902344 29.261719 C 35.910156 29.261719 35.917969 29.265625 35.917969 29.277344 C 35.96875 29.582031 36.371094 29.800781 36.625 29.570312 C 36.800781 29.414062 36.789062 29.160156 36.707031 28.960938 C 36.703125 28.960938 36.699219 28.964844 36.695312 28.964844 C 36.675781 28.976562 36.65625 28.953125 36.660156 28.9375 C 36.507812 28.851562 36.332031 28.933594 36.183594 29 C 36.054688 29.054688 35.980469 29.140625 35.90625 29.257812 Z M 37.160156 26.28125 C 37.148438 26.277344 37.140625 26.269531 37.148438 26.253906 C 37.230469 26.054688 37.257812 25.859375 37.476562 25.757812 C 37.550781 25.71875 37.632812 25.691406 37.71875 25.683594 C 37.753906 25.679688 37.820312 25.664062 37.855469 25.683594 C 37.863281 25.671875 37.878906 25.667969 37.890625 25.679688 C 37.894531 25.679688 37.898438 25.683594 37.902344 25.6875 C 37.90625 25.691406 37.90625 25.695312 37.910156 25.699219 C 38.011719 25.828125 38.132812 25.992188 38.121094 26.167969 C 38.109375 26.320312 38.019531 26.453125 37.894531 26.535156 C 37.777344 26.617188 37.632812 26.671875 37.492188 26.605469 C 37.351562 26.539062 37.261719 26.417969 37.164062 26.300781 C 37.160156 26.292969 37.160156 26.289062 37.160156 26.28125 Z M 37.191406 26.265625 C 37.195312 26.265625 37.195312 26.265625 37.199219 26.269531 C 37.351562 26.457031 37.546875 26.691406 37.8125 26.53125 C 37.9375 26.457031 38.078125 26.324219 38.074219 26.167969 C 38.070312 26 37.980469 25.863281 37.882812 25.738281 C 37.871094 25.742188 37.863281 25.738281 37.855469 25.730469 C 37.851562 25.730469 37.847656 25.730469 37.839844 25.726562 C 37.8125 25.707031 37.707031 25.730469 37.679688 25.734375 C 37.605469 25.75 37.53125 25.773438 37.464844 25.8125 C 37.285156 25.925781 37.265625 26.085938 37.191406 26.265625 Z M 38.15625 31.265625 C 38.125 31.1875 38.101562 31.101562 38.042969 31.039062 C 38.023438 31.019531 37.988281 31.050781 38.007812 31.074219 C 38.0625 31.128906 38.085938 31.210938 38.113281 31.277344 C 38.121094 31.304688 38.167969 31.292969 38.15625 31.265625 Z M 57.269531 39.601562 C 57.355469 40.316406 57.375 41.039062 57.292969 41.753906 C 57.21875 42.390625 57.054688 43.007812 56.902344 43.625 C 56.746094 44.238281 56.589844 44.851562 56.46875 45.472656 C 56.371094 45.972656 56.304688 46.488281 56.277344 47 C 56.25 47.449219 56.269531 47.921875 56.457031 48.339844 C 56.480469 48.34375 56.5 48.351562 56.519531 48.359375 C 56.257812 47.824219 56.292969 47.179688 56.351562 46.601562 C 56.421875 45.933594 56.542969 45.277344 56.699219 44.621094 C 56.871094 43.902344 57.074219 43.191406 57.222656 42.46875 C 57.367188 41.769531 57.414062 41.050781 57.378906 40.339844 C 57.347656 39.730469 57.238281 39.136719 57.171875 38.53125 C 57.105469 37.917969 57.074219 37.296875 57.09375 36.675781 C 57.109375 36.085938 57.15625 35.488281 57.320312 34.917969 C 57.394531 34.648438 57.496094 34.363281 57.648438 34.125 C 57.667969 34.097656 57.6875 34.070312 57.707031 34.046875 C 58.511719 35.042969 58.925781 36.28125 59.054688 37.546875 C 59.195312 38.910156 58.941406 40.257812 58.890625 41.617188 C 58.863281 42.308594 58.929688 42.984375 58.992188 43.667969 C 59.058594 44.371094 59.097656 45.074219 59.085938 45.777344 C 59.078125 46.433594 59.027344 47.085938 58.847656 47.71875 C 58.683594 48.308594 58.421875 48.871094 58.074219 49.378906 C 58.074219 49.378906 58.074219 49.375 58.074219 49.371094 C 58.070312 49.378906 58.070312 49.382812 58.070312 49.390625 C 58.078125 49.390625 58.082031 49.394531 58.085938 49.402344 C 58.089844 49.40625 58.097656 49.414062 58.097656 49.421875 C 58.097656 49.421875 58.101562 49.421875 58.101562 49.421875 C 58.464844 48.894531 58.730469 48.308594 58.90625 47.691406 C 59.089844 47.023438 59.128906 46.332031 59.132812 45.640625 C 59.140625 44.894531 59.085938 44.144531 59.015625 43.402344 C 58.976562 43.027344 58.9375 42.65625 58.929688 42.277344 C 58.921875 41.914062 58.9375 41.546875 58.957031 41.179688 C 59.003906 40.484375 59.089844 39.792969 59.128906 39.097656 C 59.164062 38.480469 59.148438 37.863281 59.066406 37.25 C 58.90625 36.074219 58.484375 34.933594 57.738281 34.007812 C 57.851562 33.867188 57.984375 33.734375 58.046875 33.5625 C 58.058594 33.535156 58.011719 33.523438 58.003906 33.550781 C 57.949219 33.691406 57.839844 33.808594 57.746094 33.921875 C 57.648438 34.042969 57.566406 34.167969 57.5 34.308594 C 57.359375 34.59375 57.265625 34.898438 57.199219 35.210938 C 57.046875 35.910156 57.027344 36.644531 57.046875 37.359375 C 57.0625 38.113281 57.175781 38.851562 57.269531 39.601562 Z M 42.253906 26.726562 C 41.949219 26.746094 41.632812 26.632812 41.371094 26.488281 C 41.230469 26.414062 41.097656 26.328125 40.96875 26.234375 C 40.839844 26.144531 40.71875 26.039062 40.570312 25.976562 C 40.296875 25.863281 39.996094 25.785156 39.703125 25.773438 C 39.347656 25.757812 38.996094 25.738281 38.644531 25.679688 C 38.277344 25.617188 37.917969 25.496094 37.566406 25.390625 C 37.210938 25.28125 36.855469 25.164062 36.5 25.066406 C 36.210938 24.988281 35.910156 24.945312 35.609375 24.976562 C 35.367188 25 35.136719 25.082031 34.933594 25.210938 C 34.726562 25.339844 34.570312 25.527344 34.390625 25.6875 C 34.183594 25.871094 33.898438 25.964844 33.648438 26.078125 C 33.394531 26.191406 33.152344 26.316406 32.933594 26.492188 C 32.578125 26.789062 32.347656 27.195312 32.167969 27.617188 C 32.058594 27.875 31.96875 28.140625 31.824219 28.386719 C 31.746094 28.519531 31.660156 28.65625 31.554688 28.765625 C 31.457031 28.871094 31.34375 28.960938 31.25 29.066406 C 31.230469 29.085938 31.261719 29.121094 31.285156 29.097656 C 31.386719 28.980469 31.507812 28.882812 31.613281 28.769531 C 31.722656 28.65625 31.804688 28.507812 31.886719 28.375 C 32.046875 28.101562 32.136719 27.796875 32.265625 27.507812 C 32.519531 26.949219 32.886719 26.5 33.445312 26.226562 C 33.738281 26.078125 34.078125 25.984375 34.339844 25.789062 C 34.574219 25.617188 34.746094 25.386719 34.992188 25.230469 C 35.597656 24.84375 36.308594 25.054688 36.9375 25.246094 C 37.496094 25.414062 38.058594 25.621094 38.632812 25.722656 C 38.878906 25.765625 39.132812 25.796875 39.386719 25.8125 C 39.664062 25.824219 39.929688 25.816406 40.199219 25.90625 C 40.296875 25.9375 40.398438 25.960938 40.496094 25.996094 C 40.625 26.042969 40.734375 26.121094 40.84375 26.203125 C 41.058594 26.359375 41.28125 26.511719 41.523438 26.617188 C 41.722656 26.703125 41.933594 26.757812 42.148438 26.777344 C 42.277344 26.785156 42.527344 26.707031 42.625 26.824219 C 42.613281 26.835938 42.617188 26.863281 42.640625 26.867188 C 42.644531 26.867188 42.648438 26.871094 42.652344 26.871094 C 42.664062 26.890625 42.703125 26.878906 42.691406 26.851562 C 42.691406 26.851562 42.691406 26.847656 42.691406 26.847656 C 42.617188 26.683594 42.398438 26.714844 42.253906 26.726562 Z M 39.265625 35.804688 C 39.257812 35.789062 39.25 35.777344 39.242188 35.761719 C 38.90625 35.664062 38.605469 35.507812 38.257812 35.664062 C 38.074219 35.742188 37.910156 35.855469 37.734375 35.953125 C 37.515625 36.078125 37.285156 36.121094 37.035156 36.121094 C 36.613281 36.121094 36.191406 36.011719 35.777344 36.152344 C 35.402344 36.285156 35.058594 36.527344 34.769531 36.796875 C 34.746094 36.816406 34.78125 36.847656 34.800781 36.828125 C 35.097656 36.554688 35.445312 36.316406 35.824219 36.1875 C 36.226562 36.046875 36.664062 36.167969 37.074219 36.167969 C 37.246094 36.167969 37.433594 36.148438 37.59375 36.078125 C 37.777344 35.996094 37.941406 35.882812 38.113281 35.785156 C 38.304688 35.675781 38.496094 35.609375 38.714844 35.648438 C 38.890625 35.679688 39.058594 35.753906 39.234375 35.804688 C 39.230469 35.808594 39.230469 35.808594 39.230469 35.808594 C 39.242188 35.804688 39.253906 35.804688 39.265625 35.804688 Z M 55.917969 35.847656 C 55.980469 35.496094 56.042969 35.144531 56.117188 34.796875 C 56.171875 34.523438 56.28125 34.265625 56.386719 34.007812 C 56.546875 33.609375 56.71875 33.214844 56.902344 32.828125 C 56.914062 32.800781 56.875 32.777344 56.863281 32.804688 C 56.691406 33.167969 56.527344 33.539062 56.375 33.914062 C 56.261719 34.191406 56.136719 34.46875 56.074219 34.761719 C 56 35.117188 55.9375 35.476562 55.875 35.835938 C 55.867188 35.863281 55.914062 35.875 55.917969 35.847656 Z M 22.519531 47.09375 C 22.535156 47.101562 22.546875 47.113281 22.558594 47.125 C 22.566406 47.136719 22.570312 47.144531 22.578125 47.152344 C 22.59375 47.171875 22.625 47.152344 22.617188 47.128906 C 22.609375 47.109375 22.597656 47.09375 22.582031 47.082031 C 22.242188 46.640625 22.199219 46.054688 22.222656 45.511719 C 22.234375 45.230469 22.269531 44.949219 22.304688 44.667969 C 22.339844 44.371094 22.367188 44.074219 22.410156 43.777344 C 22.515625 43.0625 22.738281 42.375 22.917969 41.679688 C 23.101562 40.96875 23.234375 40.25 23.417969 39.542969 C 23.640625 38.667969 23.914062 37.808594 24.195312 36.953125 C 24.3125 36.597656 24.433594 36.242188 24.550781 35.882812 C 24.589844 35.765625 24.625 35.644531 24.660156 35.523438 C 24.667969 35.496094 24.710938 35.386719 24.679688 35.359375 C 24.671875 35.351562 24.664062 35.351562 24.652344 35.355469 C 24.625 35.371094 24.648438 35.414062 24.675781 35.398438 C 24.636719 35.417969 24.648438 35.363281 24.640625 35.410156 C 24.636719 35.425781 24.632812 35.4375 24.628906 35.453125 C 24.617188 35.496094 24.609375 35.535156 24.597656 35.578125 C 24.566406 35.683594 24.535156 35.789062 24.5 35.894531 C 24.402344 36.1875 24.300781 36.480469 24.207031 36.773438 C 23.972656 37.476562 23.742188 38.183594 23.542969 38.898438 C 23.34375 39.601562 23.175781 40.3125 23.023438 41.023438 C 22.871094 41.734375 22.652344 42.425781 22.488281 43.128906 C 22.398438 43.515625 22.351562 43.898438 22.304688 44.289062 C 22.265625 44.628906 22.214844 44.964844 22.1875 45.304688 C 22.140625 45.902344 22.15625 46.5625 22.511719 47.066406 C 22.511719 47.074219 22.511719 47.085938 22.519531 47.09375 Z M 61.566406 55.730469 C 61.546875 55.699219 61.527344 55.671875 61.507812 55.644531 C 61.507812 55.628906 61.503906 55.617188 61.5 55.597656 C 61.496094 55.578125 61.472656 55.578125 61.460938 55.585938 C 61.328125 55.429688 61.152344 55.316406 60.996094 55.175781 C 60.773438 54.96875 60.542969 54.777344 60.304688 54.59375 C 59.984375 54.351562 59.652344 54.128906 59.308594 53.925781 C 59.28125 53.757812 59.21875 53.601562 59.152344 53.445312 C 59.109375 53.347656 59.070312 53.25 59.035156 53.148438 C 58.996094 53.035156 59.011719 52.894531 59.027344 52.777344 C 59.046875 52.578125 59.074219 52.386719 59.066406 52.183594 C 59.058594 51.992188 59.019531 51.796875 58.976562 51.609375 C 58.894531 51.25 58.769531 50.894531 58.742188 50.523438 C 58.730469 50.382812 58.722656 50.242188 58.703125 50.105469 C 58.691406 50.023438 58.675781 49.9375 58.644531 49.859375 C 58.621094 49.851562 58.59375 49.835938 58.574219 49.820312 C 58.636719 49.921875 58.648438 50.054688 58.664062 50.167969 C 58.683594 50.3125 58.6875 50.457031 58.703125 50.601562 C 58.734375 50.960938 58.863281 51.3125 58.941406 51.664062 C 58.988281 51.859375 59.019531 52.0625 59.023438 52.265625 C 59.027344 52.464844 58.988281 52.660156 58.972656 52.859375 C 58.941406 53.234375 59.183594 53.539062 59.253906 53.894531 C 59.082031 53.792969 58.90625 53.695312 58.730469 53.605469 C 57.671875 53.066406 56.515625 52.730469 55.335938 52.628906 C 55.257812 52.621094 55.179688 52.617188 55.101562 52.613281 C 55.050781 51.984375 54.777344 51.40625 54.546875 50.828125 C 54.421875 50.511719 54.339844 50.207031 54.3125 49.867188 C 54.289062 49.558594 54.292969 49.25 54.21875 48.953125 C 54.214844 48.921875 54.167969 48.933594 54.175781 48.964844 C 54.25 49.273438 54.246094 49.589844 54.269531 49.90625 C 54.292969 50.207031 54.367188 50.484375 54.472656 50.765625 C 54.703125 51.371094 55.003906 51.960938 55.054688 52.613281 C 54.519531 52.585938 53.988281 52.621094 53.457031 52.6875 C 52.796875 52.765625 52.132812 52.761719 51.472656 52.691406 C 50.886719 52.625 50.289062 52.519531 49.714844 52.378906 C 49.652344 52.007812 49.5 51.660156 49.417969 51.292969 C 49.328125 50.882812 49.382812 50.4375 49.398438 50.023438 C 49.414062 49.613281 49.425781 49.203125 49.394531 48.796875 C 49.371094 48.457031 49.375 48.105469 49.28125 47.777344 C 49.273438 47.75 49.230469 47.761719 49.238281 47.789062 C 49.332031 48.125 49.328125 48.484375 49.351562 48.832031 C 49.382812 49.242188 49.367188 49.652344 49.351562 50.066406 C 49.335938 50.460938 49.292969 50.875 49.367188 51.269531 C 49.433594 51.640625 49.597656 51.992188 49.664062 52.367188 C 49.570312 52.34375 49.480469 52.320312 49.386719 52.296875 C 48.726562 52.113281 48.046875 52.015625 47.367188 51.925781 C 46.113281 51.757812 44.867188 51.574219 43.621094 51.359375 C 43.574219 51.074219 43.519531 50.789062 43.488281 50.5 C 43.460938 50.203125 43.484375 49.917969 43.515625 49.621094 C 43.582031 48.980469 43.574219 48.335938 43.574219 47.691406 C 43.574219 47.382812 43.570312 47.074219 43.554688 46.765625 C 43.542969 46.515625 43.507812 46.265625 43.503906 46.015625 C 43.5 45.828125 43.503906 45.640625 43.496094 45.453125 C 43.488281 45.339844 43.492188 45.175781 43.414062 45.082031 C 43.390625 45.0625 43.359375 45.09375 43.378906 45.117188 C 43.46875 45.21875 43.449219 45.4375 43.453125 45.5625 C 43.457031 45.742188 43.449219 45.921875 43.457031 46.097656 C 43.46875 46.367188 43.503906 46.632812 43.515625 46.898438 C 43.527344 47.207031 43.527344 47.515625 43.527344 47.824219 C 43.527344 48.464844 43.539062 49.113281 43.453125 49.75 C 43.378906 50.292969 43.488281 50.820312 43.574219 51.347656 C 43.410156 51.320312 43.242188 51.292969 43.078125 51.261719 C 42.382812 51.132812 41.691406 51 41 50.847656 C 40.371094 50.710938 39.730469 50.640625 39.085938 50.648438 C 38.566406 50.65625 38.054688 50.726562 37.546875 50.820312 C 37.5625 50.316406 37.589844 49.824219 37.667969 49.328125 C 37.742188 48.832031 37.828125 48.335938 37.910156 47.84375 C 38.070312 46.882812 38.292969 45.925781 38.296875 44.945312 C 38.296875 44.914062 38.25 44.914062 38.25 44.945312 C 38.246094 45.933594 38.019531 46.902344 37.859375 47.871094 C 37.773438 48.367188 37.691406 48.863281 37.613281 49.359375 C 37.539062 49.847656 37.515625 50.332031 37.5 50.828125 C 36.683594 50.980469 35.871094 51.199219 35.050781 51.332031 C 34.402344 51.4375 33.753906 51.523438 33.101562 51.613281 C 33.148438 51.304688 33.320312 51.058594 33.457031 50.789062 C 33.589844 50.511719 33.632812 50.203125 33.6875 49.90625 C 33.742188 49.605469 33.796875 49.304688 33.824219 49 C 33.851562 48.65625 33.859375 48.308594 33.875 47.964844 C 33.886719 47.636719 33.914062 47.3125 33.941406 46.988281 C 33.957031 46.824219 33.972656 46.664062 33.988281 46.503906 C 34.007812 46.34375 34.011719 46.179688 34.042969 46.023438 C 34.078125 45.855469 34.117188 45.6875 34.140625 45.519531 C 34.152344 45.4375 34.199219 45.242188 34.121094 45.175781 C 34.101562 45.15625 34.066406 45.1875 34.089844 45.207031 C 34.128906 45.242188 34.113281 45.328125 34.109375 45.371094 C 34.105469 45.46875 34.085938 45.566406 34.070312 45.660156 C 34.042969 45.824219 34 45.984375 33.980469 46.144531 C 33.914062 46.796875 33.847656 47.445312 33.824219 48.101562 C 33.8125 48.414062 33.800781 48.730469 33.773438 49.042969 C 33.746094 49.371094 33.679688 49.695312 33.621094 50.019531 C 33.566406 50.328125 33.496094 50.621094 33.34375 50.898438 C 33.21875 51.132812 33.09375 51.351562 33.054688 51.617188 C 33.019531 51.621094 32.984375 51.628906 32.949219 51.632812 C 32.238281 51.730469 31.546875 51.914062 30.84375 52.046875 C 29.925781 52.21875 28.996094 52.308594 28.066406 52.378906 C 28.121094 52.128906 28.25 51.917969 28.371094 51.695312 C 28.507812 51.460938 28.644531 51.226562 28.761719 50.980469 C 28.878906 50.75 28.96875 50.507812 29.023438 50.253906 C 29.09375 49.957031 29.128906 49.648438 29.1875 49.347656 C 29.304688 48.746094 29.425781 48.152344 29.621094 47.570312 C 29.796875 47.039062 29.996094 46.5 30.023438 45.933594 C 30.027344 45.902344 29.980469 45.902344 29.980469 45.933594 C 29.949219 46.507812 29.742188 47.058594 29.5625 47.597656 C 29.371094 48.167969 29.257812 48.75 29.140625 49.335938 C 29.085938 49.625 29.046875 49.914062 28.988281 50.203125 C 28.933594 50.480469 28.828125 50.742188 28.707031 50.992188 C 28.585938 51.238281 28.445312 51.472656 28.3125 51.707031 C 28.191406 51.925781 28.066406 52.132812 28.019531 52.382812 C 27.484375 52.421875 26.953125 52.453125 26.417969 52.492188 C 25.714844 52.539062 25.007812 52.578125 24.300781 52.59375 C 24.386719 52.066406 24.558594 51.550781 24.769531 51.0625 C 24.839844 50.90625 24.90625 50.746094 24.972656 50.589844 C 25.023438 50.480469 25.066406 50.332031 25.140625 50.238281 C 25.160156 50.214844 25.128906 50.183594 25.109375 50.207031 C 25.035156 50.296875 24.992188 50.433594 24.945312 50.542969 C 24.871094 50.707031 24.804688 50.871094 24.730469 51.039062 C 24.515625 51.535156 24.339844 52.058594 24.253906 52.59375 C 23.515625 52.609375 22.777344 52.601562 22.039062 52.550781 C 21.113281 52.488281 20.210938 52.316406 19.285156 52.289062 C 19.183594 52.285156 19.082031 52.28125 18.980469 52.28125 C 19.132812 52.039062 19.316406 51.816406 19.484375 51.582031 C 19.648438 51.351562 19.796875 51.113281 19.929688 50.863281 C 20.136719 50.46875 20.273438 50.042969 20.394531 49.617188 C 20.5 49.234375 20.597656 48.855469 20.738281 48.484375 C 20.851562 48.1875 21.023438 47.746094 21.367188 47.652344 C 21.394531 47.644531 21.382812 47.601562 21.355469 47.609375 C 21.050781 47.691406 20.882812 48.03125 20.765625 48.292969 C 20.597656 48.671875 20.492188 49.074219 20.386719 49.46875 C 20.265625 49.917969 20.128906 50.359375 19.921875 50.777344 C 19.796875 51.027344 19.648438 51.265625 19.488281 51.496094 C 19.304688 51.761719 19.097656 52.007812 18.925781 52.28125 C 18.214844 52.269531 17.492188 52.300781 16.804688 52.472656 C 16.507812 52.542969 16.128906 52.664062 15.976562 52.953125 C 15.960938 52.980469 16 53.003906 16.015625 52.976562 C 16.160156 52.707031 16.503906 52.601562 16.777344 52.527344 C 17.179688 52.417969 17.605469 52.375 18.023438 52.351562 C 18.324219 52.332031 18.625 52.324219 18.925781 52.324219 C 18.933594 52.328125 18.941406 52.328125 18.949219 52.324219 C 19.425781 52.328125 19.90625 52.355469 20.378906 52.40625 C 20.960938 52.472656 21.539062 52.5625 22.125 52.601562 C 22.851562 52.652344 23.578125 52.65625 24.304688 52.640625 C 25.773438 52.609375 27.238281 52.476562 28.703125 52.363281 C 29.398438 52.308594 30.082031 52.230469 30.769531 52.105469 C 31.472656 51.976562 32.167969 51.789062 32.875 51.6875 C 34.296875 51.492188 35.707031 51.285156 37.109375 50.960938 C 38.496094 50.640625 39.859375 50.621094 41.246094 50.953125 C 42.609375 51.277344 44.011719 51.488281 45.398438 51.699219 C 46.105469 51.8125 46.820312 51.894531 47.53125 51.992188 C 48.242188 52.089844 48.933594 52.246094 49.632812 52.402344 C 49.648438 52.40625 49.664062 52.410156 49.679688 52.414062 C 49.683594 52.414062 49.6875 52.414062 49.691406 52.414062 C 50.96875 52.699219 52.230469 52.882812 53.542969 52.722656 C 56.113281 52.40625 58.644531 53.269531 60.625 54.910156 C 60.777344 55.039062 60.929688 55.171875 61.074219 55.308594 C 61.132812 55.363281 61.175781 55.410156 61.246094 55.449219 C 61.304688 55.488281 61.359375 55.535156 61.40625 55.585938 C 61.429688 55.609375 61.449219 55.628906 61.464844 55.648438 C 61.476562 55.6875 61.496094 55.722656 61.53125 55.757812 C 61.546875 55.777344 61.578125 55.753906 61.566406 55.730469 Z M 61.566406 55.730469 " fill-opacity="1" fill-rule="nonzero"/></svg>