<svg xmlns="http://www.w3.org/2000/svg" width="100" viewBox="0 0 75 75" height="100" version="1.0"><defs><clipPath id="a"><path d="M13 46h38v7.281H13zm0 0"/></clipPath><clipPath id="b"><path d="M12.438 34H48v9H12.437zm0 0"/></clipPath><clipPath id="c"><path d="M50 22h12.688v31.281H50zm0 0"/></clipPath></defs><path fill="#ffecb3" d="M37.5 0C16.79 0 0 16.79 0 37.5S16.79 75 37.5 75 75 58.21 75 37.5 58.21 0 37.5 0"/><g clip-path="url(#a)"><path fill="#fdd28a" d="M14.953 53.156c-1.453-2.191-1.242-5.074-.098-6.652 11.473.07 23-.066 34.473 0 .23.004.473.008.672.121.266.152.39.453.492.742.328.965.613 4.649-.488 5.301-.188.105-.414.121-.629.125-9.48.352-18.969.434-28.453.344zm0 0"/></g><path stroke-linecap="round" transform="matrix(.21761 0 0 .21754 -8.69 -8.545)" fill="none" stroke-linejoin="round" d="M121.337 281.656c-2.764-9.643-2.818-20.057-.144-29.718M238.625 281.746c2.118-9.984 2.207-17.849.323-27.869M231.085 281.1c1.76-7.74 1.742-17.418-.09-25.14M131.766 271.744a12.045 12.045 0 0 0 5.852-6.105c-1.185 1.85-.395 4.956 1.777 5.153 1.472.144 2.728-1.077 3.429-2.37.7-1.293 1.095-2.765 2.028-3.914a7.935 7.935 0 0 0-.144 4.704c.09.36.234.736.539.934.395.27.897.162 1.346.036 3.32-.934 6.229-3.268 7.88-6.303a9.922 9.922 0 0 0 .036 4.866c.126.521.377 1.078.88 1.257.413.144.88-.036 1.256-.251 2.226-1.167 4.057-3.107 5.116-5.387-.197 1.185-.377 2.424-.018 3.573.341 1.15 1.418 2.191 2.621 2.083.592-.054 1.13-.377 1.651-.718a19.818 19.818 0 0 0 4.973-4.74c.197 1.023-.18 2.082-.252 3.142-.054 1.041.467 2.334 1.508 2.424.61.054 1.185-.323 1.67-.682 1.669-1.293 3.195-2.748 4.523-4.382-.305.844-.592 1.706-.449 2.586.126.862.826 1.724 1.706 1.706.61 0 1.148-.413 1.615-.79 1.257-1.042 2.423-2.173 3.536-3.34-1.077.916-.825 2.837.305 3.681 1.131.844 2.819.682 3.968-.144 1.148-.826 1.795-2.19 2.082-3.591" stroke="#365fa0" stroke-width=".835" stroke-miterlimit="10"/><path fill="#d7c8b5" d="M17.68 46.477c-.63-.899-.578-2.829-.082-3.727 9.59.04 19.113-.535 28.703-.496.191 0 .394.004.562.07.219.082.325.254.41.414.274.543.47 3.348-.449 3.715-.156.059-.344.067-.523.07-7.922.196-15.703-.003-23.63-.054zm0 0"/><path stroke-linecap="round" transform="matrix(.21761 0 0 .21754 -8.69 -8.545)" fill="none" stroke-linejoin="round" d="M142.07 248.886c3.733.323 8.329.61 11.47-1.401 1.795-1.15 3.357-3.124 2.01-5.118-1.687-2.513-5.349-2.495-8.023-2.64-5.062-.286-11.255-.34-15.563 2.694-5.6 3.915 7.628 6.231 10.106 6.465zM161.097 249.173c-.341-3.089-.682-6.177-1.005-9.248M164.49 249.765a90.442 90.442 0 0 1-.736-11.007M240.06 248.975a76.141 76.141 0 0 0-.358-9.05M243.938 248.796a195.564 195.564 0 0 0-.916-11.223" stroke="#365fa0" stroke-width=".835" stroke-miterlimit="10"/><g clip-path="url(#b)"><path fill="#ef7e6b" d="M13.855 42.719c-1.37-2.715-1.171-6.282-.09-8.23 10.813.081 21.672-.087 32.485 0 .215 0 .445.003.633.148.25.187.37.562.465.918.308 1.195.578 5.758-.461 6.562-.176.137-.387.149-.594.156-8.93.438-17.871.536-26.805.426zm0 0"/></g><path stroke-linecap="round" transform="matrix(.21761 0 0 .21754 -8.69 -8.545)" fill="none" stroke-linejoin="round" d="M115.629 226.404c6.264-.036 12.53-.072 18.794-.072l-1.347-19.518c-.017-.251-.053-.52-.215-.718-.197-.27-.574-.324-.915-.36-5.924-.538-11.848-.682-17.771-.359.556 4.92 1.472 9.84 1.472 14.796zM142.141 216.043c.198 1.58 1.85 2.838 3.429 2.604 1.58-.233 2.818-1.903 2.549-3.483.844 1.49 2.064 2.909 3.734 3.214 1.669.287 3.643-1.131 3.32-2.783 1.042 1.274 2.55 2.388 4.2 2.208 1.634-.18 2.998-2.226 2.03-3.555 1.004 1.472 2.153 3.07 3.858 3.537 1.724.503 3.985-.933 3.555-2.657a8.573 8.573 0 0 0 4.308 3.52c.628-1.401.987-2.91 1.095-4.436 1.74 1.418 2.836 4.4 5.044 4.004 1.13-.197 1.902-1.329 2.01-2.478.09-1.131-.34-2.244-.88-3.25M214.068 225.866c.431-5.998.521-12.013.27-18.01M220.997 225.201c-.359-5.997-.736-11.995-1.095-17.974M226.077 225.327c.09-5.998.18-12.534.27-18.531 6.946 0 14.611 1.347 21.935 1.041 1.113 2.496 1.615 5.657 1.597 8.224-.017 3.071-.484 5.639-1.723 8.727-5.618-.09-11.255 0-16.837.557h-5.242zm0 0" stroke="#365fa0" stroke-width=".835" stroke-miterlimit="10"/><path fill="#98d4e1" d="M19.3 34.477c-1.265-2.036-1.081-5.016-.023-6.442 10.305.277 20.66.36 30.961.633.207.008.426.016.606.125.23.14.343.422.426.687.277.891.464 4.278-.54 4.856-.167.098-.37.102-.562.105-8.52.149-16.594.286-25.11.032zm0 0"/><path stroke-linecap="round" transform="matrix(.21761 0 0 .21754 -8.69 -8.545)" fill="#98d4e1" stroke-linejoin="round" d="M270.45 197.602c-24.268.413-47.73.826-71.388.79-14.522-.018-29.115-.197-43.996-.646" stroke="#365fa0" stroke-width=".835" stroke-miterlimit="10"/><path stroke-linecap="round" transform="matrix(.21761 0 0 .21754 -8.69 -8.545)" fill="none" stroke-linejoin="round" d="M128.517 168.154c27.554.736 55.18 1.167 82.787 1.67 8.796.143 17.574.305 26.351.485 11.058.215 22.097.467 33.137.754.951.036 1.956.072 2.782.574 1.059.647 1.58 1.94 1.957 3.16M171.383 190.94c-.27-5.045-.521-10.109-.772-15.155M175.026 191.982a231.53 231.53 0 0 1-.43-18.01M256.252 192.377c.18-4.956.143-9.912-.054-14.85" stroke="#365fa0" stroke-width=".835" stroke-miterlimit="10"/><path stroke-linecap="round" transform="matrix(.21761 0 0 .21754 -8.69 -8.545)" fill="none" stroke-linejoin="round" d="M260.434 192.144a481.615 481.615 0 0 0-.61-18.37" stroke="#365fa0" stroke-width=".835" stroke-miterlimit="10"/><path stroke-linecap="round" transform="matrix(.21761 0 0 .21754 -8.69 -8.545)" fill="#d7c8b5" stroke-linejoin="round" d="M181.022 192.97c-.036-5.926.43-12.534.395-18.46 9.531.306 26.692.593 36.654.808.593 6.052-.035 11.564-.377 18.406-8.867-.18-18.794-.377-31.107-.629zm0 0" stroke="#365fa0" stroke-width=".835" stroke-miterlimit="10"/><path stroke-linecap="round" transform="matrix(.21761 0 0 .21754 -8.69 -8.545)" fill="none" stroke-linejoin="round" d="M163.107 191.461a18.559 18.559 0 0 0-7.575-2.837c1.58.27 3.214.18 4.74-.251.466-.144.987-.377 1.058-.826.072-.36-.197-.719-.466-.988-1.472-1.526-3.626-2.442-5.816-2.496 1.777.18 3.608.018 5.331-.485.88-.251 1.849-.79 1.83-1.634-.017-.79-.879-1.292-1.65-1.616a23.026 23.026 0 0 0-4.327-1.293c1.94.521 4.255.97 5.816-.251.88-.7.252-1.993-.34-2.675-.79-.934-2.119-1.437-3.34-1.634" stroke="#365fa0" stroke-width=".835" stroke-miterlimit="10"/><g clip-path="url(#c)"><path fill="#ef7e6b" d="M50.25 23.371c-.133.223-.11 1.274.05 2.078.384 1.922.65 4.32.993 6.258 1.289 7.273 2.2 13.45 3.7 20.691.058.27.132.567.359.727.199.14.464.133.71.125 1.922-.063 5.86-.695 6.153-1.477.43-.539-2.512-13.253-2.774-14.558-.527-2.633-.894-4.88-1.382-7.52-.297-1.62-.778-4.07-1.172-5.691-.532-2.195-1.242-2.23-5.543-1.164-.578.144-.996.363-1.094.531zm0 0"/></g><path stroke-linecap="round" transform="matrix(.21761 0 0 .21754 -8.69 -8.545)" fill="none" stroke-linejoin="round" d="M273.933 167.436a126.866 126.866 0 0 1 27.5-6.716M277.505 187.816c9.621-2.19 19.243-4.381 28.882-6.554" stroke="#365fa0" stroke-width=".624" stroke-miterlimit="10"/><path fill="#fdd28a" d="M53.133 34.398c.375 2.18.906 5.012 1.328 7.102.012.059.031.121.082.156.05.04.125.032.187.024 1.38-.172 2.708-.567 4.09-.739-.64-2.59-.77-4.687-1.41-7.28-2.344.405-4.277.737-4.277.737zm0 0"/><path stroke-linecap="round" transform="matrix(.21761 0 0 .21754 -8.69 -8.545)" fill="none" stroke-linejoin="round" d="M289.837 262.012c9.837-1.868 19.691-3.717 29.528-5.567M290.734 239.046c.826-.826 1.365-1.922 1.472-3.071.054.539.108 1.113.395 1.58.305.45.952.736 1.436.485.27-.144.431-.449.575-.718a15.17 15.17 0 0 0 1.005-2.28c.18.664.43 1.4 1.005 1.795.682.449 1.634.251 2.244-.287.61-.54.933-1.347 1.113-2.137-.216.898.574 1.813 1.49 1.94.897.143 1.795-.36 2.405-1.042.61-.683.97-1.563 1.31-2.407-.09.719.126 1.49.647 1.994.52.502 1.364.7 2.01.359.431-.216.736-.593 1.023-.97.7-.916 1.418-1.85 1.598-2.98" stroke="#365fa0" stroke-width=".624" stroke-miterlimit="10"/></svg>