<svg xmlns="http://www.w3.org/2000/svg" xmlns:xlink="http://www.w3.org/1999/xlink" width="100" zoomAndPan="magnify" viewBox="0 0 75 74.999997" height="100" preserveAspectRatio="xMidYMid meet" version="1.0"><defs><clipPath id="id1"><path d="M 13 46 L 51 46 L 51 53.28125 L 13 53.28125 Z M 13 46 " clip-rule="nonzero"/></clipPath><clipPath id="id2"><path d="M 12.4375 34 L 48 34 L 48 43 L 12.4375 43 Z M 12.4375 34 " clip-rule="nonzero"/></clipPath><clipPath id="id3"><path d="M 50 22 L 62.6875 22 L 62.6875 53.28125 L 50 53.28125 Z M 50 22 " clip-rule="nonzero"/></clipPath></defs><path fill="#ffecb3" d="M 37.5 0 C 16.789062 0 0 16.789062 0 37.5 C 0 58.210938 16.789062 75 37.5 75 C 58.210938 75 75 58.210938 75 37.5 C 75 16.789062 58.210938 0 37.5 0 " fill-opacity="1" fill-rule="nonzero"/><g clip-path="url(#id1)"><path fill="#fdd28a" d="M 14.953125 53.15625 C 13.5 50.964844 13.710938 48.082031 14.855469 46.503906 C 26.328125 46.574219 37.855469 46.4375 49.328125 46.503906 C 49.558594 46.507812 49.800781 46.511719 50 46.625 C 50.265625 46.777344 50.390625 47.078125 50.492188 47.367188 C 50.820312 48.332031 51.105469 52.015625 50.003906 52.667969 C 49.816406 52.773438 49.589844 52.789062 49.375 52.792969 C 39.894531 53.144531 30.40625 53.226562 20.921875 53.136719 Z M 14.953125 53.15625 " fill-opacity="1" fill-rule="nonzero"/></g><path stroke-linecap="round" transform="matrix(0.217614, 0, 0, 0.217541, -8.689788, -8.545278)" fill="none" stroke-linejoin="round" d="M 121.336962 281.65597 C 118.572607 272.01341 118.518756 261.598727 121.193359 251.93821 " stroke="#365fa0" stroke-width="0.835" stroke-opacity="1" stroke-miterlimit="10"/><path stroke-linecap="round" transform="matrix(0.217614, 0, 0, 0.217541, -8.689788, -8.545278)" fill="none" stroke-linejoin="round" d="M 238.624582 281.745752 C 240.742724 271.762021 240.832475 263.89714 238.947688 253.877496 " stroke="#365fa0" stroke-width="0.835" stroke-opacity="1" stroke-miterlimit="10"/><path stroke-linecap="round" transform="matrix(0.217614, 0, 0, 0.217541, -8.689788, -8.545278)" fill="none" stroke-linejoin="round" d="M 231.085433 281.099323 C 232.844567 273.360136 232.826617 263.681664 230.995681 255.960433 " stroke="#365fa0" stroke-width="0.835" stroke-opacity="1" stroke-miterlimit="10"/><path stroke-linecap="round" transform="matrix(0.217614, 0, 0, 0.217541, -8.689788, -8.545278)" fill="none" stroke-linejoin="round" d="M 131.766118 271.744065 C 134.36892 270.505077 136.487062 268.296446 137.617934 265.638906 C 136.433211 267.48841 137.223026 270.594858 139.395019 270.792378 C 140.866948 270.936029 142.123473 269.714997 142.823537 268.42214 C 143.523601 267.129283 143.918509 265.656862 144.851927 264.507656 C 144.331367 266.015989 144.277516 267.667973 144.708324 269.212219 C 144.798076 269.571346 144.941679 269.94843 145.246835 270.14595 C 145.641743 270.415295 146.144353 270.307557 146.593112 270.181862 C 149.913927 269.248132 152.821885 266.913807 154.473317 263.879183 C 154.07841 265.477299 154.09636 267.165195 154.509218 268.745354 C 154.634871 269.266088 154.886176 269.822735 155.388786 270.002299 C 155.801644 270.14595 156.268353 269.966386 156.64531 269.75091 C 158.871154 268.583747 160.702091 266.644461 161.761162 264.364005 C 161.563708 265.549124 161.384204 266.788112 161.743211 267.937319 C 162.084268 269.086525 163.161289 270.127993 164.363963 270.020255 C 164.956325 269.966386 165.494835 269.643172 166.015396 269.302001 C 167.936084 268.0271 169.623417 266.411029 170.987644 264.561525 C 171.185098 265.585037 170.808141 266.644461 170.736339 267.703886 C 170.682488 268.745354 171.203048 270.038212 172.244169 270.127993 C 172.854481 270.181862 173.428892 269.804779 173.913552 269.445652 C 175.582935 268.152795 177.108715 266.69833 178.437041 265.064303 C 178.131885 265.908251 177.84468 266.770156 177.988283 267.650017 C 178.113935 268.511922 178.813999 269.373827 179.693566 269.35587 C 180.303878 269.35587 180.842389 268.942874 181.309098 268.565791 C 182.565623 267.524322 183.732396 266.393072 184.845318 265.22591 C 183.768297 266.141684 184.019602 268.063013 185.150474 268.906961 C 186.281347 269.75091 187.96868 269.589303 189.117503 268.763311 C 190.266325 267.937319 190.912538 266.572636 191.199744 265.172041 " stroke="#365fa0" stroke-width="0.835" stroke-opacity="1" stroke-miterlimit="10"/><path fill="#d7c8b5" d="M 17.679688 46.476562 C 17.050781 45.578125 17.101562 43.648438 17.597656 42.75 C 27.1875 42.789062 36.710938 42.214844 46.300781 42.253906 C 46.492188 42.253906 46.695312 42.257812 46.863281 42.324219 C 47.082031 42.40625 47.1875 42.578125 47.273438 42.738281 C 47.546875 43.28125 47.742188 46.085938 46.824219 46.453125 C 46.667969 46.511719 46.480469 46.519531 46.300781 46.523438 C 38.378906 46.71875 30.597656 46.519531 22.671875 46.46875 Z M 17.679688 46.476562 " fill-opacity="1" fill-rule="nonzero"/><path stroke-linecap="round" transform="matrix(0.217614, 0, 0, 0.217541, -8.689788, -8.545278)" fill="none" stroke-linejoin="round" d="M 142.069622 248.885631 C 145.803296 249.208845 150.398587 249.496147 153.539899 247.485036 C 155.334934 246.335829 156.896615 244.360631 155.550339 242.367476 C 153.863005 239.853587 150.201133 239.871543 147.52653 239.727892 C 142.46453 239.440591 136.271657 239.386722 131.963572 242.421345 C 126.363062 246.335829 139.592473 248.652198 142.069622 248.885631 Z M 142.069622 248.885631 " stroke="#365fa0" stroke-width="0.835" stroke-opacity="1" stroke-miterlimit="10"/><path stroke-linecap="round" transform="matrix(0.217614, 0, 0, 0.217541, -8.689788, -8.545278)" fill="none" stroke-linejoin="round" d="M 161.096998 249.172932 C 160.755942 246.08444 160.414885 242.995948 160.091779 239.925412 " stroke="#365fa0" stroke-width="0.835" stroke-opacity="1" stroke-miterlimit="10"/><path stroke-linecap="round" transform="matrix(0.217614, 0, 0, 0.217541, -8.689788, -8.545278)" fill="none" stroke-linejoin="round" d="M 164.489616 249.765492 C 164.022906 246.102397 163.771601 242.439301 163.753651 238.758249 " stroke="#365fa0" stroke-width="0.835" stroke-opacity="1" stroke-miterlimit="10"/><path stroke-linecap="round" transform="matrix(0.217614, 0, 0, 0.217541, -8.689788, -8.545278)" fill="none" stroke-linejoin="round" d="M 240.06061 248.975413 C 240.114461 245.958746 240.006759 242.924123 239.701603 239.925412 " stroke="#365fa0" stroke-width="0.835" stroke-opacity="1" stroke-miterlimit="10"/><path stroke-linecap="round" transform="matrix(0.217614, 0, 0, 0.217541, -8.689788, -8.545278)" fill="none" stroke-linejoin="round" d="M 243.937887 248.795849 C 243.740433 245.042972 243.435277 241.308051 243.022419 237.57313 " stroke="#365fa0" stroke-width="0.835" stroke-opacity="1" stroke-miterlimit="10"/><g clip-path="url(#id2)"><path fill="#ef7e6b" d="M 13.855469 42.71875 C 12.484375 40.003906 12.683594 36.4375 13.765625 34.488281 C 24.578125 34.570312 35.4375 34.402344 46.25 34.488281 C 46.464844 34.488281 46.695312 34.492188 46.882812 34.636719 C 47.132812 34.824219 47.253906 35.199219 47.347656 35.554688 C 47.65625 36.75 47.925781 41.3125 46.886719 42.117188 C 46.710938 42.253906 46.5 42.265625 46.292969 42.273438 C 37.363281 42.710938 28.421875 42.808594 19.488281 42.699219 Z M 13.855469 42.71875 " fill-opacity="1" fill-rule="nonzero"/></g><path stroke-linecap="round" transform="matrix(0.217614, 0, 0, 0.217541, -8.689788, -8.545278)" fill="none" stroke-linejoin="round" d="M 115.628749 226.40428 C 121.893423 226.368368 128.158097 226.332455 134.422771 226.332455 C 133.974012 219.832256 133.525253 213.332057 133.076494 206.813902 C 133.058544 206.562513 133.022643 206.293168 132.86109 206.095648 C 132.663636 205.826303 132.286679 205.772434 131.945622 205.736521 C 126.022005 205.197831 120.098388 205.05418 114.17477 205.377394 C 114.731231 210.297434 115.6467 215.217474 115.6467 220.173427 Z M 115.628749 226.40428 " stroke="#365fa0" stroke-width="0.835" stroke-opacity="1" stroke-miterlimit="10"/><path stroke-linecap="round" transform="matrix(0.217614, 0, 0, 0.217541, -8.689788, -8.545278)" fill="none" stroke-linejoin="round" d="M 142.141424 216.043466 C 142.338877 217.623625 143.99031 218.880569 145.569941 218.647137 C 147.149573 218.413704 148.388147 216.743764 148.118892 215.163605 C 148.962558 216.653982 150.183183 218.072534 151.852566 218.377792 C 153.521949 218.665093 155.496488 217.246542 155.173381 215.594557 C 156.214502 216.869458 157.722332 217.982752 159.373764 217.803188 C 161.007247 217.623625 162.371474 215.576601 161.402154 214.247831 C 162.407374 215.720252 163.556197 217.318367 165.261481 217.785232 C 166.984715 218.28801 169.24646 216.851502 168.815651 215.127692 C 169.802921 216.725807 171.346651 218.000708 173.123736 218.647137 C 173.751999 217.246542 174.111006 215.738208 174.218708 214.211918 C 175.959892 215.63047 177.054864 218.611224 179.262758 218.216185 C 180.39363 218.018665 181.165495 216.887415 181.273197 215.738208 C 181.362949 214.606958 180.932141 213.493664 180.39363 212.488109 " stroke="#365fa0" stroke-width="0.835" stroke-opacity="1" stroke-miterlimit="10"/><path stroke-linecap="round" transform="matrix(0.217614, 0, 0, 0.217541, -8.689788, -8.545278)" fill="none" stroke-linejoin="round" d="M 214.068496 225.86559 C 214.499305 219.868169 214.589056 213.852791 214.337751 207.85537 " stroke="#365fa0" stroke-width="0.835" stroke-opacity="1" stroke-miterlimit="10"/><path stroke-linecap="round" transform="matrix(0.217614, 0, 0, 0.217541, -8.689788, -8.545278)" fill="none" stroke-linejoin="round" d="M 220.997333 225.201205 C 220.638326 219.203784 220.261369 213.206363 219.902361 207.226898 " stroke="#365fa0" stroke-width="0.835" stroke-opacity="1" stroke-miterlimit="10"/><path stroke-linecap="round" transform="matrix(0.217614, 0, 0, 0.217541, -8.689788, -8.545278)" fill="none" stroke-linejoin="round" d="M 226.077284 225.326899 C 226.167035 219.329478 226.256787 212.793367 226.346539 206.795946 C 233.293326 206.795946 240.958128 208.142672 248.281873 207.837414 C 249.394795 210.333347 249.897405 213.493664 249.879454 216.061422 C 249.861504 219.131958 249.394795 221.699716 248.15622 224.788209 C 242.537759 224.698427 236.901348 224.788209 231.318787 225.344856 L 226.077284 225.344856 Z M 226.077284 225.326899 " stroke="#365fa0" stroke-width="0.835" stroke-opacity="1" stroke-miterlimit="10"/><path fill="#98d4e1" d="M 19.300781 34.476562 C 18.035156 32.441406 18.21875 29.460938 19.277344 28.035156 C 29.582031 28.3125 39.9375 28.394531 50.238281 28.667969 C 50.445312 28.675781 50.664062 28.683594 50.84375 28.792969 C 51.074219 28.933594 51.1875 29.214844 51.269531 29.480469 C 51.546875 30.371094 51.734375 33.757812 50.730469 34.335938 C 50.5625 34.433594 50.359375 34.4375 50.167969 34.441406 C 41.648438 34.589844 33.574219 34.726562 25.058594 34.472656 Z M 19.300781 34.476562 " fill-opacity="1" fill-rule="nonzero"/><path stroke-linecap="round" transform="matrix(0.217614, 0, 0, 0.217541, -8.689788, -8.545278)" fill-opacity="1" fill="#98d4e1" fill-rule="nonzero" stroke-linejoin="round" d="M 270.450561 197.602294 C 246.181681 198.01529 222.720567 198.428286 199.061999 198.392374 C 184.540162 198.374417 169.946523 198.194854 155.065679 197.745945 " stroke="#365fa0" stroke-width="0.835" stroke-opacity="1" stroke-miterlimit="10"/><path stroke-linecap="round" transform="matrix(0.217614, 0, 0, 0.217541, -8.689788, -8.545278)" fill="none" stroke-linejoin="round" d="M 128.517104 168.15388 C 156.070899 168.89009 183.696495 169.321043 211.304141 169.82382 C 220.099815 169.967471 228.877539 170.129078 237.655263 170.308642 C 248.712681 170.524118 259.75215 170.775507 270.791618 171.062809 C 271.742987 171.098721 272.748207 171.134634 273.573923 171.637412 C 274.632994 172.28384 275.153554 173.576698 275.530512 174.797729 " stroke="#365fa0" stroke-width="0.835" stroke-opacity="1" stroke-miterlimit="10"/><path stroke-linecap="round" transform="matrix(0.217614, 0, 0, 0.217541, -8.689788, -8.545278)" fill="none" stroke-linejoin="round" d="M 171.382552 190.940488 C 171.113297 185.894754 170.861992 180.831063 170.610687 175.785329 " stroke="#365fa0" stroke-width="0.835" stroke-opacity="1" stroke-miterlimit="10"/><path stroke-linecap="round" transform="matrix(0.217614, 0, 0, 0.217541, -8.689788, -8.545278)" fill="none" stroke-linejoin="round" d="M 175.026474 191.981957 C 174.649516 186.002492 174.505914 179.987115 174.595665 173.971737 " stroke="#365fa0" stroke-width="0.835" stroke-opacity="1" stroke-miterlimit="10"/><path stroke-linecap="round" transform="matrix(0.217614, 0, 0, 0.217541, -8.689788, -8.545278)" fill="none" stroke-linejoin="round" d="M 256.25183 192.376996 C 256.431334 187.421044 256.395433 182.465091 256.197979 177.527095 " stroke="#365fa0" stroke-width="0.835" stroke-opacity="1" stroke-miterlimit="10"/><path stroke-linecap="round" transform="matrix(0.217614, 0, 0, 0.217541, -8.689788, -8.545278)" fill="none" stroke-linejoin="round" d="M 260.434263 192.143564 C 260.344511 186.002492 260.147057 179.897333 259.823951 173.774218 " stroke="#365fa0" stroke-width="0.835" stroke-opacity="1" stroke-miterlimit="10"/><path stroke-linecap="round" transform="matrix(0.217614, 0, 0, 0.217541, -8.689788, -8.545278)" fill-opacity="1" fill="#d7c8b5" fill-rule="nonzero" stroke-linejoin="round" d="M 181.021893 192.969556 C 180.985992 187.04396 181.452701 180.436023 181.4168 174.510428 C 190.948439 174.815686 208.108978 175.102987 218.071425 175.318464 C 218.663787 181.369754 218.035525 186.882353 217.694468 193.723723 C 208.826992 193.544159 198.900446 193.346639 186.586503 193.09525 Z M 181.021893 192.969556 " stroke="#365fa0" stroke-width="0.835" stroke-opacity="1" stroke-miterlimit="10"/><path stroke-linecap="round" transform="matrix(0.217614, 0, 0, 0.217541, -8.689788, -8.545278)" fill="none" stroke-linejoin="round" d="M 163.107438 191.461223 C 160.863644 189.988802 158.242892 189.001203 155.532388 188.624119 C 157.11202 188.893464 158.745502 188.803683 160.271282 188.37273 C 160.737991 188.22908 161.258552 187.995647 161.330353 187.546738 C 161.402154 187.187611 161.132899 186.828484 160.863644 186.559139 C 159.391715 185.032849 157.237672 184.117075 155.047729 184.063206 C 156.824814 184.24277 158.65575 184.081163 160.378984 183.578385 C 161.258552 183.326996 162.227871 182.788305 162.20992 181.944357 C 162.19197 181.154277 161.330353 180.6515 160.558488 180.328285 C 159.15836 179.753682 157.704381 179.32273 156.232452 179.035428 C 158.171091 179.556162 160.486686 180.005071 162.048367 178.784039 C 162.927935 178.083742 162.299672 176.790884 161.707311 176.108543 C 160.917495 175.174813 159.589169 174.672035 158.368544 174.474515 " stroke="#365fa0" stroke-width="0.835" stroke-opacity="1" stroke-miterlimit="10"/><g clip-path="url(#id3)"><path fill="#ef7e6b" d="M 50.25 23.371094 C 50.117188 23.59375 50.140625 24.644531 50.300781 25.449219 C 50.683594 27.371094 50.949219 29.769531 51.292969 31.707031 C 52.582031 38.980469 53.492188 45.15625 54.992188 52.398438 C 55.050781 52.667969 55.125 52.964844 55.351562 53.125 C 55.550781 53.265625 55.816406 53.257812 56.0625 53.25 C 57.984375 53.1875 61.921875 52.554688 62.214844 51.773438 C 62.644531 51.234375 59.703125 38.519531 59.441406 37.214844 C 58.914062 34.582031 58.546875 32.335938 58.058594 29.695312 C 57.761719 28.074219 57.28125 25.625 56.886719 24.003906 C 56.355469 21.808594 55.644531 21.773438 51.34375 22.839844 C 50.765625 22.984375 50.347656 23.203125 50.25 23.371094 Z M 50.25 23.371094 " fill-opacity="1" fill-rule="nonzero"/></g><path stroke-linecap="round" transform="matrix(0.217614, 0, 0, 0.217541, -8.689788, -8.545278)" fill="none" stroke-linejoin="round" d="M 273.93293 167.435626 C 282.800405 164.185526 292.044838 161.923026 301.432874 160.719951 " stroke="#365fa0" stroke-width="0.624" stroke-opacity="1" stroke-miterlimit="10"/><path stroke-linecap="round" transform="matrix(0.217614, 0, 0, 0.217541, -8.689788, -8.545278)" fill="none" stroke-linejoin="round" d="M 277.505051 187.816083 C 287.126441 185.625409 296.747831 183.434734 306.387172 181.262016 " stroke="#365fa0" stroke-width="0.624" stroke-opacity="1" stroke-miterlimit="10"/><path fill="#fdd28a" d="M 53.132812 34.398438 C 53.507812 36.578125 54.039062 39.410156 54.460938 41.5 C 54.472656 41.558594 54.492188 41.621094 54.542969 41.65625 C 54.59375 41.695312 54.667969 41.6875 54.730469 41.679688 C 56.109375 41.507812 57.4375 41.113281 58.820312 40.941406 C 58.179688 38.351562 58.050781 36.253906 57.410156 33.660156 C 55.066406 34.066406 53.132812 34.398438 53.132812 34.398438 Z M 53.132812 34.398438 " fill-opacity="1" fill-rule="nonzero"/><path stroke-linecap="round" transform="matrix(0.217614, 0, 0, 0.217541, -8.689788, -8.545278)" fill="none" stroke-linejoin="round" d="M 289.836945 262.011723 C 299.673739 260.144263 309.528484 258.294758 319.365278 256.445254 " stroke="#365fa0" stroke-width="0.624" stroke-opacity="1" stroke-miterlimit="10"/><path stroke-linecap="round" transform="matrix(0.217614, 0, 0, 0.217541, -8.689788, -8.545278)" fill="none" stroke-linejoin="round" d="M 290.734462 239.045551 C 291.560179 238.219559 292.098689 237.124221 292.206391 235.975015 C 292.260242 236.513706 292.314093 237.088309 292.601299 237.555174 C 292.906455 238.004083 293.552668 238.291384 294.037328 238.039995 C 294.306583 237.896344 294.468136 237.591087 294.611739 237.321741 C 295.006647 236.585531 295.347703 235.831364 295.616959 235.041285 C 295.796462 235.70567 296.047767 236.44188 296.622179 236.83692 C 297.304292 237.285829 298.255661 237.088309 298.865973 236.549618 C 299.476285 236.010928 299.799392 235.202892 299.978895 234.412813 C 299.763491 235.31063 300.553306 236.226404 301.468775 236.352098 C 302.366292 236.495749 303.26381 235.992971 303.874122 235.31063 C 304.484434 234.628289 304.843441 233.748428 305.184498 232.904479 C 305.094746 233.622733 305.310151 234.394856 305.830711 234.897634 C 306.351271 235.400412 307.194938 235.597932 307.841151 235.256761 C 308.271959 235.041285 308.577115 234.664201 308.864321 234.287118 C 309.564385 233.371344 310.282399 232.437614 310.461902 231.306364 " stroke="#365fa0" stroke-width="0.624" stroke-opacity="1" stroke-miterlimit="10"/></svg>