<svg xmlns="http://www.w3.org/2000/svg" width="100" viewBox="0 0 75 75" height="100" version="1.0"><defs><clipPath id="a"><path d="M9.355 17.813h56v39.75h-56zm0 0"/></clipPath><clipPath id="b"><path d="M62.645 31.848c3.011 3.129 3.468 6.68 1.37 10.652L39.38 56.926c-1.477.863-2.95.863-4.426 0L10.313 42.5c-1.7-3.95-1.137-7.5 1.695-10.652l18.84-12.125c3.476-2.465 7.226-2.543 11.254-.23l20.543 12.355"/></clipPath><clipPath id="c"><path d="M-7.465 47.906 51.703 81.91 82.13 27.48 22.96-6.523zm0 0"/></clipPath><linearGradient x1="-.36" gradientTransform="matrix(17.66348 -31.59857 31.16532 17.90903 28.654 53.607)" y1="0" x2="1.363" gradientUnits="userSpaceOnUse" y2="0" id="d"><stop stop-color="#E2DEDD" offset="0"/><stop stop-color="#E2DEDD" offset=".125"/><stop stop-color="#E2DEDD" offset=".188"/><stop stop-color="#E2DEDD" offset=".203"/><stop stop-color="#E2DEDE" offset=".211"/><stop stop-color="#E3DFDF" offset=".215"/><stop stop-color="#E4E0DF" offset=".219"/><stop stop-color="#E4E1E0" offset=".223"/><stop stop-color="#E5E2E1" offset=".227"/><stop stop-color="#E6E3E2" offset=".23"/><stop stop-color="#E7E4E3" offset=".234"/><stop stop-color="#E8E5E4" offset=".238"/><stop stop-color="#E8E5E5" offset=".242"/><stop stop-color="#E9E6E6" offset=".246"/><stop stop-color="#EAE7E6" offset=".25"/><stop stop-color="#EBE8E7" offset=".254"/><stop stop-color="#EBE9E8" offset=".258"/><stop stop-color="#ECEAE9" offset=".262"/><stop stop-color="#EDEAEA" offset=".266"/><stop stop-color="#EEEBEB" offset=".27"/><stop stop-color="#EEECEB" offset=".273"/><stop stop-color="#EFECEC" offset=".277"/><stop stop-color="#F0EDED" offset=".281"/><stop stop-color="#F1EEEE" offset=".285"/><stop stop-color="#F1EFEF" offset=".289"/><stop stop-color="#F2F0F0" offset=".293"/><stop stop-color="#F3F1F1" offset=".297"/><stop stop-color="#F4F2F2" offset=".301"/><stop stop-color="#F4F3F3" offset=".305"/><stop stop-color="#F5F4F4" offset=".309"/><stop stop-color="#F6F5F5" offset=".313"/><stop stop-color="#F7F6F6" offset=".316"/><stop stop-color="#F7F6F7" offset=".32"/><stop stop-color="#F8F7F8" offset=".324"/><stop stop-color="#F8F8F8" offset=".328"/><stop stop-color="#F9F9F9" offset=".336"/><stop stop-color="#F9F9F9" offset=".344"/><stop stop-color="#FBFBFB" offset=".348"/><stop stop-color="#FCFCFC" offset=".352"/><stop stop-color="#FDFDFD" offset=".355"/><stop stop-color="#FDFDFD" offset=".359"/><stop stop-color="#FEFEFE" offset=".363"/><stop stop-color="#FEFFFF" offset=".367"/><stop stop-color="#FFF" offset=".375"/><stop stop-color="#FFF" offset=".5"/><stop stop-color="#FFF" offset="1"/></linearGradient></defs><path fill="#ffecb3" d="M37.5 0C16.79 0 0 16.79 0 37.5S16.79 75 37.5 75 75 58.21 75 37.5 58.21 0 37.5 0"/><g clip-path="url(#a)"><g clip-path="url(#b)"><g clip-path="url(#c)"><path fill="url(#d)" d="m-7.46 47.898 59.202 34.02 30.43-54.441-59.203-34.02zm0 0"/></g></g></g><path fill="#ddd5ce" d="m45.305 32.945-1.344 1.02c-.285-.106-.676-.371-1.168-.79-.434-.366-.875-.593-1.332-.675.035-.281.184-.52.441-.71.27-.2.633-.337 1.09-.407.035-.301.07-.52.106-.653l.62.34.442-.34-.242.5.918-.062-.496.289.297.238c-.692.035-1.223.153-1.602.348-.469.238-.531.535-.187.89.652-.18 1.066-.285 1.242-.316.496-.097.941-.117 1.34-.058l.773.148-.02.2-.878.038M38.105 33.96c.38.114.641.31.793.58.07.148.133.401.188.765-.277.039-.711.09-1.305.152-.504.082-.863.219-1.078.41.258.153.645.235 1.16.246h1.293c-.484.09-1.191.16-2.12.211-.997.059-1.712.117-2.15.184.907-.227 1.516-.578 1.837-1.051.687-.066 1.18-.238 1.472-.52.313-.292.282-.62-.09-.976M24.262 36.156c.215.192.472.43.773.719-1.055.203-1.96.223-2.71.059a41.896 41.896 0 0 1 1.937-.778" fill-rule="evenodd"/><path fill="#d688c6" d="m55.656 32.215-.14-.309a57.818 57.818 0 0 0 1.457-.87c-.711.046-1.344.343-1.903.89-.605.605-1.168.969-1.687 1.082l-1.117-.61-.172-.3c.84-.528 1.445-.93 1.82-1.211.652-.489 1.055-.965 1.211-1.43 1.3-.121 2.613.121 3.934.734a7.919 7.919 0 0 0-1.368 1.614l2.536-.223c-.09.367-.157.598-.207.688-1.086.687-2.344 1.25-3.778 1.699-.168-.332-.097-.703.207-1.125.434-.461.727-.809.883-1.04l-1.676.41M42.727 23.098c-.84.316-1.59.465-2.25.441l.199-.473 1.484-.312-.89-.152c.558-.18 1.14-.29 1.746-.325a7.22 7.22 0 0 1 1.816.114c-.336.062-1.035.3-2.105.707M36.625 18.504c1.086.437 1.953.914 2.602 1.43.796.628 1.21 1.265 1.234 1.921-.36.63-1.523 1.086-3.484 1.364-1.372.093-2.54-.192-3.497-.856-.957-.672-1.23-1.398-.82-2.18.426.372.836.829 1.23 1.376-.05-.555.215-1.114.813-1.676.328-.313.969-.77 1.922-1.38M40.813 28.656c-.043.457-.27.86-.684 1.2l-.524-.356c-.066.43-.222.816-.476 1.16a4.68 4.68 0 0 1-.223-1.203c-.101.172-.25.461-.441.867-.235.328-.602.496-1.106.512-.925.125-1.773-.047-2.547-.523-.367-.227-.906-.696-1.62-1.41.46-.81.867-1.4 1.214-1.762.614-.633 1.465-.93 2.563-.883 1.586-.145 2.734.238 3.457 1.16.3.395.426.805.386 1.238zm-2.547-1.238-.008.617-1.098.168c.621.106 1.348.203 2.168.3l.262-.343-1.324-.742M49.36 34.45l.964-.966c1.09.063 1.739.32 1.942.77-.774.312-1.38.61-1.817.894-.27.157-.636.403-1.105.73-.024-.355-.219-.648-.586-.878-.38-.242-.867-.367-1.465-.371a8.215 8.215 0 0 1 2.066-.18M33.84 24.066c.785.743.738 1.45-.145 2.122-1.129.515-2.367.761-3.715.73-1.543-.031-2.457-.488-2.746-1.363a31.57 31.57 0 0 1 1.414-1.492 5.037 5.037 0 0 1 1.989-1.208c1.39.106 2.457.512 3.203 1.211M50.055 33.535c-.926.313-2.055.531-3.395.66a10.853 10.853 0 0 1 1.61-.511 6.429 6.429 0 0 1 1.785-.149M46.21 32.184c-.034.293-.296.418-.78.375-.399-.059-.844-.04-1.34.058-.176.031-.59.137-1.242.317-.344-.356-.282-.653.187-.891.38-.195.91-.313 1.602-.348l1.113-.172c.344.16.496.38.46.66M25.313 27.61c-.782.124-1.32.472-1.622 1.042-.16.32-.343.813-.546 1.48.851 0 1.543-.093 2.078-.28-.153.257-.45.468-.891.636-.297.11-.734.223-1.324.332l1.187.13c1.957-.934 2.946-2.036 2.97-3.298.69.57.917 1.22.683 1.95-.25.75-.926 1.261-2.024 1.53-.816.227-1.699.235-2.656.028-.832-.187-1.566-.496-2.203-.933-.438-.391-.543-.844-.324-1.36.21-.465.64-.89 1.285-1.27a5.069 5.069 0 0 1 2.125-.663c.832-.075 1.558.078 2.168.449l-.907.226M39.457 42.242c-.625.11-1.312.196-2.07.25.281-.164.601-.265.965-.308.359-.043.726-.024 1.105.058M22.324 36.934c.75.164 1.656.144 2.711-.059-.3-.29-.558-.527-.773-.719-.774.293-1.422.551-1.938.778zm4.383-1.387c.406.191.855.469 1.348.844-.578.648-1.305 1.144-2.176 1.484-1.082.418-2.117.457-3.094.117-.582-.199-.926-.476-1.035-.828-.102-.32-.004-.648.29-.992.28-.332.679-.598 1.194-.793a3.896 3.896 0 0 1 1.684-.27 4.652 4.652 0 0 1 1.789.438M40.457 44.195l.352-.113a2.88 2.88 0 0 1-1.16 1.094c-.594.32-1.266.453-2.016.398.047-.02.508-.258 1.383-.715a11.024 11.024 0 0 1 1.441-.664" fill-rule="evenodd"/><path fill="#d6abc8" d="M59.059 30.191c.449.391.84.852 1.168 1.391l-2.536.223c.36-.57.817-1.11 1.368-1.614M35.188 18.379c.73.055 1.21.098 1.437.125-.953.61-1.594 1.066-1.922 1.379-.598.562-.863 1.12-.812 1.676a8.087 8.087 0 0 0-1.23-1.375l.105-.387 2.422-1.418" fill-rule="evenodd"/><path fill="#d6abc8" d="M60.02 32.27c-.184.53-.672.968-1.458 1.308-.73.317-1.566.492-2.507.531-.961.043-1.778-.074-2.457-.351-.762-.305-1.207-.758-1.332-1.36l1.117.61c.52-.113 1.082-.477 1.687-1.082.559-.547 1.192-.844 1.903-.89-.32.198-.805.491-1.457.87l.14.309 1.676-.41c-.156.23-.45.578-.883 1.039-.304.422-.375.793-.207 1.125 1.434-.45 2.692-1.012 3.778-1.7M52.094 32.098c-.403-.535-.227-1.086.523-1.645.684-.504 1.52-.836 2.508-.996-.156.465-.559.941-1.21 1.43-.376.281-.981.683-1.821 1.21M52.547 34.438c.426.347.598.73.512 1.152-.086.379-.368.738-.844 1.074-.469.324-1.031.555-1.684.691a4.85 4.85 0 0 1-2.023.028c-.942-.145-1.621-.512-2.035-1.106-.38-.547-.442-1.105-.188-1.68.442.005.778.016 1.008.032.598.004 1.086.129 1.465.371.367.23.562.523.586.879a17.06 17.06 0 0 1 1.105-.73c.27-.11.614-.231 1.035-.364.473-.152.828-.265 1.063-.347M27.234 25.555c-.437-.657-.28-1.285.47-1.887.75-.61 1.726-.879 2.933-.813a5.037 5.037 0 0 0-1.989 1.207c-.335.325-.808.82-1.414 1.493M39.941 34.664c.418.36.625.766.614 1.223-.02.46-.246.863-.684 1.21-1.5.262-2.867.333-4.094.22-1.597-.157-2.566-.626-2.906-1.407l1.05.246 1.747-.527-1.285.86c.73.226 1.547.34 2.453.343a9.383 9.383 0 0 0 2.457-.324c.137-.227.262-.531.371-.91.129-.493.223-.801.277-.934M32.402 30.566c1.211.414 1.762 1.051 1.657 1.91-.118.844-.817 1.434-2.098 1.762-.762.328-1.617.403-2.574.223-.918-.164-1.598-.492-2.043-.984-.461-.391-.598-.825-.414-1.305.175-.442.578-.836 1.207-1.192a5.42 5.42 0 0 1 2.058-.671c.828-.098 1.563-.012 2.207.257M34.59 42.73c.73.063 1.394.153 1.988.27-.64.074-1.305-.016-1.988-.27" fill-rule="evenodd"/><path fill="#d75cb5" d="M51.742 26.172c.047.121.371.512.973 1.18.418.476.523.89.316 1.238-.21.433-.699.805-1.468 1.113-.438.18-1.172.395-2.204.649l.25-.961-1.457.695c.043-.082.22-.387.532-.922.199-.488.593-.996 1.187-1.527.23-.211.797-.66 1.711-1.348l.16-.117M42.754 23.188c.492-.29 1.07-.458 1.738-.512.754-.059 1.309.09 1.664.437.625.813.469 1.61-.468 2.39-.922.782-2.141 1.169-3.653 1.161-.512-.152-1.074-.402-1.691-.758a81.85 81.85 0 0 0-1.559-.87c.426-.454.79-.856 1.09-1.216.781-.168 1.824-.136 3.133.094 1.422.25 2.476.328 3.164.242l-.402-.457-1.883.32-1.133-.831M43.746 37.23c.875-.015 1.637.18 2.277.583.536.257.84.628.918 1.109.059.379-.027.797-.261 1.258-.797.648-1.887 1.02-3.274 1.105-1.465.094-2.566-.21-3.312-.914-.348-.45-.371-.926-.07-1.434.28-.468.773-.863 1.476-1.19a5.446 5.446 0 0 1 2.246-.517M25.223 29.852c-.535.187-1.227.28-2.078.28.203-.667.386-1.16.546-1.48.301-.57.84-.918 1.622-1.043-.387.57-.594.914-.633 1.032-.125.433.16.648.855.648a5.265 5.265 0 0 1-.312.563M27.465 41.258c.64-1.86 1.836-3.082 3.59-3.672.797-.125 1.52.031 2.168.469.203.133.656.55 1.355 1.258-.058 1.046-.61 1.718-1.652 2.011l-.559-.453.27.887c-1.121.207-2.051.297-2.79.273-1.023-.039-1.82-.297-2.382-.773" fill-rule="evenodd"/><path fill="#c265b9" d="M47.219 28.844c-.297-.559-.059-1.137.71-1.735 1.032-.644 1.755-1.12 2.165-1.425l1.488.605c-.914.688-1.48 1.137-1.71 1.348-.595.531-.99 1.039-1.188 1.527a3.18 3.18 0 0 1-.493.387c-.12.082-.304.199-.55.351a87.53 87.53 0 0 1-1.422-.644l1-.414M46.867 32.883c-.222.37-.66.62-1.312.75-.371.469-1.055.633-2.051.496-.91-.121-1.598-.387-2.05-.8-.759-.571-.84-1.212-.247-1.923.613-.722 1.54-1.039 2.781-.945.668-.031 1.274.086 1.817.36.492.25.843.574 1.054.972.203.395.207.758.008 1.09zm-1.117-1.36-1.113.172-.297-.238.496-.289-.918.062.242-.5-.441.34-.621-.34c-.035.133-.07.352-.106.653-.457.07-.82.207-1.09.406-.257.191-.406.43-.441.711.457.082.898.309 1.332.676.492.418.883.683 1.168.789l1.344-1.02.879-.039.02-.199-.774-.148c.484.043.746-.082.78-.375.036-.282-.116-.5-.46-.66M39.59 28.16l-.262.344a45.275 45.275 0 0 1-2.168-.3l1.098-.169.008-.617 1.324.742M39.941 34.664c-.054.133-.148.441-.277.934-.11.379-.234.683-.371.91-.766.21-1.586.32-2.457.324-.906-.004-1.723-.117-2.453-.344l1.285-.86-1.746.528-1.05-.246c-.056-.285.026-.582.25-.898.132-.196.382-.469.745-.813.621.485.535 1.059-.258 1.715.403-.316.723-.539.953-.668.41-.234.836-.246 1.266-.027a28.679 28.679 0 0 1-1.746-1.032l1.11-.66c.726.203 1.308.442 1.745.72.106-.235.336-.392.684-.477a2.787 2.787 0 0 1 1.07-.016c.383.062.696.176.934.336.266.176.371.367.316.574zm-1.836-.703c.372.355.403.684.09.977-.293.28-.785.453-1.472.519-.32.473-.93.824-1.836 1.05.437-.066 1.152-.124 2.148-.183.93-.05 1.637-.12 2.121-.21h-1.293c-.515-.012-.902-.094-1.16-.247.215-.191.574-.328 1.078-.41a41.467 41.467 0 0 0 1.305-.152c-.055-.364-.117-.617-.188-.766-.152-.27-.414-.465-.793-.578M34.59 42.73c.683.254 1.347.344 1.988.27a18.466 18.466 0 0 0-1.988-.27zm6.441-.367c.055.176.18.492.38.946.077.39-.126.648-.602.773l-.352.113c-.414.149-.895.371-1.441.664-.875.457-1.336.696-1.383.715l-.164.086c-1.68.106-2.844-.297-3.5-1.207-.282-.39-.375-.8-.278-1.238.094-.45.383-.848.864-1.2.636-.675 1.664-1.003 3.093-.992 1.403.02 2.442.36 3.114 1.012l-.614.242zm-2.68-.18a2.462 2.462 0 0 0-.964.31c.758-.056 1.445-.141 2.07-.25a3.322 3.322 0 0 0-1.105-.06M21.04 31.648c.26-.187.519-.183.76.016-.015.152-.132.215-.347.195-.21-.015-.348-.086-.414-.21" fill-rule="evenodd"/><path fill="#bf289b" d="m25.313 27.61.332-.09c-.051.449.039.886.27 1.316l-.38.453c-.695 0-.98-.215-.855-.648.039-.118.246-.461.633-1.032" fill-rule="evenodd"/><path fill="#aba59b" d="M21.8 31.664c.298.582.38 1.11.247 1.586-.164.578-.621 1.023-1.375 1.332-.957.547-2.094.629-3.422.254-1.316-.371-1.938-.941-1.86-1.711-.042-.39.137-.758.547-1.102.38-.324.883-.578 1.52-.753a5.34 5.34 0 0 1 1.89-.188c.684.055 1.247.246 1.692.566.066.125.203.196.414.211.215.02.332-.043.348-.195" fill-rule="evenodd"/><path fill="#d8d1d0" d="M56.871 36.477c-2.695 1.48-5.473 3.222-8.332 5.222-1.621 1.133-3.516 2.453-5.676 3.961-1.441 1.043-2.441 1.906-3.004 2.594-.609.738-1 1.605-1.172 2.601-.14.762-.207 2.09-.207 3.993 0 .632.188.949.57.949.782 0 3.497-1.36 8.145-4.078 4.836-2.899 7.621-4.543 8.356-4.93 4.234-2.191 6.867-3.926 7.898-5.203a4.537 4.537 0 0 0 .965-2.121c.094-.485.137-1.34.137-2.57 0-1.797-.73-2.704-2.192-2.715-1.379-.016-3.207.75-5.488 2.297" fill-rule="evenodd"/></svg>