<svg xmlns="http://www.w3.org/2000/svg" xmlns:xlink="http://www.w3.org/1999/xlink" width="100" zoomAndPan="magnify" viewBox="0 0 75 74.999997" height="100" preserveAspectRatio="xMidYMid meet" version="1.0"><defs><clipPath id="id1"><path d="M 9.355469 17.8125 L 65.355469 17.8125 L 65.355469 57.5625 L 9.355469 57.5625 Z M 9.355469 17.8125 " clip-rule="nonzero"/></clipPath><clipPath id="id2"><path d="M 62.644531 31.847656 C 65.65625 34.976562 66.113281 38.527344 64.015625 42.5 L 39.378906 56.925781 C 37.902344 57.789062 36.429688 57.789062 34.953125 56.925781 L 10.3125 42.5 C 8.613281 38.550781 9.175781 35 12.007812 31.847656 L 30.847656 19.722656 C 34.324219 17.257812 38.074219 17.179688 42.101562 19.492188 L 62.644531 31.847656 " clip-rule="nonzero"/></clipPath><clipPath id="id3"><path d="M -7.464844 47.90625 L 51.703125 81.910156 L 82.128906 27.480469 L 22.960938 -6.523438 Z M -7.464844 47.90625 " clip-rule="nonzero"/></clipPath><linearGradient x1="-0.360361" gradientTransform="matrix(17.663482, -31.598571, 31.16532, 17.909034, 28.654385, 53.607358)" y1="0" x2="1.362566" gradientUnits="userSpaceOnUse" y2="0" id="id4"><stop stop-opacity="1" stop-color="rgb(88.598633%, 87.098694%, 86.698914%)" offset="0"/><stop stop-opacity="1" stop-color="rgb(88.598633%, 87.098694%, 86.698914%)" offset="0.125"/><stop stop-opacity="1" stop-color="rgb(88.598633%, 87.098694%, 86.698914%)" offset="0.1875"/><stop stop-opacity="1" stop-color="rgb(88.598633%, 87.098694%, 86.711121%)" offset="0.203125"/><stop stop-opacity="1" stop-color="rgb(88.613892%, 87.113953%, 86.911011%)" offset="0.210938"/><stop stop-opacity="1" stop-color="rgb(89.019775%, 87.469482%, 87.303162%)" offset="0.214844"/><stop stop-opacity="1" stop-color="rgb(89.4104%, 87.809753%, 87.507629%)" offset="0.21875"/><stop stop-opacity="1" stop-color="rgb(89.604187%, 88.200378%, 87.849426%)" offset="0.222656"/><stop stop-opacity="1" stop-color="rgb(89.7995%, 88.591003%, 88.191223%)" offset="0.226562"/><stop stop-opacity="1" stop-color="rgb(90.235901%, 89.031982%, 88.632202%)" offset="0.230469"/><stop stop-opacity="1" stop-color="rgb(90.672302%, 89.472961%, 89.073181%)" offset="0.234375"/><stop stop-opacity="1" stop-color="rgb(90.863037%, 89.663696%, 89.43634%)" offset="0.238281"/><stop stop-opacity="1" stop-color="rgb(91.053772%, 89.854431%, 89.7995%)" offset="0.242188"/><stop stop-opacity="1" stop-color="rgb(91.444397%, 90.245056%, 90.0177%)" offset="0.246094"/><stop stop-opacity="1" stop-color="rgb(91.835022%, 90.635681%, 90.235901%)" offset="0.25"/><stop stop-opacity="1" stop-color="rgb(92.022705%, 91.017151%, 90.626526%)" offset="0.253906"/><stop stop-opacity="1" stop-color="rgb(92.211914%, 91.398621%, 91.017151%)" offset="0.257812"/><stop stop-opacity="1" stop-color="rgb(92.553711%, 91.598511%, 91.407776%)" offset="0.261719"/><stop stop-opacity="1" stop-color="rgb(92.897034%, 91.798401%, 91.798401%)" offset="0.265625"/><stop stop-opacity="1" stop-color="rgb(93.138123%, 92.147827%, 92.028809%)" offset="0.269531"/><stop stop-opacity="1" stop-color="rgb(93.379211%, 92.498779%, 92.259216%)" offset="0.273438"/><stop stop-opacity="1" stop-color="rgb(93.769836%, 92.729187%, 92.608643%)" offset="0.277344"/><stop stop-opacity="1" stop-color="rgb(94.160461%, 92.959595%, 92.959595%)" offset="0.28125"/><stop stop-opacity="1" stop-color="rgb(94.351196%, 93.35022%, 93.35022%)" offset="0.285156"/><stop stop-opacity="1" stop-color="rgb(94.541931%, 93.740845%, 93.740845%)" offset="0.289062"/><stop stop-opacity="1" stop-color="rgb(94.932556%, 94.13147%, 94.13147%)" offset="0.292969"/><stop stop-opacity="1" stop-color="rgb(95.323181%, 94.522095%, 94.522095%)" offset="0.296875"/><stop stop-opacity="1" stop-color="rgb(95.51239%, 94.91272%, 94.91272%)" offset="0.300781"/><stop stop-opacity="1" stop-color="rgb(95.703125%, 95.303345%, 95.303345%)" offset="0.304688"/><stop stop-opacity="1" stop-color="rgb(96.09375%, 95.69397%, 95.69397%)" offset="0.308594"/><stop stop-opacity="1" stop-color="rgb(96.484375%, 96.084595%, 96.084595%)" offset="0.3125"/><stop stop-opacity="1" stop-color="rgb(96.725464%, 96.325684%, 96.525574%)" offset="0.316406"/><stop stop-opacity="1" stop-color="rgb(96.966553%, 96.566772%, 96.966553%)" offset="0.320312"/><stop stop-opacity="1" stop-color="rgb(97.151184%, 96.951294%, 97.151184%)" offset="0.324219"/><stop stop-opacity="1" stop-color="rgb(97.335815%, 97.335815%, 97.335815%)" offset="0.328125"/><stop stop-opacity="1" stop-color="rgb(97.4823%, 97.4823%, 97.4823%)" offset="0.335938"/><stop stop-opacity="1" stop-color="rgb(97.819519%, 97.819519%, 97.819519%)" offset="0.34375"/><stop stop-opacity="1" stop-color="rgb(98.400879%, 98.400879%, 98.400879%)" offset="0.347656"/><stop stop-opacity="1" stop-color="rgb(98.791504%, 98.791504%, 98.791504%)" offset="0.351562"/><stop stop-opacity="1" stop-color="rgb(99.031067%, 99.031067%, 99.031067%)" offset="0.355469"/><stop stop-opacity="1" stop-color="rgb(99.272156%, 99.272156%, 99.272156%)" offset="0.359375"/><stop stop-opacity="1" stop-color="rgb(99.449158%, 99.635315%, 99.635315%)" offset="0.363281"/><stop stop-opacity="1" stop-color="rgb(99.62616%, 100%, 100%)" offset="0.367188"/><stop stop-opacity="1" stop-color="rgb(99.812317%, 100%, 100%)" offset="0.375"/><stop stop-opacity="1" stop-color="rgb(100%, 100%, 100%)" offset="0.5"/><stop stop-opacity="1" stop-color="rgb(100%, 100%, 100%)" offset="1"/></linearGradient></defs><path fill="#ffecb3" d="M 37.5 0 C 16.789062 0 0 16.789062 0 37.5 C 0 58.210938 16.789062 75 37.5 75 C 58.210938 75 75 58.210938 75 37.5 C 75 16.789062 58.210938 0 37.5 0 " fill-opacity="1" fill-rule="nonzero"/><g clip-path="url(#id1)"><g clip-path="url(#id2)"><g clip-path="url(#id3)"><path fill="url(#id4)" d="M -7.460938 47.898438 L 51.742188 81.917969 L 82.171875 27.476562 L 22.96875 -6.542969 Z M -7.460938 47.898438 " fill-rule="nonzero"/></g></g></g><path fill="#ddd5ce" d="M 45.304688 32.945312 L 43.960938 33.964844 C 43.675781 33.859375 43.285156 33.59375 42.792969 33.175781 C 42.359375 32.808594 41.917969 32.582031 41.460938 32.5 C 41.496094 32.21875 41.644531 31.980469 41.902344 31.789062 C 42.171875 31.589844 42.535156 31.453125 42.992188 31.382812 C 43.027344 31.082031 43.0625 30.863281 43.097656 30.730469 L 43.71875 31.070312 L 44.160156 30.730469 L 43.917969 31.230469 L 44.835938 31.167969 L 44.339844 31.457031 L 44.636719 31.695312 C 43.945312 31.730469 43.414062 31.847656 43.035156 32.042969 C 42.566406 32.28125 42.503906 32.578125 42.847656 32.933594 C 43.5 32.753906 43.914062 32.648438 44.089844 32.617188 C 44.585938 32.519531 45.03125 32.5 45.429688 32.558594 L 46.203125 32.707031 L 46.183594 32.90625 L 45.304688 32.945312 " fill-opacity="1" fill-rule="evenodd"/><path fill="#ddd5ce" d="M 38.105469 33.960938 C 38.484375 34.074219 38.746094 34.269531 38.898438 34.539062 C 38.96875 34.6875 39.03125 34.941406 39.085938 35.304688 C 38.808594 35.34375 38.375 35.394531 37.78125 35.457031 C 37.277344 35.539062 36.917969 35.675781 36.703125 35.867188 C 36.960938 36.019531 37.347656 36.101562 37.863281 36.113281 C 38.152344 36.113281 38.582031 36.113281 39.15625 36.113281 C 38.671875 36.203125 37.964844 36.273438 37.035156 36.324219 C 36.039062 36.382812 35.324219 36.441406 34.886719 36.507812 C 35.792969 36.28125 36.402344 35.929688 36.722656 35.457031 C 37.410156 35.390625 37.902344 35.21875 38.195312 34.9375 C 38.507812 34.644531 38.476562 34.316406 38.105469 33.960938 " fill-opacity="1" fill-rule="evenodd"/><path fill="#ddd5ce" d="M 24.261719 36.15625 C 24.476562 36.347656 24.734375 36.585938 25.035156 36.875 C 23.980469 37.078125 23.074219 37.097656 22.324219 36.933594 C 22.839844 36.707031 23.488281 36.449219 24.261719 36.15625 " fill-opacity="1" fill-rule="evenodd"/><path fill="#d688c6" d="M 55.65625 32.214844 L 55.515625 31.90625 C 56.167969 31.527344 56.652344 31.234375 56.972656 31.035156 C 56.261719 31.082031 55.628906 31.378906 55.070312 31.925781 C 54.464844 32.53125 53.902344 32.894531 53.382812 33.007812 L 52.265625 32.398438 L 52.09375 32.097656 C 52.933594 31.570312 53.539062 31.167969 53.914062 30.886719 C 54.566406 30.398438 54.96875 29.921875 55.125 29.457031 C 56.425781 29.335938 57.738281 29.578125 59.058594 30.191406 C 58.507812 30.695312 58.050781 31.234375 57.691406 31.804688 L 60.226562 31.582031 C 60.136719 31.949219 60.070312 32.179688 60.019531 32.269531 C 58.933594 32.957031 57.675781 33.519531 56.242188 33.96875 C 56.074219 33.636719 56.144531 33.265625 56.449219 32.84375 C 56.882812 32.382812 57.175781 32.035156 57.332031 31.804688 L 55.65625 32.214844 " fill-opacity="1" fill-rule="evenodd"/><path fill="#d688c6" d="M 42.726562 23.097656 C 41.886719 23.414062 41.136719 23.5625 40.476562 23.539062 L 40.675781 23.066406 L 42.160156 22.753906 L 41.269531 22.601562 C 41.828125 22.421875 42.410156 22.3125 43.015625 22.277344 C 43.632812 22.238281 44.238281 22.277344 44.832031 22.390625 C 44.496094 22.453125 43.796875 22.691406 42.726562 23.097656 " fill-opacity="1" fill-rule="evenodd"/><path fill="#d688c6" d="M 36.625 18.503906 C 37.710938 18.941406 38.578125 19.417969 39.226562 19.933594 C 40.023438 20.5625 40.4375 21.199219 40.460938 21.855469 C 40.101562 22.484375 38.9375 22.941406 36.976562 23.21875 C 35.605469 23.3125 34.4375 23.027344 33.480469 22.363281 C 32.523438 21.691406 32.25 20.964844 32.660156 20.183594 C 33.085938 20.554688 33.496094 21.011719 33.890625 21.558594 C 33.839844 21.003906 34.105469 20.445312 34.703125 19.882812 C 35.03125 19.570312 35.671875 19.113281 36.625 18.503906 " fill-opacity="1" fill-rule="evenodd"/><path fill="#d688c6" d="M 40.8125 28.65625 C 40.769531 29.113281 40.542969 29.515625 40.128906 29.855469 L 39.605469 29.5 C 39.539062 29.929688 39.382812 30.316406 39.128906 30.660156 C 39.011719 30.308594 38.933594 29.910156 38.90625 29.457031 C 38.804688 29.628906 38.65625 29.917969 38.464844 30.324219 C 38.230469 30.652344 37.863281 30.820312 37.359375 30.835938 C 36.433594 30.960938 35.585938 30.789062 34.8125 30.3125 C 34.445312 30.085938 33.90625 29.617188 33.191406 28.902344 C 33.652344 28.09375 34.058594 27.503906 34.40625 27.140625 C 35.019531 26.507812 35.871094 26.210938 36.96875 26.257812 C 38.554688 26.113281 39.703125 26.496094 40.425781 27.417969 C 40.726562 27.8125 40.851562 28.222656 40.8125 28.65625 Z M 38.265625 27.417969 L 38.257812 28.035156 L 37.160156 28.203125 C 37.78125 28.308594 38.507812 28.40625 39.328125 28.503906 L 39.589844 28.160156 L 38.265625 27.417969 " fill-opacity="1" fill-rule="evenodd"/><path fill="#d688c6" d="M 49.359375 34.449219 L 50.324219 33.484375 C 51.414062 33.546875 52.0625 33.804688 52.265625 34.253906 C 51.492188 34.566406 50.886719 34.863281 50.449219 35.148438 C 50.179688 35.304688 49.8125 35.550781 49.34375 35.878906 C 49.320312 35.523438 49.125 35.230469 48.757812 35 C 48.378906 34.757812 47.890625 34.632812 47.292969 34.628906 C 47.914062 34.488281 48.605469 34.425781 49.359375 34.449219 " fill-opacity="1" fill-rule="evenodd"/><path fill="#d688c6" d="M 33.839844 24.066406 C 34.625 24.808594 34.578125 25.515625 33.695312 26.1875 C 32.566406 26.703125 31.328125 26.949219 29.980469 26.917969 C 28.4375 26.886719 27.523438 26.429688 27.234375 25.554688 C 27.839844 24.882812 28.3125 24.386719 28.648438 24.0625 C 29.234375 23.496094 29.898438 23.089844 30.636719 22.855469 C 32.027344 22.960938 33.09375 23.367188 33.839844 24.066406 " fill-opacity="1" fill-rule="evenodd"/><path fill="#d688c6" d="M 50.054688 33.535156 C 49.128906 33.847656 48 34.066406 46.660156 34.195312 C 47.253906 33.960938 47.792969 33.789062 48.269531 33.683594 C 48.890625 33.546875 49.484375 33.5 50.054688 33.535156 " fill-opacity="1" fill-rule="evenodd"/><path fill="#d688c6" d="M 46.210938 32.183594 C 46.175781 32.476562 45.914062 32.601562 45.429688 32.558594 C 45.03125 32.5 44.585938 32.519531 44.089844 32.617188 C 43.914062 32.648438 43.5 32.753906 42.847656 32.933594 C 42.503906 32.578125 42.566406 32.28125 43.035156 32.042969 C 43.414062 31.847656 43.945312 31.730469 44.636719 31.695312 L 45.75 31.523438 C 46.09375 31.683594 46.246094 31.902344 46.210938 32.183594 " fill-opacity="1" fill-rule="evenodd"/><path fill="#d688c6" d="M 25.3125 27.609375 C 24.53125 27.734375 23.992188 28.082031 23.691406 28.652344 C 23.53125 28.972656 23.347656 29.464844 23.144531 30.132812 C 23.996094 30.132812 24.6875 30.039062 25.222656 29.851562 C 25.070312 30.109375 24.773438 30.320312 24.332031 30.488281 C 24.035156 30.597656 23.597656 30.710938 23.007812 30.820312 L 24.195312 30.949219 C 26.152344 30.015625 27.140625 28.914062 27.164062 27.652344 C 27.855469 28.222656 28.082031 28.871094 27.847656 29.601562 C 27.597656 30.351562 26.921875 30.863281 25.824219 31.132812 C 25.007812 31.359375 24.125 31.367188 23.167969 31.160156 C 22.335938 30.972656 21.601562 30.664062 20.964844 30.226562 C 20.527344 29.835938 20.421875 29.382812 20.640625 28.867188 C 20.851562 28.402344 21.28125 27.976562 21.925781 27.597656 C 22.585938 27.21875 23.296875 26.996094 24.050781 26.933594 C 24.882812 26.859375 25.609375 27.011719 26.21875 27.382812 L 25.3125 27.609375 " fill-opacity="1" fill-rule="evenodd"/><path fill="#d688c6" d="M 39.457031 42.242188 C 38.832031 42.351562 38.144531 42.4375 37.386719 42.492188 C 37.667969 42.328125 37.988281 42.226562 38.351562 42.183594 C 38.710938 42.140625 39.078125 42.160156 39.457031 42.242188 " fill-opacity="1" fill-rule="evenodd"/><path fill="#d688c6" d="M 22.324219 36.933594 C 23.074219 37.097656 23.980469 37.078125 25.035156 36.875 C 24.734375 36.585938 24.476562 36.347656 24.261719 36.15625 C 23.488281 36.449219 22.839844 36.707031 22.324219 36.933594 Z M 26.707031 35.546875 C 27.113281 35.738281 27.5625 36.015625 28.054688 36.390625 C 27.476562 37.039062 26.75 37.535156 25.878906 37.875 C 24.796875 38.292969 23.761719 38.332031 22.785156 37.992188 C 22.203125 37.792969 21.859375 37.515625 21.75 37.164062 C 21.648438 36.84375 21.746094 36.515625 22.039062 36.171875 C 22.320312 35.839844 22.71875 35.574219 23.234375 35.378906 C 23.78125 35.164062 24.339844 35.074219 24.917969 35.109375 C 25.535156 35.132812 26.132812 35.28125 26.707031 35.546875 " fill-opacity="1" fill-rule="evenodd"/><path fill="#d688c6" d="M 40.457031 44.195312 L 40.808594 44.082031 C 40.539062 44.542969 40.152344 44.90625 39.648438 45.175781 C 39.054688 45.496094 38.382812 45.628906 37.632812 45.574219 C 37.679688 45.554688 38.140625 45.316406 39.015625 44.859375 C 39.5625 44.566406 40.042969 44.34375 40.457031 44.195312 " fill-opacity="1" fill-rule="evenodd"/><path fill="#d6abc8" d="M 59.058594 30.191406 C 59.507812 30.582031 59.898438 31.042969 60.226562 31.582031 L 57.691406 31.804688 C 58.050781 31.234375 58.507812 30.695312 59.058594 30.191406 " fill-opacity="1" fill-rule="evenodd"/><path fill="#d6abc8" d="M 35.1875 18.378906 C 35.917969 18.433594 36.398438 18.476562 36.625 18.503906 C 35.671875 19.113281 35.03125 19.570312 34.703125 19.882812 C 34.105469 20.445312 33.839844 21.003906 33.890625 21.558594 C 33.496094 21.011719 33.085938 20.554688 32.660156 20.183594 L 32.765625 19.796875 L 35.1875 18.378906 " fill-opacity="1" fill-rule="evenodd"/><path fill="#d6abc8" d="M 60.019531 32.269531 C 59.835938 32.800781 59.347656 33.238281 58.5625 33.578125 C 57.832031 33.894531 56.996094 34.070312 56.054688 34.109375 C 55.09375 34.152344 54.277344 34.035156 53.597656 33.757812 C 52.835938 33.453125 52.390625 33 52.265625 32.398438 L 53.382812 33.007812 C 53.902344 32.894531 54.464844 32.53125 55.070312 31.925781 C 55.628906 31.378906 56.261719 31.082031 56.972656 31.035156 C 56.652344 31.234375 56.167969 31.527344 55.515625 31.90625 L 55.65625 32.214844 L 57.332031 31.804688 C 57.175781 32.035156 56.882812 32.382812 56.449219 32.84375 C 56.144531 33.265625 56.074219 33.636719 56.242188 33.96875 C 57.675781 33.519531 58.933594 32.957031 60.019531 32.269531 " fill-opacity="1" fill-rule="evenodd"/><path fill="#d6abc8" d="M 52.09375 32.097656 C 51.691406 31.5625 51.867188 31.011719 52.617188 30.453125 C 53.300781 29.949219 54.136719 29.617188 55.125 29.457031 C 54.96875 29.921875 54.566406 30.398438 53.914062 30.886719 C 53.539062 31.167969 52.933594 31.570312 52.09375 32.097656 " fill-opacity="1" fill-rule="evenodd"/><path fill="#d6abc8" d="M 52.546875 34.4375 C 52.972656 34.785156 53.144531 35.167969 53.058594 35.589844 C 52.972656 35.96875 52.691406 36.328125 52.214844 36.664062 C 51.746094 36.988281 51.183594 37.21875 50.53125 37.355469 C 49.828125 37.507812 49.15625 37.515625 48.507812 37.382812 C 47.566406 37.238281 46.886719 36.871094 46.472656 36.277344 C 46.09375 35.730469 46.03125 35.171875 46.285156 34.597656 C 46.726562 34.601562 47.0625 34.613281 47.292969 34.628906 C 47.890625 34.632812 48.378906 34.757812 48.757812 35 C 49.125 35.230469 49.320312 35.523438 49.34375 35.878906 C 49.8125 35.550781 50.179688 35.304688 50.449219 35.148438 C 50.71875 35.039062 51.0625 34.917969 51.484375 34.785156 C 51.957031 34.632812 52.3125 34.519531 52.546875 34.4375 " fill-opacity="1" fill-rule="evenodd"/><path fill="#d6abc8" d="M 27.234375 25.554688 C 26.796875 24.898438 26.953125 24.269531 27.703125 23.667969 C 28.453125 23.058594 29.429688 22.789062 30.636719 22.855469 C 29.898438 23.089844 29.234375 23.496094 28.648438 24.0625 C 28.3125 24.386719 27.839844 24.882812 27.234375 25.554688 " fill-opacity="1" fill-rule="evenodd"/><path fill="#d6abc8" d="M 39.941406 34.664062 C 40.359375 35.023438 40.566406 35.429688 40.554688 35.886719 C 40.535156 36.347656 40.308594 36.75 39.871094 37.097656 C 38.371094 37.359375 37.003906 37.429688 35.777344 37.316406 C 34.179688 37.160156 33.210938 36.691406 32.871094 35.910156 L 33.921875 36.15625 L 35.667969 35.628906 L 34.382812 36.488281 C 35.113281 36.714844 35.929688 36.828125 36.835938 36.832031 C 37.707031 36.828125 38.527344 36.71875 39.292969 36.507812 C 39.429688 36.28125 39.554688 35.976562 39.664062 35.597656 C 39.792969 35.105469 39.886719 34.796875 39.941406 34.664062 " fill-opacity="1" fill-rule="evenodd"/><path fill="#d6abc8" d="M 32.402344 30.566406 C 33.613281 30.980469 34.164062 31.617188 34.058594 32.476562 C 33.941406 33.320312 33.242188 33.910156 31.960938 34.238281 C 31.199219 34.566406 30.34375 34.640625 29.386719 34.460938 C 28.46875 34.296875 27.789062 33.96875 27.34375 33.476562 C 26.882812 33.085938 26.746094 32.652344 26.929688 32.171875 C 27.105469 31.730469 27.507812 31.335938 28.136719 30.980469 C 28.753906 30.625 29.441406 30.402344 30.195312 30.308594 C 31.023438 30.210938 31.757812 30.296875 32.402344 30.566406 " fill-opacity="1" fill-rule="evenodd"/><path fill="#d6abc8" d="M 34.589844 42.730469 C 35.320312 42.792969 35.984375 42.882812 36.578125 43 C 35.9375 43.074219 35.273438 42.984375 34.589844 42.730469 " fill-opacity="1" fill-rule="evenodd"/><path fill="#d75cb5" d="M 51.742188 26.171875 C 51.789062 26.292969 52.113281 26.683594 52.714844 27.351562 C 53.132812 27.828125 53.238281 28.242188 53.03125 28.589844 C 52.820312 29.023438 52.332031 29.394531 51.5625 29.703125 C 51.125 29.882812 50.390625 30.097656 49.359375 30.351562 L 49.609375 29.390625 L 48.152344 30.085938 C 48.195312 30.003906 48.371094 29.699219 48.683594 29.164062 C 48.882812 28.675781 49.277344 28.167969 49.871094 27.636719 C 50.101562 27.425781 50.667969 26.976562 51.582031 26.289062 L 51.742188 26.171875 " fill-opacity="1" fill-rule="evenodd"/><path fill="#d75cb5" d="M 42.753906 23.1875 C 43.246094 22.898438 43.824219 22.730469 44.492188 22.675781 C 45.246094 22.617188 45.800781 22.765625 46.15625 23.113281 C 46.78125 23.925781 46.625 24.722656 45.6875 25.503906 C 44.765625 26.285156 43.546875 26.671875 42.035156 26.664062 C 41.523438 26.511719 40.960938 26.261719 40.34375 25.90625 C 39.398438 25.371094 38.878906 25.082031 38.785156 25.035156 C 39.210938 24.582031 39.574219 24.179688 39.875 23.820312 C 40.65625 23.652344 41.699219 23.683594 43.007812 23.914062 C 44.429688 24.164062 45.484375 24.242188 46.171875 24.15625 L 45.769531 23.699219 L 43.886719 24.019531 L 42.753906 23.1875 " fill-opacity="1" fill-rule="evenodd"/><path fill="#d75cb5" d="M 43.746094 37.230469 C 44.621094 37.214844 45.382812 37.410156 46.023438 37.8125 C 46.558594 38.070312 46.863281 38.441406 46.941406 38.921875 C 47 39.300781 46.914062 39.71875 46.679688 40.179688 C 45.882812 40.828125 44.792969 41.199219 43.40625 41.285156 C 41.941406 41.378906 40.839844 41.074219 40.09375 40.371094 C 39.746094 39.921875 39.722656 39.445312 40.023438 38.9375 C 40.304688 38.46875 40.796875 38.074219 41.5 37.746094 C 42.210938 37.414062 42.960938 37.242188 43.746094 37.230469 " fill-opacity="1" fill-rule="evenodd"/><path fill="#d75cb5" d="M 25.222656 29.851562 C 24.6875 30.039062 23.996094 30.132812 23.144531 30.132812 C 23.347656 29.464844 23.53125 28.972656 23.691406 28.652344 C 23.992188 28.082031 24.53125 27.734375 25.3125 27.609375 C 24.925781 28.179688 24.71875 28.523438 24.679688 28.640625 C 24.554688 29.074219 24.839844 29.289062 25.535156 29.289062 C 25.453125 29.464844 25.347656 29.652344 25.222656 29.851562 " fill-opacity="1" fill-rule="evenodd"/><path fill="#d75cb5" d="M 27.464844 41.257812 C 28.105469 39.398438 29.300781 38.175781 31.054688 37.585938 C 31.851562 37.460938 32.574219 37.617188 33.222656 38.054688 C 33.425781 38.1875 33.878906 38.605469 34.578125 39.3125 C 34.519531 40.359375 33.96875 41.03125 32.925781 41.324219 L 32.367188 40.871094 L 32.636719 41.757812 C 31.515625 41.964844 30.585938 42.054688 29.847656 42.03125 C 28.824219 41.992188 28.027344 41.734375 27.464844 41.257812 " fill-opacity="1" fill-rule="evenodd"/><path fill="#c265b9" d="M 47.21875 28.84375 C 46.921875 28.285156 47.160156 27.707031 47.929688 27.109375 C 48.960938 26.464844 49.683594 25.988281 50.09375 25.683594 L 51.582031 26.289062 C 50.667969 26.976562 50.101562 27.425781 49.871094 27.636719 C 49.277344 28.167969 48.882812 28.675781 48.683594 29.164062 C 48.5625 29.285156 48.398438 29.414062 48.191406 29.550781 C 48.070312 29.632812 47.886719 29.75 47.640625 29.902344 C 47 29.617188 46.527344 29.402344 46.21875 29.257812 L 47.21875 28.84375 " fill-opacity="1" fill-rule="evenodd"/><path fill="#c265b9" d="M 46.867188 32.882812 C 46.644531 33.253906 46.207031 33.503906 45.554688 33.632812 C 45.183594 34.101562 44.5 34.265625 43.503906 34.128906 C 42.59375 34.007812 41.90625 33.742188 41.453125 33.328125 C 40.695312 32.757812 40.613281 32.117188 41.207031 31.40625 C 41.820312 30.683594 42.746094 30.367188 43.988281 30.460938 C 44.65625 30.429688 45.261719 30.546875 45.804688 30.820312 C 46.296875 31.070312 46.648438 31.394531 46.859375 31.792969 C 47.0625 32.1875 47.066406 32.550781 46.867188 32.882812 Z M 45.75 31.523438 L 44.636719 31.695312 L 44.339844 31.457031 L 44.835938 31.167969 L 43.917969 31.230469 L 44.160156 30.730469 L 43.71875 31.070312 L 43.097656 30.730469 C 43.0625 30.863281 43.027344 31.082031 42.992188 31.382812 C 42.535156 31.453125 42.171875 31.589844 41.902344 31.789062 C 41.644531 31.980469 41.496094 32.21875 41.460938 32.5 C 41.917969 32.582031 42.359375 32.808594 42.792969 33.175781 C 43.285156 33.59375 43.675781 33.859375 43.960938 33.964844 L 45.304688 32.945312 L 46.183594 32.90625 L 46.203125 32.707031 L 45.429688 32.558594 C 45.914062 32.601562 46.175781 32.476562 46.210938 32.183594 C 46.246094 31.902344 46.09375 31.683594 45.75 31.523438 " fill-opacity="1" fill-rule="evenodd"/><path fill="#c265b9" d="M 39.589844 28.160156 L 39.328125 28.503906 C 38.507812 28.40625 37.78125 28.308594 37.160156 28.203125 L 38.257812 28.035156 L 38.265625 27.417969 L 39.589844 28.160156 " fill-opacity="1" fill-rule="evenodd"/><path fill="#c265b9" d="M 39.941406 34.664062 C 39.886719 34.796875 39.792969 35.105469 39.664062 35.597656 C 39.554688 35.976562 39.429688 36.28125 39.292969 36.507812 C 38.527344 36.71875 37.707031 36.828125 36.835938 36.832031 C 35.929688 36.828125 35.113281 36.714844 34.382812 36.488281 L 35.667969 35.628906 L 33.921875 36.15625 L 32.871094 35.910156 C 32.816406 35.625 32.898438 35.328125 33.121094 35.011719 C 33.253906 34.816406 33.503906 34.542969 33.867188 34.199219 C 34.488281 34.683594 34.402344 35.257812 33.609375 35.914062 C 34.011719 35.597656 34.332031 35.375 34.5625 35.246094 C 34.972656 35.011719 35.398438 35 35.828125 35.21875 C 35.285156 34.925781 34.703125 34.582031 34.082031 34.1875 L 35.191406 33.527344 C 35.917969 33.730469 36.5 33.96875 36.9375 34.246094 C 37.042969 34.011719 37.273438 33.855469 37.621094 33.769531 C 37.9375 33.695312 38.292969 33.691406 38.691406 33.753906 C 39.074219 33.816406 39.386719 33.929688 39.625 34.089844 C 39.890625 34.265625 39.996094 34.457031 39.941406 34.664062 Z M 38.105469 33.960938 C 38.476562 34.316406 38.507812 34.644531 38.195312 34.9375 C 37.902344 35.21875 37.410156 35.390625 36.722656 35.457031 C 36.402344 35.929688 35.792969 36.28125 34.886719 36.507812 C 35.324219 36.441406 36.039062 36.382812 37.035156 36.324219 C 37.964844 36.273438 38.671875 36.203125 39.15625 36.113281 C 38.582031 36.113281 38.152344 36.113281 37.863281 36.113281 C 37.347656 36.101562 36.960938 36.019531 36.703125 35.867188 C 36.917969 35.675781 37.277344 35.539062 37.78125 35.457031 C 38.375 35.394531 38.808594 35.34375 39.085938 35.304688 C 39.03125 34.941406 38.96875 34.6875 38.898438 34.539062 C 38.746094 34.269531 38.484375 34.074219 38.105469 33.960938 " fill-opacity="1" fill-rule="evenodd"/><path fill="#c265b9" d="M 34.589844 42.730469 C 35.273438 42.984375 35.9375 43.074219 36.578125 43 C 35.984375 42.882812 35.320312 42.792969 34.589844 42.730469 Z M 41.03125 42.363281 C 41.085938 42.539062 41.210938 42.855469 41.410156 43.308594 C 41.488281 43.699219 41.285156 43.957031 40.808594 44.082031 L 40.457031 44.195312 C 40.042969 44.34375 39.5625 44.566406 39.015625 44.859375 C 38.140625 45.316406 37.679688 45.554688 37.632812 45.574219 L 37.46875 45.660156 C 35.789062 45.765625 34.625 45.363281 33.96875 44.453125 C 33.6875 44.0625 33.59375 43.652344 33.691406 43.214844 C 33.785156 42.765625 34.074219 42.367188 34.554688 42.015625 C 35.191406 41.339844 36.21875 41.011719 37.648438 41.023438 C 39.050781 41.042969 40.089844 41.382812 40.761719 42.035156 L 40.148438 42.277344 Z M 38.351562 42.183594 C 37.988281 42.226562 37.667969 42.328125 37.386719 42.492188 C 38.144531 42.4375 38.832031 42.351562 39.457031 42.242188 C 39.078125 42.160156 38.710938 42.140625 38.351562 42.183594 " fill-opacity="1" fill-rule="evenodd"/><path fill="#c265b9" d="M 21.039062 31.648438 C 21.300781 31.460938 21.558594 31.464844 21.800781 31.664062 C 21.785156 31.816406 21.667969 31.878906 21.453125 31.859375 C 21.242188 31.84375 21.105469 31.773438 21.039062 31.648438 " fill-opacity="1" fill-rule="evenodd"/><path fill="#bf289b" d="M 25.3125 27.609375 L 25.644531 27.519531 C 25.59375 27.96875 25.683594 28.40625 25.914062 28.835938 L 25.535156 29.289062 C 24.839844 29.289062 24.554688 29.074219 24.679688 28.640625 C 24.71875 28.523438 24.925781 28.179688 25.3125 27.609375 " fill-opacity="1" fill-rule="evenodd"/><path fill="#aba59b" d="M 21.800781 31.664062 C 22.097656 32.246094 22.179688 32.773438 22.046875 33.25 C 21.882812 33.828125 21.425781 34.273438 20.671875 34.582031 C 19.714844 35.128906 18.578125 35.210938 17.25 34.835938 C 15.933594 34.464844 15.3125 33.894531 15.390625 33.125 C 15.347656 32.734375 15.527344 32.367188 15.9375 32.023438 C 16.316406 31.699219 16.820312 31.445312 17.457031 31.269531 C 18.097656 31.09375 18.730469 31.027344 19.347656 31.082031 C 20.03125 31.136719 20.59375 31.328125 21.039062 31.648438 C 21.105469 31.773438 21.242188 31.84375 21.453125 31.859375 C 21.667969 31.878906 21.785156 31.816406 21.800781 31.664062 " fill-opacity="1" fill-rule="evenodd"/><path fill="#d8d1d0" d="M 56.871094 36.476562 C 54.175781 37.957031 51.398438 39.699219 48.539062 41.699219 C 46.917969 42.832031 45.023438 44.152344 42.863281 45.660156 C 41.421875 46.703125 40.421875 47.566406 39.859375 48.253906 C 39.25 48.992188 38.859375 49.859375 38.6875 50.855469 C 38.546875 51.617188 38.480469 52.945312 38.480469 54.847656 C 38.480469 55.480469 38.667969 55.796875 39.050781 55.796875 C 39.832031 55.796875 42.546875 54.4375 47.195312 51.71875 C 52.03125 48.820312 54.816406 47.175781 55.550781 46.789062 C 59.785156 44.597656 62.417969 42.863281 63.449219 41.585938 C 63.957031 40.960938 64.277344 40.253906 64.414062 39.464844 C 64.507812 38.980469 64.550781 38.125 64.550781 36.894531 C 64.550781 35.097656 63.820312 34.191406 62.359375 34.179688 C 60.980469 34.164062 59.152344 34.929688 56.871094 36.476562 " fill-opacity="1" fill-rule="evenodd"/></svg>