<svg xmlns="http://www.w3.org/2000/svg" xmlns:xlink="http://www.w3.org/1999/xlink" width="100" zoomAndPan="magnify" viewBox="0 0 75 74.999997" height="100" preserveAspectRatio="xMidYMid meet" version="1.0"><defs><clipPath id="id1"><path d="M 1.121094 12.046875 L 73.84375 12.046875 L 73.84375 63.046875 L 1.121094 63.046875 Z M 1.121094 12.046875 " clip-rule="nonzero"/></clipPath><clipPath id="id2"><path d="M 70.324219 30.058594 C 74.234375 34.066406 74.828125 38.625 72.105469 43.722656 L 40.109375 62.230469 C 38.195312 63.335938 36.277344 63.335938 34.363281 62.230469 L 2.367188 43.722656 C 0.15625 38.652344 0.890625 34.097656 4.566406 30.058594 L 29.03125 14.5 C 33.546875 11.335938 38.417969 11.234375 43.648438 14.203125 L 70.324219 30.058594 " clip-rule="nonzero"/></clipPath><clipPath id="id3"><path d="M -20.722656 50.660156 L 56.117188 94.285156 L 95.628906 24.449219 L 18.789062 -19.175781 Z M -20.722656 50.660156 " clip-rule="nonzero"/></clipPath><linearGradient x1="-0.360361" gradientTransform="matrix(22.938306, -40.541567, 40.472181, 22.977632, 26.183306, 57.972997)" y1="0" x2="1.362566" gradientUnits="userSpaceOnUse" y2="0" id="id4"><stop stop-opacity="1" stop-color="rgb(88.598633%, 87.098694%, 86.698914%)" offset="0"/><stop stop-opacity="1" stop-color="rgb(88.598633%, 87.098694%, 86.698914%)" offset="0.125"/><stop stop-opacity="1" stop-color="rgb(88.598633%, 87.098694%, 86.698914%)" offset="0.1875"/><stop stop-opacity="1" stop-color="rgb(88.598633%, 87.098694%, 86.711121%)" offset="0.203125"/><stop stop-opacity="1" stop-color="rgb(88.613892%, 87.113953%, 86.911011%)" offset="0.210938"/><stop stop-opacity="1" stop-color="rgb(89.019775%, 87.469482%, 87.303162%)" offset="0.214844"/><stop stop-opacity="1" stop-color="rgb(89.4104%, 87.809753%, 87.507629%)" offset="0.21875"/><stop stop-opacity="1" stop-color="rgb(89.604187%, 88.200378%, 87.849426%)" offset="0.222656"/><stop stop-opacity="1" stop-color="rgb(89.7995%, 88.591003%, 88.191223%)" offset="0.226562"/><stop stop-opacity="1" stop-color="rgb(90.235901%, 89.031982%, 88.632202%)" offset="0.230469"/><stop stop-opacity="1" stop-color="rgb(90.672302%, 89.472961%, 89.073181%)" offset="0.234375"/><stop stop-opacity="1" stop-color="rgb(90.863037%, 89.663696%, 89.43634%)" offset="0.238281"/><stop stop-opacity="1" stop-color="rgb(91.053772%, 89.854431%, 89.7995%)" offset="0.242188"/><stop stop-opacity="1" stop-color="rgb(91.444397%, 90.245056%, 90.0177%)" offset="0.246094"/><stop stop-opacity="1" stop-color="rgb(91.835022%, 90.635681%, 90.235901%)" offset="0.25"/><stop stop-opacity="1" stop-color="rgb(92.022705%, 91.017151%, 90.626526%)" offset="0.253906"/><stop stop-opacity="1" stop-color="rgb(92.211914%, 91.398621%, 91.017151%)" offset="0.257813"/><stop stop-opacity="1" stop-color="rgb(92.553711%, 91.598511%, 91.407776%)" offset="0.261719"/><stop stop-opacity="1" stop-color="rgb(92.897034%, 91.798401%, 91.798401%)" offset="0.265625"/><stop stop-opacity="1" stop-color="rgb(93.138123%, 92.147827%, 92.028809%)" offset="0.269531"/><stop stop-opacity="1" stop-color="rgb(93.379211%, 92.498779%, 92.259216%)" offset="0.273438"/><stop stop-opacity="1" stop-color="rgb(93.769836%, 92.729187%, 92.608643%)" offset="0.277344"/><stop stop-opacity="1" stop-color="rgb(94.160461%, 92.959595%, 92.959595%)" offset="0.28125"/><stop stop-opacity="1" stop-color="rgb(94.351196%, 93.35022%, 93.35022%)" offset="0.285156"/><stop stop-opacity="1" stop-color="rgb(94.541931%, 93.740845%, 93.740845%)" offset="0.289062"/><stop stop-opacity="1" stop-color="rgb(94.932556%, 94.13147%, 94.13147%)" offset="0.292969"/><stop stop-opacity="1" stop-color="rgb(95.323181%, 94.522095%, 94.522095%)" offset="0.296875"/><stop stop-opacity="1" stop-color="rgb(95.51239%, 94.91272%, 94.91272%)" offset="0.300781"/><stop stop-opacity="1" stop-color="rgb(95.703125%, 95.303345%, 95.303345%)" offset="0.304688"/><stop stop-opacity="1" stop-color="rgb(96.09375%, 95.69397%, 95.69397%)" offset="0.308594"/><stop stop-opacity="1" stop-color="rgb(96.484375%, 96.084595%, 96.084595%)" offset="0.3125"/><stop stop-opacity="1" stop-color="rgb(96.725464%, 96.325684%, 96.525574%)" offset="0.316406"/><stop stop-opacity="1" stop-color="rgb(96.966553%, 96.566772%, 96.966553%)" offset="0.320312"/><stop stop-opacity="1" stop-color="rgb(97.151184%, 96.951294%, 97.151184%)" offset="0.324219"/><stop stop-opacity="1" stop-color="rgb(97.335815%, 97.335815%, 97.335815%)" offset="0.328125"/><stop stop-opacity="1" stop-color="rgb(97.4823%, 97.4823%, 97.4823%)" offset="0.335938"/><stop stop-opacity="1" stop-color="rgb(97.819519%, 97.819519%, 97.819519%)" offset="0.34375"/><stop stop-opacity="1" stop-color="rgb(98.400879%, 98.400879%, 98.400879%)" offset="0.347656"/><stop stop-opacity="1" stop-color="rgb(98.791504%, 98.791504%, 98.791504%)" offset="0.351563"/><stop stop-opacity="1" stop-color="rgb(99.031067%, 99.031067%, 99.031067%)" offset="0.355469"/><stop stop-opacity="1" stop-color="rgb(99.272156%, 99.272156%, 99.272156%)" offset="0.359375"/><stop stop-opacity="1" stop-color="rgb(99.449158%, 99.635315%, 99.635315%)" offset="0.363281"/><stop stop-opacity="1" stop-color="rgb(99.62616%, 100%, 100%)" offset="0.367188"/><stop stop-opacity="1" stop-color="rgb(99.812317%, 100%, 100%)" offset="0.375"/><stop stop-opacity="1" stop-color="rgb(100%, 100%, 100%)" offset="0.5"/><stop stop-opacity="1" stop-color="rgb(100%, 100%, 100%)" offset="1"/></linearGradient><clipPath id="id5"><path d="M 31 12.046875 L 42 12.046875 L 42 20 L 31 20 Z M 31 12.046875 " clip-rule="nonzero"/></clipPath><clipPath id="id6"><path d="M 31 12.046875 L 37 12.046875 L 37 17 L 31 17 Z M 31 12.046875 " clip-rule="nonzero"/></clipPath></defs><g clip-path="url(#id1)"><g clip-path="url(#id2)"><g clip-path="url(#id3)"><path fill="url(#id4)" d="M -20.71875 50.648438 L 56.164062 94.296875 L 95.683594 24.445312 L 18.800781 -19.203125 Z M -20.71875 50.648438 " fill-rule="nonzero"/></g></g></g><path fill="#ddd5ce" d="M 47.804688 31.464844 L 46.0625 32.769531 C 45.6875 32.636719 45.183594 32.296875 44.542969 31.757812 C 43.980469 31.289062 43.40625 31 42.816406 30.890625 C 42.863281 30.53125 43.050781 30.226562 43.386719 29.980469 C 43.738281 29.722656 44.207031 29.550781 44.800781 29.457031 C 44.847656 29.070312 44.894531 28.792969 44.941406 28.621094 L 45.746094 29.058594 L 46.320312 28.621094 L 46.003906 29.261719 L 47.195312 29.183594 L 46.550781 29.554688 L 46.9375 29.855469 C 46.042969 29.90625 45.351562 30.054688 44.859375 30.304688 C 44.25 30.609375 44.167969 30.992188 44.613281 31.445312 C 45.460938 31.214844 46 31.082031 46.226562 31.039062 C 46.871094 30.917969 47.453125 30.894531 47.96875 30.964844 L 48.972656 31.15625 L 48.949219 31.410156 L 47.804688 31.464844 " fill-opacity="1" fill-rule="evenodd"/><path fill="#ddd5ce" d="M 38.457031 32.765625 C 38.949219 32.914062 39.289062 33.160156 39.484375 33.507812 C 39.578125 33.699219 39.660156 34.023438 39.730469 34.488281 C 39.371094 34.542969 38.808594 34.609375 38.035156 34.683594 C 37.382812 34.792969 36.917969 34.96875 36.632812 35.210938 C 36.96875 35.40625 37.472656 35.511719 38.140625 35.527344 C 38.515625 35.527344 39.074219 35.527344 39.824219 35.527344 C 39.195312 35.640625 38.273438 35.730469 37.066406 35.796875 C 35.773438 35.871094 34.84375 35.949219 34.273438 36.035156 C 35.453125 35.742188 36.246094 35.292969 36.660156 34.683594 C 37.554688 34.597656 38.191406 34.378906 38.574219 34.019531 C 38.976562 33.644531 38.9375 33.222656 38.457031 32.765625 " fill-opacity="1" fill-rule="evenodd"/><path fill="#ddd5ce" d="M 20.476562 35.585938 C 20.757812 35.828125 21.09375 36.132812 21.480469 36.503906 C 20.113281 36.765625 18.9375 36.789062 17.964844 36.578125 C 18.632812 36.289062 19.472656 35.960938 20.476562 35.585938 " fill-opacity="1" fill-rule="evenodd"/><path fill="#d688c6" d="M 61.25 30.523438 L 61.0625 30.132812 C 61.910156 29.640625 62.542969 29.269531 62.957031 29.011719 C 62.035156 29.074219 61.214844 29.453125 60.492188 30.152344 C 59.703125 30.933594 58.972656 31.398438 58.296875 31.546875 L 56.84375 30.761719 L 56.625 30.375 C 57.714844 29.703125 58.5 29.183594 58.984375 28.820312 C 59.832031 28.195312 60.359375 27.585938 60.558594 26.988281 C 62.25 26.832031 63.953125 27.144531 65.664062 27.929688 C 64.949219 28.578125 64.355469 29.269531 63.890625 29.996094 L 67.1875 29.714844 C 67.066406 30.1875 66.976562 30.480469 66.917969 30.597656 C 65.507812 31.476562 63.871094 32.203125 62.011719 32.777344 C 61.792969 32.351562 61.882812 31.871094 62.277344 31.335938 C 62.839844 30.742188 63.222656 30.292969 63.421875 29.996094 L 61.25 30.523438 " fill-opacity="1" fill-rule="evenodd"/><path fill="#d688c6" d="M 44.457031 18.828125 C 43.367188 19.234375 42.394531 19.421875 41.539062 19.398438 L 41.792969 18.789062 L 43.722656 18.386719 L 42.566406 18.191406 C 43.289062 17.964844 44.046875 17.824219 44.832031 17.773438 C 45.632812 17.722656 46.421875 17.773438 47.191406 17.921875 C 46.753906 18.003906 45.84375 18.304688 44.457031 18.828125 " fill-opacity="1" fill-rule="evenodd"/><g clip-path="url(#id5)"><path fill="#d688c6" d="M 36.535156 12.9375 C 37.945312 13.5 39.070312 14.109375 39.914062 14.765625 C 40.949219 15.574219 41.484375 16.394531 41.511719 17.234375 C 41.046875 18.042969 39.539062 18.628906 36.992188 18.984375 C 35.207031 19.105469 33.695312 18.738281 32.449219 17.882812 C 31.210938 17.023438 30.855469 16.09375 31.382812 15.089844 C 31.9375 15.566406 32.472656 16.152344 32.984375 16.855469 C 32.914062 16.140625 33.265625 15.421875 34.035156 14.707031 C 34.464844 14.304688 35.296875 13.714844 36.535156 12.9375 " fill-opacity="1" fill-rule="evenodd"/></g><path fill="#d688c6" d="M 41.972656 25.957031 C 41.917969 26.546875 41.621094 27.0625 41.085938 27.5 L 40.40625 27.039062 C 40.320312 27.59375 40.113281 28.089844 39.789062 28.535156 C 39.632812 28.082031 39.535156 27.566406 39.496094 26.984375 C 39.363281 27.207031 39.171875 27.578125 38.921875 28.101562 C 38.621094 28.519531 38.140625 28.738281 37.488281 28.757812 C 36.285156 28.917969 35.183594 28.695312 34.179688 28.085938 C 33.703125 27.796875 33.003906 27.191406 32.074219 26.277344 C 32.675781 25.238281 33.203125 24.480469 33.652344 24.011719 C 34.449219 23.203125 35.558594 22.824219 36.980469 22.882812 C 39.039062 22.695312 40.535156 23.191406 41.46875 24.371094 C 41.859375 24.875 42.023438 25.402344 41.972656 25.957031 Z M 38.664062 24.371094 L 38.652344 25.160156 L 37.226562 25.378906 C 38.039062 25.511719 38.976562 25.640625 40.042969 25.761719 L 40.382812 25.324219 L 38.664062 24.371094 " fill-opacity="1" fill-rule="evenodd"/><path fill="#d688c6" d="M 53.070312 33.390625 L 54.324219 32.152344 C 55.738281 32.234375 56.582031 32.566406 56.847656 33.140625 C 55.84375 33.542969 55.054688 33.925781 54.488281 34.289062 C 54.136719 34.492188 53.65625 34.808594 53.050781 35.230469 C 53.019531 34.769531 52.765625 34.394531 52.289062 34.101562 C 51.800781 33.789062 51.164062 33.628906 50.386719 33.621094 C 51.195312 33.441406 52.089844 33.363281 53.070312 33.390625 " fill-opacity="1" fill-rule="evenodd"/><path fill="#d688c6" d="M 32.917969 20.074219 C 33.9375 21.023438 33.875 21.929688 32.730469 22.789062 C 31.265625 23.457031 29.65625 23.769531 27.90625 23.730469 C 25.902344 23.691406 24.714844 23.105469 24.339844 21.980469 C 25.125 21.117188 25.738281 20.480469 26.175781 20.066406 C 26.9375 19.335938 27.800781 18.820312 28.753906 18.519531 C 30.5625 18.65625 31.949219 19.171875 32.917969 20.074219 " fill-opacity="1" fill-rule="evenodd"/><path fill="#d688c6" d="M 53.972656 32.222656 C 52.773438 32.617188 51.304688 32.902344 49.566406 33.066406 C 50.339844 32.765625 51.035156 32.546875 51.660156 32.410156 C 52.460938 32.234375 53.230469 32.171875 53.972656 32.222656 " fill-opacity="1" fill-rule="evenodd"/><path fill="#d688c6" d="M 48.984375 30.484375 C 48.9375 30.863281 48.597656 31.023438 47.96875 30.964844 C 47.453125 30.894531 46.871094 30.917969 46.226562 31.039062 C 46 31.082031 45.460938 31.214844 44.613281 31.445312 C 44.167969 30.992188 44.25 30.609375 44.859375 30.304688 C 45.351562 30.054688 46.042969 29.90625 46.9375 29.855469 L 48.386719 29.640625 C 48.832031 29.84375 49.03125 30.125 48.984375 30.484375 " fill-opacity="1" fill-rule="evenodd"/><path fill="#d688c6" d="M 21.839844 24.617188 C 20.828125 24.777344 20.128906 25.222656 19.738281 25.953125 C 19.527344 26.363281 19.292969 26.996094 19.027344 27.855469 C 20.132812 27.851562 21.03125 27.734375 21.726562 27.496094 C 21.53125 27.824219 21.144531 28.097656 20.566406 28.3125 C 20.1875 28.453125 19.613281 28.59375 18.851562 28.738281 L 20.394531 28.902344 C 22.933594 27.703125 24.21875 26.292969 24.246094 24.667969 C 25.144531 25.402344 25.441406 26.238281 25.136719 27.171875 C 24.808594 28.132812 23.933594 28.789062 22.507812 29.136719 C 21.449219 29.425781 20.300781 29.4375 19.0625 29.171875 C 17.980469 28.933594 17.023438 28.535156 16.199219 27.976562 C 15.628906 27.476562 15.488281 26.894531 15.777344 26.234375 C 16.050781 25.632812 16.605469 25.089844 17.449219 24.601562 C 18.304688 24.117188 19.222656 23.832031 20.207031 23.75 C 21.289062 23.65625 22.226562 23.847656 23.023438 24.324219 L 21.839844 24.617188 " fill-opacity="1" fill-rule="evenodd"/><path fill="#d688c6" d="M 40.210938 43.390625 C 39.402344 43.53125 38.507812 43.640625 37.523438 43.714844 C 37.890625 43.5 38.308594 43.367188 38.773438 43.316406 C 39.242188 43.261719 39.71875 43.285156 40.210938 43.390625 " fill-opacity="1" fill-rule="evenodd"/><path fill="#d688c6" d="M 17.964844 36.578125 C 18.9375 36.789062 20.113281 36.765625 21.480469 36.503906 C 21.09375 36.132812 20.757812 35.828125 20.476562 35.585938 C 19.472656 35.960938 18.632812 36.289062 17.964844 36.578125 Z M 23.652344 34.800781 C 24.183594 35.042969 24.769531 35.402344 25.40625 35.882812 C 24.652344 36.714844 23.710938 37.351562 22.578125 37.789062 C 21.171875 38.324219 19.832031 38.375 18.5625 37.9375 C 17.804688 37.679688 17.359375 37.328125 17.21875 36.875 C 17.085938 36.464844 17.210938 36.042969 17.589844 35.605469 C 17.957031 35.175781 18.476562 34.835938 19.144531 34.585938 C 19.851562 34.308594 20.582031 34.195312 21.328125 34.238281 C 22.132812 34.269531 22.90625 34.457031 23.652344 34.800781 " fill-opacity="1" fill-rule="evenodd"/><path fill="#d688c6" d="M 41.507812 45.898438 L 41.964844 45.753906 C 41.617188 46.34375 41.113281 46.8125 40.457031 47.152344 C 39.6875 47.5625 38.816406 47.734375 37.84375 47.667969 C 37.902344 47.640625 38.503906 47.335938 39.640625 46.746094 C 40.347656 46.375 40.972656 46.089844 41.507812 45.898438 " fill-opacity="1" fill-rule="evenodd"/><path fill="#d6abc8" d="M 65.664062 27.929688 C 66.25 28.429688 66.757812 29.023438 67.1875 29.714844 L 63.890625 29.996094 C 64.355469 29.269531 64.949219 28.578125 65.664062 27.929688 " fill-opacity="1" fill-rule="evenodd"/><g clip-path="url(#id6)"><path fill="#d6abc8" d="M 34.667969 12.773438 C 35.617188 12.84375 36.238281 12.898438 36.535156 12.9375 C 35.296875 13.714844 34.464844 14.304688 34.035156 14.707031 C 33.265625 15.421875 32.914062 16.140625 32.984375 16.855469 C 32.472656 16.152344 31.9375 15.566406 31.382812 15.089844 L 31.523438 14.59375 L 34.667969 12.773438 " fill-opacity="1" fill-rule="evenodd"/></g><path fill="#d6abc8" d="M 66.917969 30.597656 C 66.675781 31.277344 66.042969 31.835938 65.023438 32.273438 C 64.074219 32.679688 62.988281 32.910156 61.765625 32.957031 C 60.519531 33.011719 59.457031 32.863281 58.574219 32.503906 C 57.585938 32.113281 57.011719 31.53125 56.84375 30.761719 L 58.296875 31.546875 C 58.972656 31.398438 59.703125 30.933594 60.492188 30.152344 C 61.214844 29.453125 62.035156 29.074219 62.957031 29.011719 C 62.542969 29.269531 61.910156 29.640625 61.0625 30.132812 L 61.25 30.523438 L 63.421875 29.996094 C 63.222656 30.292969 62.839844 30.742188 62.277344 31.335938 C 61.882812 31.871094 61.792969 32.351562 62.011719 32.777344 C 63.871094 32.203125 65.507812 31.476562 66.917969 30.597656 " fill-opacity="1" fill-rule="evenodd"/><path fill="#d6abc8" d="M 56.625 30.375 C 56.101562 29.6875 56.328125 28.984375 57.300781 28.269531 C 58.1875 27.621094 59.273438 27.191406 60.558594 26.988281 C 60.359375 27.585938 59.832031 28.195312 58.984375 28.820312 C 58.5 29.183594 57.714844 29.703125 56.625 30.375 " fill-opacity="1" fill-rule="evenodd"/><path fill="#d6abc8" d="M 57.207031 33.378906 C 57.761719 33.824219 57.984375 34.316406 57.875 34.859375 C 57.765625 35.34375 57.398438 35.804688 56.777344 36.238281 C 56.171875 36.652344 55.441406 36.945312 54.59375 37.121094 C 53.683594 37.316406 52.804688 37.328125 51.964844 37.15625 C 50.742188 36.972656 49.859375 36.5 49.324219 35.738281 C 48.832031 35.039062 48.75 34.320312 49.078125 33.582031 C 49.652344 33.589844 50.089844 33.605469 50.386719 33.621094 C 51.164062 33.628906 51.800781 33.789062 52.289062 34.101562 C 52.765625 34.394531 53.019531 34.769531 53.050781 35.230469 C 53.65625 34.808594 54.136719 34.492188 54.488281 34.289062 C 54.835938 34.148438 55.285156 33.996094 55.828125 33.824219 C 56.445312 33.628906 56.90625 33.480469 57.207031 33.378906 " fill-opacity="1" fill-rule="evenodd"/><path fill="#d6abc8" d="M 24.339844 21.980469 C 23.773438 21.136719 23.972656 20.332031 24.949219 19.558594 C 25.921875 18.78125 27.191406 18.433594 28.753906 18.519531 C 27.800781 18.820312 26.9375 19.335938 26.175781 20.066406 C 25.738281 20.480469 25.125 21.117188 24.339844 21.980469 " fill-opacity="1" fill-rule="evenodd"/><path fill="#d6abc8" d="M 40.839844 33.667969 C 41.386719 34.128906 41.648438 34.652344 41.636719 35.238281 C 41.609375 35.828125 41.316406 36.347656 40.75 36.792969 C 38.800781 37.125 37.027344 37.21875 35.429688 37.070312 C 33.359375 36.871094 32.101562 36.269531 31.65625 35.265625 L 33.023438 35.582031 L 35.289062 34.90625 L 33.621094 36.007812 C 34.570312 36.296875 35.632812 36.445312 36.808594 36.449219 C 37.941406 36.441406 39.003906 36.304688 40 36.035156 C 40.179688 35.742188 40.339844 35.351562 40.480469 34.867188 C 40.648438 34.234375 40.769531 33.835938 40.839844 33.667969 " fill-opacity="1" fill-rule="evenodd"/><path fill="#d6abc8" d="M 31.046875 28.414062 C 32.621094 28.945312 33.339844 29.761719 33.199219 30.859375 C 33.050781 31.945312 32.144531 32.699219 30.476562 33.125 C 29.488281 33.542969 28.375 33.636719 27.136719 33.40625 C 25.945312 33.195312 25.058594 32.777344 24.484375 32.144531 C 23.882812 31.644531 23.703125 31.085938 23.945312 30.46875 C 24.171875 29.90625 24.691406 29.398438 25.511719 28.941406 C 26.3125 28.488281 27.203125 28.199219 28.1875 28.082031 C 29.261719 27.957031 30.214844 28.066406 31.046875 28.414062 " fill-opacity="1" fill-rule="evenodd"/><path fill="#d6abc8" d="M 33.890625 44.019531 C 34.839844 44.097656 35.703125 44.214844 36.472656 44.363281 C 35.640625 44.457031 34.777344 44.34375 33.890625 44.019531 " fill-opacity="1" fill-rule="evenodd"/><path fill="#d75cb5" d="M 56.167969 22.773438 C 56.230469 22.925781 56.648438 23.429688 57.429688 24.289062 C 57.972656 24.898438 58.109375 25.429688 57.839844 25.875 C 57.566406 26.429688 56.929688 26.90625 55.933594 27.300781 C 55.363281 27.53125 54.410156 27.808594 53.070312 28.132812 L 53.398438 26.902344 L 51.503906 27.796875 C 51.5625 27.691406 51.789062 27.296875 52.195312 26.613281 C 52.453125 25.988281 52.964844 25.332031 53.738281 24.652344 C 54.03125 24.382812 54.773438 23.804688 55.957031 22.921875 L 56.167969 22.773438 " fill-opacity="1" fill-rule="evenodd"/><path fill="#d75cb5" d="M 44.492188 18.941406 C 45.132812 18.574219 45.882812 18.355469 46.75 18.285156 C 47.730469 18.214844 48.449219 18.402344 48.910156 18.847656 C 49.722656 19.890625 49.519531 20.914062 48.304688 21.917969 C 47.105469 22.917969 45.523438 23.410156 43.5625 23.402344 C 42.898438 23.210938 42.167969 22.886719 41.363281 22.429688 C 40.132812 21.746094 39.460938 21.375 39.339844 21.316406 C 39.894531 20.734375 40.363281 20.214844 40.753906 19.753906 C 41.769531 19.539062 43.121094 19.578125 44.820312 19.875 C 46.667969 20.195312 48.039062 20.300781 48.933594 20.1875 L 48.40625 19.597656 L 45.964844 20.011719 L 44.492188 18.941406 " fill-opacity="1" fill-rule="evenodd"/><path fill="#d75cb5" d="M 45.78125 36.960938 C 46.921875 36.941406 47.90625 37.191406 48.738281 37.710938 C 49.433594 38.039062 49.828125 38.511719 49.929688 39.128906 C 50.007812 39.617188 49.894531 40.15625 49.59375 40.746094 C 48.558594 41.578125 47.140625 42.050781 45.339844 42.164062 C 43.441406 42.28125 42.007812 41.890625 41.039062 40.988281 C 40.589844 40.414062 40.558594 39.800781 40.945312 39.152344 C 41.3125 38.550781 41.953125 38.042969 42.863281 37.625 C 43.789062 37.195312 44.761719 36.976562 45.78125 36.960938 " fill-opacity="1" fill-rule="evenodd"/><path fill="#d75cb5" d="M 21.726562 27.496094 C 21.03125 27.734375 20.132812 27.851562 19.027344 27.855469 C 19.292969 26.996094 19.527344 26.363281 19.738281 25.953125 C 20.128906 25.222656 20.828125 24.777344 21.839844 24.617188 C 21.34375 25.347656 21.070312 25.789062 21.023438 25.941406 C 20.859375 26.496094 21.230469 26.773438 22.132812 26.773438 C 22.023438 26.996094 21.886719 27.238281 21.726562 27.496094 " fill-opacity="1" fill-rule="evenodd"/><path fill="#d75cb5" d="M 24.636719 42.128906 C 25.46875 39.742188 27.023438 38.171875 29.296875 37.414062 C 30.335938 37.257812 31.273438 37.457031 32.113281 38.015625 C 32.378906 38.1875 32.96875 38.726562 33.878906 39.632812 C 33.800781 40.976562 33.085938 41.835938 31.730469 42.214844 L 31.003906 41.632812 L 31.355469 42.769531 C 29.898438 43.035156 28.691406 43.152344 27.734375 43.121094 C 26.402344 43.070312 25.371094 42.738281 24.636719 42.128906 " fill-opacity="1" fill-rule="evenodd"/><path fill="#c265b9" d="M 50.289062 26.199219 C 49.910156 25.484375 50.214844 24.742188 51.210938 23.976562 C 52.550781 23.148438 53.488281 22.535156 54.027344 22.144531 L 55.957031 22.921875 C 54.773438 23.804688 54.03125 24.382812 53.738281 24.652344 C 52.964844 25.332031 52.453125 25.988281 52.195312 26.613281 C 52.039062 26.765625 51.824219 26.929688 51.550781 27.105469 C 51.398438 27.214844 51.160156 27.367188 50.839844 27.558594 C 50.007812 27.195312 49.390625 26.917969 48.992188 26.734375 L 50.289062 26.199219 " fill-opacity="1" fill-rule="evenodd"/><path fill="#c265b9" d="M 49.835938 31.386719 C 49.546875 31.855469 48.980469 32.179688 48.128906 32.34375 C 47.648438 32.949219 46.757812 33.160156 45.464844 32.980469 C 44.285156 32.828125 43.394531 32.484375 42.800781 31.953125 C 41.820312 31.222656 41.714844 30.402344 42.484375 29.488281 C 43.28125 28.558594 44.484375 28.15625 46.097656 28.277344 C 46.960938 28.234375 47.75 28.386719 48.457031 28.734375 C 49.09375 29.058594 49.550781 29.476562 49.824219 29.984375 C 50.089844 30.492188 50.09375 30.957031 49.835938 31.386719 Z M 48.386719 29.640625 L 46.9375 29.855469 L 46.550781 29.554688 L 47.195312 29.183594 L 46.003906 29.261719 L 46.320312 28.621094 L 45.746094 29.058594 L 44.941406 28.621094 C 44.894531 28.792969 44.847656 29.070312 44.800781 29.457031 C 44.207031 29.550781 43.738281 29.722656 43.386719 29.980469 C 43.050781 30.226562 42.863281 30.53125 42.816406 30.890625 C 43.40625 31 43.980469 31.289062 44.542969 31.757812 C 45.183594 32.296875 45.6875 32.636719 46.0625 32.769531 L 47.804688 31.464844 L 48.949219 31.410156 L 48.972656 31.15625 L 47.96875 30.964844 C 48.597656 31.023438 48.9375 30.863281 48.984375 30.484375 C 49.03125 30.125 48.832031 29.84375 48.386719 29.640625 " fill-opacity="1" fill-rule="evenodd"/><path fill="#c265b9" d="M 40.382812 25.324219 L 40.042969 25.761719 C 38.976562 25.640625 38.039062 25.511719 37.226562 25.378906 L 38.652344 25.160156 L 38.664062 24.371094 L 40.382812 25.324219 " fill-opacity="1" fill-rule="evenodd"/><path fill="#c265b9" d="M 40.839844 33.667969 C 40.769531 33.835938 40.648438 34.234375 40.480469 34.867188 C 40.339844 35.351562 40.179688 35.742188 40 36.035156 C 39.003906 36.304688 37.941406 36.441406 36.808594 36.449219 C 35.632812 36.445312 34.570312 36.296875 33.621094 36.007812 L 35.289062 34.90625 L 33.023438 35.582031 L 31.65625 35.265625 C 31.589844 34.902344 31.695312 34.519531 31.984375 34.117188 C 32.15625 33.863281 32.480469 33.515625 32.953125 33.070312 C 33.761719 33.695312 33.648438 34.429688 32.617188 35.273438 C 33.140625 34.867188 33.554688 34.578125 33.855469 34.414062 C 34.390625 34.113281 34.941406 34.101562 35.5 34.378906 C 34.792969 34.007812 34.039062 33.566406 33.234375 33.054688 L 34.671875 32.210938 C 35.613281 32.46875 36.371094 32.773438 36.9375 33.128906 C 37.078125 32.832031 37.375 32.628906 37.824219 32.523438 C 38.238281 32.425781 38.703125 32.417969 39.214844 32.5 C 39.714844 32.582031 40.121094 32.726562 40.433594 32.933594 C 40.773438 33.15625 40.910156 33.402344 40.839844 33.667969 Z M 38.457031 32.765625 C 38.9375 33.222656 38.976562 33.644531 38.574219 34.019531 C 38.191406 34.378906 37.554688 34.597656 36.660156 34.683594 C 36.246094 35.292969 35.453125 35.742188 34.273438 36.035156 C 34.84375 35.949219 35.773438 35.871094 37.066406 35.796875 C 38.273438 35.730469 39.195312 35.640625 39.824219 35.527344 C 39.074219 35.527344 38.515625 35.527344 38.140625 35.527344 C 37.472656 35.511719 36.96875 35.40625 36.632812 35.210938 C 36.917969 34.96875 37.382812 34.792969 38.035156 34.683594 C 38.808594 34.609375 39.371094 34.542969 39.730469 34.488281 C 39.660156 34.023438 39.578125 33.699219 39.484375 33.507812 C 39.289062 33.160156 38.949219 32.914062 38.457031 32.765625 " fill-opacity="1" fill-rule="evenodd"/><path fill="#c265b9" d="M 33.890625 44.019531 C 34.777344 44.34375 35.640625 44.457031 36.472656 44.363281 C 35.703125 44.214844 34.839844 44.097656 33.890625 44.019531 Z M 42.253906 43.542969 C 42.328125 43.773438 42.492188 44.179688 42.746094 44.761719 C 42.847656 45.261719 42.589844 45.59375 41.964844 45.753906 L 41.507812 45.898438 C 40.972656 46.089844 40.347656 46.375 39.640625 46.746094 C 38.503906 47.335938 37.902344 47.640625 37.84375 47.667969 L 37.632812 47.777344 C 35.449219 47.910156 33.933594 47.394531 33.085938 46.226562 C 32.71875 45.730469 32.597656 45.199219 32.722656 44.640625 C 32.847656 44.0625 33.222656 43.550781 33.84375 43.097656 C 34.671875 42.234375 36.007812 41.808594 37.863281 41.828125 C 39.6875 41.855469 41.035156 42.285156 41.90625 43.125 L 41.113281 43.4375 Z M 38.773438 43.316406 C 38.308594 43.367188 37.890625 43.5 37.523438 43.714844 C 38.507812 43.640625 39.402344 43.53125 40.210938 43.390625 C 39.71875 43.285156 39.242188 43.261719 38.773438 43.316406 " fill-opacity="1" fill-rule="evenodd"/><path fill="#c265b9" d="M 16.292969 29.800781 C 16.636719 29.558594 16.964844 29.5625 17.285156 29.820312 C 17.261719 30.015625 17.109375 30.097656 16.828125 30.070312 C 16.558594 30.046875 16.378906 29.957031 16.292969 29.800781 " fill-opacity="1" fill-rule="evenodd"/><path fill="#bf289b" d="M 21.839844 24.617188 L 22.273438 24.5 C 22.210938 25.078125 22.328125 25.640625 22.625 26.191406 L 22.132812 26.773438 C 21.230469 26.773438 20.859375 26.496094 21.023438 25.941406 C 21.070312 25.789062 21.34375 25.347656 21.839844 24.617188 " fill-opacity="1" fill-rule="evenodd"/><path fill="#aba59b" d="M 17.285156 29.820312 C 17.667969 30.566406 17.773438 31.242188 17.601562 31.855469 C 17.390625 32.597656 16.796875 33.167969 15.816406 33.566406 C 14.574219 34.261719 13.097656 34.371094 11.375 33.890625 C 9.664062 33.414062 8.855469 32.679688 8.957031 31.695312 C 8.902344 31.195312 9.136719 30.722656 9.667969 30.28125 C 10.160156 29.863281 10.816406 29.539062 11.644531 29.316406 C 12.476562 29.085938 13.292969 29.003906 14.097656 29.070312 C 14.984375 29.144531 15.714844 29.386719 16.292969 29.800781 C 16.378906 29.957031 16.558594 30.046875 16.828125 30.070312 C 17.109375 30.097656 17.261719 30.015625 17.285156 29.820312 " fill-opacity="1" fill-rule="evenodd"/><path fill="#d8d1d0" d="M 62.828125 35.992188 C 59.328125 37.894531 55.71875 40.128906 52.003906 42.695312 C 49.898438 44.148438 47.441406 45.839844 44.636719 47.777344 C 42.765625 49.113281 41.464844 50.222656 40.734375 51.105469 C 39.945312 52.050781 39.4375 53.164062 39.210938 54.445312 C 39.03125 55.417969 38.941406 57.125 38.941406 59.566406 C 38.941406 60.378906 39.1875 60.78125 39.683594 60.78125 C 40.699219 60.78125 44.226562 59.039062 50.261719 55.550781 C 56.542969 51.832031 60.160156 49.722656 61.113281 49.226562 C 66.609375 46.414062 70.03125 44.1875 71.371094 42.546875 C 72.027344 41.746094 72.445312 40.839844 72.625 39.832031 C 72.742188 39.207031 72.800781 38.109375 72.800781 36.53125 C 72.800781 34.226562 71.851562 33.0625 69.953125 33.046875 C 68.164062 33.027344 65.789062 34.007812 62.828125 35.992188 " fill-opacity="1" fill-rule="evenodd"/></svg>