<?xml version="1.0" standalone="no"?>
<!DOCTYPE svg PUBLIC "-//W3C//DTD SVG 20010904//EN"
 "http://www.w3.org/TR/2001/REC-SVG-20010904/DTD/svg10.dtd">
<svg version="1.0" xmlns="http://www.w3.org/2000/svg"
 width="700.000000pt" height="700.000000pt" viewBox="0 0 700.000000 700.000000"
 preserveAspectRatio="xMidYMid meet">
<metadata>
Created by potrace 1.14, written by Peter Selinger 2001-2017
</metadata>
<g transform="translate(0.000000,700.000000) scale(0.100000,-0.100000)"
fill="#000000" stroke="none">
<path d="M4475 6750 c-220 -44 -355 -101 -745 -317 -55 -30 -532 -305 -560
-323 -21 -13 -186 -108 -239 -138 -25 -14 -67 -38 -93 -53 -27 -16 -51 -29
-53 -29 -3 0 -144 -80 -195 -110 -8 -5 -55 -31 -105 -58 l-90 -50 -180 -5
c-168 -5 -212 -8 -275 -23 -14 -3 -38 -7 -55 -10 -56 -10 -261 -82 -341 -120
-235 -112 -466 -306 -619 -519 -75 -103 -183 -314 -221 -429 -33 -101 -62
-236 -71 -329 -9 -91 -9 -293 0 -373 35 -302 172 -614 374 -853 47 -55 52 -66
40 -80 -7 -9 -33 -38 -56 -66 -89 -103 -195 -282 -255 -430 -80 -198 -111
-370 -110 -615 2 -374 124 -710 365 -1005 266 -326 675 -546 1084 -583 165
-14 382 -5 502 23 247 57 401 132 1103 540 162 94 439 253 616 353 l321 181
153 2 c85 1 172 6 194 10 23 4 60 10 83 13 48 6 198 42 228 55 11 4 58 23 105
41 292 114 590 366 759 642 79 131 149 287 182 408 7 25 14 50 15 55 2 6 6 24
9 40 3 17 8 37 10 45 3 8 7 38 10 65 3 28 8 64 11 80 7 40 7 299 0 322 -3 10
-8 44 -11 75 -7 74 -47 232 -81 323 -64 168 -188 380 -288 490 -25 28 -46 52
-46 55 0 3 20 28 44 56 124 141 254 375 314 564 54 169 67 261 67 485 0 184
-3 214 -29 345 -101 497 -476 948 -954 1147 -71 29 -191 70 -227 77 -37 8
-125 27 -150 32 -16 4 -124 8 -240 9 -168 2 -228 -1 -300 -15z m395 -1005 c70
-11 169 -54 236 -101 198 -140 294 -386 240 -617 -50 -214 -208 -381 -421
-442 -70 -21 -201 -27 -276 -13 -45 8 -165 62 -249 112 -14 8 -135 78 -270
154 -135 77 -306 175 -380 219 -74 44 -143 82 -152 86 -10 3 -18 10 -18 14 0
7 564 337 754 441 276 152 364 176 536 147z m-2465 -1120 c73 -25 397 -204
790 -435 44 -25 107 -62 140 -80 80 -44 98 -57 88 -63 -87 -52 -699 -402 -810
-463 -191 -105 -246 -124 -356 -124 -118 0 -179 14 -277 62 -118 57 -212 151
-268 268 -23 47 -44 103 -47 125 -4 22 -8 48 -11 57 -7 25 -6 125 1 183 4 28
20 83 37 123 79 190 241 323 441 361 68 13 217 6 272 -14z m2508 -1100 c191
-50 360 -210 421 -400 73 -229 -2 -480 -190 -636 -139 -116 -352 -167 -513
-124 -29 7 -95 35 -145 61 -68 35 -900 507 -913 518 -2 2 219 131 401 234 22
13 103 60 178 103 75 43 139 79 141 79 3 0 34 17 69 39 84 51 181 100 243 122
64 23 228 25 308 4z m-2525 -1111 c81 -23 172 -71 591 -312 207 -118 392 -224
411 -235 19 -10 39 -21 43 -24 5 -3 -2 -11 -15 -17 -13 -7 -197 -112 -410
-234 -558 -320 -607 -343 -743 -346 -453 -12 -755 458 -553 861 90 180 254
293 473 326 44 6 151 -3 203 -19z"/>
</g>
</svg>
