<svg xmlns="http://www.w3.org/2000/svg" width="100" viewBox="0 0 75 75" height="100" version="1.0"><defs><clipPath id="a"><path d="M43 26h17.938v10H43zm0 0"/></clipPath><clipPath id="b"><path d="M14.438 39H32v12H14.437zm0 0"/></clipPath><clipPath id="c"><path d="M14.438 40H29v11H14.437zm0 0"/></clipPath><clipPath id="d"><path d="M14.438 14.438h46.5v46.5h-46.5zm0 0"/></clipPath></defs><path fill="#ffecb3" d="M37.5 0C16.79 0 0 16.79 0 37.5S16.79 75 37.5 75 75 58.21 75 37.5 58.21 0 37.5 0"/><path fill="#ef9d26" d="M35.27 29.176c1.667 3.457.835 7.375-2.786 9.195-3.945 1.984-7.574-.254-9.132-3.047-1.563-2.789.02-7.414 3.136-8.879 2.899-1.363 7.14-.675 8.782 2.73zm-3.84 6.687a4.005 4.005 0 0 0 1.543-5.445 4.004 4.004 0 0 0-5.446-1.54 3.998 3.998 0 0 0-1.539 5.442 4 4 0 0 0 5.442 1.543zm0 0"/><path fill="#cbdd56" d="M48.582 37.66c3.422 2.34 3.977 7.149 1.992 9.653-1.984 2.507-7.582 3.234-10.09 1.25-2.507-1.985-2.925-6.926-.941-9.438 1.984-2.508 6.402-3.27 9.039-1.465zm-.59 8a4.008 4.008 0 0 0-.656-5.62 4.007 4.007 0 0 0-5.621.651 4.004 4.004 0 0 0 6.277 4.969zm0 0"/><path fill="#96b443" d="M52.176 44.61a1.322 1.322 0 0 1 1.543-1.305l.554.09a9.415 9.415 0 0 0-.27-2.473l-.523.21a1.326 1.326 0 0 1-1.723-.734c-.273-.68.06-1.449.735-1.722l.524-.211a9.257 9.257 0 0 0-1.332-1.79l-.356.446a1.323 1.323 0 0 1-1.86.215 1.322 1.322 0 0 1-.218-1.856l.355-.449c-.832-3.531-2.773-3.957-5.84-1.215a9.84 9.84 0 0 0-1.296.243l.218.52a1.315 1.315 0 0 1-.707 1.73 1.325 1.325 0 0 1-1.734-.707l-.219-.524c-.613.383-1.23.766-1.847 1.149.207.16.41.312.617.472a1.326 1.326 0 0 1 .219 1.86 1.324 1.324 0 0 1-1.864.214l-.445-.351-.89 2.05.566.083a1.33 1.33 0 0 1 1.11 1.511 1.327 1.327 0 0 1-1.509 1.11l-.562-.086a9.4 9.4 0 0 0 .308 2.469l.524-.22a1.3 1.3 0 0 1 .508-.105 1.325 1.325 0 0 1 .511 2.547L36.75 48c.355.598.777 1.16 1.273 1.68l.352-.446a1.316 1.316 0 0 1 1.855-.218 1.32 1.32 0 0 1 .22 1.859l-.352.445c.617.364 1.261.64 1.922.852l.097-.559a1.323 1.323 0 0 1 1.52-1.093c.722.12 1.207.8 1.09 1.523l-.09.562h.203c.394 0 .785-.023 1.18-.07.367-.05.726-.117 1.09-.203l-.215-.527c-.274-.68.054-1.45.734-1.723.68-.273 1.45.059 1.723.734l.214.532a9.633 9.633 0 0 0 1.79-1.34l-.45-.356a1.318 1.318 0 0 1-.504-1.039c0-.289.094-.574.29-.816a1.316 1.316 0 0 1 1.855-.219l.45.352a8.61 8.61 0 0 0 .464-.907c.144-.336.273-.675.387-1.015l-.563-.094a1.327 1.327 0 0 1-1.11-1.305zm-2.785 2.16a5.785 5.785 0 0 1-8.13.949 5.794 5.794 0 0 1-.952-8.137 5.794 5.794 0 0 1 8.136-.945 5.788 5.788 0 0 1 .946 8.133zm0 0"/><path fill="#f9b132" d="M36.926 32.457v-.012a1.32 1.32 0 0 1 1.332-1.312l.57.004a9.382 9.382 0 0 0-.555-2.164l-.492.277a1.32 1.32 0 0 1-1.8-.508 1.327 1.327 0 0 1 .507-1.805l.496-.277a9.295 9.295 0 0 0-1.554-1.601l-.29.484c-.253.41-.69.64-1.136.64-.234 0-.469-.058-.684-.187a1.33 1.33 0 0 1-.449-1.82l.293-.485a9.674 9.674 0 0 0-2.398-.66v.574a1.323 1.323 0 0 1-2.645.004l-.004-.57a9.771 9.771 0 0 0-2.035.531l.277.5a1.323 1.323 0 1 1-2.312 1.29l-.277-.497a9.45 9.45 0 0 0-1.606 1.551l.488.297c.414.246.645.684.645 1.133 0 .234-.067.468-.195.683a1.318 1.318 0 0 1-1.817.45l-.488-.293a9.628 9.628 0 0 0-.66 2.398l.57-.004a1.33 1.33 0 0 1 1.328 1.32 1.322 1.322 0 0 1-1.316 1.329l-.57.003c.101.688.277 1.368.53 2.036l.5-.278a1.317 1.317 0 0 1 1.798.512c.046.074.265.488.12 1.004-.144.52-.55.754-.628.793l-.496.281a9.416 9.416 0 0 0 1.453 1.52l.3-.485a1.32 1.32 0 0 1 1.82-.422 1.32 1.32 0 0 1 .427 1.82l-.301.485c-1.379 4.356 4.676 5.016 5.902.57.438-.097.875-.23 1.301-.398l-.277-.496a1.327 1.327 0 0 1 .511-1.805 1.32 1.32 0 0 1 1.797.512l.282.496c.503-.484 1.015-.969 1.519-1.453l-.48-.3a1.311 1.311 0 0 1-.625-1.126 1.324 1.324 0 0 1 2.023-1.121c.184.117.371.234.555.352.207-.813.414-1.625.617-2.442l-.563-.008a1.321 1.321 0 0 1-1.308-1.32zM32.3 37.426a5.792 5.792 0 1 1-5.643-10.113 5.792 5.792 0 0 1 5.643 10.113zm0 0"/><g clip-path="url(#a)"><path fill="#f97732" d="M60.531 26.082v8.95H49.605a9.663 9.663 0 0 0-2.05-.887l-.086.558a1.32 1.32 0 0 1-1.504 1.113 1.33 1.33 0 0 1-1.113-1.507l.086-.559c-.391-.004-.782.02-1.172.066v-7.734zm0 0"/></g><g clip-path="url(#b)"><path fill="#ae2c36" d="M31.574 41.566v8.524h-16.77v-9.13l10.868.036c.765.336 1.57.57 2.39.695l.008-.566a1.318 1.318 0 0 1 1.32-1.313h.016c.73.008 1.317.61 1.309 1.336l-.004.575c.289-.04.574-.09.863-.157zm0 0"/></g><g clip-path="url(#c)"><path fill="#9b2937" d="M14.805 40.96v9.13h13.504c-6.153-1.914-10.899-4.793-13.504-9.13zm0 0"/></g><path fill="#e26933" d="M43.766 26.082v7.734c.39-.046.78-.07 1.172-.066l-.086.559a1.33 1.33 0 0 0 1.308 1.523 1.32 1.32 0 0 0 1.309-1.129l.086-.558a9.663 9.663 0 0 1 2.05.886h5.938c-5.238-1.593-9.164-4.578-11.777-8.949zm0 0"/><path fill="#3a322b" d="M34.855 29.367a6.091 6.091 0 0 0-3.699-2.922 6.118 6.118 0 0 0-4.68.547 6.116 6.116 0 0 0-2.921 3.7 6.114 6.114 0 0 0 .547 4.68 6.102 6.102 0 0 0 3.699 2.921 6.093 6.093 0 0 0 4.68-.547 6.091 6.091 0 0 0 2.921-3.7 6.099 6.099 0 0 0-.547-4.679zm-.16 4.48a5.368 5.368 0 0 1-2.574 3.255 5.383 5.383 0 0 1-4.121.484 5.39 5.39 0 0 1-3.254-2.574 5.38 5.38 0 0 1-.484-4.121 5.39 5.39 0 0 1 2.574-3.254 5.404 5.404 0 0 1 4.121-.485 5.39 5.39 0 0 1 3.254 2.575 5.383 5.383 0 0 1 .484 4.12zm0 0"/><path fill="#3a322b" d="M30.672 28.164a4.35 4.35 0 0 0-3.324.39 4.348 4.348 0 0 0-2.075 2.626 4.342 4.342 0 0 0 .391 3.32 4.378 4.378 0 0 0 3.824 2.238c.719 0 1.45-.18 2.121-.554a4.375 4.375 0 0 0 1.684-5.946 4.34 4.34 0 0 0-2.621-2.074zm.578 7.375a3.637 3.637 0 0 1-4.941-1.398 3.607 3.607 0 0 1-.325-2.762 3.605 3.605 0 0 1 1.723-2.18 3.605 3.605 0 0 1 2.762-.324 3.605 3.605 0 0 1 2.18 1.723 3.637 3.637 0 0 1-1.399 4.941zM48.672 38.348a6.1 6.1 0 0 0-4.535-1.29 6.12 6.12 0 0 0-4.114 2.297 6.164 6.164 0 0 0 1.008 8.653 6.12 6.12 0 0 0 4.535 1.285 6.104 6.104 0 0 0 4.114-2.297 6.16 6.16 0 0 0-1.008-8.648zm.43 8.191a5.381 5.381 0 0 1-3.622 2.023 5.388 5.388 0 0 1-3.992-1.132 5.43 5.43 0 0 1-.886-7.617 5.377 5.377 0 0 1 3.62-2.02 5.377 5.377 0 0 1 3.992 1.133 5.377 5.377 0 0 1 2.02 3.62 5.384 5.384 0 0 1-1.132 3.993zm0 0"/><path fill="#3a322b" d="M47.563 39.75a4.36 4.36 0 0 0-3.22-.914 4.35 4.35 0 0 0-2.917 1.629 4.33 4.33 0 0 0-.914 3.219 4.34 4.34 0 0 0 1.629 2.918 4.33 4.33 0 0 0 3.218.914 4.334 4.334 0 0 0 2.918-1.63 4.338 4.338 0 0 0 .914-3.214 4.35 4.35 0 0 0-1.629-2.922zm.136 5.68a3.61 3.61 0 0 1-2.426 1.355 3.616 3.616 0 0 1-2.675-.762 3.582 3.582 0 0 1-1.352-2.425 3.608 3.608 0 0 1 .758-2.676 3.622 3.622 0 0 1 2.426-1.352 3.614 3.614 0 0 1 2.676.758 3.59 3.59 0 0 1 1.351 2.43c.113.96-.156 1.91-.758 2.672zm0 0"/><g clip-path="url(#d)"><path fill="#3a322b" d="M49.785 35.402h10.746a.37.37 0 0 0 .371-.367v-8.953a.37.37 0 0 0-.37-.367H43.765a.367.367 0 0 0-.368.367V33.5c-.343.05-.683.113-1.02.2a.363.363 0 0 0-.237.195.376.376 0 0 0-.012.304l.219.52a.947.947 0 0 1 .004.73.947.947 0 0 1-.516.52.947.947 0 0 1-.73.004.96.96 0 0 1-.52-.516l-.219-.523a.372.372 0 0 0-.535-.172l-1.066.668.39-1.555a.369.369 0 0 0-.355-.457l-.563-.008a.92.92 0 0 1-.672-.285.94.94 0 0 1-.273-.68c0-.254.102-.492.285-.672a.907.907 0 0 1 .676-.27l.57.005a.362.362 0 0 0 .278-.125.364.364 0 0 0 .09-.293 9.615 9.615 0 0 0-.575-2.25.355.355 0 0 0-.219-.211.363.363 0 0 0-.304.023l-.496.278a.959.959 0 0 1-1.297-.367.959.959 0 0 1 .367-1.301l.496-.278c.094-.05.16-.14.18-.246a.356.356 0 0 0-.067-.297 9.584 9.584 0 0 0-1.613-1.668.373.373 0 0 0-.297-.078.387.387 0 0 0-.254.172l-.293.488a.943.943 0 0 1-.586.434.951.951 0 0 1-1.156-.7.94.94 0 0 1 .11-.722l.289-.484c.054-.09.07-.2.035-.301a.351.351 0 0 0-.207-.227 9.835 9.835 0 0 0-2.489-.687.364.364 0 0 0-.293.09.366.366 0 0 0-.128.277l.003.563a.96.96 0 0 1-.277.68.99.99 0 0 1-.305.202v-9.656a.367.367 0 0 0-.367-.367.37.37 0 0 0-.37.367v9.66a.965.965 0 0 1-.59-.879v-.566a.366.366 0 0 0-.13-.277.366.366 0 0 0-.293-.086 9.825 9.825 0 0 0-2.117.554.364.364 0 0 0-.188.523l.278.497a.96.96 0 0 1 .082.727.942.942 0 0 1-.453.57.95.95 0 0 1-1.297-.367l-.277-.496a.388.388 0 0 0-.246-.184.377.377 0 0 0-.301.07 9.733 9.733 0 0 0-1.668 1.614.356.356 0 0 0-.078.296.37.37 0 0 0 .172.25l.488.297a.954.954 0 1 1-.984 1.633l-.489-.293a.37.37 0 0 0-.3-.035.383.383 0 0 0-.227.207 9.88 9.88 0 0 0-.688 2.492.362.362 0 0 0 .086.293c.07.082.164.13.282.13l.566-.005h.004c.254 0 .492.098.672.278.09.09.16.191.207.304h-6.785a.367.367 0 1 0 0 .735h6.789a.962.962 0 0 1-.88.593h-.566c-.109 0-.21.047-.28.13a.378.378 0 0 0-.083.292c.102.727.29 1.438.555 2.117a.364.364 0 0 0 .523.188l.496-.277a.96.96 0 0 1 .727-.082c.242.066.45.23.57.453a.954.954 0 0 1-.367 1.297l-.496.277a.361.361 0 0 0-.18.246.361.361 0 0 0 .067.3c.441.579.949 1.114 1.508 1.583a.387.387 0 0 0 .296.082c.106-.02.2-.082.254-.172l.301-.48a.92.92 0 0 1 .594-.426.956.956 0 0 1 1.027 1.434l-.191.304-10.66-.031h-.004a.335.335 0 0 0-.14.027c-.032.012-.056.035-.083.055-.012.008-.027.015-.035.023-.024.024-.035.047-.05.074-.009.016-.024.028-.028.043-.012.024-.012.047-.016.07-.004.024-.015.048-.015.075v9.129c0 .203.164.367.367.367h16.77a.367.367 0 0 0 .366-.367v-8.235c.364-.097.72-.21 1.067-.343a.37.37 0 0 0 .191-.524l-.277-.5a.95.95 0 0 1 .367-1.297.944.944 0 0 1 .727-.086c.242.07.449.23.57.454l.277.496a.367.367 0 0 0 .27.183c.11.02.226-.015.308-.097l.2-.188-.16.371a.352.352 0 0 0 .015.324.358.358 0 0 0 .266.188l.566.086c.25.039.473.172.625.375a.98.98 0 0 1 .176.71.944.944 0 0 1-.379.626.936.936 0 0 1-.71.176l-.56-.086a.37.37 0 0 0-.425.363c-.008.867.101 1.73.316 2.566a.365.365 0 0 0 .195.235c.094.05.207.054.305.011l.524-.218a.957.957 0 0 1 1.25.511.958.958 0 0 1-.512 1.25l-.524.22a.364.364 0 0 0-.207.222.362.362 0 0 0 .032.304c.375.63.82 1.22 1.32 1.743.074.078.18.12.285.117a.391.391 0 0 0 .273-.14l.352-.446a.957.957 0 0 1 1.344-.156c.41.324.48.925.156 1.34l-.355.445a.37.37 0 0 0-.075.297c.024.105.086.199.18.25.629.37 1.3.668 2 .886.102.032.211.02.3-.039a.354.354 0 0 0 .173-.254l.093-.558a.96.96 0 0 1 1.098-.79c.52.087.871.579.785 1.098l-.09.563a.356.356 0 0 0 .079.297.37.37 0 0 0 .277.133h.219c.27 0 .535-.016.804-.035v7.613a.37.37 0 0 0 .738 0v-7.703c.27-.043.54-.094.81-.157a.378.378 0 0 0 .237-.191.362.362 0 0 0 .016-.305l-.215-.527a.958.958 0 0 1 1.262-1.234.953.953 0 0 1 .512.52l.21.53a.371.371 0 0 0 .528.184 9.8 9.8 0 0 0 1.86-1.395.352.352 0 0 0 .113-.28.366.366 0 0 0-.137-.274l-.45-.356a.959.959 0 0 1-.156-1.34c.16-.199.387-.324.637-.355a.948.948 0 0 1 .703.2l.45.35a.367.367 0 0 0 .546-.1c.114-.196.22-.395.317-.598l6.738 3.28a.361.361 0 0 0 .492-.171.367.367 0 0 0-.168-.492l-6.761-3.293c.097-.239.187-.48.265-.727a.364.364 0 0 0-.039-.304.378.378 0 0 0-.254-.172l-.558-.09a.955.955 0 0 1-.785-1.098.923.923 0 0 1 .386-.621.96.96 0 0 1 .711-.168l.555.094a.384.384 0 0 0 .297-.078.384.384 0 0 0 .133-.278 9.725 9.725 0 0 0-.282-2.566.362.362 0 0 0-.191-.242.376.376 0 0 0-.305-.016l-.523.211a.93.93 0 0 1-.73-.008.929.929 0 0 1-.512-.52.958.958 0 0 1 .53-1.241l.524-.211a.361.361 0 0 0 .211-.223.378.378 0 0 0-.027-.305 9.7 9.7 0 0 0-1.39-1.86.368.368 0 0 0-.555.028l-.352.446a.964.964 0 0 1-1.344.156.966.966 0 0 1-.355-.64.97.97 0 0 1 .199-.704zm-5.652-8.953h16.031v8.215H49.7a9.715 9.715 0 0 0-2.039-.871.37.37 0 0 0-.3.039.376.376 0 0 0-.169.258l-.086.558a.951.951 0 0 1-1.085.801.956.956 0 0 1-.801-1.086l.086-.558a.366.366 0 0 0-.086-.293.366.366 0 0 0-.278-.13 9.445 9.445 0 0 0-.808.032zm-7.196 11.684c-.007-.004-.015-.004-.019-.008-.008-.004-.008-.012-.016-.016l-.48-.3a.934.934 0 0 1-.426-.594.952.952 0 0 1 1.43-1.027l.547.343.593.457c.414.328.485.93.157 1.34a.938.938 0 0 1-.637.36.95.95 0 0 1-.703-.204zm-5.734 11.586H15.176v-8.387l10.426.031c.77.332 1.578.567 2.406.692a.36.36 0 0 0 .293-.082.384.384 0 0 0 .133-.278l.003-.566a.94.94 0 0 1 .965-.945c.528.004.95.437.946.96l-.008.575c0 .105.047.207.125.277.07.059.156.094.246.094.016 0 .031-.004.047-.004.148-.02.297-.047.445-.07zm4.074-10.438-.047-.082a1.688 1.688 0 0 0-2.3-.652 1.689 1.689 0 0 0-.653 2.3l.067.122a9.476 9.476 0 0 1-1.262.32l.004-.137a1.692 1.692 0 0 0-1.676-1.707h-.02c-.921 0-1.68.746-1.69 1.676v.133c-.505-.102-1-.246-1.485-.434l.07-.11c.492-.792.25-1.839-.543-2.331a1.685 1.685 0 0 0-1.277-.211 1.672 1.672 0 0 0-1.05.754l-.071.113a8.759 8.759 0 0 1-.813-.847l.117-.067c.184-.101.63-.406.805-1.016a1.733 1.733 0 0 0-.152-1.285A1.688 1.688 0 0 0 21 35.168l-.117.066a8.841 8.841 0 0 1-.297-1.136h.133a1.694 1.694 0 0 0 1.683-1.696v-.004c0-.453-.18-.875-.5-1.195a1.675 1.675 0 0 0-1.191-.488H20.57a9.228 9.228 0 0 1 .414-1.488l.114.066a1.69 1.69 0 0 0 2.32-.574c.484-.801.223-1.844-.574-2.324l-.117-.07c.289-.321.601-.626.933-.903l.067.117a1.693 1.693 0 0 0 2.957-1.648l-.067-.118a9.47 9.47 0 0 1 1.133-.296l.004.132c.004.93.762 1.688 1.691 1.688h.008c.45-.004.875-.18 1.192-.504.32-.32.492-.746.492-1.195v-.13a9.16 9.16 0 0 1 1.484.407l-.066.113c-.235.387-.301.84-.192 1.282.11.437.383.808.77 1.039.387.234.84.304 1.281.195.438-.11.809-.383 1.04-.77l.07-.113c.324.29.624.602.902.934l-.117.062a1.7 1.7 0 0 0-.653 2.305 1.7 1.7 0 0 0 2.305.652l.113-.066a8.6 8.6 0 0 1 .32 1.258H38.247c-.445 0-.867.172-1.184.484a1.67 1.67 0 0 0-.507 1.191c-.004.45.168.88.484 1.2a1.67 1.67 0 0 0 1.191.507h.098l-.379 1.497-.129-.083a1.695 1.695 0 0 0-2.332.543 1.694 1.694 0 0 0 .543 2.332l.078.047zm16.34-1.93.082-.105c.285.324.543.672.778 1.04l-.122.05a1.693 1.693 0 0 0-.94 2.2c.17.421.491.75.91.925.413.18.874.184 1.292.016l.121-.051c.098.504.153 1.015.168 1.535l-.129-.023a1.686 1.686 0 0 0-1.945 1.394 1.693 1.693 0 0 0 1.395 1.945l.128.024a8.998 8.998 0 0 1-.472 1.07l-.106-.082a1.682 1.682 0 0 0-2.375.277 1.692 1.692 0 0 0 .278 2.38l.105.081a8.817 8.817 0 0 1-1.043.778l-.05-.125a1.686 1.686 0 0 0-2.2-.938 1.688 1.688 0 0 0-.937 2.2l.047.124a9.185 9.185 0 0 1-1.536.168l.024-.132a1.695 1.695 0 0 0-1.672-1.97c-.352 0-.691.11-.98.317a1.685 1.685 0 0 0-.688 1.102l-.02.133a9.763 9.763 0 0 1-1.074-.477l.082-.105a1.69 1.69 0 1 0-2.652-2.098l-.082.105a8.697 8.697 0 0 1-.711-.937l.125-.05a1.695 1.695 0 0 0 .906-2.216A1.695 1.695 0 0 0 36.11 45l-.12.05a9.169 9.169 0 0 1-.192-1.53l.133.02c.445.065.894-.044 1.258-.313.363-.266.601-.66.667-1.11a1.688 1.688 0 0 0-.312-1.258 1.667 1.667 0 0 0-1.11-.668l-.09-.011.512-1.172.07.054c.352.282.798.407 1.247.356a1.696 1.696 0 0 0 .848-3.012l-.192-.148 1.027-.64.051.124c.172.418.5.738.918.91.418.172.88.172 1.297-.004.414-.171.738-.5.91-.918a1.678 1.678 0 0 0-.004-1.296l-.05-.118a9.272 9.272 0 0 1 1.53-.191l-.019.129a1.693 1.693 0 0 0 1.422 1.926 1.688 1.688 0 0 0 1.926-1.418l.02-.133c.41.144.808.316 1.19.516l-.081.105a1.687 1.687 0 0 0 .277 2.379c.73.578 1.797.453 2.375-.277zm0 0"/></g></svg>