<svg xmlns="http://www.w3.org/2000/svg" xmlns:xlink="http://www.w3.org/1999/xlink" width="100" zoomAndPan="magnify" viewBox="0 0 75 74.999997" height="100" preserveAspectRatio="xMidYMid meet" version="1.0"><defs><clipPath id="id1"><path d="M 43 26 L 60.9375 26 L 60.9375 36 L 43 36 Z M 43 26 " clip-rule="nonzero"/></clipPath><clipPath id="id2"><path d="M 14.4375 39 L 32 39 L 32 51 L 14.4375 51 Z M 14.4375 39 " clip-rule="nonzero"/></clipPath><clipPath id="id3"><path d="M 14.4375 40 L 29 40 L 29 51 L 14.4375 51 Z M 14.4375 40 " clip-rule="nonzero"/></clipPath><clipPath id="id4"><path d="M 14.4375 14.4375 L 60.9375 14.4375 L 60.9375 60.9375 L 14.4375 60.9375 Z M 14.4375 14.4375 " clip-rule="nonzero"/></clipPath></defs><path fill="#ffecb3" d="M 37.5 0 C 16.789062 0 0 16.789062 0 37.5 C 0 58.210938 16.789062 75 37.5 75 C 58.210938 75 75 58.210938 75 37.5 C 75 16.789062 58.210938 0 37.5 0 " fill-opacity="1" fill-rule="nonzero"/><path fill="#ef9d26" d="M 35.269531 29.175781 C 36.9375 32.632812 36.105469 36.550781 32.484375 38.371094 C 28.539062 40.355469 24.910156 38.117188 23.351562 35.324219 C 21.789062 32.535156 23.371094 27.910156 26.488281 26.445312 C 29.386719 25.082031 33.628906 25.769531 35.269531 29.175781 Z M 31.429688 35.863281 C 33.359375 34.785156 34.046875 32.347656 32.972656 30.417969 C 31.894531 28.492188 29.457031 27.800781 27.527344 28.878906 C 25.601562 29.953125 24.910156 32.390625 25.988281 34.320312 C 27.0625 36.25 29.5 36.9375 31.429688 35.863281 Z M 31.429688 35.863281 " fill-opacity="1" fill-rule="nonzero"/><path fill="#cbdd56" d="M 48.582031 37.660156 C 52.003906 40 52.558594 44.808594 50.574219 47.3125 C 48.589844 49.820312 42.992188 50.546875 40.484375 48.5625 C 37.976562 46.578125 37.558594 41.636719 39.542969 39.125 C 41.527344 36.617188 45.945312 35.855469 48.582031 37.660156 Z M 47.992188 45.660156 C 49.359375 43.925781 49.066406 41.410156 47.335938 40.039062 C 45.601562 38.667969 43.085938 38.964844 41.714844 40.691406 C 40.34375 42.425781 40.636719 44.945312 42.371094 46.3125 C 44.105469 47.683594 46.617188 47.390625 47.992188 45.660156 Z M 47.992188 45.660156 " fill-opacity="1" fill-rule="nonzero"/><path fill="#96b443" d="M 52.175781 44.609375 C 52.175781 44.535156 52.183594 44.464844 52.195312 44.390625 C 52.316406 43.667969 53 43.183594 53.71875 43.304688 L 54.273438 43.394531 C 54.292969 42.5625 54.203125 41.730469 54.003906 40.921875 L 53.480469 41.132812 C 53.320312 41.199219 53.152344 41.226562 52.988281 41.226562 C 52.464844 41.226562 51.964844 40.914062 51.757812 40.398438 C 51.484375 39.71875 51.816406 38.949219 52.492188 38.675781 L 53.015625 38.464844 C 52.652344 37.828125 52.207031 37.226562 51.683594 36.675781 L 51.328125 37.121094 C 50.875 37.695312 50.042969 37.789062 49.46875 37.335938 C 48.898438 36.882812 48.796875 36.054688 49.25 35.480469 L 49.605469 35.03125 C 48.773438 31.5 46.832031 31.074219 43.765625 33.816406 C 43.328125 33.867188 42.898438 33.949219 42.46875 34.058594 L 42.6875 34.578125 C 42.757812 34.746094 42.792969 34.917969 42.792969 35.085938 C 42.792969 35.609375 42.484375 36.097656 41.980469 36.308594 C 41.304688 36.59375 40.53125 36.273438 40.246094 35.601562 L 40.027344 35.078125 C 39.414062 35.460938 38.796875 35.84375 38.179688 36.226562 C 38.386719 36.386719 38.589844 36.539062 38.796875 36.699219 C 39.125 36.960938 39.300781 37.347656 39.300781 37.738281 C 39.300781 38.027344 39.207031 38.3125 39.015625 38.558594 C 38.5625 39.132812 37.726562 39.230469 37.152344 38.773438 L 36.707031 38.421875 C 36.410156 39.105469 36.113281 39.789062 35.816406 40.472656 L 36.382812 40.554688 C 37.039062 40.65625 37.507812 41.222656 37.507812 41.871094 C 37.507812 41.933594 37.503906 42 37.492188 42.066406 C 37.382812 42.789062 36.707031 43.28125 35.984375 43.175781 L 35.421875 43.089844 C 35.414062 43.921875 35.519531 44.753906 35.730469 45.558594 L 36.253906 45.339844 C 36.417969 45.269531 36.59375 45.234375 36.761719 45.234375 C 37.28125 45.234375 37.773438 45.542969 37.984375 46.050781 C 38.265625 46.726562 37.949219 47.5 37.273438 47.78125 L 36.75 48 C 37.105469 48.597656 37.527344 49.160156 38.023438 49.679688 L 38.375 49.234375 C 38.828125 48.65625 39.660156 48.5625 40.230469 49.015625 C 40.808594 49.46875 40.902344 50.300781 40.449219 50.875 L 40.097656 51.320312 C 40.714844 51.683594 41.359375 51.960938 42.019531 52.171875 L 42.117188 51.613281 C 42.222656 50.960938 42.785156 50.5 43.421875 50.5 C 43.492188 50.5 43.5625 50.507812 43.636719 50.519531 C 44.359375 50.640625 44.84375 51.320312 44.726562 52.042969 L 44.636719 52.605469 C 44.703125 52.605469 44.773438 52.605469 44.839844 52.605469 C 45.234375 52.605469 45.625 52.582031 46.019531 52.535156 C 46.386719 52.484375 46.746094 52.417969 47.109375 52.332031 L 46.894531 51.804688 C 46.621094 51.125 46.949219 50.355469 47.628906 50.082031 C 48.308594 49.808594 49.078125 50.140625 49.351562 50.816406 L 49.566406 51.347656 C 50.203125 50.976562 50.804688 50.53125 51.355469 50.007812 L 50.90625 49.652344 C 50.574219 49.390625 50.402344 49.003906 50.402344 48.613281 C 50.402344 48.324219 50.496094 48.039062 50.691406 47.796875 C 51.144531 47.21875 51.976562 47.125 52.546875 47.578125 L 52.996094 47.929688 C 53.167969 47.636719 53.324219 47.335938 53.460938 47.023438 C 53.605469 46.6875 53.734375 46.347656 53.847656 46.007812 L 53.285156 45.914062 C 52.636719 45.804688 52.175781 45.246094 52.175781 44.609375 Z M 49.390625 46.769531 C 47.40625 49.277344 43.769531 49.703125 41.261719 47.71875 C 38.753906 45.734375 38.324219 42.09375 40.308594 39.582031 C 42.292969 37.074219 45.9375 36.652344 48.445312 38.636719 C 50.953125 40.617188 51.375 44.261719 49.390625 46.769531 Z M 49.390625 46.769531 " fill-opacity="1" fill-rule="nonzero"/><path fill="#f9b132" d="M 36.925781 32.457031 C 36.925781 32.453125 36.925781 32.449219 36.925781 32.445312 C 36.929688 31.714844 37.527344 31.125 38.257812 31.132812 L 38.828125 31.136719 C 38.730469 30.410156 38.550781 29.683594 38.273438 28.972656 L 37.78125 29.25 C 37.140625 29.609375 36.335938 29.378906 35.980469 28.742188 C 35.621094 28.105469 35.851562 27.296875 36.488281 26.9375 L 36.984375 26.660156 C 36.527344 26.058594 36.003906 25.523438 35.429688 25.058594 L 35.140625 25.542969 C 34.886719 25.953125 34.449219 26.183594 34.003906 26.183594 C 33.769531 26.183594 33.535156 26.125 33.320312 25.996094 C 32.695312 25.613281 32.496094 24.804688 32.871094 24.175781 L 33.164062 23.691406 C 32.394531 23.367188 31.589844 23.148438 30.765625 23.03125 L 30.765625 23.597656 C 30.765625 23.601562 30.765625 23.601562 30.765625 23.605469 C 30.765625 24.332031 30.175781 24.921875 29.449219 24.925781 C 28.71875 24.929688 28.121094 24.339844 28.121094 23.609375 L 28.117188 23.039062 C 27.433594 23.140625 26.75 23.316406 26.082031 23.570312 L 26.359375 24.070312 C 26.472656 24.273438 26.527344 24.496094 26.527344 24.714844 C 26.527344 25.179688 26.285156 25.628906 25.851562 25.867188 C 25.210938 26.226562 24.40625 25.996094 24.046875 25.359375 L 23.769531 24.863281 C 23.164062 25.324219 22.628906 25.84375 22.164062 26.414062 L 22.652344 26.710938 C 23.066406 26.957031 23.296875 27.394531 23.296875 27.84375 C 23.296875 28.078125 23.230469 28.3125 23.101562 28.527344 C 22.726562 29.15625 21.914062 29.355469 21.285156 28.976562 L 20.796875 28.683594 C 20.472656 29.449219 20.253906 30.257812 20.136719 31.082031 L 20.707031 31.078125 C 21.070312 31.078125 21.402344 31.226562 21.644531 31.464844 C 21.882812 31.707031 22.035156 32.035156 22.035156 32.398438 C 22.039062 33.128906 21.449219 33.722656 20.71875 33.726562 L 20.148438 33.730469 C 20.25 34.417969 20.425781 35.097656 20.679688 35.765625 L 21.179688 35.488281 C 21.816406 35.132812 22.625 35.359375 22.976562 36 C 23.023438 36.074219 23.242188 36.488281 23.097656 37.003906 C 22.953125 37.523438 22.546875 37.757812 22.46875 37.796875 L 21.972656 38.078125 C 22.40625 38.644531 22.894531 39.15625 23.425781 39.597656 L 23.726562 39.113281 C 23.976562 38.710938 24.410156 38.492188 24.851562 38.492188 C 25.089844 38.492188 25.332031 38.558594 25.546875 38.691406 C 26.167969 39.078125 26.359375 39.894531 25.972656 40.511719 L 25.671875 40.996094 C 24.292969 45.351562 30.347656 46.011719 31.574219 41.566406 C 32.011719 41.46875 32.449219 41.335938 32.875 41.167969 L 32.597656 40.671875 C 32.242188 40.03125 32.46875 39.226562 33.109375 38.867188 C 33.746094 38.511719 34.554688 38.742188 34.90625 39.378906 L 35.1875 39.875 C 35.691406 39.390625 36.203125 38.90625 36.707031 38.421875 L 36.226562 38.121094 C 35.820312 37.871094 35.601562 37.441406 35.601562 36.996094 C 35.601562 36.757812 35.667969 36.519531 35.800781 36.300781 C 36.1875 35.679688 37 35.488281 37.625 35.875 C 37.808594 35.992188 37.996094 36.109375 38.179688 36.226562 C 38.386719 35.414062 38.59375 34.601562 38.796875 33.785156 L 38.234375 33.777344 C 37.507812 33.769531 36.925781 33.179688 36.925781 32.457031 Z M 32.300781 37.425781 C 29.507812 38.980469 25.984375 37.984375 24.421875 35.191406 C 22.863281 32.398438 23.863281 28.875 26.65625 27.3125 C 29.449219 25.753906 32.976562 26.753906 34.535156 29.546875 C 36.09375 32.335938 35.09375 35.867188 32.300781 37.425781 Z M 32.300781 37.425781 " fill-opacity="1" fill-rule="nonzero"/><g clip-path="url(#id1)"><path fill="#f97732" d="M 60.53125 26.082031 L 60.53125 35.03125 L 49.605469 35.03125 C 48.949219 34.648438 48.257812 34.359375 47.554688 34.144531 L 47.46875 34.703125 C 47.375 35.359375 46.808594 35.832031 46.160156 35.832031 C 46.097656 35.832031 46.03125 35.828125 45.964844 35.816406 C 45.242188 35.707031 44.746094 35.03125 44.851562 34.308594 L 44.9375 33.75 C 44.546875 33.746094 44.15625 33.769531 43.765625 33.816406 L 43.765625 26.082031 Z M 60.53125 26.082031 " fill-opacity="1" fill-rule="nonzero"/></g><g clip-path="url(#id2)"><path fill="#ae2c36" d="M 31.574219 41.566406 L 31.574219 50.089844 L 14.804688 50.089844 L 14.804688 40.960938 L 25.671875 40.996094 C 26.4375 41.332031 27.242188 41.566406 28.0625 41.691406 L 28.070312 41.125 C 28.074219 40.847656 28.164062 40.585938 28.308594 40.375 C 28.550781 40.03125 28.945312 39.8125 29.390625 39.8125 L 29.40625 39.8125 C 30.136719 39.820312 30.722656 40.421875 30.714844 41.148438 L 30.710938 41.722656 C 31 41.683594 31.285156 41.632812 31.574219 41.566406 Z M 31.574219 41.566406 " fill-opacity="1" fill-rule="nonzero"/></g><g clip-path="url(#id3)"><path fill="#9b2937" d="M 14.804688 40.960938 L 14.804688 50.089844 L 28.308594 50.089844 C 22.15625 48.175781 17.410156 45.296875 14.804688 40.960938 Z M 14.804688 40.960938 " fill-opacity="1" fill-rule="nonzero"/></g><path fill="#e26933" d="M 43.765625 26.082031 L 43.765625 33.816406 C 44.15625 33.769531 44.546875 33.746094 44.9375 33.75 L 44.851562 34.308594 C 44.746094 35.03125 45.242188 35.707031 45.964844 35.816406 C 46.03125 35.828125 46.097656 35.832031 46.160156 35.832031 C 46.808594 35.832031 47.375 35.359375 47.46875 34.703125 L 47.554688 34.144531 C 48.257812 34.359375 48.949219 34.648438 49.605469 35.03125 L 55.542969 35.03125 C 50.304688 33.4375 46.378906 30.453125 43.765625 26.082031 Z M 43.765625 26.082031 " fill-opacity="1" fill-rule="nonzero"/><path fill="#3a322b" d="M 34.855469 29.367188 C 34.054688 27.929688 32.742188 26.890625 31.15625 26.445312 C 29.578125 25.996094 27.914062 26.191406 26.476562 26.992188 C 25.039062 27.792969 24.003906 29.109375 23.554688 30.691406 C 23.105469 32.273438 23.300781 33.9375 24.101562 35.371094 C 24.902344 36.808594 26.21875 37.847656 27.800781 38.292969 C 28.355469 38.453125 28.925781 38.53125 29.488281 38.53125 C 30.523438 38.53125 31.550781 38.265625 32.480469 37.746094 C 33.917969 36.945312 34.957031 35.632812 35.402344 34.046875 C 35.851562 32.464844 35.660156 30.804688 34.855469 29.367188 Z M 34.695312 33.847656 C 34.300781 35.242188 33.386719 36.398438 32.121094 37.101562 C 30.855469 37.808594 29.394531 37.980469 28 37.585938 C 26.609375 37.191406 25.453125 36.277344 24.746094 35.011719 C 24.039062 33.75 23.867188 32.285156 24.261719 30.890625 C 24.65625 29.5 25.570312 28.34375 26.835938 27.636719 C 27.65625 27.179688 28.558594 26.945312 29.472656 26.945312 C 29.96875 26.945312 30.464844 27.015625 30.957031 27.152344 C 32.347656 27.546875 33.503906 28.460938 34.210938 29.726562 C 34.917969 30.992188 35.089844 32.453125 34.695312 33.847656 Z M 34.695312 33.847656 " fill-opacity="1" fill-rule="nonzero"/><path fill="#3a322b" d="M 30.671875 28.164062 C 29.546875 27.847656 28.367188 27.984375 27.347656 28.554688 C 26.328125 29.125 25.59375 30.054688 25.273438 31.179688 C 24.957031 32.300781 25.09375 33.480469 25.664062 34.5 C 26.464844 35.929688 27.953125 36.738281 29.488281 36.738281 C 30.207031 36.738281 30.9375 36.558594 31.609375 36.183594 C 33.710938 35.007812 34.46875 32.34375 33.292969 30.238281 C 32.726562 29.21875 31.792969 28.484375 30.671875 28.164062 Z M 31.25 35.539062 C 29.5 36.515625 27.285156 35.886719 26.308594 34.140625 C 25.835938 33.292969 25.71875 32.3125 25.984375 31.378906 C 26.25 30.445312 26.859375 29.671875 27.707031 29.199219 C 28.257812 28.890625 28.863281 28.734375 29.472656 28.734375 C 29.804688 28.734375 30.140625 28.78125 30.46875 28.875 C 31.402344 29.140625 32.175781 29.75 32.648438 30.597656 C 33.625 32.347656 32.996094 34.5625 31.25 35.539062 Z M 31.25 35.539062 " fill-opacity="1" fill-rule="nonzero"/><path fill="#3a322b" d="M 48.671875 38.347656 C 47.382812 37.324219 45.773438 36.867188 44.136719 37.058594 C 42.503906 37.25 41.042969 38.066406 40.023438 39.355469 C 37.914062 42.019531 38.367188 45.898438 41.03125 48.007812 C 42.128906 48.875 43.460938 49.335938 44.839844 49.335938 C 45.078125 49.335938 45.324219 49.320312 45.566406 49.292969 C 47.199219 49.101562 48.660156 48.289062 49.679688 46.996094 C 51.789062 44.332031 51.335938 40.453125 48.671875 38.347656 Z M 49.101562 46.539062 C 48.203125 47.675781 46.917969 48.394531 45.480469 48.5625 C 44.042969 48.730469 42.625 48.328125 41.488281 47.429688 C 39.144531 45.574219 38.746094 42.15625 40.601562 39.8125 C 41.5 38.675781 42.785156 37.960938 44.222656 37.792969 C 44.4375 37.765625 44.648438 37.753906 44.863281 37.753906 C 46.078125 37.753906 47.246094 38.160156 48.214844 38.925781 C 49.351562 39.824219 50.066406 41.109375 50.234375 42.546875 C 50.402344 43.988281 50 45.402344 49.101562 46.539062 Z M 49.101562 46.539062 " fill-opacity="1" fill-rule="nonzero"/><path fill="#3a322b" d="M 47.5625 39.75 C 46.648438 39.027344 45.503906 38.703125 44.34375 38.835938 C 43.1875 38.972656 42.148438 39.550781 41.425781 40.464844 C 40.699219 41.382812 40.375 42.523438 40.511719 43.683594 C 40.648438 44.84375 41.226562 45.878906 42.140625 46.601562 C 42.917969 47.21875 43.863281 47.546875 44.84375 47.546875 C 45.011719 47.546875 45.183594 47.535156 45.359375 47.515625 C 46.515625 47.382812 47.554688 46.800781 48.277344 45.886719 C 49.003906 44.972656 49.324219 43.828125 49.191406 42.671875 C 49.054688 41.511719 48.476562 40.472656 47.5625 39.75 Z M 47.699219 45.429688 C 47.097656 46.191406 46.234375 46.671875 45.273438 46.785156 C 44.3125 46.898438 43.359375 46.625 42.597656 46.023438 C 41.835938 45.421875 41.355469 44.5625 41.246094 43.597656 C 41.132812 42.632812 41.402344 41.683594 42.003906 40.921875 C 42.605469 40.164062 43.46875 39.683594 44.429688 39.570312 C 44.574219 39.554688 44.714844 39.542969 44.859375 39.542969 C 45.671875 39.542969 46.457031 39.816406 47.105469 40.328125 C 47.867188 40.929688 48.347656 41.792969 48.457031 42.757812 C 48.570312 43.71875 48.300781 44.667969 47.699219 45.429688 Z M 47.699219 45.429688 " fill-opacity="1" fill-rule="nonzero"/><g clip-path="url(#id4)"><path fill="#3a322b" d="M 49.785156 35.402344 L 60.53125 35.402344 C 60.734375 35.402344 60.902344 35.238281 60.902344 35.035156 L 60.902344 26.082031 C 60.902344 25.878906 60.734375 25.714844 60.53125 25.714844 L 43.765625 25.714844 C 43.5625 25.714844 43.398438 25.878906 43.398438 26.082031 L 43.398438 33.5 C 43.054688 33.550781 42.714844 33.613281 42.378906 33.699219 C 42.273438 33.726562 42.1875 33.796875 42.140625 33.894531 C 42.09375 33.988281 42.089844 34.101562 42.128906 34.199219 L 42.347656 34.71875 C 42.445312 34.957031 42.449219 35.214844 42.351562 35.449219 C 42.253906 35.6875 42.070312 35.871094 41.835938 35.96875 C 41.601562 36.066406 41.34375 36.070312 41.105469 35.972656 C 40.871094 35.875 40.683594 35.691406 40.585938 35.457031 L 40.367188 34.933594 C 40.328125 34.835938 40.242188 34.757812 40.140625 34.726562 C 40.035156 34.691406 39.925781 34.707031 39.832031 34.761719 L 38.765625 35.429688 L 39.15625 33.875 C 39.183594 33.765625 39.160156 33.648438 39.089844 33.558594 C 39.019531 33.46875 38.914062 33.417969 38.800781 33.417969 L 38.238281 33.410156 C 37.980469 33.410156 37.742188 33.308594 37.566406 33.125 C 37.386719 32.941406 37.289062 32.703125 37.292969 32.445312 C 37.292969 32.191406 37.394531 31.953125 37.578125 31.773438 C 37.761719 31.597656 37.992188 31.492188 38.253906 31.503906 L 38.824219 31.507812 C 38.929688 31.507812 39.03125 31.464844 39.101562 31.382812 C 39.171875 31.304688 39.207031 31.195312 39.191406 31.089844 C 39.089844 30.316406 38.898438 29.558594 38.617188 28.839844 C 38.582031 28.742188 38.5 28.664062 38.398438 28.628906 C 38.300781 28.589844 38.1875 28.601562 38.09375 28.652344 L 37.597656 28.929688 C 37.140625 29.183594 36.558594 29.019531 36.300781 28.5625 C 36.042969 28.101562 36.210938 27.519531 36.667969 27.261719 L 37.164062 26.984375 C 37.257812 26.933594 37.324219 26.84375 37.34375 26.738281 C 37.367188 26.636719 37.34375 26.527344 37.277344 26.441406 C 36.8125 25.824219 36.269531 25.265625 35.664062 24.773438 C 35.578125 24.707031 35.472656 24.675781 35.367188 24.695312 C 35.261719 24.714844 35.171875 24.777344 35.113281 24.867188 L 34.820312 25.355469 C 34.691406 25.574219 34.480469 25.726562 34.234375 25.789062 C 33.984375 25.847656 33.730469 25.808594 33.511719 25.679688 C 33.292969 25.546875 33.140625 25.339844 33.078125 25.089844 C 33.015625 24.84375 33.054688 24.585938 33.1875 24.367188 L 33.476562 23.882812 C 33.53125 23.792969 33.546875 23.683594 33.511719 23.582031 C 33.480469 23.480469 33.40625 23.394531 33.304688 23.355469 C 32.515625 23.019531 31.679688 22.789062 30.816406 22.667969 C 30.710938 22.652344 30.601562 22.6875 30.523438 22.757812 C 30.441406 22.828125 30.394531 22.929688 30.394531 23.035156 L 30.398438 23.597656 C 30.398438 23.855469 30.300781 24.09375 30.121094 24.277344 C 30.03125 24.363281 29.929688 24.433594 29.816406 24.480469 L 29.816406 14.824219 C 29.816406 14.621094 29.652344 14.457031 29.449219 14.457031 C 29.246094 14.457031 29.078125 14.621094 29.078125 14.824219 L 29.078125 24.484375 C 28.734375 24.339844 28.492188 24 28.488281 23.605469 L 28.488281 23.039062 C 28.488281 22.933594 28.441406 22.832031 28.359375 22.761719 C 28.277344 22.691406 28.171875 22.660156 28.066406 22.675781 C 27.339844 22.78125 26.628906 22.96875 25.949219 23.230469 C 25.851562 23.265625 25.773438 23.347656 25.734375 23.449219 C 25.699219 23.546875 25.707031 23.660156 25.761719 23.753906 L 26.039062 24.25 C 26.160156 24.472656 26.191406 24.730469 26.121094 24.976562 C 26.054688 25.21875 25.890625 25.421875 25.667969 25.546875 C 25.210938 25.804688 24.625 25.640625 24.371094 25.179688 L 24.09375 24.683594 C 24.039062 24.589844 23.949219 24.523438 23.847656 24.5 C 23.742188 24.480469 23.632812 24.503906 23.546875 24.570312 C 22.929688 25.039062 22.367188 25.582031 21.878906 26.183594 C 21.808594 26.265625 21.78125 26.375 21.800781 26.480469 C 21.820312 26.585938 21.882812 26.675781 21.972656 26.730469 L 22.460938 27.027344 C 22.914062 27.296875 23.058594 27.886719 22.789062 28.335938 C 22.515625 28.789062 21.925781 28.933594 21.476562 28.660156 L 20.988281 28.367188 C 20.898438 28.3125 20.785156 28.300781 20.6875 28.332031 C 20.585938 28.367188 20.503906 28.441406 20.460938 28.539062 C 20.125 29.335938 19.890625 30.175781 19.773438 31.03125 C 19.757812 31.136719 19.789062 31.246094 19.859375 31.324219 C 19.929688 31.40625 20.023438 31.453125 20.140625 31.453125 L 20.707031 31.449219 C 20.710938 31.449219 20.710938 31.449219 20.710938 31.449219 C 20.964844 31.449219 21.203125 31.546875 21.382812 31.726562 C 21.472656 31.816406 21.542969 31.917969 21.589844 32.03125 L 14.804688 32.03125 C 14.601562 32.03125 14.4375 32.195312 14.4375 32.398438 C 14.4375 32.601562 14.601562 32.765625 14.804688 32.765625 L 21.59375 32.765625 C 21.449219 33.113281 21.109375 33.355469 20.714844 33.359375 L 20.148438 33.359375 C 20.039062 33.359375 19.9375 33.40625 19.867188 33.488281 C 19.800781 33.570312 19.769531 33.675781 19.785156 33.78125 C 19.886719 34.507812 20.074219 35.21875 20.339844 35.898438 C 20.375 35.996094 20.457031 36.074219 20.558594 36.113281 C 20.65625 36.148438 20.769531 36.140625 20.863281 36.085938 L 21.359375 35.808594 C 21.582031 35.6875 21.839844 35.65625 22.085938 35.726562 C 22.328125 35.792969 22.535156 35.957031 22.65625 36.179688 C 22.703125 36.257812 22.84375 36.550781 22.742188 36.902344 C 22.644531 37.257812 22.371094 37.433594 22.289062 37.476562 L 21.792969 37.753906 C 21.699219 37.804688 21.632812 37.898438 21.613281 38 C 21.589844 38.105469 21.613281 38.214844 21.679688 38.300781 C 22.121094 38.878906 22.628906 39.414062 23.1875 39.882812 C 23.269531 39.949219 23.378906 39.980469 23.484375 39.964844 C 23.589844 39.945312 23.683594 39.882812 23.738281 39.792969 L 24.039062 39.3125 C 24.171875 39.09375 24.382812 38.941406 24.632812 38.886719 C 24.882812 38.828125 25.136719 38.871094 25.351562 39.003906 C 25.800781 39.28125 25.9375 39.871094 25.660156 40.320312 L 25.46875 40.625 L 14.808594 40.59375 C 14.808594 40.59375 14.804688 40.59375 14.804688 40.59375 C 14.753906 40.59375 14.707031 40.601562 14.664062 40.621094 C 14.632812 40.632812 14.609375 40.65625 14.582031 40.675781 C 14.570312 40.683594 14.554688 40.691406 14.546875 40.699219 C 14.523438 40.722656 14.511719 40.746094 14.496094 40.773438 C 14.488281 40.789062 14.472656 40.800781 14.46875 40.816406 C 14.457031 40.839844 14.457031 40.863281 14.453125 40.886719 C 14.449219 40.910156 14.4375 40.933594 14.4375 40.960938 L 14.4375 50.089844 C 14.4375 50.292969 14.601562 50.457031 14.804688 50.457031 L 31.574219 50.457031 C 31.777344 50.457031 31.941406 50.292969 31.941406 50.089844 L 31.941406 41.855469 C 32.304688 41.757812 32.660156 41.644531 33.007812 41.511719 C 33.109375 41.472656 33.1875 41.390625 33.222656 41.292969 C 33.257812 41.191406 33.25 41.078125 33.199219 40.988281 L 32.921875 40.488281 C 32.664062 40.03125 32.828125 39.445312 33.289062 39.191406 C 33.511719 39.066406 33.769531 39.035156 34.015625 39.105469 C 34.257812 39.175781 34.464844 39.335938 34.585938 39.558594 L 34.863281 40.054688 C 34.921875 40.15625 35.019531 40.222656 35.132812 40.238281 C 35.242188 40.257812 35.359375 40.222656 35.441406 40.140625 L 35.640625 39.953125 L 35.480469 40.324219 C 35.433594 40.429688 35.4375 40.550781 35.496094 40.648438 C 35.550781 40.75 35.648438 40.820312 35.761719 40.835938 L 36.328125 40.921875 C 36.578125 40.960938 36.800781 41.09375 36.953125 41.296875 C 37.101562 41.503906 37.164062 41.753906 37.128906 42.007812 C 37.089844 42.261719 36.957031 42.480469 36.75 42.632812 C 36.546875 42.785156 36.296875 42.847656 36.039062 42.808594 L 35.480469 42.722656 C 35.371094 42.707031 35.265625 42.738281 35.183594 42.808594 C 35.105469 42.878906 35.054688 42.976562 35.054688 43.085938 C 35.046875 43.953125 35.15625 44.816406 35.371094 45.652344 C 35.398438 45.753906 35.46875 45.839844 35.566406 45.886719 C 35.660156 45.9375 35.773438 45.941406 35.871094 45.898438 L 36.394531 45.679688 C 36.882812 45.476562 37.441406 45.707031 37.644531 46.191406 C 37.847656 46.675781 37.617188 47.238281 37.132812 47.441406 L 36.609375 47.660156 C 36.507812 47.703125 36.433594 47.785156 36.402344 47.882812 C 36.367188 47.984375 36.378906 48.097656 36.433594 48.1875 C 36.808594 48.816406 37.253906 49.40625 37.753906 49.929688 C 37.828125 50.007812 37.933594 50.050781 38.039062 50.046875 C 38.144531 50.039062 38.246094 49.988281 38.3125 49.90625 L 38.664062 49.460938 C 38.992188 49.046875 39.59375 48.976562 40.007812 49.304688 C 40.417969 49.628906 40.488281 50.230469 40.164062 50.644531 L 39.808594 51.089844 C 39.742188 51.175781 39.714844 51.28125 39.734375 51.386719 C 39.757812 51.492188 39.820312 51.585938 39.914062 51.636719 C 40.542969 52.007812 41.214844 52.304688 41.914062 52.523438 C 42.015625 52.554688 42.125 52.542969 42.214844 52.484375 C 42.308594 52.429688 42.371094 52.335938 42.386719 52.230469 L 42.480469 51.671875 C 42.523438 51.417969 42.660156 51.199219 42.867188 51.050781 C 43.074219 50.902344 43.328125 50.84375 43.578125 50.882812 C 44.097656 50.96875 44.449219 51.460938 44.363281 51.980469 L 44.273438 52.542969 C 44.253906 52.648438 44.28125 52.757812 44.351562 52.839844 C 44.417969 52.921875 44.519531 52.96875 44.628906 52.972656 C 44.699219 52.972656 44.773438 52.972656 44.847656 52.972656 C 45.117188 52.972656 45.382812 52.957031 45.652344 52.9375 L 45.652344 60.550781 C 45.652344 60.753906 45.816406 60.917969 46.019531 60.917969 C 46.222656 60.917969 46.390625 60.753906 46.390625 60.550781 L 46.390625 52.847656 C 46.660156 52.804688 46.929688 52.753906 47.199219 52.691406 C 47.300781 52.664062 47.390625 52.59375 47.4375 52.5 C 47.488281 52.40625 47.492188 52.292969 47.453125 52.195312 L 47.238281 51.667969 C 47.042969 51.179688 47.28125 50.621094 47.769531 50.425781 C 48.007812 50.328125 48.265625 50.332031 48.5 50.433594 C 48.734375 50.53125 48.914062 50.71875 49.011719 50.953125 L 49.222656 51.484375 C 49.261719 51.582031 49.34375 51.660156 49.445312 51.695312 C 49.546875 51.730469 49.65625 51.71875 49.75 51.667969 C 50.421875 51.277344 51.046875 50.8125 51.609375 50.273438 C 51.6875 50.199219 51.730469 50.097656 51.722656 49.992188 C 51.71875 49.882812 51.667969 49.785156 51.585938 49.71875 L 51.136719 49.363281 C 50.726562 49.039062 50.65625 48.4375 50.980469 48.023438 C 51.140625 47.824219 51.367188 47.699219 51.617188 47.667969 C 51.871094 47.636719 52.121094 47.710938 52.320312 47.867188 L 52.769531 48.21875 C 52.851562 48.285156 52.960938 48.3125 53.066406 48.292969 C 53.171875 48.273438 53.261719 48.207031 53.316406 48.117188 C 53.429688 47.921875 53.535156 47.722656 53.632812 47.519531 L 60.371094 50.800781 C 60.425781 50.828125 60.480469 50.839844 60.535156 50.839844 C 60.671875 50.839844 60.800781 50.761719 60.863281 50.628906 C 60.953125 50.449219 60.878906 50.226562 60.695312 50.136719 L 53.933594 46.84375 C 54.03125 46.605469 54.121094 46.363281 54.199219 46.117188 C 54.230469 46.015625 54.21875 45.902344 54.160156 45.8125 C 54.105469 45.722656 54.011719 45.660156 53.90625 45.640625 L 53.347656 45.550781 C 52.828125 45.464844 52.476562 44.972656 52.5625 44.453125 C 52.601562 44.199219 52.738281 43.980469 52.949219 43.832031 C 53.15625 43.683594 53.410156 43.625 53.660156 43.664062 L 54.214844 43.757812 C 54.320312 43.773438 54.429688 43.746094 54.511719 43.679688 C 54.59375 43.609375 54.640625 43.507812 54.644531 43.402344 C 54.664062 42.53125 54.570312 41.667969 54.363281 40.835938 C 54.339844 40.730469 54.269531 40.644531 54.171875 40.59375 C 54.078125 40.546875 53.96875 40.539062 53.867188 40.578125 L 53.34375 40.789062 C 53.105469 40.886719 52.847656 40.882812 52.613281 40.78125 C 52.378906 40.683594 52.195312 40.5 52.101562 40.261719 C 51.90625 39.773438 52.144531 39.214844 52.632812 39.019531 L 53.15625 38.808594 C 53.257812 38.769531 53.332031 38.6875 53.367188 38.585938 C 53.402344 38.484375 53.390625 38.375 53.339844 38.28125 C 52.949219 37.605469 52.484375 36.980469 51.949219 36.421875 C 51.875 36.34375 51.773438 36.304688 51.664062 36.308594 C 51.558594 36.3125 51.460938 36.363281 51.394531 36.449219 L 51.042969 36.894531 C 50.714844 37.304688 50.113281 37.375 49.699219 37.050781 C 49.5 36.890625 49.375 36.664062 49.34375 36.410156 C 49.316406 36.15625 49.386719 35.910156 49.542969 35.707031 Z M 44.132812 26.449219 L 60.164062 26.449219 L 60.164062 34.664062 L 49.699219 34.664062 C 49.058594 34.300781 48.375 34.003906 47.660156 33.792969 C 47.558594 33.761719 47.449219 33.777344 47.359375 33.832031 C 47.269531 33.890625 47.207031 33.984375 47.191406 34.089844 L 47.105469 34.648438 C 47.027344 35.171875 46.542969 35.527344 46.019531 35.449219 C 45.5 35.371094 45.140625 34.882812 45.21875 34.363281 L 45.304688 33.804688 C 45.320312 33.699219 45.289062 33.59375 45.21875 33.511719 C 45.148438 33.429688 45.046875 33.382812 44.941406 33.382812 C 44.675781 33.378906 44.40625 33.394531 44.132812 33.414062 Z M 36.9375 38.132812 C 36.929688 38.128906 36.921875 38.128906 36.917969 38.125 C 36.910156 38.121094 36.910156 38.113281 36.902344 38.109375 L 36.421875 37.808594 C 36.203125 37.675781 36.054688 37.464844 35.996094 37.214844 C 35.9375 36.96875 35.980469 36.710938 36.113281 36.496094 C 36.390625 36.046875 36.980469 35.910156 37.425781 36.1875 L 37.972656 36.53125 L 38.566406 36.988281 C 38.980469 37.316406 39.050781 37.917969 38.722656 38.328125 C 38.566406 38.53125 38.339844 38.65625 38.085938 38.6875 C 37.832031 38.714844 37.582031 38.644531 37.382812 38.484375 Z M 31.203125 49.71875 L 15.175781 49.71875 L 15.175781 41.332031 L 25.601562 41.363281 C 26.371094 41.695312 27.179688 41.929688 28.007812 42.054688 C 28.113281 42.070312 28.222656 42.042969 28.300781 41.972656 C 28.382812 41.902344 28.429688 41.800781 28.433594 41.695312 L 28.4375 41.128906 C 28.441406 40.601562 28.859375 40.171875 29.402344 40.183594 C 29.929688 40.1875 30.351562 40.621094 30.347656 41.144531 L 30.339844 41.71875 C 30.339844 41.824219 30.386719 41.925781 30.464844 41.996094 C 30.535156 42.054688 30.621094 42.089844 30.710938 42.089844 C 30.726562 42.089844 30.742188 42.085938 30.757812 42.085938 C 30.90625 42.066406 31.054688 42.039062 31.203125 42.015625 Z M 35.277344 39.28125 L 35.230469 39.199219 C 35.011719 38.804688 34.648438 38.519531 34.214844 38.394531 C 33.78125 38.273438 33.324219 38.328125 32.929688 38.546875 C 32.113281 39 31.820312 40.035156 32.277344 40.847656 L 32.34375 40.96875 C 31.929688 41.105469 31.507812 41.210938 31.082031 41.289062 L 31.085938 41.152344 C 31.09375 40.21875 30.34375 39.453125 29.410156 39.445312 C 29.402344 39.445312 29.398438 39.445312 29.390625 39.445312 C 28.46875 39.445312 27.710938 40.191406 27.699219 41.121094 L 27.699219 41.253906 C 27.195312 41.152344 26.699219 41.007812 26.214844 40.820312 L 26.285156 40.710938 C 26.777344 39.917969 26.535156 38.871094 25.742188 38.378906 C 25.359375 38.140625 24.90625 38.066406 24.464844 38.167969 C 24.023438 38.269531 23.652344 38.539062 23.414062 38.921875 L 23.34375 39.035156 C 23.054688 38.769531 22.78125 38.488281 22.53125 38.1875 L 22.648438 38.121094 C 22.832031 38.019531 23.277344 37.714844 23.453125 37.105469 C 23.628906 36.480469 23.382812 35.964844 23.300781 35.820312 C 23.082031 35.425781 22.71875 35.140625 22.285156 35.015625 C 21.851562 34.894531 21.394531 34.949219 21 35.167969 L 20.882812 35.234375 C 20.757812 34.863281 20.660156 34.480469 20.585938 34.097656 L 20.71875 34.097656 C 21.648438 34.09375 22.40625 33.332031 22.402344 32.402344 C 22.402344 32.402344 22.402344 32.402344 22.402344 32.398438 C 22.402344 31.945312 22.222656 31.523438 21.902344 31.203125 C 21.585938 30.886719 21.160156 30.714844 20.710938 30.714844 C 20.710938 30.714844 20.707031 30.714844 20.707031 30.714844 L 20.570312 30.714844 C 20.667969 30.207031 20.804688 29.707031 20.984375 29.226562 L 21.097656 29.292969 C 21.894531 29.777344 22.9375 29.515625 23.417969 28.71875 C 23.902344 27.917969 23.640625 26.875 22.84375 26.394531 L 22.726562 26.324219 C 23.015625 26.003906 23.328125 25.699219 23.660156 25.421875 L 23.726562 25.539062 C 24.183594 26.355469 25.214844 26.648438 26.03125 26.191406 C 26.425781 25.972656 26.710938 25.613281 26.832031 25.175781 C 26.957031 24.742188 26.902344 24.285156 26.683594 23.890625 L 26.617188 23.773438 C 26.988281 23.652344 27.367188 23.550781 27.75 23.476562 L 27.753906 23.609375 C 27.757812 24.539062 28.515625 25.296875 29.445312 25.296875 C 29.445312 25.296875 29.449219 25.296875 29.453125 25.296875 C 29.902344 25.292969 30.328125 25.117188 30.644531 24.792969 C 30.964844 24.472656 31.136719 24.046875 31.136719 23.597656 L 31.136719 23.46875 C 31.644531 23.5625 32.140625 23.699219 32.621094 23.875 L 32.554688 23.988281 C 32.320312 24.375 32.253906 24.828125 32.363281 25.269531 C 32.472656 25.707031 32.746094 26.078125 33.132812 26.308594 C 33.519531 26.542969 33.972656 26.613281 34.414062 26.503906 C 34.851562 26.394531 35.222656 26.121094 35.453125 25.734375 L 35.523438 25.621094 C 35.847656 25.910156 36.148438 26.222656 36.425781 26.554688 L 36.308594 26.617188 C 35.496094 27.074219 35.203125 28.105469 35.65625 28.921875 C 36.113281 29.734375 37.144531 30.027344 37.960938 29.574219 L 38.074219 29.507812 C 38.210938 29.917969 38.320312 30.335938 38.394531 30.765625 L 38.261719 30.765625 C 38.257812 30.765625 38.25 30.765625 38.246094 30.765625 C 37.800781 30.765625 37.378906 30.9375 37.0625 31.25 C 36.738281 31.566406 36.558594 31.988281 36.554688 32.441406 C 36.550781 32.890625 36.722656 33.320312 37.039062 33.640625 C 37.355469 33.964844 37.777344 34.144531 38.230469 34.148438 L 38.328125 34.148438 L 37.949219 35.644531 L 37.820312 35.5625 C 37.027344 35.070312 35.980469 35.3125 35.488281 36.105469 C 35.25 36.488281 35.175781 36.941406 35.277344 37.382812 C 35.382812 37.824219 35.648438 38.199219 36.03125 38.4375 L 36.109375 38.484375 Z M 51.617188 37.351562 L 51.699219 37.246094 C 51.984375 37.570312 52.242188 37.917969 52.476562 38.285156 L 52.355469 38.335938 C 51.488281 38.683594 51.066406 39.671875 51.414062 40.535156 C 51.585938 40.957031 51.90625 41.285156 52.324219 41.460938 C 52.738281 41.640625 53.199219 41.644531 53.617188 41.476562 L 53.738281 41.425781 C 53.835938 41.929688 53.890625 42.441406 53.90625 42.960938 L 53.777344 42.9375 C 53.332031 42.863281 52.882812 42.96875 52.515625 43.230469 C 52.148438 43.496094 51.90625 43.886719 51.832031 44.332031 C 51.679688 45.253906 52.304688 46.125 53.226562 46.277344 L 53.355469 46.300781 C 53.222656 46.667969 53.0625 47.023438 52.882812 47.371094 L 52.777344 47.289062 C 52.421875 47.007812 51.984375 46.882812 51.53125 46.933594 C 51.082031 46.988281 50.679688 47.210938 50.402344 47.566406 C 49.820312 48.296875 49.945312 49.363281 50.679688 49.945312 L 50.785156 50.027344 C 50.457031 50.3125 50.109375 50.570312 49.742188 50.804688 L 49.691406 50.679688 C 49.523438 50.261719 49.203125 49.929688 48.785156 49.753906 C 48.371094 49.578125 47.910156 49.574219 47.492188 49.742188 C 46.625 50.089844 46.203125 51.078125 46.554688 51.941406 L 46.601562 52.066406 C 46.097656 52.164062 45.582031 52.222656 45.066406 52.234375 L 45.089844 52.101562 C 45.242188 51.183594 44.617188 50.308594 43.695312 50.15625 C 43.601562 50.140625 43.511719 50.132812 43.417969 50.132812 C 43.066406 50.132812 42.726562 50.242188 42.4375 50.449219 C 42.066406 50.714844 41.824219 51.105469 41.75 51.550781 L 41.730469 51.683594 C 41.363281 51.546875 41.003906 51.386719 40.65625 51.207031 L 40.738281 51.101562 C 41.316406 50.371094 41.195312 49.304688 40.460938 48.726562 C 39.730469 48.148438 38.664062 48.269531 38.085938 49.003906 L 38.003906 49.109375 C 37.746094 48.8125 37.507812 48.5 37.292969 48.171875 L 37.417969 48.121094 C 38.277344 47.761719 38.683594 46.769531 38.324219 45.90625 C 37.964844 45.046875 36.972656 44.640625 36.109375 45 L 35.988281 45.050781 C 35.882812 44.546875 35.816406 44.035156 35.796875 43.519531 L 35.929688 43.539062 C 36.375 43.605469 36.824219 43.496094 37.1875 43.226562 C 37.550781 42.960938 37.789062 42.566406 37.855469 42.117188 C 37.921875 41.671875 37.8125 41.226562 37.542969 40.859375 C 37.277344 40.496094 36.882812 40.257812 36.433594 40.191406 L 36.34375 40.179688 L 36.855469 39.007812 L 36.925781 39.0625 C 37.277344 39.34375 37.722656 39.46875 38.171875 39.417969 C 38.621094 39.367188 39.023438 39.140625 39.300781 38.785156 C 39.878906 38.054688 39.753906 36.988281 39.019531 36.40625 L 38.828125 36.257812 L 39.855469 35.617188 L 39.90625 35.742188 C 40.078125 36.160156 40.40625 36.480469 40.824219 36.652344 C 41.242188 36.824219 41.703125 36.824219 42.121094 36.648438 C 42.535156 36.476562 42.859375 36.148438 43.03125 35.730469 C 43.203125 35.3125 43.203125 34.851562 43.027344 34.433594 L 42.976562 34.316406 C 43.484375 34.210938 43.996094 34.144531 44.507812 34.125 L 44.488281 34.253906 C 44.347656 35.175781 44.984375 36.039062 45.910156 36.179688 C 46.835938 36.324219 47.695312 35.683594 47.835938 34.761719 L 47.855469 34.628906 C 48.265625 34.773438 48.664062 34.945312 49.046875 35.144531 L 48.964844 35.25 C 48.683594 35.605469 48.558594 36.046875 48.609375 36.496094 C 48.660156 36.945312 48.886719 37.347656 49.242188 37.628906 C 49.972656 38.207031 51.039062 38.082031 51.617188 37.351562 Z M 51.617188 37.351562 " fill-opacity="1" fill-rule="nonzero"/></g></svg>