<svg width="151" height="57" xmlns="http://www.w3.org/2000/svg" overflow="hidden">
    <defs>
        <clipPath id="clip0">
            <rect x="496" y="312" width="151" height="57"/>
        </clipPath>
        <clipPath id="clip1">
            <rect x="513" y="312" width="40" height="29"/>
        </clipPath>
        <clipPath id="clip2">
            <rect x="504" y="321" width="39" height="29"/>
        </clipPath>
        <clipPath id="clip3">
            <rect x="513" y="330" width="40" height="29"/>
        </clipPath>
        <clipPath id="clip4">
            <rect x="504" y="340" width="39" height="28"/>
        </clipPath>
    </defs>
    <g clip-path="url(#clip0)" transform="translate(-496 -312)">
        <g clip-path="url(#clip1)">
            <path d="M68.3601 96.5022C67.0615 96.5022 66.6228 96.3201 62.5645 93.9532 61.4304 93.2973 60.0419 92.4966 58.3221 91.5139 60.0419 90.5509 61.4129 89.7502 62.547 89.0943 66.66 86.7296 67.0988 86.5278 68.3601 86.5278 71.1219 86.5278 73.3528 88.7675 73.3704 91.5336 73.3528 94.2801 71.1043 96.5022 68.3601 96.5022ZM81.9277 91.5336C81.9277 91.5336 81.9277 91.4963 81.9277 91.4788 81.908 84.0533 75.8206 78.0296 68.3601 78.0296 64.5937 78.0296 62.6567 79.1396 56.951 82.452 54.2463 84.0161 50.5347 86.1636 45.1756 89.057 44.2806 89.5484 43.7125 90.4763 43.7125 91.5139 43.7125 92.5339 44.2806 93.4794 45.1756 93.9707 50.6071 96.9014 54.3538 99.0666 57.0805 100.65 62.8936 104.018 64.6485 105.018 68.3777 105.018 75.8382 105.018 81.9277 98.9591 81.9277 91.5336"
                  fill="#FFC107" transform="matrix(1.00232 0 0 1 470.327 234.722)"/>
        </g>
        <g clip-path="url(#clip2)">
            <path d="M47.2245 95.7542C48.5231 95.7542 48.9618 95.9362 53.0376 98.3032 54.1717 98.9591 55.5625 99.7575 57.2801 100.723 55.5625 101.688 54.1915 102.471 53.0573 103.145 48.9421 105.509 48.5034 105.709 47.242 105.709 44.4802 105.709 42.2515 103.471 42.2515 100.705 42.2318 97.9741 44.4802 95.7542 47.2245 95.7542ZM58.6336 109.804C61.3383 108.24 65.0499 106.093 70.409 103.18 71.304 102.688 71.8721 101.76 71.8721 100.723 71.8721 99.7049 71.304 98.7573 70.409 98.2659 64.9775 95.3352 61.2484 93.1701 58.5239 91.5885 52.7086 88.2212 50.9537 87.2188 47.2245 87.2188 39.7464 87.2188 33.6569 93.2798 33.6569 100.705L33.6569 100.742C33.6766 108.166 39.7639 114.192 47.2245 114.192 50.9909 114.227 52.9104 113.117 58.6336 109.804"
                  fill="#FFDF82" transform="matrix(1.00232 0 0 1 470.327 234.722)"/>
        </g>
        <g clip-path="url(#clip3)">
            <path d="M68.3601 114.935C67.0615 114.935 66.6228 114.753 62.5645 112.388 61.4304 111.735 60.0419 110.934 58.3221 109.949 60.0419 108.986 61.4129 108.185 62.547 107.53 66.66 105.163 67.0988 104.963 68.3601 104.963 71.1219 104.963 73.3528 107.203 73.3704 109.969 73.3528 112.735 71.1043 114.935 68.3601 114.935ZM81.9277 109.969C81.9277 109.969 81.9277 109.932 81.9277 109.914 81.908 102.489 75.8206 96.4649 68.3601 96.4649 64.5937 96.4649 62.6567 97.5749 56.951 100.887 54.2463 102.451 50.5347 104.599 45.1756 107.492 44.2806 107.984 43.7125 108.914 43.7125 109.949 43.7125 110.969 44.2806 111.915 45.1756 112.406 50.6071 115.337 54.3538 117.502 57.0805 119.086 62.8936 122.453 64.6485 123.453 68.3777 123.453 75.8382 123.473 81.9277 117.412 81.9277 109.969"
                  fill="#FB8B00" transform="matrix(1.00232 0 0 1 470.327 234.722)"/>
        </g>
        <g clip-path="url(#clip4)">
            <path d="M47.2245 114.227C48.5231 114.227 48.9618 114.409 53.0376 116.776 54.1717 117.429 55.5625 118.23 57.2801 119.195 55.58 120.161 54.1915 120.941 53.0573 121.597 48.9421 123.964 48.5034 124.164 47.242 124.164 44.4802 124.164 42.2515 121.924 42.2515 119.158 42.2318 116.447 44.4802 114.227 47.2245 114.227ZM58.6336 128.277C61.3383 126.711 65.0499 124.563 70.409 121.652 71.304 121.161 71.8721 120.233 71.8721 119.195 71.8721 118.175 71.304 117.23 70.409 116.738 64.9775 113.79 61.2308 111.643 58.5041 110.059 52.691 106.694 50.9361 105.691 47.2069 105.691 39.7464 105.709 33.6569 111.77 33.6569 119.195L33.6569 119.233C33.6766 126.656 39.7639 132.68 47.2245 132.68 50.9909 132.699 52.9104 131.589 58.6336 128.277"
                  fill="#FFCA28" transform="matrix(1.00232 0 0 1 470.327 234.722)"/>
        </g>
        <path d="M7.16659-4.33242 4.29952-4.33242 5.73415-8.36651ZM11.4003 0 6.80026-11.3323 4.6834-11.3323 0.0833583 0 2.76617 0 3.5822-2.28357 7.89926-2.28357 8.71529 0Z"
              fill="#535353" transform="matrix(1.00232 0 0 1 565.513 345.703)"/>
        <path d="M9.75069-5.6837C9.75069-3.93318 8.16689-2.33402 6.41637-2.33402 4.66585-2.33402 3.08424-3.93318 3.08424-5.6837 3.08424-7.43202 4.66585-9.01582 6.41637-9.01582 8.16689-9.01582 9.75069-7.43202 9.75069-5.6837ZM10.332-1.41709C11.499-2.48319 12.2492-4.01654 12.2492-5.66615 12.2492-8.79865 9.54887-11.499 6.41637-11.499 3.28386-11.499 0.583506-8.79865 0.583506-5.66615 0.583506-2.53364 3.28386 0.166716 6.41637 0.166716 6.86606 0.166716 7.31576 0.116262 7.7501 0L12.9161 0 12.9161-1.98304 11.567-1.98304Z"
              fill="#535353" transform="matrix(1.00232 0 0 1 579.526 345.703)"/>
        <path d="M7.61629-11.3323 7.61629-4.78211C7.61629-3.21586 7.14904-2.33402 5.43362-2.33402 3.73356-2.33402 3.25096-3.21586 3.25096-4.78211L3.25096-11.3323 0.750222-11.3323 0.750222-4.41578C0.750222-1.39954 2.48319 0.166716 5.43362 0.166716 8.38406 0.166716 10.117-1.39954 10.117-4.41578L10.117-11.3323Z"
              fill="#535353" transform="matrix(1.00232 0 0 1 594.993 345.703)"/>
        <path d="M3.49884 0 3.49884-11.3323 1.0003-11.3323 1.0003 0Z" fill="#535353"
              transform="matrix(1.00232 0 0 1 608.388 345.703)"/>
        <path d="M1.0003 0 7.56583 0 7.56583-2.26602 3.49884-2.26602 3.49884-11.3323 1.0003-11.3323Z" fill="#535353"
              transform="matrix(1.00232 0 0 1 615.403 345.703)"/>
        <path d="M7.16659-4.33242 4.29952-4.33242 5.73415-8.36651ZM11.4003 0 6.80026-11.3323 4.6834-11.3323 0.0833583 0 2.76617 0 3.5822-2.28357 7.89926-2.28357 8.71529 0Z"
              fill="#535353" transform="matrix(1.00232 0 0 1 626.076 345.703)"/>
    </g>
</svg>