<svg xmlns="http://www.w3.org/2000/svg" xmlns:xlink="http://www.w3.org/1999/xlink" width="500" zoomAndPan="magnify" viewBox="0 0 375 374.999991" height="500" preserveAspectRatio="xMidYMid meet" version="1.0"><defs><g/><clipPath id="id1"><path d="M 21 117.503906 L 103.855469 117.503906 L 103.855469 176 L 21 176 Z M 21 117.503906 " clip-rule="nonzero"/></clipPath><clipPath id="id2"><path d="M 21 157 L 103.855469 157 L 103.855469 216 L 21 216 Z M 21 157 " clip-rule="nonzero"/></clipPath><clipPath id="id3"><path d="M 0.0507812 177.140625 L 82.1875 177.140625 L 82.1875 235.324219 L 0.0507812 235.324219 Z M 0.0507812 177.140625 " clip-rule="nonzero"/></clipPath></defs><g clip-path="url(#id1)"><path fill="#ffc107" d="M 74.644531 157.328125 C 71.851562 157.328125 70.910156 156.933594 62.183594 151.835938 C 59.746094 150.421875 56.761719 148.695312 53.066406 146.578125 C 56.761719 144.5 59.707031 142.773438 62.144531 141.359375 C 70.988281 136.257812 71.929688 135.828125 74.644531 135.828125 C 80.574219 135.828125 85.371094 140.652344 85.410156 146.617188 C 85.371094 152.542969 80.539062 157.328125 74.644531 157.328125 Z M 103.800781 146.617188 C 103.800781 146.617188 103.800781 146.539062 103.800781 146.5 C 103.761719 130.492188 90.675781 117.503906 74.644531 117.503906 C 66.546875 117.503906 62.382812 119.898438 50.117188 127.039062 C 44.304688 130.414062 36.324219 135.042969 24.8125 141.28125 C 22.886719 142.339844 21.667969 144.339844 21.667969 146.578125 C 21.667969 148.773438 22.886719 150.8125 24.8125 151.875 C 36.480469 158.191406 44.539062 162.859375 50.394531 166.273438 C 62.890625 173.53125 66.664062 175.6875 74.679688 175.6875 C 90.714844 175.6875 103.800781 162.625 103.800781 146.617188 " fill-opacity="1" fill-rule="nonzero"/></g><path fill="#ffe082" d="M 29.210938 155.71875 C 32.003906 155.71875 32.945312 156.109375 41.710938 161.210938 C 44.144531 162.625 47.132812 164.351562 50.828125 166.429688 C 47.132812 168.507812 44.1875 170.195312 41.75 171.648438 C 32.90625 176.75 31.964844 177.179688 29.25 177.179688 C 23.316406 177.179688 18.523438 172.355469 18.523438 166.390625 C 18.484375 160.503906 23.316406 155.71875 29.210938 155.71875 Z M 53.734375 186.007812 C 59.550781 182.632812 67.527344 178.003906 79.042969 171.726562 C 80.96875 170.667969 82.1875 168.664062 82.1875 166.429688 C 82.1875 164.230469 80.96875 162.191406 79.042969 161.132812 C 67.371094 154.816406 59.355469 150.148438 53.5 146.734375 C 41 139.476562 37.230469 137.320312 29.210938 137.320312 C 13.140625 137.320312 0.0507812 150.382812 0.0507812 166.390625 L 0.0507812 166.46875 C 0.09375 182.476562 13.175781 195.460938 29.210938 195.460938 C 37.308594 195.539062 41.433594 193.148438 53.734375 186.007812 " fill-opacity="1" fill-rule="nonzero"/><g clip-path="url(#id2)"><path fill="#fb8c00" d="M 74.644531 197.070312 C 71.851562 197.070312 70.910156 196.679688 62.183594 191.578125 C 59.746094 190.164062 56.761719 188.441406 53.066406 186.320312 C 56.761719 184.242188 59.707031 182.515625 62.144531 181.101562 C 70.988281 176.003906 71.929688 175.570312 74.644531 175.570312 C 80.574219 175.570312 85.371094 180.398438 85.410156 186.359375 C 85.371094 192.324219 80.539062 197.070312 74.644531 197.070312 Z M 103.800781 186.359375 C 103.800781 186.359375 103.800781 186.28125 103.800781 186.242188 C 103.761719 170.234375 90.675781 157.25 74.644531 157.25 C 66.546875 157.25 62.382812 159.640625 50.117188 166.78125 C 44.304688 170.15625 36.324219 174.785156 24.8125 181.023438 C 22.886719 182.082031 21.667969 184.085938 21.667969 186.320312 C 21.667969 188.519531 22.886719 190.558594 24.8125 191.617188 C 36.480469 197.933594 44.539062 202.601562 50.394531 206.015625 C 62.890625 213.273438 66.664062 215.433594 74.679688 215.433594 C 90.714844 215.472656 103.800781 202.40625 103.800781 186.359375 " fill-opacity="1" fill-rule="nonzero"/></g><g clip-path="url(#id3)"><path fill="#ffca28" d="M 29.210938 195.539062 C 32.003906 195.539062 32.945312 195.933594 41.710938 201.035156 C 44.144531 202.445312 47.132812 204.171875 50.828125 206.25 C 47.171875 208.332031 44.1875 210.015625 41.75 211.429688 C 32.90625 216.53125 31.964844 216.960938 29.25 216.960938 C 23.316406 216.960938 18.523438 212.136719 18.523438 206.171875 C 18.484375 200.328125 23.316406 195.539062 29.210938 195.539062 Z M 53.734375 225.828125 C 59.550781 222.457031 67.527344 217.824219 79.042969 211.546875 C 80.96875 210.488281 82.1875 208.488281 82.1875 206.25 C 82.1875 204.054688 80.96875 202.015625 79.042969 200.957031 C 67.371094 194.601562 59.316406 189.96875 53.460938 186.558594 C 40.964844 179.296875 37.191406 177.140625 29.171875 177.140625 C 13.140625 177.179688 0.0507812 190.242188 0.0507812 206.25 L 0.0507812 206.328125 C 0.09375 222.335938 13.175781 235.324219 29.210938 235.324219 C 37.308594 235.363281 41.433594 232.96875 53.734375 225.828125 " fill-opacity="1" fill-rule="nonzero"/></g><g fill="#545454" fill-opacity="1"><g transform="translate(116.123471, 196.678394)"><g><path d="M 24.695312 -14.933594 L 14.816406 -14.933594 L 19.757812 -28.832031 Z M 39.285156 0 L 23.433594 -39.054688 L 16.140625 -39.054688 L 0.289062 0 L 9.535156 0 L 12.347656 -7.867188 L 27.222656 -7.867188 L 30.039062 0 Z M 39.285156 0 "/></g></g></g><g fill="#545454" fill-opacity="1"><g transform="translate(164.304002, 196.678394)"><g><path d="M 33.597656 -19.585938 C 33.597656 -13.554688 28.144531 -8.039062 22.113281 -8.039062 C 16.082031 -8.039062 10.625 -13.554688 10.625 -19.585938 C 10.625 -25.617188 16.082031 -31.070312 22.113281 -31.070312 C 28.144531 -31.070312 33.597656 -25.617188 33.597656 -19.585938 Z M 35.609375 -4.882812 C 39.628906 -8.558594 42.214844 -13.839844 42.214844 -19.527344 C 42.214844 -30.324219 32.910156 -39.628906 22.113281 -39.628906 C 11.316406 -39.628906 2.011719 -30.324219 2.011719 -19.527344 C 2.011719 -8.730469 11.316406 0.574219 22.113281 0.574219 C 23.664062 0.574219 25.214844 0.402344 26.707031 0 L 44.511719 0 L 44.511719 -6.835938 L 39.859375 -6.835938 Z M 35.609375 -4.882812 "/></g></g></g><g fill="#545454" fill-opacity="1"><g transform="translate(217.480322, 196.678394)"><g><path d="M 26.246094 -39.054688 L 26.246094 -16.484375 C 26.246094 -11.085938 24.640625 -8.039062 18.722656 -8.039062 C 12.867188 -8.039062 11.199219 -11.085938 11.199219 -16.484375 L 11.199219 -39.054688 L 2.585938 -39.054688 L 2.585938 -15.21875 C 2.585938 -4.824219 8.558594 0.574219 18.722656 0.574219 C 28.890625 0.574219 34.863281 -4.824219 34.863281 -15.21875 L 34.863281 -39.054688 Z M 26.246094 -39.054688 "/></g></g></g><g fill="#545454" fill-opacity="1"><g transform="translate(263.536215, 196.678394)"><g><path d="M 12.0625 0 L 12.0625 -39.054688 L 3.445312 -39.054688 L 3.445312 0 Z M 12.0625 0 "/></g></g></g><g fill="#545454" fill-opacity="1"><g transform="translate(287.65661, 196.678394)"><g><path d="M 3.445312 0 L 26.074219 0 L 26.074219 -7.8125 L 12.0625 -7.8125 L 12.0625 -39.054688 L 3.445312 -39.054688 Z M 3.445312 0 "/></g></g></g><g fill="#545454" fill-opacity="1"><g transform="translate(324.352595, 196.678394)"><g><path d="M 24.695312 -14.933594 L 14.816406 -14.933594 L 19.757812 -28.832031 Z M 39.285156 0 L 23.433594 -39.054688 L 16.140625 -39.054688 L 0.289062 0 L 9.535156 0 L 12.347656 -7.867188 L 27.222656 -7.867188 L 30.039062 0 Z M 39.285156 0 "/></g></g></g></svg>