<?xml version="1.0" encoding="UTF-8"?>
<svg xmlns="http://www.w3.org/2000/svg" contentScriptType="text/ecmascript" width="375" zoomAndPan="magnify"
     contentStyleType="text/css" viewBox="0 0 375 374.999991" height="374.999991" preserveAspectRatio="xMidYMid meet"
     version="1.0">
    <defs>
        <clipPath id="clip-0">
            <path d="M 97 12.089844 L 342 12.089844 L 342 186 L 97 186 Z M 97 12.089844 " clip-rule="nonzero"/>
        </clipPath>
        <clipPath id="clip-1">
            <path d="M 33.136719 71 L 278 71 L 278 245 L 33.136719 245 Z M 33.136719 71 " clip-rule="nonzero"/>
        </clipPath>
        <clipPath id="clip-2">
            <path d="M 33.292969 189.75 L 277.671875 189.75 L 277.671875 363.089844 L 33.292969 363.089844 Z M 33.292969 189.75 "
                  clip-rule="nonzero"/>
        </clipPath>
    </defs>
    <g clip-path="url(#clip-0)">
        <path fill="rgb(100%, 75.689697%, 2.749634%)"
              d="M 255.222656 130.726562 C 246.917969 130.726562 244.113281 129.554688 218.15625 114.363281 C 210.90625 110.152344 202.019531 105.011719 191.027344 98.695312 C 202.019531 92.503906 210.789062 87.359375 218.039062 83.15625 C 244.347656 67.960938 247.152344 66.671875 255.222656 66.671875 C 272.875 66.671875 287.144531 81.050781 287.257812 98.816406 C 287.144531 116.464844 272.761719 130.726562 255.222656 130.726562 Z M 341.980469 98.816406 C 341.980469 98.816406 341.980469 98.582031 341.980469 98.464844 C 341.863281 50.773438 302.929688 12.089844 255.222656 12.089844 C 231.132812 12.089844 218.742188 19.214844 182.257812 40.492188 C 164.957031 50.542969 141.21875 64.335938 106.957031 82.917969 C 101.230469 86.078125 97.605469 92.035156 97.605469 98.695312 C 97.605469 105.242188 101.230469 111.320312 106.957031 114.476562 C 141.683594 133.296875 165.65625 147.203125 183.078125 157.375 C 220.257812 179 231.484375 185.425781 255.335938 185.425781 C 303.042969 185.425781 341.980469 146.503906 341.980469 98.816406 "
              fill-opacity="1" fill-rule="nonzero"/>
    </g>
    <g clip-path="url(#clip-1)">
        <path fill="rgb(100%, 87.838745%, 50.979614%)"
              d="M 120.054688 125.929688 C 128.355469 125.929688 131.160156 127.101562 157.238281 142.292969 C 164.484375 146.503906 173.375 151.644531 184.363281 157.839844 C 173.375 164.035156 164.605469 169.0625 157.355469 173.386719 C 131.046875 188.582031 128.238281 189.863281 120.171875 189.863281 C 102.515625 189.863281 88.25 175.492188 88.25 157.722656 C 88.132812 140.191406 102.515625 125.929688 120.054688 125.929688 Z M 193.019531 216.164062 C 210.320312 206.113281 234.058594 192.320312 268.316406 173.621094 C 274.046875 170.464844 277.671875 164.503906 277.671875 157.839844 C 277.671875 151.292969 274.046875 145.214844 268.316406 142.0625 C 233.589844 123.242188 209.734375 109.335938 192.316406 99.167969 C 155.132812 77.542969 143.910156 71.113281 120.054688 71.113281 C 72.230469 71.113281 33.292969 110.039062 33.292969 157.722656 L 33.292969 157.960938 C 33.414062 205.644531 72.347656 244.335938 120.054688 244.335938 C 144.140625 244.566406 156.417969 237.441406 193.019531 216.164062 "
              fill-opacity="1" fill-rule="nonzero"/>
    </g>
    <path fill="rgb(98.429871%, 54.899597%, 0%)"
          d="M 255.222656 249.125 C 246.917969 249.125 244.113281 247.957031 218.15625 232.765625 C 210.90625 228.554688 202.019531 223.414062 191.027344 217.101562 C 202.019531 210.902344 210.789062 205.761719 218.039062 201.554688 C 244.347656 186.359375 247.152344 185.074219 255.222656 185.074219 C 272.875 185.074219 287.144531 199.453125 287.257812 217.21875 C 287.144531 234.984375 272.761719 249.125 255.222656 249.125 Z M 341.980469 217.21875 C 341.980469 217.21875 341.980469 216.984375 341.980469 216.867188 C 341.863281 169.179688 302.929688 130.492188 255.222656 130.492188 C 231.132812 130.492188 218.742188 137.621094 182.257812 158.890625 C 164.957031 168.945312 141.21875 182.738281 106.957031 201.320312 C 101.230469 204.476562 97.605469 210.4375 97.605469 217.101562 C 97.605469 223.648438 101.230469 229.722656 106.957031 232.878906 C 141.683594 251.699219 165.65625 265.605469 183.078125 275.773438 C 220.257812 297.398438 231.484375 303.828125 255.335938 303.828125 C 303.042969 303.945312 341.980469 265.023438 341.980469 217.21875 "
          fill-opacity="1" fill-rule="nonzero"/>
    <g clip-path="url(#clip-2)">
        <path fill="rgb(100%, 79.219055%, 15.689087%)"
              d="M 120.054688 244.566406 C 128.355469 244.566406 131.160156 245.734375 157.238281 260.929688 C 164.484375 265.140625 173.375 270.28125 184.363281 276.476562 C 173.488281 282.671875 164.605469 287.695312 157.355469 291.90625 C 131.046875 307.101562 128.238281 308.386719 120.171875 308.386719 C 102.515625 308.386719 88.25 294.011719 88.25 276.246094 C 88.132812 258.828125 102.515625 244.566406 120.054688 244.566406 Z M 193.019531 334.800781 C 210.320312 324.75 234.058594 310.957031 268.316406 292.257812 C 274.046875 289.101562 277.671875 283.140625 277.671875 276.476562 C 277.671875 269.929688 274.046875 263.851562 268.316406 260.699219 C 233.589844 241.765625 209.621094 227.972656 192.195312 217.804688 C 155.015625 196.179688 143.789062 189.75 119.9375 189.75 C 72.230469 189.863281 33.292969 228.789062 33.292969 276.476562 L 33.292969 276.710938 C 33.414062 324.398438 72.347656 363.085938 120.054688 363.085938 C 144.140625 363.203125 156.417969 356.078125 193.019531 334.800781 "
              fill-opacity="1" fill-rule="nonzero"/>
    </g>
</svg>