<svg xmlns="http://www.w3.org/2000/svg" xmlns:xlink="http://www.w3.org/1999/xlink" width="500" zoomAndPan="magnify" viewBox="0 0 375 149.999998" height="200" preserveAspectRatio="xMidYMid meet" version="1.0"><defs><g/><clipPath id="id1"><path d="M 21 15 L 103.855469 15 L 103.855469 74 L 21 74 Z M 21 15 " clip-rule="nonzero"/></clipPath><clipPath id="id2"><path d="M 21 54 L 103.855469 54 L 103.855469 113 L 21 113 Z M 21 54 " clip-rule="nonzero"/></clipPath><clipPath id="id3"><path d="M 0.0507812 74.636719 L 82.1875 74.636719 L 82.1875 132.816406 L 0.0507812 132.816406 Z M 0.0507812 74.636719 " clip-rule="nonzero"/></clipPath></defs><g clip-path="url(#id1)"><path fill="#ffc107" d="M 74.644531 54.820312 C 71.851562 54.820312 70.910156 54.429688 62.183594 49.328125 C 59.746094 47.917969 56.761719 46.191406 53.066406 44.070312 C 56.761719 41.992188 59.707031 40.265625 62.144531 38.855469 C 70.988281 33.753906 71.929688 33.320312 74.644531 33.320312 C 80.574219 33.320312 85.371094 38.148438 85.410156 44.109375 C 85.371094 50.035156 80.539062 54.820312 74.644531 54.820312 Z M 103.800781 44.109375 C 103.800781 44.109375 103.800781 44.03125 103.800781 43.992188 C 103.761719 27.984375 90.675781 15 74.644531 15 C 66.546875 15 62.382812 17.390625 50.117188 24.535156 C 44.304688 27.90625 36.324219 32.535156 24.8125 38.773438 C 22.886719 39.835938 21.667969 41.835938 21.667969 44.070312 C 21.667969 46.269531 22.886719 48.308594 24.8125 49.367188 C 36.480469 55.683594 44.539062 60.351562 50.394531 63.769531 C 62.890625 71.027344 66.664062 73.183594 74.679688 73.183594 C 90.714844 73.183594 103.800781 60.117188 103.800781 44.109375 " fill-opacity="1" fill-rule="nonzero"/></g><path fill="#ffe082" d="M 29.210938 53.210938 C 32.003906 53.210938 32.945312 53.605469 41.710938 58.707031 C 44.144531 60.117188 47.132812 61.84375 50.828125 63.925781 C 47.132812 66.003906 44.1875 67.691406 41.75 69.140625 C 32.90625 74.242188 31.964844 74.671875 29.25 74.671875 C 23.316406 74.671875 18.523438 69.847656 18.523438 63.882812 C 18.484375 58 23.316406 53.210938 29.210938 53.210938 Z M 53.734375 83.5 C 59.550781 80.128906 67.527344 75.496094 79.042969 69.21875 C 80.96875 68.160156 82.1875 66.160156 82.1875 63.925781 C 82.1875 61.726562 80.96875 59.6875 79.042969 58.628906 C 67.371094 52.308594 59.355469 47.640625 53.5 44.230469 C 41 36.972656 37.230469 34.8125 29.210938 34.8125 C 13.140625 34.8125 0.0507812 47.878906 0.0507812 63.882812 L 0.0507812 63.964844 C 0.09375 79.96875 13.175781 92.957031 29.210938 92.957031 C 37.308594 93.035156 41.433594 90.640625 53.734375 83.5 " fill-opacity="1" fill-rule="nonzero"/><g clip-path="url(#id2)"><path fill="#fb8c00" d="M 74.644531 94.5625 C 71.851562 94.5625 70.910156 94.171875 62.183594 89.074219 C 59.746094 87.660156 56.761719 85.933594 53.066406 83.816406 C 56.761719 81.734375 59.707031 80.007812 62.144531 78.597656 C 70.988281 73.496094 71.929688 73.066406 74.644531 73.066406 C 80.574219 73.066406 85.371094 77.890625 85.410156 83.855469 C 85.371094 89.816406 80.539062 94.5625 74.644531 94.5625 Z M 103.800781 83.855469 C 103.800781 83.855469 103.800781 83.777344 103.800781 83.738281 C 103.761719 67.730469 90.675781 54.742188 74.644531 54.742188 C 66.546875 54.742188 62.382812 57.136719 50.117188 64.277344 C 44.304688 67.652344 36.324219 72.28125 24.8125 78.519531 C 22.886719 79.578125 21.667969 81.578125 21.667969 83.816406 C 21.667969 86.011719 22.886719 88.050781 24.8125 89.113281 C 36.480469 95.429688 44.539062 100.097656 50.394531 103.511719 C 62.890625 110.769531 66.664062 112.925781 74.679688 112.925781 C 90.714844 112.964844 103.800781 99.902344 103.800781 83.855469 " fill-opacity="1" fill-rule="nonzero"/></g><g clip-path="url(#id3)"><path fill="#ffca28" d="M 29.210938 93.035156 C 32.003906 93.035156 32.945312 93.425781 41.710938 98.527344 C 44.144531 99.941406 47.132812 101.667969 50.828125 103.746094 C 47.171875 105.824219 44.1875 107.511719 41.75 108.925781 C 32.90625 114.023438 31.964844 114.457031 29.25 114.457031 C 23.316406 114.457031 18.523438 109.632812 18.523438 103.667969 C 18.484375 97.820312 23.316406 93.035156 29.210938 93.035156 Z M 53.734375 123.324219 C 59.550781 119.949219 67.527344 115.320312 79.042969 109.042969 C 80.96875 107.984375 82.1875 105.980469 82.1875 103.746094 C 82.1875 101.546875 80.96875 99.507812 79.042969 98.449219 C 67.371094 92.09375 59.316406 87.464844 53.460938 84.050781 C 40.964844 76.792969 37.191406 74.636719 29.171875 74.636719 C 13.140625 74.671875 0.0507812 87.738281 0.0507812 103.746094 L 0.0507812 103.824219 C 0.09375 119.832031 13.175781 132.816406 29.210938 132.816406 C 37.308594 132.855469 41.433594 130.464844 53.734375 123.324219 " fill-opacity="1" fill-rule="nonzero"/></g><g fill="#545454" fill-opacity="1"><g transform="translate(141.061298, 90.974922)"><g><path d="M 20.828125 -12.59375 L 12.496094 -12.59375 L 16.660156 -24.3125 Z M 33.128906 0 L 19.761719 -32.9375 L 13.609375 -32.9375 L 0.242188 0 L 8.039062 0 L 10.414062 -6.636719 L 22.957031 -6.636719 L 25.332031 0 Z M 33.128906 0 "/></g></g></g><g fill="#545454" fill-opacity="1"><g transform="translate(181.69829, 90.974922)"><g><path d="M 28.335938 -16.515625 C 28.335938 -11.429688 23.734375 -6.78125 18.648438 -6.78125 C 13.5625 -6.78125 8.960938 -11.429688 8.960938 -16.515625 C 8.960938 -21.601562 13.5625 -26.203125 18.648438 -26.203125 C 23.734375 -26.203125 28.335938 -21.601562 28.335938 -16.515625 Z M 30.03125 -4.117188 C 33.421875 -7.21875 35.601562 -11.671875 35.601562 -16.46875 C 35.601562 -25.574219 27.753906 -33.421875 18.648438 -33.421875 C 9.542969 -33.421875 1.695312 -25.574219 1.695312 -16.46875 C 1.695312 -7.363281 9.542969 0.484375 18.648438 0.484375 C 19.957031 0.484375 21.261719 0.339844 22.523438 0 L 37.539062 0 L 37.539062 -5.765625 L 33.613281 -5.765625 Z M 30.03125 -4.117188 "/></g></g></g><g fill="#545454" fill-opacity="1"><g transform="translate(226.549008, 90.974922)"><g><path d="M 22.136719 -32.9375 L 22.136719 -13.902344 C 22.136719 -9.347656 20.777344 -6.78125 15.789062 -6.78125 C 10.847656 -6.78125 9.445312 -9.347656 9.445312 -13.902344 L 9.445312 -32.9375 L 2.179688 -32.9375 L 2.179688 -12.835938 C 2.179688 -4.070312 7.21875 0.484375 15.789062 0.484375 C 24.363281 0.484375 29.398438 -4.070312 29.398438 -12.835938 L 29.398438 -32.9375 Z M 22.136719 -32.9375 "/></g></g></g><g fill="#545454" fill-opacity="1"><g transform="translate(265.393956, 90.974922)"><g><path d="M 10.171875 0 L 10.171875 -32.9375 L 2.90625 -32.9375 L 2.90625 0 Z M 10.171875 0 "/></g></g></g><g fill="#545454" fill-opacity="1"><g transform="translate(285.737304, 90.974922)"><g><path d="M 2.90625 0 L 21.988281 0 L 21.988281 -6.585938 L 10.171875 -6.585938 L 10.171875 -32.9375 L 2.90625 -32.9375 Z M 2.90625 0 "/></g></g></g><g fill="#545454" fill-opacity="1"><g transform="translate(316.687596, 90.974922)"><g><path d="M 20.828125 -12.59375 L 12.496094 -12.59375 L 16.660156 -24.3125 Z M 33.128906 0 L 19.761719 -32.9375 L 13.609375 -32.9375 L 0.242188 0 L 8.039062 0 L 10.414062 -6.636719 L 22.957031 -6.636719 L 25.332031 0 Z M 33.128906 0 "/></g></g></g></svg>